<svg width="551" height="441" viewBox="0 0 551 441" fill="none" xmlns="http://www.w3.org/2000/svg">
<g clip-path="url(#clip0_65_62353)">
<rect width="550.44" height="440" transform="translate(0.440063 0.0551758)" fill="#E7CEFE"/>
<g clip-path="url(#clip1_65_62353)">
<rect width="593.896" height="916.297" transform="translate(-4.76428 -469.248)" fill="#B0B2EB"/>
<path fill-rule="evenodd" clip-rule="evenodd" d="M333.36 173.066H-116.404C-127.457 173.066 -136.417 182.027 -136.417 193.08C-136.417 204.133 -127.457 213.094 -116.404 213.094H-94.0366C-79.7325 213.094 -68.1367 224.689 -68.1367 238.994C-68.1367 253.298 -79.7325 264.894 -94.0366 264.894H-96.8327C-117.411 264.894 -133.502 283.916 -121.633 300.726C-106.969 321.495 -82.7789 335.059 -55.4213 335.059H333.36C378.093 335.059 414.356 298.795 414.356 254.063C414.356 209.33 378.093 173.066 333.36 173.066Z" fill="#A39EEB"/>
<rect x="-177.809" y="322.58" width="409.69" height="289.608" rx="64.7969" fill="#A39EEB"/>
<path fill-rule="evenodd" clip-rule="evenodd" d="M-112.119 1.79737C-112.119 -16.0958 -97.6139 -30.6011 -79.7207 -30.6011H202.146C220.039 -30.6011 234.544 -16.0958 234.544 1.79737C234.544 19.6905 220.039 34.1958 202.146 34.1958H172.987C164.04 34.1958 156.788 41.4485 156.788 50.3951C156.788 59.3417 164.04 66.5944 172.987 66.5944H231.305C267.091 66.5944 296.102 95.6049 296.102 131.391C296.102 167.178 267.091 196.188 231.305 196.188H-29.5025C-65.2888 196.188 -94.2994 167.178 -94.2994 131.391C-94.2994 95.6049 -65.2888 66.5944 -29.5025 66.5944C-24.1351 66.5944 -19.7839 62.2432 -19.7839 56.8758V50.3951C-19.7839 41.4485 -27.0366 34.1958 -35.9832 34.1958H-79.7207C-97.6138 34.1958 -112.119 19.6905 -112.119 1.79737Z" fill="#A39EEB"/>
<g opacity="0.7">
<path fill-rule="evenodd" clip-rule="evenodd" d="M462.262 574.236H911.79C922.974 574.236 932.04 565.17 932.04 553.986C932.04 542.803 922.974 533.737 911.79 533.737H835.653C813.734 533.737 795.965 515.968 795.965 494.049C795.965 472.13 813.734 454.361 835.653 454.361H864.672C890.526 454.361 903.851 426.584 879.666 417.446C870.766 414.084 861.12 412.244 851.043 412.244H462.262C417.529 412.244 381.266 448.507 381.266 493.24C381.266 537.973 417.529 574.236 462.262 574.236Z" fill="#A39EEB"/>
<path fill-rule="evenodd" clip-rule="evenodd" d="M907.742 253.493C907.742 271.386 893.237 285.891 875.344 285.891H593.477C575.584 285.891 561.079 271.386 561.079 253.493C561.079 235.599 575.584 221.094 593.477 221.094H622.636C631.583 221.094 638.835 213.842 638.835 204.895C638.835 195.948 631.583 188.696 622.636 188.696H564.318C528.532 188.696 499.521 159.685 499.521 123.899C499.521 88.1125 528.532 59.1019 564.318 59.1019H825.126C860.912 59.1019 889.922 88.1125 889.922 123.899C889.922 159.685 860.912 188.696 825.126 188.696C819.758 188.696 815.407 193.047 815.407 198.414V204.895C815.407 213.842 822.66 221.094 831.606 221.094H875.344C893.237 221.094 907.742 235.599 907.742 253.493Z" fill="#A39EEB"/>
<path fill-rule="evenodd" clip-rule="evenodd" d="M907.742 42.7295C907.742 60.6226 893.237 75.1279 875.344 75.1279H593.477C575.584 75.1279 561.079 60.6226 561.079 42.7295C561.079 24.8363 575.584 10.331 593.477 10.331H622.636C631.583 10.331 638.835 3.07838 638.835 -5.86823C638.835 -14.8148 631.583 -22.0675 622.636 -22.0675H564.318C528.532 -22.0675 499.521 -51.078 499.521 -86.8644C499.521 -122.651 528.532 -151.661 564.318 -151.661H825.126C860.912 -151.661 889.922 -122.651 889.922 -86.8644C889.922 -51.078 860.912 -22.0675 825.126 -22.0675C819.758 -22.0675 815.407 -17.7163 815.407 -12.3489V-5.86823C815.407 3.07837 822.66 10.331 831.606 10.331H875.344C893.237 10.331 907.742 24.8363 907.742 42.7295Z" fill="#A39EEB"/>
</g>
<path fill-rule="evenodd" clip-rule="evenodd" d="M-79.8907 128.441C-84.9838 119.938 -87.9113 109.989 -87.9113 99.3567V55.7647C-87.9113 24.4595 -62.5334 -0.918457 -31.2281 -0.918457H159.141C190.446 -0.918457 215.824 24.4595 215.824 55.7647V89.5756C233.978 89.7875 248.629 104.57 248.629 122.773C248.629 141.109 233.765 155.974 215.429 155.974H183.612C150.115 156.026 122.977 183.197 122.977 216.706C122.977 248.767 147.821 275.026 179.308 277.281H286.162C312.915 277.281 334.603 298.968 334.603 325.722C334.603 403.976 271.166 467.413 192.912 467.413H-133.191C-168.968 467.413 -197.972 438.409 -197.972 402.632V342.061C-197.972 333.391 -196.268 325.118 -193.178 317.56C-206.051 307.49 -214.326 291.811 -214.326 274.2C-214.326 247.984 -195.99 226.051 -171.443 220.525C-187.401 212.56 -198.36 196.074 -198.36 177.027C-198.36 150.194 -176.608 128.441 -149.775 128.441H-79.8907Z" fill="#7474CD"/>
<path opacity="0.5" fill-rule="evenodd" clip-rule="evenodd" d="M237.135 147.895C231.314 152.929 223.726 155.975 215.427 155.975H183.35C161.275 156.102 141.991 168.008 131.462 185.725C116.132 185.305 103.833 172.746 103.833 157.314C103.833 141.617 116.558 128.892 132.255 128.892H210.31C222.706 128.892 233.248 136.827 237.135 147.895Z" fill="#7978CD"/>
<rect opacity="0.3" x="65.6544" y="8.41504" width="112.84" height="25.4527" rx="12.7264" fill="#787CDA"/>
<path d="M154.85 63.135C154.387 59.8294 166.702 65.1792 172.918 68.2673C182.34 73.707 186.258 83.3001 169.17 74.759C152.082 66.2179 155.428 67.2669 154.85 63.135Z" fill="#484381"/>
<path d="M176.751 91.9428C183.42 98.9726 184.572 98.9316 193.789 99.8368C199.891 104.914 207.694 108.513 210.833 109.677C213.347 107.36 219.483 101.688 223.914 97.5332C229.453 92.3404 242.711 98.5893 252.663 88.0766C262.071 78.1396 236.27 73.9309 236.845 66.5787C237.42 59.2265 228.242 55.0758 223.892 56.009C219.543 56.9422 211.431 56.3222 206.67 54.5449C201.909 52.7677 196.766 48.4736 188.183 40.6034C179.6 32.7333 176.771 34.456 171.809 36.449C166.847 38.4421 175.843 42.6641 179.018 47.677C182.193 52.6899 176.712 50.9382 170.106 52.6005C163.5 54.2627 169.166 63.2746 169.85 70.647C170.397 76.5448 167.053 81.6035 165.312 83.3955C166.902 83.9013 171.416 86.3189 176.751 91.9428Z" fill="#5F5D99"/>
<path d="M158.632 78.8321C158.468 75.2045 159.247 75.5661 154.343 67.4354C158.301 70.6037 157.519 69.269 165.897 72.6046C174.275 75.9402 173.187 78.3147 177.039 81.4219C180.12 83.9077 177.631 89.3598 176.002 91.7751C171.146 87.2762 162.075 84.441 158.146 83.5858C158.362 83.2104 158.763 81.7341 158.632 78.8321Z" fill="#5F5D99"/>
<path opacity="0.5" d="M202.384 51.6119C202.432 51.5612 202.468 51.5285 202.492 51.515C202.455 51.5478 202.418 51.5801 202.384 51.6119C202.268 51.7349 202.086 51.964 201.848 52.284C201.899 52.3168 201.948 52.3476 201.995 52.3762C203.74 53.4426 201.264 53.5582 201.786 52.3679C200.059 54.7101 195.67 61.4183 192.419 67.2502C191.703 67.5136 194.562 69.2114 184.535 65.2596C172.002 60.3198 163.947 55.9346 168.574 54.2778C173.2 52.6211 181.532 53.1035 179.1 49.4917C176.669 45.8798 165.545 36.5428 171.203 36.2767C176.862 36.0107 179.368 32.1584 184.446 37.2983C189.424 42.3366 198.999 50.4532 201.832 52.2738C201.935 52.0836 202.11 51.8634 202.384 51.6119Z" fill="#484381"/>
<path opacity="0.5" fill-rule="evenodd" clip-rule="evenodd" d="M193.97 99.9903C195.738 98.7467 197.095 97.3976 197.634 96.8469L222.848 90.8249L226.393 83.9505C226.092 83.6726 222.602 81.9735 218.321 79.889C213.349 77.4685 207.311 74.5285 203.958 72.6911L203.964 72.6816C206.225 72.9462 198.153 69.0242 202.077 71.5924C202.52 71.8824 203.164 72.2558 203.958 72.6911L188.609 99.277C189.879 99.4572 191.355 99.6015 193.15 99.7771C193.358 99.7975 193.571 99.8182 193.788 99.8395C193.848 99.8899 193.909 99.9402 193.97 99.9903Z" fill="#484381"/>
<path d="M176.556 91.3008C178.084 89.3864 179.761 84.0367 174.241 77.9523C167.34 70.3468 154.041 69.9112 153.642 64.7347C153.351 60.9637 159.824 62.828 169.346 66.3825" stroke="#AFB1EB" stroke-width="4.88959" stroke-linecap="round"/>
<path d="M194.345 99.981C197.503 97.7709 205.438 93.332 211.918 93.2574C220.017 93.1642 231.056 89.2033 225.013 82.8C218.971 76.3968 211.474 78.8692 204.799 73.0724C198.124 67.2756 192.783 67.725 181.658 64.7465C170.533 61.768 163.603 53.9689 172.717 52.6068C181.831 51.2447 181.749 49.4309 172.428 42.1061C163.106 34.7813 180.57 30.2027 190.585 41.4607C200.6 52.7187 206.629 54.2564 211.84 55.4985C217.051 56.7407 222.245 52.1441 232.302 57.9504C242.359 63.7568 235.356 67.5743 239.893 71.6953C244.43 75.8163 252.921 77.9801 253.164 82.4483C253.407 86.9166 245.845 93.4141 235.266 79.7106C224.687 66.0071 218.41 71.7452 209.982 67.7625" stroke="#AFB1EB" stroke-width="4.88959" stroke-linecap="round"/>
<rect x="147.103" y="83.9248" width="59.3896" height="27.998" rx="13.999" fill="#7172CB"/>
<rect x="189.525" y="94.9551" width="33.9369" height="16.9685" rx="8.48423" fill="#9E98DF"/>
<path d="M319.215 313.654C325.257 309.369 337.438 298.384 337.827 288.718C338.243 278.382 346.283 279.589 351.071 269.079M363.229 241.61C361.191 242.725 356.325 248.493 353.166 262.641C352.595 265.196 351.879 267.305 351.071 269.079M351.071 269.079C354.276 270.382 361.725 271.308 365.88 264.584C370.036 257.861 375.89 248.221 378.297 244.242M322.056 316.072C329.639 314.196 346.587 306.895 353.707 292.698C362.607 274.952 364.176 279.248 374.104 274.873C384.033 270.499 386.44 260.381 387.955 252.462C389.167 246.127 396.323 244.677 399.75 244.744M317.7 312.364C314.164 308.457 310.071 299.682 316.364 291.167M348.648 249.916C346.619 251.149 341.83 255.163 338.909 261.358C335.257 269.102 339.639 273.161 322.19 285.603C319.66 287.408 317.757 289.281 316.364 291.167M316.364 291.167C310.731 285.167 302.442 270.898 314.345 261.825C329.224 250.483 335.23 254.938 341.749 238.454C348.269 221.97 358.765 227.287 361.876 214.808" stroke="#C9C9C9" stroke-width="6.15735" stroke-linecap="round"/>
<rect x="222.863" y="227.254" width="27.1496" height="65.2745" rx="9.2424" fill="#6C6FBB"/>
<rect x="203.801" y="250.938" width="27.1496" height="43.9014" rx="9.2424" fill="#6C6FBB"/>
<rect x="187.627" y="216.279" width="27.1496" height="77.9828" rx="9.2424" fill="#6C6FBB"/>
<rect x="156.434" y="231.298" width="27.1496" height="52.5662" rx="9.2424" fill="#6C6FBB"/>
<rect x="174.34" y="241.118" width="27.1496" height="52.5662" rx="9.2424" fill="#918FE7"/>
<rect x="206.69" y="265.38" width="27.1496" height="32.3484" rx="9.2424" fill="#918FE7"/>
<path d="M179.539 274.044V254.404" stroke="#AFB1EB" stroke-width="4.6212" stroke-linecap="round"/>
<path d="M192.824 237.652L192.824 226.677" stroke="#918FE7" stroke-width="4.6212" stroke-linecap="round"/>
<path d="M161.633 265.957L161.633 242.273" stroke="#918FE7" stroke-width="4.6212" stroke-linecap="round"/>
<path d="M211.311 285.02L211.311 274.622" stroke="#AFB1EB" stroke-width="4.6212" stroke-linecap="round"/>
<path d="M290.575 293.49C294.584 287.402 299.394 268.457 286.566 241.374C270.53 207.521 272.757 210.194 281.666 179.459C290.575 148.724 270.53 159.414 278.548 133.134" stroke="#C4C4C4" stroke-width="6.15735" stroke-linecap="round"/>
<path d="M285.674 238.702C284.04 228.754 283.625 206.453 295.028 196.831C296.832 195.309 298.457 193.937 299.928 192.674M315.963 168.769C312.851 180.441 310.078 183.957 299.928 192.674M299.928 192.674C298.443 186.339 296.364 171.264 299.928 161.642C303.491 152.021 303.491 145.458 303.046 143.379M295.028 256.965C304.233 254.292 322.288 245.117 320.863 229.794C319.081 210.64 320.863 202.326 329.326 192.674C336.097 184.953 335.117 170.254 333.781 163.869M323.536 222.667C327.693 215.54 337.433 200.84 343.135 199.059C348.836 197.277 349.074 185.844 348.48 180.35M290.574 248.502C295.77 243.751 305.54 230.506 303.046 215.54C300.551 200.573 308.242 196.831 312.4 196.831M280.774 157.188C273.35 158.227 258.146 158.613 256.721 151.843M275.874 202.622C275.726 195.644 272.756 179.905 262.066 172.778M290.574 289.036C292.058 279.534 287.366 259.816 256.721 256.965C249.647 256.307 244.548 254.227 240.939 251.174M217.522 168.769C224.649 171.59 238.814 180.321 238.458 192.674C238.095 205.265 224.998 237.696 240.939 251.174M240.939 251.174C241.151 240.336 243.09 217.054 249.148 210.64C255.206 204.226 254.642 192.526 253.603 187.477M275.874 226.23C269.935 223.854 257.166 220.529 253.603 226.23M290.574 256.965C282.853 250.581 264.649 238.257 253.603 240.039" stroke="#C4C4C4" stroke-width="6.15735" stroke-linecap="round"/>
<rect x="296.426" y="302.818" width="52.6023" height="39.0275" rx="19.5137" fill="#676AAA"/>
<rect x="260.792" y="286.698" width="58.5412" height="45.8149" rx="22.9074" fill="#7172CB"/>
<rect x="294.728" y="285.001" width="36.4822" height="27.998" rx="13.999" fill="#918FE7"/>
<path d="M21.5374 -27.5132H41.2986V6.94224C41.2986 10.86 38.1226 14.036 34.2048 14.036H28.6311C24.7133 14.036 21.5374 10.86 21.5374 6.94224V-27.5132Z" fill="#787878"/>
<rect x="51.4342" y="-51.3271" width="19.7612" height="72.9644" fill="#787878"/>
<rect opacity="0.4" x="51.4342" y="-51.3271" width="8.61385" height="72.9644" fill="#797979"/>
<path opacity="0.4" d="M21.5374 -27.5132H30.1512V14.036H28.6311C24.7133 14.036 21.5374 10.86 21.5374 6.94224V-27.5132Z" fill="#797979"/>
<path fill-rule="evenodd" clip-rule="evenodd" d="M94.5025 -32.0728H74.7413V-7.75118L54.9797 -7.75118L54.9797 12.01H78.7945V11.5938C87.7641 9.72407 94.5025 1.7733 94.5025 -7.75129V-32.0728Z" fill="#828282"/>
<path opacity="0.4" fill-rule="evenodd" clip-rule="evenodd" d="M62.0744 -6.99092C62.0744 -9.36957 60.1462 -11.2979 57.7675 -11.2979C55.3888 -11.2979 53.4606 -9.36958 53.4606 -6.99092V-4.96413C53.4606 -2.58548 55.3888 -0.657207 57.7675 -0.657207C60.1462 -0.657207 62.0744 -2.58548 62.0744 -4.96413V-6.99092ZM82.849 4.66385C82.849 1.72552 80.467 -0.656467 77.5287 -0.656467H58.7809C55.8426 -0.656467 53.4606 1.72552 53.4606 4.66385C53.4606 7.60219 55.8426 9.98418 58.7809 9.98418H77.5287C80.467 9.98418 82.849 7.60219 82.849 4.66385Z" fill="#787878"/>
<path fill-rule="evenodd" clip-rule="evenodd" d="M56.4988 -41.7007C56.4988 -43.6596 54.9108 -45.2476 52.9519 -45.2476H38.2577C36.2988 -45.2476 34.7108 -43.6596 34.7108 -41.7007V24.6767C34.7108 28.5945 37.8868 31.7704 41.8046 31.7704H49.405C50.9921 31.7704 52.4574 31.2493 53.6392 30.3687C54.4793 29.7428 55.4436 29.2373 56.4912 29.2373H74.7396C76.6985 29.2373 78.2865 27.6493 78.2865 25.6904V10.9962C78.2865 9.0373 76.6985 7.4493 74.7396 7.4493H60.0457C58.0868 7.4493 56.4988 5.86131 56.4988 3.90242V-41.7007Z" fill="#919191"/>
<rect opacity="0.4" x="59.5413" y="7.44922" width="14.6942" height="21.788" fill="#828282"/>
<path d="M68.6605 -14.8447H88.4217V26.7045C88.4217 30.6222 85.2457 33.7982 81.328 33.7982H75.7543C71.8365 33.7982 68.6605 30.6222 68.6605 26.7045V-14.8447Z" fill="#A1A1A1"/>
<path d="M84.3676 -8.76465V25.6908" stroke="#ABABAB" stroke-width="3.04018" stroke-linecap="round"/>
<path d="M52.4464 -35.1133V-0.657865" stroke="#A1A1A1" stroke-width="3.04018" stroke-linecap="round"/>
<path opacity="0.4" d="M34.7111 -42.7134H43.3249V31.7711H41.8048C37.887 31.7711 34.7111 28.5951 34.7111 24.6774V-42.7134Z" fill="#828282"/>
<path opacity="0.4" d="M68.6605 -14.8447H77.2744V33.7982H75.7543C71.8365 33.7982 68.6605 30.6222 68.6605 26.7045V-14.8447Z" fill="#919191"/>
<path fill-rule="evenodd" clip-rule="evenodd" d="M96.0351 104.287H-185.57C-200.046 104.287 -211.781 116.022 -211.781 130.499C-211.781 144.975 -200.046 156.71 -185.57 156.71H-126.427C-111.951 156.71 -100.216 168.446 -100.216 182.922C-100.216 197.357 -111.885 209.068 -126.306 209.133H96.0352C124.988 209.133 148.458 185.662 148.458 156.71C148.458 127.758 124.987 104.287 96.0351 104.287Z" fill="#5F6198"/>
<path fill-rule="evenodd" clip-rule="evenodd" d="M-126.091 296.879H118.254C139.34 296.879 156.434 313.972 156.434 335.058C156.434 356.144 139.34 373.238 118.254 373.238H106.37C85.2843 373.238 68.1909 390.331 68.1909 411.417C68.1909 432.408 85.1308 449.442 106.086 449.595H-126.091C-168.263 449.595 -202.449 415.408 -202.449 373.237C-202.449 331.066 -168.263 296.879 -126.091 296.879Z" fill="#5F6198"/>
<rect width="220.445" height="94.0924" rx="47.0462" transform="matrix(-1 0 0 1 48.9888 209.132)" fill="#5F6198"/>
<path fill-rule="evenodd" clip-rule="evenodd" d="M-101.264 175.554C-100.581 177.891 -100.214 180.364 -100.214 182.922C-100.214 197.359 -111.886 209.07 -126.308 209.133H96.0363C124.183 209.133 147.148 186.951 148.405 159.115C140.982 169.092 129.101 175.554 115.711 175.554H-101.264Z" fill="#505088"/>
<path fill-rule="evenodd" clip-rule="evenodd" d="M-196.479 272.344C-195.806 274.645 -195.445 277.08 -195.445 279.599C-195.445 293.776 -206.875 305.284 -221.022 305.411H-2.18204C25.5354 305.411 48.1511 283.567 49.3895 256.155C42.0799 265.98 30.3798 272.344 17.1932 272.344H-196.479Z" fill="#505088"/>
<path d="M50.1737 195.279L60.0785 192.173L92.4192 295.303L82.5144 298.409L50.1737 195.279Z" fill="#918FE7"/>
<path d="M60.0453 192.068C60.849 194.632 59.2834 197.405 56.5482 198.262C53.8131 199.12 50.9443 197.738 50.1405 195.175C49.3368 192.611 50.9024 189.838 53.6376 188.981C56.3727 188.123 59.2415 189.505 60.0453 192.068Z" fill="#918FE7"/>
<path d="M92.3872 295.199C93.191 297.762 91.6253 300.535 88.8901 301.393C86.155 302.25 83.2862 300.868 82.4824 298.305C81.6787 295.742 83.2444 292.969 85.9795 292.111C88.7146 291.253 91.5834 292.636 92.3872 295.199Z" fill="#918FE7"/>
<path d="M64.3923 185.545L77.1272 182.04L104.172 280.316L91.4367 283.82L64.3923 185.545Z" fill="#918FE7"/>
<path d="M77.0995 181.942C77.7717 184.385 75.4658 187.149 71.9491 188.117C68.4325 189.085 65.0368 187.889 64.3647 185.447C63.6926 183.004 65.9985 180.24 69.5151 179.272C73.0318 178.304 76.4274 179.5 77.0995 181.942Z" fill="#918FE7"/>
<path d="M104.144 280.218C104.816 282.661 102.51 285.425 98.9938 286.393C95.4772 287.361 92.0815 286.165 91.4094 283.723C90.7373 281.28 93.0432 278.516 96.5598 277.548C100.076 276.58 103.472 277.776 104.144 280.218Z" fill="#918FE7"/>
<path d="M51.9464 213.628L64.8046 207.576L105.152 293.297L92.294 299.349L51.9464 213.628Z" fill="#9E98DF"/>
<path d="M64.7649 207.49C65.7676 209.621 63.7021 212.703 60.1514 214.374C56.6007 216.045 52.9095 215.673 51.9067 213.543C50.904 211.412 52.9695 208.33 56.5201 206.659C60.0708 204.988 63.7621 205.36 64.7649 207.49Z" fill="#919191"/>
<path fill-rule="evenodd" clip-rule="evenodd" d="M62.3908 209.915C63.0035 209.001 62.8879 208.52 62.8317 208.4C62.7755 208.281 62.4784 207.885 61.3836 207.775C60.3382 207.669 58.9153 207.893 57.43 208.592C55.9448 209.291 54.8657 210.245 54.2807 211.118C53.6681 212.032 53.7837 212.513 53.8399 212.633C53.896 212.752 54.1931 213.148 55.288 213.258C56.3334 213.363 57.7563 213.14 59.2415 212.441C60.7267 211.742 61.8058 210.788 62.3908 209.915ZM60.1514 214.374C63.7021 212.703 65.7676 209.621 64.7649 207.49C63.7621 205.36 60.0708 204.988 56.5201 206.659C52.9695 208.33 50.904 211.412 51.9067 213.543C52.9095 215.673 56.6007 216.045 60.1514 214.374Z" fill="#EBEBEB"/>
<path d="M105.112 293.212C106.115 295.342 104.049 298.424 100.498 300.096C96.9478 301.767 93.2565 301.395 92.2538 299.264C91.251 297.134 93.3165 294.052 96.8672 292.381C100.418 290.709 104.109 291.082 105.112 293.212Z" fill="#9E98DF"/>
<path d="M119.922 186.743L128.767 189.113L101.647 290.327L92.8017 287.957L119.922 186.743Z" fill="#9E98DF"/>
<path d="M128.682 189.293C128.301 190.713 126.012 191.333 123.57 190.679C121.127 190.024 119.455 188.342 119.836 186.922C120.216 185.502 122.505 184.882 124.948 185.536C127.39 186.191 129.062 187.872 128.682 189.293Z" fill="#919191"/>
<path fill-rule="evenodd" clip-rule="evenodd" d="M126.723 188.537C126.724 188.538 126.719 188.544 126.705 188.554C126.715 188.542 126.722 188.537 126.723 188.537ZM126.406 188.683C126.391 188.667 126.375 188.651 126.358 188.634C125.992 188.266 125.317 187.847 124.395 187.6C123.472 187.353 122.678 187.378 122.178 187.513C122.154 187.52 122.132 187.526 122.112 187.532C122.127 187.548 122.142 187.564 122.159 187.581C122.525 187.949 123.2 188.368 124.123 188.615C125.045 188.862 125.839 188.837 126.34 188.702C126.363 188.695 126.385 188.689 126.406 188.683ZM121.91 187.247C121.911 187.247 121.914 187.255 121.917 187.271C121.91 187.255 121.908 187.247 121.91 187.247ZM121.794 187.678C121.793 187.677 121.799 187.671 121.813 187.661C121.802 187.673 121.795 187.678 121.794 187.678ZM126.6 188.944C126.607 188.96 126.609 188.968 126.608 188.968C126.607 188.968 126.603 188.96 126.6 188.944ZM123.57 190.679C126.012 191.333 128.301 190.713 128.682 189.293C129.062 187.872 127.39 186.191 124.948 185.536C122.505 184.882 120.216 185.502 119.836 186.922C119.455 188.342 121.127 190.024 123.57 190.679Z" fill="#EBEBEB"/>
<path d="M101.676 290.225C101.002 292.741 98.4753 294.249 96.0326 293.595C93.5899 292.94 92.1561 290.37 92.8301 287.855C93.5041 285.339 96.0307 283.831 98.4734 284.485C100.916 285.14 102.35 287.71 101.676 290.225Z" fill="#9E98DF"/>
<path d="M119.922 186.743L128.767 189.113L101.647 290.327L92.8017 287.957L119.922 186.743Z" fill="#9E98DF"/>
<path d="M128.682 189.293C128.301 190.713 126.012 191.333 123.57 190.679C121.127 190.024 119.455 188.342 119.836 186.922C120.216 185.502 122.505 184.882 124.948 185.536C127.39 186.191 129.062 187.872 128.682 189.293Z" fill="#919191"/>
<path fill-rule="evenodd" clip-rule="evenodd" d="M126.723 188.537C126.724 188.538 126.719 188.544 126.705 188.554C126.715 188.542 126.722 188.537 126.723 188.537ZM126.406 188.683C126.391 188.667 126.375 188.651 126.358 188.634C125.992 188.266 125.317 187.847 124.395 187.6C123.472 187.353 122.678 187.378 122.178 187.513C122.154 187.52 122.132 187.526 122.112 187.532C122.127 187.548 122.142 187.564 122.159 187.581C122.525 187.949 123.2 188.368 124.123 188.615C125.045 188.862 125.839 188.837 126.34 188.702C126.363 188.695 126.385 188.689 126.406 188.683ZM121.91 187.247C121.911 187.247 121.914 187.255 121.917 187.271C121.91 187.255 121.908 187.247 121.91 187.247ZM121.794 187.678C121.793 187.677 121.799 187.671 121.813 187.661C121.802 187.673 121.795 187.678 121.794 187.678ZM126.6 188.944C126.607 188.96 126.609 188.968 126.608 188.968C126.607 188.968 126.603 188.96 126.6 188.944ZM123.57 190.679C126.012 191.333 128.301 190.713 128.682 189.293C129.062 187.872 127.39 186.191 124.948 185.536C122.505 184.882 120.216 185.502 119.836 186.922C119.455 188.342 121.127 190.024 123.57 190.679Z" fill="#EBEBEB"/>
<path d="M101.676 290.225C101.002 292.741 98.4753 294.249 96.0326 293.595C93.5899 292.94 92.1561 290.37 92.8301 287.855C93.5041 285.339 96.0307 283.831 98.4734 284.485C100.916 285.14 102.35 287.71 101.676 290.225Z" fill="#9E98DF"/>
<path fill-rule="evenodd" clip-rule="evenodd" d="M104.334 244.92L112.487 214.495L112.487 249.878L104.334 280.303L104.334 244.92Z" fill="#7E7BFB"/>
<path d="M94.0088 178.468H106.353V297.167H94.0088V178.468Z" fill="#9E98DF"/>
<path d="M106.353 178.35C106.353 181.3 103.59 183.692 100.181 183.692C96.7721 183.692 94.0087 181.3 94.0087 178.35C94.0087 175.4 96.7721 173.009 100.181 173.009C103.59 173.009 106.353 175.4 106.353 178.35Z" fill="#919191"/>
<path fill-rule="evenodd" clip-rule="evenodd" d="M100.181 181.555C102.71 181.555 104.217 179.841 104.217 178.35C104.217 176.86 102.71 175.145 100.181 175.145C97.6517 175.145 96.1452 176.86 96.1452 178.35C96.1452 179.841 97.6517 181.555 100.181 181.555ZM100.181 183.692C103.59 183.692 106.353 181.3 106.353 178.35C106.353 175.4 103.59 173.009 100.181 173.009C96.7721 173.009 94.0087 175.4 94.0087 178.35C94.0087 181.3 96.7721 183.692 100.181 183.692Z" fill="#EBEBEB"/>
<path d="M106.353 297.048C106.353 299.998 103.59 302.389 100.181 302.389C96.7722 302.389 94.0088 299.998 94.0088 297.048C94.0088 294.098 96.7722 291.707 100.181 291.707C103.59 291.707 106.353 294.098 106.353 297.048Z" fill="#9E98DF"/>
<path d="M143.556 212.639L153.024 218.105L108.525 295.18L99.0566 289.713L143.556 212.639Z" fill="#AFB1EB"/>
<path d="M153.067 218.029C151.961 219.944 148.945 220.273 146.331 218.764C143.716 217.254 142.493 214.478 143.599 212.562C144.705 210.647 147.721 210.317 150.335 211.827C152.95 213.337 154.173 216.113 153.067 218.029Z" fill="#919191"/>
<path fill-rule="evenodd" clip-rule="evenodd" d="M150.033 217.557C150.757 217.478 151.086 217.186 151.217 216.96C151.347 216.735 151.435 216.303 151.141 215.637C150.848 214.972 150.223 214.229 149.267 213.677C148.311 213.126 147.355 212.955 146.633 213.034C145.909 213.113 145.579 213.405 145.449 213.63C145.319 213.856 145.231 214.288 145.525 214.954C145.818 215.619 146.443 216.362 147.399 216.913C148.354 217.465 149.311 217.635 150.033 217.557ZM146.331 218.764C148.945 220.273 151.961 219.944 153.067 218.029C154.173 216.113 152.95 213.337 150.335 211.827C147.721 210.317 144.705 210.647 143.599 212.562C142.493 214.478 143.716 217.254 146.331 218.764Z" fill="#C2B2FC"/>
<path d="M108.568 295.103C107.462 297.019 104.446 297.348 101.831 295.838C99.2162 294.329 97.9932 291.552 99.0991 289.637C100.205 287.721 103.221 287.392 105.836 288.902C108.45 290.411 109.674 293.188 108.568 295.103Z" fill="#AFB1EB"/>
<path opacity="0.2" fill-rule="evenodd" clip-rule="evenodd" d="M97.5987 183.997C98.3818 183.997 99.0165 184.631 99.0165 185.414V286.08C99.0165 286.863 98.3818 287.497 97.5987 287.497C96.8157 287.497 96.1809 286.863 96.1809 286.08V185.414C96.1809 184.631 96.8157 183.997 97.5987 183.997Z" fill="#EBEBEB"/>
<path opacity="0.2" fill-rule="evenodd" clip-rule="evenodd" d="M56.2477 216.027C56.96 215.702 57.8011 216.016 58.1264 216.728L86.1283 278.049C86.4536 278.761 86.1398 279.602 85.4275 279.927C84.7152 280.253 83.8741 279.939 83.5489 279.227L55.547 217.906C55.2217 217.194 55.5354 216.353 56.2477 216.027Z" fill="#EBEBEB"/>
<path opacity="0.2" fill-rule="evenodd" clip-rule="evenodd" d="M121.531 190.781C122.287 190.985 122.735 191.763 122.531 192.519L110.312 237.889C110.108 238.645 109.33 239.093 108.574 238.89C107.818 238.686 107.37 237.908 107.574 237.152L119.793 191.782C119.997 191.026 120.775 190.578 121.531 190.781Z" fill="#EBEBEB"/>
<path opacity="0.4" fill-rule="evenodd" clip-rule="evenodd" d="M144.746 217.862C145.423 218.254 145.654 219.122 145.262 219.799L105.208 288.918C104.816 289.596 103.948 289.826 103.271 289.434C102.593 289.041 102.362 288.174 102.755 287.496L142.808 218.378C143.201 217.7 144.068 217.469 144.746 217.862Z" fill="#EBEBEB"/>
<path d="M143.917 253.041L152.897 264.055L107.82 300.809L98.8394 289.795L143.917 253.041Z" fill="#AFB1EB"/>
<path d="M152.943 264.019C151.823 264.932 148.904 263.207 146.424 260.166C143.944 257.124 142.842 253.918 143.962 253.005C145.083 252.091 148.001 253.816 150.481 256.858C152.961 259.899 154.063 263.105 152.943 264.019Z" fill="#919191"/>
<path fill-rule="evenodd" clip-rule="evenodd" d="M150.864 261.469C150.47 260.535 149.784 259.383 148.825 258.208C147.867 257.032 146.877 256.129 146.041 255.554C146.436 256.489 147.122 257.64 148.08 258.815C149.039 259.991 150.028 260.895 150.864 261.469ZM145.663 254.121C145.663 254.121 145.663 254.122 145.663 254.122C145.663 254.122 145.663 254.121 145.663 254.121ZM144.714 254.895C144.714 254.895 144.714 254.895 144.715 254.895C144.714 254.895 144.714 254.895 144.714 254.895ZM146.424 260.166C148.904 263.207 151.823 264.932 152.943 264.019C154.063 263.105 152.961 259.899 150.481 256.858C148.001 253.816 145.083 252.091 143.962 253.005C142.842 253.918 143.944 257.124 146.424 260.166Z" fill="#C2B2FC"/>
<path d="M107.865 300.774C106.745 301.687 103.826 299.962 101.346 296.92C98.8666 293.879 97.7644 290.673 98.8847 289.759C100.005 288.846 102.924 290.571 105.403 293.613C107.883 296.654 108.985 299.86 107.865 300.774Z" fill="#AFB1EB"/>
<path d="M80.3586 220.936L88.3825 219.764L99.6499 296.916L91.626 298.088L80.3586 220.936Z" fill="#AFB1EB"/>
<path d="M88.3709 219.687C88.6509 221.605 87.0817 223.421 84.866 223.745C82.6502 224.069 80.627 222.777 80.347 220.859C80.067 218.942 81.6362 217.125 83.8519 216.801C86.0676 216.478 88.0908 217.77 88.3709 219.687Z" fill="#919191"/>
<path fill-rule="evenodd" clip-rule="evenodd" d="M84.5572 221.631C85.9026 221.434 86.3258 220.469 86.2567 219.996C86.1876 219.523 85.506 218.719 84.1607 218.915C82.8153 219.112 82.392 220.077 82.4612 220.55C82.5303 221.024 83.2118 221.827 84.5572 221.631ZM84.866 223.745C87.0817 223.421 88.6509 221.605 88.3709 219.687C88.0908 217.77 86.0676 216.478 83.8519 216.801C81.6362 217.125 80.067 218.942 80.347 220.859C80.627 222.777 82.6502 224.069 84.866 223.745Z" fill="#EBEBEB"/>
<path d="M99.6375 296.84C99.9175 298.757 98.3483 300.574 96.1326 300.897C93.9168 301.221 91.8936 299.929 91.6136 298.011C91.3336 296.094 92.9028 294.277 95.1185 293.954C97.3342 293.63 99.3574 294.922 99.6375 296.84Z" fill="#AFB1EB"/>
<path d="M57.7239 248.149L68.752 244.281L86.9224 296.085L75.8943 299.953L57.7239 248.149Z" fill="#AFB1EB"/>
<path d="M68.7322 244.23C69.1838 245.517 67.0812 247.427 64.0359 248.495C60.9905 249.563 58.1557 249.385 57.7041 248.098C57.2526 246.81 59.3552 244.901 62.4005 243.833C65.4459 242.764 68.2807 242.942 68.7322 244.23Z" fill="#919191"/>
<path fill-rule="evenodd" clip-rule="evenodd" d="M65.7278 245.283C64.9994 245.329 64.0924 245.503 63.1077 245.849C62.123 246.194 61.3058 246.625 60.7086 247.044C61.437 246.998 62.344 246.824 63.3287 246.479C64.3134 246.133 65.1306 245.703 65.7278 245.283ZM64.0359 248.495C67.0812 247.427 69.1838 245.517 68.7322 244.23C68.2807 242.942 65.4459 242.764 62.4005 243.833C59.3552 244.901 57.2526 246.81 57.7041 248.098C58.1557 249.385 60.9905 249.563 64.0359 248.495Z" fill="#EBEBEB"/>
<path d="M86.9035 296.034C87.3551 297.322 85.2525 299.231 82.2071 300.3C79.1618 301.368 76.327 301.19 75.8754 299.902C75.4238 298.615 77.5265 296.705 80.5718 295.637C83.6171 294.569 86.4519 294.747 86.9035 296.034Z" fill="#AFB1EB"/>
<path d="M81.0636 267.966L92.7211 267.139L95.1022 300.679L83.4447 301.507L81.0636 267.966Z" fill="#AFB1EB"/>
<path d="M92.5948 267.289C92.717 269.011 90.2065 270.592 86.9874 270.821C83.7683 271.049 81.0595 269.838 80.9373 268.116C80.815 266.394 83.3256 264.813 86.5447 264.585C89.7638 264.356 92.4725 265.567 92.5948 267.289Z" fill="#919191"/>
<path fill-rule="evenodd" clip-rule="evenodd" d="M90.4756 267.294C90.476 267.294 90.4749 267.298 90.4714 267.306C90.4736 267.298 90.4753 267.294 90.4756 267.294ZM90.3663 267.447C90.2725 267.372 90.1157 267.271 89.8592 267.156C89.1444 266.836 88.0256 266.622 86.696 266.716C85.3664 266.81 84.2891 267.181 83.6266 267.598C83.3889 267.748 83.248 267.871 83.1658 267.958C83.2596 268.033 83.4163 268.135 83.6728 268.249C84.3876 268.569 85.5065 268.784 86.8361 268.689C88.1657 268.595 89.2429 268.224 89.9054 267.807C90.1432 267.657 90.2841 267.535 90.3663 267.447ZM83.0359 267.823C83.0363 267.822 83.0385 267.826 83.0417 267.833C83.0372 267.826 83.0356 267.823 83.0359 267.823ZM83.0564 268.111C83.0561 268.111 83.0572 268.107 83.0606 268.1C83.0585 268.107 83.0568 268.111 83.0564 268.111ZM90.4903 267.572C90.4948 267.579 90.4964 267.583 90.4961 267.583C90.4958 267.583 90.4935 267.579 90.4903 267.572ZM86.9874 270.821C90.2065 270.592 92.717 269.011 92.5948 267.289C92.4725 265.567 89.7638 264.356 86.5447 264.585C83.3256 264.813 80.815 266.394 80.9373 268.116C81.0595 269.838 83.7683 271.049 86.9874 270.821Z" fill="#EBEBEB"/>
<path d="M95.0984 300.646C95.1575 301.479 92.5959 302.34 89.3768 302.569C86.1577 302.797 83.5001 302.307 83.4409 301.473C83.3817 300.64 85.9434 299.779 89.1625 299.55C92.3816 299.322 95.0392 299.812 95.0984 300.646Z" fill="#AFB1EB"/>
<path d="M187.789 479.29C190.781 467.537 194.318 440.914 184.525 428.45C174.053 415.12 185.382 408.093 180.186 389.909M166.164 342.759C164.804 346.312 164.858 358.667 175.956 379.659C177.961 383.45 179.309 386.839 180.186 389.909M180.186 389.909C185.577 388.133 195.868 381.381 193.909 368.589C191.951 355.797 189.013 337.566 187.789 330.049M193.909 479.29C201.39 468.903 214.8 441.816 208.598 416.56C200.846 384.989 207.374 388.679 215.127 372.689C222.879 356.699 215.127 341.529 208.598 330.049C203.376 320.865 210.775 311.462 215.127 307.909M184.525 479.29C175.951 478.171 161.506 471.575 160.312 454.28M156.779 368.589C155.555 372.279 153.842 382.365 156.779 393.189C160.452 406.72 170.244 407.13 161.675 441.16C160.433 446.096 160.047 450.45 160.312 454.28M160.312 454.28C146.894 452.777 121.363 443.784 126.585 419.84C133.114 389.909 145.355 389.089 135.97 361.619C126.585 334.149 145.355 329.639 135.97 310.779" stroke="#CECDF4" stroke-width="10.1811" stroke-linecap="round"/>
<path fill-rule="evenodd" clip-rule="evenodd" d="M22.059 327.605C16.0566 329.221 12.5006 335.396 14.1164 341.399C14.2493 341.893 14.3964 342.433 14.5554 343.017C17.2289 352.834 23.2913 375.095 22.5355 399.276C22.1772 410.737 20.5477 423.925 17.9868 436.071C15.3857 448.407 12.0061 458.788 8.53575 465.111C5.54507 470.56 7.53823 477.403 12.9876 480.393C18.437 483.384 25.279 481.391 28.2697 475.941C33.3095 466.758 37.2406 453.864 40.013 440.715C42.8255 427.376 44.6322 412.867 45.035 399.979C45.9003 372.294 39.0234 347.148 36.3148 337.243C36.1432 336.616 35.9883 336.049 35.8531 335.547C34.2373 329.545 28.0615 325.989 22.059 327.605Z" fill="#454783"/>
<path fill-rule="evenodd" clip-rule="evenodd" d="M-4.97844 370.233C-10.7966 372.422 -13.7393 378.912 -11.5511 384.73C-1.05732 412.631 2.64626 439.136 0.897832 469.285C0.537951 475.491 5.27691 480.813 11.4826 481.173C17.6883 481.533 23.0107 476.794 23.3706 470.589C25.2894 437.501 21.1885 407.835 9.51855 376.806C7.3303 370.988 0.839778 368.045 -4.97844 370.233Z" fill="#454783"/>
<path fill-rule="evenodd" clip-rule="evenodd" d="M74.0156 341.91C67.8018 342.079 62.9012 347.253 63.0699 353.467C64.4481 404.239 47.2383 449.199 38.8739 464.621C35.9103 470.085 37.9375 476.917 43.4017 479.881C48.8659 482.844 55.6979 480.817 58.6615 475.353C68.5341 457.15 87.0773 408.304 85.5721 352.856C85.4035 346.642 80.2294 341.741 74.0156 341.91Z" fill="#454783"/>
<path fill-rule="evenodd" clip-rule="evenodd" d="M114.583 372.658C108.857 370.239 102.254 372.919 99.8344 378.645C93.4321 393.797 78.5087 429.396 70.1466 450.318C66.32 459.892 62.6028 465.716 59.866 469.025C57.9384 471.355 56.7977 472.097 56.6552 472.216C51.1751 474.04 47.9071 479.787 49.275 485.509C50.7202 491.555 56.7928 495.284 62.8386 493.839C68.0897 492.584 73.0642 488.386 77.2112 483.373C81.7516 477.884 86.5591 469.907 91.0494 458.673C99.3209 437.977 114.167 402.561 120.57 387.407C122.989 381.681 120.309 375.078 114.583 372.658Z" fill="#454783"/>
<path fill-rule="evenodd" clip-rule="evenodd" d="M67.9952 366.269C63.5837 367.257 60.8085 371.634 61.7967 376.046C70.5622 415.18 68.004 441.782 63.5755 458.659C61.3562 467.117 58.6308 473.273 56.48 477.473C55.5303 479.328 54.6948 480.8 53.9837 482.053C53.879 482.238 53.777 482.417 53.6778 482.593C53.3226 483.221 52.9046 483.965 52.5738 484.641C52.4058 484.984 52.1802 485.47 51.9807 486.027C51.8196 486.477 51.4554 487.557 51.4164 488.935C51.2882 493.454 54.8476 497.222 59.3666 497.35C63.1443 497.457 66.3967 494.987 67.437 491.534C67.5433 491.337 67.6989 491.057 67.9271 490.653C68.0154 490.497 68.1101 490.331 68.2108 490.153C68.9226 488.9 69.9312 487.124 71.0522 484.935C73.6396 479.881 76.8389 472.615 79.4107 462.814C84.5643 443.173 87.054 413.907 77.7721 372.468C76.784 368.056 72.4067 365.281 67.9952 366.269ZM112.389 397.958C108.075 396.605 103.481 399.004 102.128 403.318C98.8445 413.78 98.326 430.775 98.7079 446.615C99.0998 462.868 100.5 479.349 101.677 489.618C102.192 494.109 106.25 497.333 110.742 496.818C115.233 496.303 118.457 492.245 117.942 487.753C116.81 477.877 115.452 461.894 115.074 446.221C114.687 430.136 115.387 415.744 117.748 408.219C119.102 403.906 116.702 399.312 112.389 397.958Z" fill="#E9E9E9"/>
<path fill-rule="evenodd" clip-rule="evenodd" d="M110.608 405.939C107.491 404.997 104.228 407.815 103.321 412.232C101.122 422.947 101.005 439.901 101.518 455.622C102.044 471.752 103.298 488.016 104.298 498.119C104.735 502.539 107.698 505.365 110.915 504.432C114.132 503.499 116.386 499.16 115.949 494.74C114.987 485.022 113.771 469.251 113.264 453.695C112.743 437.731 113.029 423.35 114.611 415.644C115.518 411.226 113.726 406.881 110.608 405.939Z" fill="#C9C9C9"/>
<path fill-rule="evenodd" clip-rule="evenodd" d="M107.323 423.844C104.863 423.188 102.835 428.228 102.669 431.992C102.383 438.51 102.448 451.583 103.251 463.85C104.075 476.436 105.471 489.108 106.511 496.975C106.966 500.416 109.353 502.548 111.842 501.736C114.331 500.925 115.98 497.478 115.526 494.037C114.525 486.47 113.172 474.182 112.377 462.044C111.561 449.587 110.5 438.49 111.539 432.43C112.008 426.547 109.782 424.5 107.323 423.844Z" fill="#C1C1C1"/>
<path fill-rule="evenodd" clip-rule="evenodd" d="M70.8459 379.625C67.4768 380.538 65.2966 384.309 65.9763 388.049C72.0058 421.226 69.631 443.916 65.9919 458.357C64.1683 465.594 61.9972 470.879 60.2945 474.49C59.5426 476.084 58.8837 477.351 58.323 478.429C58.2404 478.588 58.16 478.743 58.0817 478.894C57.8016 479.434 57.4719 480.074 57.2095 480.655C57.0762 480.95 56.8969 481.368 56.7363 481.845C56.6065 482.231 56.3122 483.157 56.2602 484.33C56.0897 488.18 58.7342 491.33 62.167 491.366C65.0366 491.396 67.5487 489.24 68.3952 486.284C68.4792 486.114 68.602 485.873 68.782 485.526C68.8516 485.392 68.9263 485.248 69.0057 485.096C69.567 484.017 70.3624 482.489 71.2498 480.607C73.2983 476.262 75.8475 470.025 77.9608 461.638C82.1957 444.833 84.5615 419.875 78.1769 384.744C77.4972 381.004 74.215 378.712 70.8459 379.625Z" fill="#C9C9C9"/>
<path fill-rule="evenodd" clip-rule="evenodd" d="M74.3828 397.473C71.9677 398.275 70.2013 401.553 70.4373 404.796C72.5312 433.562 69.4176 453.255 65.9477 465.795C64.2088 472.08 62.3518 476.672 60.9296 479.81C60.3016 481.195 59.7596 482.296 59.2983 483.234C59.2304 483.372 59.1643 483.506 59.0998 483.637C58.8693 484.107 58.5977 484.663 58.377 485.168C58.2648 485.425 58.1127 485.787 57.9698 486.202C57.8543 486.537 57.5892 487.341 57.4777 488.359C57.112 491.7 58.7602 494.425 61.1591 494.446C63.1645 494.463 65.0597 492.585 65.8411 490.017C65.9106 489.87 66.012 489.661 66.1601 489.359C66.2174 489.242 66.2789 489.118 66.3442 488.985C66.8058 488.048 67.46 486.719 68.2013 485.084C69.9122 481.308 72.0947 475.889 74.1098 468.606C78.1479 454.013 81.4004 432.353 79.1831 401.892C78.9471 398.649 76.7979 396.671 74.3828 397.473Z" fill="#C1C1C1"/>
<path fill-rule="evenodd" clip-rule="evenodd" d="M48.3313 390.068C43.9165 389.095 39.5486 391.885 38.5753 396.3C32.8423 422.303 29.6732 441.387 28.0492 454.744C26.471 467.726 26.2481 476.056 26.8985 480.032C27.6282 484.494 31.8365 487.519 36.298 486.789C40.7596 486.06 43.7848 481.851 43.0551 477.39C42.8269 475.994 42.709 469.814 44.3009 456.72C45.847 444.002 48.9133 425.448 54.5626 399.824C55.5359 395.41 52.7461 391.042 48.3313 390.068Z" fill="#E9E9E9"/>
<path fill-rule="evenodd" clip-rule="evenodd" d="M45.5122 404.098C41.957 403.426 38.4511 405.895 37.6815 409.614C33.1485 431.517 30.6572 447.56 29.3916 458.769C28.1616 469.662 28.0078 476.628 28.5433 479.929C29.1441 483.632 32.5395 486.025 36.127 485.273C39.7146 484.521 42.1358 480.909 41.535 477.206C41.3471 476.048 41.2332 470.889 42.4739 459.901C43.6789 449.228 46.089 433.632 50.5559 412.048C51.3255 408.33 49.0673 404.77 45.5122 404.098Z" fill="#C9C9C9"/>
<path fill-rule="evenodd" clip-rule="evenodd" d="M43.6102 413.311C40.762 412.91 37.9418 415.226 37.3112 418.484C33.5969 437.677 31.541 451.692 30.4855 461.461C29.4596 470.954 29.3111 476.993 29.7284 479.823C30.1967 482.999 32.9106 484.898 35.79 484.065C38.6693 483.233 40.6239 479.983 40.1556 476.807C40.0091 475.814 39.9366 471.353 40.9713 461.777C41.9763 452.476 43.9655 438.852 47.6256 419.939C48.2562 416.68 46.4585 413.713 43.6102 413.311Z" fill="#C1C1C1"/>
<path fill-rule="evenodd" clip-rule="evenodd" d="M8.76189 344.013C4.30268 344.757 1.29073 348.975 2.03449 353.434C6.64658 381.086 0.31892 408.522 -7.56279 429.69C-11.4803 440.211 -15.723 449.028 -19.0335 455.346C-20.6868 458.502 -22.1066 461.032 -23.1439 462.854C-23.3615 463.237 -23.5772 463.614 -23.7768 463.963C-24.029 464.403 -24.2557 464.8 -24.4285 465.105C-24.5899 465.391 -24.7581 465.692 -24.9025 465.964C-24.9043 465.968 -24.9072 465.973 -24.9111 465.98C-24.9786 466.105 -25.3424 466.781 -25.5996 467.543C-27.0436 471.827 -24.7414 476.471 -20.4575 477.915C-16.4355 479.271 -12.0966 477.324 -10.386 473.536C-10.3403 473.453 -10.2726 473.331 -10.1756 473.16C-10.0115 472.869 -9.82738 472.548 -9.60471 472.159C-9.40929 471.817 -9.18417 471.424 -8.91682 470.954C-7.82559 469.038 -6.30508 466.328 -4.53211 462.944C-0.990152 456.184 3.56335 446.726 7.77948 435.403C16.1651 412.882 23.4544 382.347 18.1827 350.741C17.4389 346.282 13.2211 343.27 8.76189 344.013ZM-10.4403 473.637C-10.5044 473.757 -10.4892 473.738 -10.4329 473.623C-10.4355 473.628 -10.438 473.632 -10.4403 473.637Z" fill="#E9E9E9"/>
<path fill-rule="evenodd" clip-rule="evenodd" d="M11.408 357.499C7.77427 358.255 5.54578 360.321 5.72604 365.983C6.53099 391.267 -0.946624 415.228 -7.84076 433.903C-11.2674 443.184 -14.9173 450.985 -17.7519 456.582C-19.1675 459.377 -20.3789 461.621 -21.2634 463.237C-21.4489 463.576 -21.6328 463.91 -21.803 464.22C-22.018 464.611 -22.2112 464.962 -22.3586 465.233C-22.4962 465.487 -22.6398 465.754 -22.7633 465.995C-22.7649 465.998 -22.7674 466.003 -22.7707 466.009C-22.8284 466.12 -23.1394 466.718 -23.3661 467.391C-24.6389 471.166 -22.8822 475.167 -19.4425 476.327C-16.2132 477.415 -12.6485 475.612 -11.1713 472.263C-11.1324 472.189 -11.0746 472.082 -10.9918 471.929C-10.8518 471.672 -10.6949 471.387 -10.5051 471.042C-10.3385 470.739 -10.1466 470.39 -9.91867 469.973C-8.98825 468.273 -7.69089 465.871 -6.17279 462.873C-3.14 456.885 0.777136 448.517 4.46499 438.527C11.7999 418.659 16.4866 397.996 17.1996 366.197C17.3221 360.736 15.0418 356.744 11.408 357.499ZM-11.2178 472.352C-11.2726 472.459 -11.2598 472.442 -11.2115 472.34C-11.2137 472.344 -11.2158 472.348 -11.2178 472.352Z" fill="#C9C9C9"/>
<path fill-rule="evenodd" clip-rule="evenodd" d="M11.5827 366.695C8.17152 366.756 8.01341 370.827 7.77625 375.71C6.71714 397.515 -0.0218976 418.706 -6.01627 435.29C-8.9957 443.533 -12.0356 450.509 -14.367 455.529C-15.5313 458.036 -16.5182 460.053 -17.2373 461.507C-17.3881 461.812 -17.5374 462.112 -17.6757 462.391C-17.8504 462.743 -18.0074 463.059 -18.1273 463.303C-18.2394 463.53 -18.3564 463.77 -18.4578 463.987C-18.4591 463.989 -18.4612 463.994 -18.4639 464C-18.5111 464.099 -18.7659 464.636 -18.9668 465.232C-20.0944 468.577 -19.128 471.923 -16.8082 472.705C-14.6303 473.439 -12.0338 471.652 -10.7912 468.663C-10.7593 468.597 -10.7122 468.5 -10.6449 468.363C-10.5309 468.131 -10.4034 467.875 -10.2492 467.564C-10.1139 467.292 -9.958 466.978 -9.77267 466.603C-9.01622 465.074 -7.95936 462.914 -6.71078 460.226C-4.21642 454.855 -0.954121 447.371 2.25243 438.5C8.63002 420.855 13.2154 402.694 15.7482 375.16C16.1832 370.433 13.8432 366.656 11.5827 366.695ZM-10.8292 468.743C-10.8742 468.839 -10.8642 468.823 -10.824 468.732C-10.8259 468.735 -10.8276 468.739 -10.8292 468.743Z" fill="#C1C1C1"/>
<rect width="27.1496" height="65.2745" rx="9.2424" transform="matrix(-1 0 0 1 48.6851 55.0239)" fill="#6C6FBB"/>
<rect width="27.1496" height="43.9014" rx="9.2424" transform="matrix(-1 0 0 1 67.7474 78.7075)" fill="#6C6FBB"/>
<rect width="27.1496" height="77.9828" rx="9.2424" transform="matrix(-1 0 0 1 83.9213 44.0483)" fill="#6C6FBB"/>
<rect width="27.1496" height="52.5662" rx="9.2424" transform="matrix(-1 0 0 1 115.115 59.0669)" fill="#6C6FBB"/>
<rect width="27.1496" height="36.4822" rx="9.2424" transform="matrix(-1 0 0 1 94.5001 85.6206)" fill="#918FE7"/>
<rect width="27.1496" height="32.3484" rx="9.2424" transform="matrix(-1 0 0 1 64.8588 93.1489)" fill="#918FE7"/>
<path d="M87.7126 113.746V94.1055" stroke="#AFB1EB" stroke-width="4.6212" stroke-linecap="round"/>
<path d="M78.722 65.4212L78.722 54.4458" stroke="#918FE7" stroke-width="4.6212" stroke-linecap="round"/>
<path d="M109.915 93.7261L109.915 70.0425" stroke="#918FE7" stroke-width="4.6212" stroke-linecap="round"/>
<path d="M60.2377 112.789L60.2377 102.391" stroke="#AFB1EB" stroke-width="4.6212" stroke-linecap="round"/>
<path d="M93.5537 125.106C99.3559 132.15 105.358 120.276 104.158 132.15C103.7 136.672 106.552 137.574 109.96 136.636C117.963 142.53 119.163 146.439 128.167 135.772C137.17 125.106 135.97 134.967 141.972 123.899C147.974 112.83 136.17 114.843 140.171 97.9381C144.173 81.0333 128.167 84.2533 125.366 91.4978C122.565 98.7423 114.962 96.3277 112.761 91.4978C110.56 86.6679 97.3551 84.8566 96.5548 92.9065C95.7545 100.956 110.96 103.17 101.957 108.805C92.9535 114.44 87.7515 118.062 93.5537 125.106Z" fill="#3C3A80"/>
<path d="M109.96 136.636C115.499 135.11 122.508 128.719 119.163 125.106C114.842 120.437 112.961 114.507 113.361 111.824C113.631 110.013 116.322 104.821 120.164 104.982C124.965 105.183 129.967 106.994 126.566 114.642M109.96 136.636C106.552 137.574 103.7 136.672 104.158 132.15C105.358 120.276 99.3559 132.15 93.5537 125.106C87.7515 118.062 92.9535 114.44 101.957 108.805C110.96 103.17 95.7545 100.956 96.5548 92.9065C97.3551 84.8566 110.56 86.6679 112.761 91.4978C114.962 96.3277 122.565 98.7423 125.366 91.4978C128.167 84.2533 144.173 81.0333 140.171 97.9381C136.17 114.843 147.974 112.83 141.972 123.899C135.97 134.967 137.17 125.106 128.167 135.772C119.163 146.439 117.963 142.53 109.96 136.636Z" stroke="#C6C6C6" stroke-width="5.09054" stroke-linecap="round"/>
<path d="M378.876 434.046C374.73 416.524 353.769 432.328 366.226 412.345C370.971 404.734 366.706 400.655 359.854 399.353C350.81 381.951 352.085 373.984 326.86 385.039C301.635 396.094 312.342 379.675 292.081 394.054C271.821 408.433 294.477 415.14 272.681 441.596C250.886 468.051 282.033 476.276 293.297 465.883C304.561 455.491 315.924 466.383 315.619 476.851C315.314 487.319 337.123 502.017 345.544 488.457C353.966 474.898 328.964 457.747 349.811 455.602C370.658 453.457 383.023 451.568 378.876 434.046Z" fill="#5E5CA3"/>
<path d="M359.854 399.353C348.717 397.235 330.745 402.454 333.524 411.763C337.114 423.791 335.285 435.929 332.242 440.332C330.188 443.305 320.904 450.158 314.242 446.531C305.913 441.996 298.631 434.437 311.309 423.853M359.854 399.353C366.706 400.655 370.971 404.734 366.226 412.345C353.769 432.328 374.73 416.524 378.876 434.046C383.023 451.568 370.658 453.457 349.811 455.602C328.964 457.747 353.966 474.898 345.544 488.457C337.123 502.017 315.314 487.319 315.619 476.851C315.924 466.383 304.561 455.491 293.297 465.883C282.033 476.276 250.886 468.051 272.681 441.596C294.477 415.14 271.821 408.433 292.081 394.054C312.342 379.675 301.635 396.094 326.86 385.039C352.085 373.984 350.81 381.951 359.854 399.353Z" stroke="#DEDEF8" stroke-width="5.09054" stroke-linecap="round"/>
<rect x="48.6851" y="290.091" width="58.5412" height="23.7559" rx="11.8779" fill="#918FE7"/>
<rect x="80.925" y="296.03" width="44.118" height="23.7559" rx="11.8779" fill="#A39EEB"/>
<path fill-rule="evenodd" clip-rule="evenodd" d="M244.964 393.212H279.276V496.148H279.246C279.074 501.955 271.471 506.629 262.117 506.629C252.764 506.629 245.161 501.955 244.988 496.148H244.964V393.212Z" fill="#C6C6C6"/>
<path opacity="0.5" fill-rule="evenodd" clip-rule="evenodd" d="M244.964 403.076C253.092 403.683 259.497 410.47 259.497 418.752V506.504C251.383 505.728 245.144 501.401 244.989 496.148H244.964V403.076Z" fill="#A2A2A2"/>
<path d="M264.213 348.02H233.527V389.027C233.527 405.974 247.265 419.713 264.213 419.713V348.02Z" fill="#C6C6C6"/>
<path d="M259.749 430.067H225.158V448.758C225.158 458.31 232.901 466.053 242.453 466.053H259.749V430.067Z" fill="#C6C6C6"/>
<path d="M306.893 379.264H276.208V437.846H279.834C294.778 437.846 306.893 425.731 306.893 410.787V379.264Z" fill="#C6C6C6"/>
<path d="M348.179 437.009H324.747V472.437H327.257C338.812 472.437 348.179 463.07 348.179 451.515V437.009Z" fill="#C6C6C6"/>
<path d="M324.747 436.869C324.747 441.26 329.992 444.82 336.463 444.82C342.934 444.82 348.179 441.26 348.179 436.869C348.179 432.478 342.934 428.919 336.463 428.919C329.992 428.919 324.747 432.478 324.747 436.869Z" fill="#312777"/>
<path fill-rule="evenodd" clip-rule="evenodd" d="M330.668 438.822C329.351 437.928 329.181 437.157 329.181 436.869C329.181 436.581 329.351 435.811 330.668 434.917C331.961 434.039 333.997 433.353 336.463 433.353C338.929 433.353 340.965 434.039 342.258 434.917C343.576 435.811 343.745 436.581 343.745 436.869C343.745 437.157 343.576 437.928 342.258 438.822C340.965 439.7 338.929 440.386 336.463 440.386C333.997 440.386 331.961 439.7 330.668 438.822ZM336.463 444.82C329.992 444.82 324.747 441.26 324.747 436.869C324.747 432.478 329.992 428.919 336.463 428.919C342.934 428.919 348.179 432.478 348.179 436.869C348.179 441.26 342.934 444.82 336.463 444.82Z" fill="#ABABAB"/>
<path d="M303.839 393.356C303.839 391.798 302.576 390.535 301.018 390.535C299.459 390.535 298.196 391.798 298.196 393.356V413.108C298.196 414.667 299.459 415.93 301.018 415.93C302.576 415.93 303.839 414.667 303.839 413.108V393.356Z" fill="#D6D6D6"/>
<path d="M259.094 441.327C259.094 439.768 257.831 438.505 256.272 438.505C254.714 438.505 253.451 439.768 253.451 441.327V452.613C253.451 454.172 254.714 455.435 256.272 455.435C257.831 455.435 259.094 454.172 259.094 452.613V441.327Z" fill="#D6D6D6"/>
<path opacity="0.5" fill-rule="evenodd" clip-rule="evenodd" d="M233.699 463.677V430.067H225.158V448.758C225.158 455.115 228.589 460.672 233.699 463.677Z" fill="#A2A2A2"/>
<path opacity="0.5" fill-rule="evenodd" clip-rule="evenodd" d="M276.428 403.443V393.358H264.335C264.335 398.928 268.85 403.443 274.42 403.443H276.428Z" fill="#A2A2A2"/>
<path opacity="0.5" d="M282.071 380.458C282.071 378.9 280.807 377.637 279.249 377.637C277.691 377.637 276.427 378.9 276.427 380.458V421.978C276.427 423.536 277.691 424.8 279.249 424.8C280.807 424.8 282.071 423.536 282.071 421.978V380.458Z" fill="#A2A2A2"/>
<path d="M261.917 365.947C261.917 364.388 260.654 363.125 259.096 363.125C257.537 363.125 256.274 364.388 256.274 365.947V383.28C256.274 384.838 257.537 386.102 259.096 386.102C260.654 386.102 261.917 384.838 261.917 383.28V365.947Z" fill="#D6D6D6"/>
<path d="M294.164 422.18C294.164 423.627 295.337 424.8 296.784 424.8C298.231 424.8 299.405 423.627 299.405 422.18C299.405 420.733 298.231 419.56 296.784 419.56C295.337 419.56 294.164 420.733 294.164 422.18Z" fill="#D6D6D6"/>
<path d="M225.158 429.928C225.158 434.319 232.901 437.878 242.453 437.878C252.005 437.878 259.749 434.319 259.749 429.928C259.749 425.537 252.005 421.978 242.453 421.978C232.901 421.978 225.158 425.537 225.158 429.928Z" fill="#312777"/>
<path fill-rule="evenodd" clip-rule="evenodd" d="M229.704 429.928C229.924 429.642 230.518 429.051 232.076 428.335C234.503 427.219 238.167 426.412 242.453 426.412C246.739 426.412 250.404 427.219 252.831 428.335C254.388 429.051 254.982 429.642 255.203 429.928C254.982 430.213 254.388 430.805 252.831 431.521C250.404 432.637 246.739 433.444 242.453 433.444C238.167 433.444 234.503 432.637 232.076 431.521C230.518 430.805 229.924 430.213 229.704 429.928ZM242.453 437.878C232.901 437.878 225.158 434.319 225.158 429.928C225.158 425.537 232.901 421.978 242.453 421.978C252.005 421.978 259.749 425.537 259.749 429.928C259.749 434.319 252.005 437.878 242.453 437.878Z" fill="#ABABAB"/>
<path opacity="0.5" fill-rule="evenodd" clip-rule="evenodd" d="M241.357 409.504V348.02H233.526V389.027C233.526 396.896 236.487 404.072 241.357 409.504Z" fill="#A2A2A2"/>
<path d="M233.527 348.099C233.527 352.49 240.396 356.049 248.87 356.049C257.343 356.049 264.213 352.49 264.213 348.099C264.213 343.708 257.343 340.148 248.87 340.148C240.396 340.148 233.527 343.708 233.527 348.099Z" fill="#312777"/>
<path fill-rule="evenodd" clip-rule="evenodd" d="M237.986 348.099C238.076 347.897 238.464 347.241 240.061 346.414C242.087 345.364 245.194 344.583 248.87 344.583C252.545 344.583 255.652 345.364 257.679 346.414C259.275 347.241 259.663 347.897 259.754 348.099C259.663 348.3 259.275 348.956 257.679 349.784C255.652 350.834 252.545 351.615 248.87 351.615C245.194 351.615 242.087 350.834 240.061 349.784C238.464 348.956 238.076 348.3 237.986 348.099ZM248.87 356.049C240.396 356.049 233.527 352.49 233.527 348.099C233.527 343.708 240.396 340.148 248.87 340.148C257.343 340.148 264.213 343.708 264.213 348.099C264.213 352.49 257.343 356.049 248.87 356.049Z" fill="#ABABAB"/>
<path d="M276.208 379.125C276.208 383.516 283.077 387.075 291.55 387.075C300.024 387.075 306.893 383.516 306.893 379.125C306.893 374.734 300.024 371.174 291.55 371.174C283.077 371.174 276.208 374.734 276.208 379.125Z" fill="#312777"/>
<path fill-rule="evenodd" clip-rule="evenodd" d="M280.666 379.125C280.757 378.923 281.145 378.267 282.741 377.44C284.768 376.39 287.875 375.608 291.55 375.608C295.226 375.608 298.333 376.39 300.359 377.44C301.956 378.267 302.344 378.923 302.435 379.125C302.344 379.326 301.956 379.982 300.359 380.81C298.333 381.86 295.226 382.641 291.55 382.641C287.875 382.641 284.768 381.86 282.741 380.81C281.145 379.982 280.757 379.326 280.666 379.125ZM291.55 387.075C283.077 387.075 276.208 383.516 276.208 379.125C276.208 374.734 283.077 371.174 291.55 371.174C300.024 371.174 306.893 374.734 306.893 379.125C306.893 383.516 300.024 387.075 291.55 387.075Z" fill="#ABABAB"/>
<path d="M-65.7736 207.172C-58.7947 205.068 -42.9593 193.608 -35.4492 164.598C-26.0615 128.334 -26.0648 131.813 0.472063 113.93C27.0089 96.0475 4.7707 91.4067 27.7689 76.3721" stroke="#B5B5B5" stroke-width="6.15735" stroke-linecap="round"/>
<path d="M-34.4204 161.975C-29.2983 153.292 -15.3242 135.907 -0.404538 135.83C1.95558 135.817 4.0828 135.806 6.02115 135.779M33.6514 127.707C23.7816 134.671 19.3996 135.593 6.02115 135.779M6.02115 135.779C8.94169 129.964 17.0082 117.06 25.9101 111.958C34.8119 106.857 39.018 101.819 40.0084 99.938M-38.945 181.989C-30.1656 185.838 -10.4254 190.366 -1.69883 177.69C9.20933 161.846 15.9058 156.605 28.5879 154.621C38.7336 153.034 47.4024 141.122 50.4686 135.365M4.92045 173.932C12.6795 171.126 29.5771 166.085 35.0957 168.372C40.6142 170.658 48.124 162.035 51.1891 157.437M-36.9398 172.638C-29.9056 172.321 -13.9177 168.416 -6.24015 155.329C1.43738 142.242 9.73928 144.299 12.9305 146.964M14.0623 96.2633C7.69748 92.3031 -4.22083 82.8548 -0.975613 76.7441M-18.8183 127.999C-14.4597 122.547 -6.652 108.563 -10.2903 96.2402M-62.9189 203.753C-55.6888 197.41 -46.653 179.267 -68.35 157.437C-73.3577 152.399 -75.9384 147.534 -76.7531 142.878M-41.913 64.6145C-38.2504 71.3477 -32.9728 87.1278 -41.1639 96.3821C-49.5123 105.814 -80.3508 122.315 -76.7531 142.878M-76.7531 142.878C-69.6433 134.694 -53.2332 118.066 -44.4722 117.024C-35.7111 115.983 -28.6455 106.641 -26.2078 102.099M-33.949 146.121C-36.9853 140.491 -44.6554 129.754 -51.0449 131.847M-42.364 179.134C-44.1987 169.285 -50.2734 148.158 -59.895 142.446" stroke="#B5B5B5" stroke-width="6.15735" stroke-linecap="round"/>
<g opacity="0.3">
<path opacity="0.3" d="M917.891 -452.241L694.22 -529.234L484.475 601.694L708.146 678.688L917.891 -452.241Z" fill="url(#paint0_linear_65_62353)"/>
<path opacity="0.3" d="M767.778 -455.054L532.286 -536.117L374.818 312.941L610.31 394.004L767.778 -455.054Z" fill="url(#paint1_linear_65_62353)"/>
<path opacity="0.3" d="M471.228 -559.498L307.755 -615.77L112.257 438.336L275.73 494.608L471.228 -559.498Z" fill="url(#paint2_linear_65_62353)"/>
<path opacity="0.2" d="M211.643 -569.225L99.2796 -607.904L-96.2179 446.203L16.1453 484.881L211.643 -569.225Z" fill="url(#paint3_linear_65_62353)"/>
</g>
</g>
</g>
<defs>
<linearGradient id="paint0_linear_65_62353" x1="806.055" y1="-490.737" x2="435.78" y2="584.932" gradientUnits="userSpaceOnUse">
<stop stop-color="#EDD4FE"/>
<stop offset="1" stop-color="#EDD4FE" stop-opacity="0"/>
</linearGradient>
<linearGradient id="paint1_linear_65_62353" x1="650.032" y1="-495.585" x2="372.044" y2="311.986" gradientUnits="userSpaceOnUse">
<stop stop-color="#EDD4FE"/>
<stop offset="1" stop-color="#EDD4FE" stop-opacity="0"/>
</linearGradient>
<linearGradient id="paint2_linear_65_62353" x1="389.492" y1="-587.634" x2="44.3685" y2="414.967" gradientUnits="userSpaceOnUse">
<stop stop-color="#EDD4FE"/>
<stop offset="1" stop-color="#EDD4FE" stop-opacity="0"/>
</linearGradient>
<linearGradient id="paint3_linear_65_62353" x1="155.461" y1="-588.564" x2="-189.662" y2="414.037" gradientUnits="userSpaceOnUse">
<stop stop-color="#EDD4FE"/>
<stop offset="1" stop-color="#EDD4FE" stop-opacity="0"/>
</linearGradient>
<clipPath id="clip0_65_62353">
<rect width="550.44" height="440" fill="white" transform="translate(0.440063 0.0551758)"/>
</clipPath>
<clipPath id="clip1_65_62353">
<rect width="593.896" height="916.297" fill="white" transform="translate(-4.76428 -469.248)"/>
</clipPath>
</defs>
</svg>
