<svg width="551" height="441" viewBox="0 0 551 441" fill="none" xmlns="http://www.w3.org/2000/svg">
<g clip-path="url(#clip0_65_78225)">
<rect width="550.44" height="440" transform="translate(0 0.0556641)" fill="#1E2090"/>
<rect x="-747.158" y="-1534.6" width="1402.17" height="1984.06" fill="#181D8B"/>
<path fill-rule="evenodd" clip-rule="evenodd" d="M-107.417 116.813C-107.417 73.0518 -71.9416 37.5762 -28.1802 37.5762H166.078C209.839 37.5762 245.315 73.0518 245.315 116.813C245.315 160.574 209.839 196.05 166.078 196.05H-28.1803C-71.9416 196.05 -107.417 160.574 -107.417 116.813ZM-781.843 75.5515C-825.604 75.5515 -861.08 111.027 -861.08 154.789C-861.08 198.55 -825.604 234.026 -781.843 234.026H-716.116C-672.355 234.026 -636.879 198.55 -636.879 154.789C-636.879 111.027 -672.355 75.5515 -716.116 75.5515H-781.843ZM-505.425 90.8882C-532.852 90.8882 -555.085 113.122 -555.085 140.548V199.702C-555.085 227.128 -532.852 249.362 -505.425 249.362H-252.013C-224.587 249.362 -202.353 227.128 -202.353 199.702V140.548C-202.353 113.122 -224.587 90.8882 -252.013 90.8882H-505.425ZM442.863 70.4395C399.102 70.4395 363.626 105.915 363.626 149.676C363.626 193.438 399.102 228.913 442.863 228.913H637.122C680.883 228.913 716.358 193.438 716.358 149.676C716.358 105.915 680.883 70.4395 637.122 70.4395H442.863Z" fill="#181688"/>
<g opacity="0.5" clip-path="url(#clip1_65_78225)">
<path opacity="0.2" d="M-241.971 -550.255L-106.603 -596.853L66.2918 335.381L-69.0765 381.979L-241.971 -550.255Z" fill="url(#paint0_linear_65_78225)"/>
<path opacity="0.2" d="M223.394 -550.255L358.762 -596.853L531.657 335.381L396.289 381.979L223.394 -550.255Z" fill="url(#paint1_linear_65_78225)"/>
<path opacity="0.1" d="M418.645 -550.255L602.508 -613.545L775.402 318.688L591.539 381.979L418.645 -550.255Z" fill="url(#paint2_linear_65_78225)"/>
<path opacity="0.1" d="M-70.7912 -558.567L148.876 -634.183L321.771 298.051L102.104 373.666L-70.7912 -558.567Z" fill="url(#paint3_linear_65_78225)"/>
</g>
<path d="M468.736 68.1592V116.241H438.552V147.032" stroke="#26249E" stroke-width="7.88722" stroke-linecap="round" stroke-linejoin="round"/>
<path d="M438.247 116.241H422.776L422.927 56.3281" stroke="#26249E" stroke-width="7.88722" stroke-linecap="round" stroke-linejoin="round"/>
<path d="M454.782 115.634V83.9338M454.782 83.9338H436.277V48.4412M454.782 83.9338V41.6157" stroke="#26249E" stroke-width="7.88722" stroke-linecap="round" stroke-linejoin="round"/>
<path d="M469.187 97.1296H492.242V67.8559M492.242 51.6264V67.8559M492.242 67.8559H479.653V39.0371" stroke="#26249E" stroke-width="7.88722" stroke-linecap="round" stroke-linejoin="round"/>
<path fill-rule="evenodd" clip-rule="evenodd" d="M-23.0687 369.13C19.4515 369.13 57.1357 348.424 80.4508 316.545C91.8621 319.875 103.932 321.661 116.419 321.661H281.465C352.25 321.661 409.632 264.279 409.632 193.494C409.632 122.71 352.25 65.3276 281.465 65.3276H116.419C73.8984 65.3276 36.2142 86.0334 12.8991 117.912C1.48792 114.582 -10.5818 112.797 -23.0686 112.797H-283.053C-325.572 112.797 -363.255 133.501 -386.571 165.378H-528.066V193.075C-550.767 157.124 -590.852 133.245 -636.514 133.245H-669.377C-740.162 133.245 -797.544 190.628 -797.544 261.412C-797.544 332.196 -740.162 389.579 -669.378 389.579H-636.514C-582.361 389.579 -536.052 355.993 -517.28 308.516H-391.993C-369.381 344.904 -329.047 369.13 -283.054 369.13H-23.0687Z" fill="#26249E"/>
<rect width="24.8301" height="51.851" rx="11.6847" transform="matrix(-0.996381 0.0849975 0.0849975 0.996381 189.211 55.1143)" fill="#26249E"/>
<rect width="24.8301" height="59.8842" rx="11.6847" transform="matrix(-0.996381 0.0849975 0.0849975 0.996381 203.069 45.6226)" fill="#26249E"/>
<rect width="24.3831" height="47.2098" rx="11.6847" transform="matrix(-0.996381 0.0849975 0.0849975 0.996381 167.367 48.1831)" fill="#26249E"/>
<rect width="24.3831" height="47.2098" rx="11.6847" transform="matrix(-0.996381 0.0849975 0.0849975 0.996381 215.727 56.5503)" fill="#26249E"/>
<rect width="24.3831" height="29.0522" rx="11.6847" transform="matrix(-0.996381 0.0849975 0.0849975 0.996381 188.631 80.7295)" fill="#26249E"/>
<path d="M214.251 94.1646L212.09 68.8359" stroke="#26249E" stroke-width="5.84236" stroke-linecap="round"/>
<path d="M185.993 98.6569L185.199 89.353" stroke="#26249E" stroke-width="5.84235" stroke-linecap="round"/>
<path fill-rule="evenodd" clip-rule="evenodd" d="M582.128 123.57H655.006V49.9912H501.261C543.534 50.0057 578.262 82.3033 582.128 123.57ZM501.204 49.9912H497.262L497.262 50.0865C498.568 50.0237 499.882 49.9917 501.204 49.9912Z" fill="#221E9C"/>
<path d="M454.912 6.53835C454.912 -17.8632 474.693 -37.6445 499.095 -37.6445H655.013V50.7212H499.095C474.693 50.7212 454.912 30.9399 454.912 6.53835Z" fill="#221E9C"/>
<rect x="487.042" y="-4.78076" width="95.6687" height="22.6392" rx="11.3196" fill="#0D1179"/>
<path d="M513.901 144.199C515.835 136.586 518.121 119.343 511.792 111.27C505.023 102.636 512.345 98.0845 508.987 86.3067M499.924 55.7671C499.045 58.0686 499.08 66.0709 506.253 79.6677C507.549 82.1231 508.42 84.3179 508.987 86.3067M508.987 86.3067C512.471 85.156 519.123 80.7831 517.857 72.4975C516.591 64.212 514.693 52.4033 513.901 47.5347M517.857 144.199C522.692 137.472 531.36 119.927 527.351 103.568C522.34 83.12 526.56 85.5101 531.571 75.1531C536.581 64.7962 531.571 54.9704 527.351 47.5347C523.975 41.5861 528.758 35.4959 531.571 33.1943M511.792 144.199C506.25 143.475 496.914 139.202 496.142 128M493.859 72.4975C493.067 74.8876 491.96 81.4204 493.859 88.4312C496.232 97.1948 502.561 97.4603 497.023 119.502C496.22 122.699 495.971 125.519 496.142 128M496.142 128C487.469 127.026 470.968 121.202 474.343 105.693C478.563 86.3067 486.474 85.7756 480.409 67.983C474.343 50.1903 486.474 47.2691 480.409 35.0533" stroke="#5D5AF4" stroke-width="6.52969" stroke-linecap="round"/>
<path d="M602.489 113.638C601.052 104.888 600.687 85.271 610.717 76.808C612.304 75.4692 613.734 74.2622 615.027 73.1513M629.132 52.1241C626.394 62.3908 623.955 65.4836 615.027 73.1513M615.027 73.1513C613.721 67.5788 611.893 54.3182 615.027 45.8551C618.162 37.3921 618.162 31.6195 617.77 29.791M610.717 129.702C618.814 127.351 634.696 119.28 633.442 105.802C631.875 88.954 633.442 81.6406 640.886 73.1513C646.842 66.3598 645.98 53.4301 644.805 47.8142M635.793 99.5328C639.45 93.2639 648.017 80.3342 653.033 78.767C658.048 77.1998 658.257 67.1434 657.734 62.3111M606.799 122.258C611.37 118.078 619.964 106.429 617.77 93.2639C615.576 80.0992 622.341 76.808 625.998 76.808M598.179 41.9371C591.649 42.8513 578.276 43.1908 577.022 37.2354M593.87 81.9015C593.739 75.7631 591.127 61.9193 581.723 55.6503M606.799 157.912C608.105 149.554 603.978 132.21 577.022 129.702C570.8 129.123 566.315 127.293 563.14 124.609M542.543 52.1241C548.812 54.6055 561.271 62.285 560.958 73.1513C560.638 84.2262 549.118 112.753 563.14 124.609M563.14 124.609C563.327 115.075 565.033 94.596 570.361 88.954C575.69 83.312 575.193 73.0205 574.279 68.58M593.87 102.667C588.645 100.578 577.414 97.6522 574.279 102.667M606.799 129.702C600.008 124.086 583.996 113.246 574.279 114.813" stroke="#5D5AF4" stroke-width="5.41606" stroke-linecap="round"/>
<path d="M3.68657 44.8205C3.69011 44.8434 3.694 44.8661 3.69824 44.8887L3.69574 44.8891L7.51624 69.5382C7.16613 70.0849 7.03888 70.7331 7.21662 71.3576C7.22144 71.3745 7.22645 71.3913 7.23166 71.408L7.22916 71.4087L8.49602 75.8596L10.3156 87.599L-7.75766 47.3783L-7.75904 47.379C-7.76947 47.3541 -7.78024 47.3293 -7.79136 47.3045C-8.61301 45.476 -10.992 44.7634 -13.105 45.7129C-15.2179 46.6623 -16.2648 48.9143 -15.4431 50.7429C-15.432 50.7676 -15.4206 50.7921 -15.4089 50.8165L-15.4099 50.8169L1.00678 87.3509L-21.2911 60.008C-21.3261 59.9386 -21.3683 59.8733 -21.4179 59.8124C-22.0493 59.0382 -23.6408 59.2909 -24.9726 60.377C-26.2444 61.4142 -26.8195 62.8363 -26.3187 63.6365L-26.345 63.658L0.670918 96.7866L0.67168 96.7883L10.8633 109.286L12.0571 111.943L-28.9559 82.3597C-28.9716 82.3477 -28.9876 82.3358 -29.0037 82.3242C-30.2227 81.4449 -32.1839 82.081 -33.3841 83.7449C-34.5843 85.4089 -34.5691 87.4706 -33.3501 88.3499C-33.3339 88.3615 -33.3177 88.3729 -33.3013 88.384L-33.3025 88.3857L-0.217609 112.25L-17.929 107.506L-17.9294 107.508C-17.9425 107.503 -17.9557 107.499 -17.9691 107.496C-18.9179 107.241 -20.2465 109.124 -20.9364 111.7C-21.6264 114.276 -21.4166 116.57 -20.4678 116.824C-20.4544 116.828 -20.441 116.831 -20.4275 116.833L-20.4278 116.835L17.7521 127.062L17.7525 127.06C18.2246 127.156 18.7851 126.739 19.3128 125.981C20.3665 126.456 21.6952 126.47 22.9327 125.914C23.8689 125.493 24.5957 124.817 25.0436 124.035C25.323 123.912 25.5791 123.771 25.807 123.615C26.3767 123.877 27.9461 123.649 29.6795 123.014C31.7385 122.259 33.2491 121.215 33.0536 120.682C33.0493 120.67 33.0442 120.658 33.0383 120.647L32.6718 119.648L32.6724 119.645C32.9382 119.646 33.2128 119.635 33.4931 119.611C35.6783 119.425 37.3859 118.526 37.3072 117.602C37.3056 117.583 37.3032 117.564 37.3001 117.545L34.1432 80.4816C34.1431 80.4638 34.1422 80.4459 34.1407 80.4281C34.062 79.5043 32.2268 78.9063 30.0417 79.0924C29.3384 79.1523 28.6846 79.2861 28.1239 79.4709L27.7735 76.5266L28.1092 57.4632C28.1105 57.4397 28.1114 57.4162 28.1119 57.3926C28.1331 56.1838 26.9174 55.1262 25.1717 54.6612L24.0919 45.5864C24.0895 45.5621 24.0865 45.5378 24.0836 45.5134C23.8679 43.7008 22.125 42.418 20.1908 42.6482C18.2565 42.8784 16.8634 44.5343 17.0791 46.3469C17.082 46.3712 17.0851 46.3955 17.0886 46.4197L17.0869 46.4199L18.4436 57.8213L18.0702 79.0267L12.566 43.5143C12.5631 43.4914 12.5598 43.4686 12.5563 43.4458C12.2926 41.7447 10.0933 40.6734 7.644 41.053C5.19471 41.4326 3.4229 43.1194 3.68657 44.8205Z" fill="#26249E"/>
<rect x="274.695" y="4.6333" width="24.3831" height="77.8184" rx="11.6847" fill="#28259F"/>
<rect x="260.17" y="-9.89258" width="24.3831" height="91.8257" rx="11.6847" fill="#28259F"/>
<rect x="287.664" y="22.7905" width="24.3831" height="47.2098" rx="11.6847" fill="#28259F"/>
<rect x="248.238" y="34.2041" width="24.3831" height="47.2098" rx="11.6847" fill="#28259F"/>
<rect x="277.29" y="55.9937" width="24.3831" height="29.0522" rx="11.6847" fill="#28259F"/>
<path d="M252.909 71.5569V46.1362" stroke="#28259F" stroke-width="5.84236" stroke-linecap="round"/>
<path d="M264.84 27.4597V2.03906" stroke="#28259F" stroke-width="5.84236" stroke-linecap="round"/>
<path d="M281.438 73.6316L281.438 64.2939" stroke="#28259F" stroke-width="5.84236" stroke-linecap="round"/>
<path fill-rule="evenodd" clip-rule="evenodd" d="M-709.182 166.837C-723.457 166.837 -735.076 178.215 -735.462 192.398H-776.366V390.307H-735.472V449.461L-232.296 449.461V450.192H116.784V424.632H400.138V226.722H61.5972C42.5061 214.252 19.6948 207.004 -4.80945 207.004H-110.702C-113.183 207.004 -115.647 207.078 -118.092 207.224V191.667C-118.092 185.214 -123.323 179.983 -129.776 179.983H-130.79C-137.243 179.983 -142.475 185.214 -142.475 191.667V191.945C-144.569 189.962 -147.396 188.746 -150.507 188.746H-151.968C-152.62 188.746 -153.26 188.8 -153.883 188.902C-155.29 184.029 -159.784 180.465 -165.11 180.465H-166.571C-173.024 180.465 -178.256 185.697 -178.256 192.15V192.429H-178.258C-183.532 192.429 -187.99 195.923 -189.443 200.723C-191.358 199.351 -193.705 198.543 -196.24 198.543H-197.254C-197.344 198.543 -197.434 198.544 -197.523 198.546V192.07C-197.523 185.617 -202.755 180.386 -209.208 180.386H-210.222C-216.675 180.386 -221.906 185.617 -221.906 192.07V198.105C-222.438 198.031 -222.982 197.992 -223.534 197.992H-224.995C-226.343 197.992 -227.638 198.221 -228.843 198.641V177.792C-228.843 176.178 -230.15 174.871 -231.764 174.871C-233.377 174.871 -234.685 176.178 -234.685 177.792V203.146C-235.944 205.01 -236.679 207.258 -236.679 209.677V209.957C-243.133 209.957 -248.365 215.188 -248.365 221.641V245.482C-248.365 247.705 -247.744 249.783 -246.666 251.552H-284.764L-264.287 237.131L-264.307 237.103C-263.609 236.467 -263.779 234.943 -264.724 233.601C-265.713 232.196 -267.178 231.524 -267.994 232.099C-268.059 232.144 -268.117 232.196 -268.169 232.253L-295.573 251.552H-296.163L-271.349 221.818L-271.351 221.816L-271.337 221.8L-271.326 221.786C-271.317 221.776 -271.308 221.766 -271.3 221.756C-270.015 220.216 -270.416 217.766 -272.194 216.281C-273.973 214.797 -276.456 214.842 -277.74 216.381C-277.75 216.392 -277.759 216.403 -277.768 216.415C-277.777 216.426 -277.787 216.437 -277.796 216.449L-306.054 250.311L-301.122 239.468L-298.71 235.539C-298.701 235.524 -298.692 235.508 -298.682 235.493C-298.343 234.94 -298.29 234.281 -298.48 233.66L-288.152 210.954L-288.155 210.953C-288.144 210.933 -288.135 210.912 -288.125 210.891C-287.412 209.324 -288.663 207.222 -290.919 206.196C-293.176 205.169 -295.582 205.608 -296.295 207.175C-296.305 207.196 -296.314 207.218 -296.324 207.24L-311.181 239.903L-305.81 219.344L-301.464 208.817L-301.464 208.816C-301.455 208.794 -301.445 208.771 -301.436 208.749C-300.739 207.061 -301.634 205.091 -303.434 204.348C-305.235 203.604 -307.259 204.369 -307.956 206.057C-307.965 206.079 -307.974 206.102 -307.983 206.125L-307.984 206.125L-311.472 214.573C-313.273 214.553 -314.723 215.243 -315.028 216.41C-315.031 216.421 -315.033 216.432 -315.036 216.442L-315.038 216.451L-315.042 216.469C-315.044 216.476 -315.045 216.483 -315.047 216.491L-316.239 221.054C-316.784 220.423 -317.792 219.785 -319.03 219.351C-319.694 219.118 -320.343 218.972 -320.929 218.91L-320.027 216.034L-311.926 198.824L-311.916 198.804C-311.91 198.791 -311.903 198.778 -311.897 198.765C-311.383 197.673 -312.056 196.213 -313.454 195.074L-310.737 186.412C-310.722 186.369 -310.707 186.325 -310.693 186.282C-310.147 184.54 -311.211 182.655 -313.07 182.073C-314.928 181.49 -316.878 182.429 -317.424 184.171C-317.431 184.195 -317.439 184.218 -317.445 184.242L-317.45 184.241L-320.87 195.148L-329.893 214.319L-320.377 179.738L-320.381 179.737C-320.374 179.715 -320.368 179.693 -320.362 179.671C-319.905 178.011 -321.472 176.133 -323.862 175.475C-326.251 174.817 -328.559 175.63 -329.016 177.29C-329.025 177.324 -329.034 177.359 -329.042 177.393L-335.646 201.394C-336.198 201.749 -336.585 202.292 -336.68 202.941C-336.684 202.967 -336.687 202.993 -336.69 203.019L-337.365 207.638L-340.51 219.068V174.93H-340.511C-340.51 174.903 -340.51 174.876 -340.51 174.849C-340.51 172.844 -342.388 171.219 -344.704 171.219C-347.021 171.219 -348.899 172.844 -348.899 174.849C-348.899 174.876 -348.898 174.903 -348.898 174.93H-348.899V214.952L-353.064 199.41V199.408L-358.025 180.897C-358.029 180.822 -358.04 180.748 -358.06 180.674C-358.318 179.709 -359.874 179.288 -361.534 179.732C-363.119 180.157 -364.227 181.219 -364.097 182.154L-364.129 182.163L-348.899 238.998V241.925L-374.172 198.151L-374.174 198.152C-374.184 198.134 -374.193 198.116 -374.204 198.099C-374.955 196.797 -377.005 196.573 -378.781 197.599C-379.67 198.112 -380.322 198.841 -380.658 199.603C-402.982 179.249 -432.673 166.837 -465.264 166.837H-709.182ZM-319.84 234.84L-321.006 237.663C-321.036 237.643 -321.066 237.623 -321.097 237.603C-321.131 237.581 -321.166 237.559 -321.201 237.537L-318.629 230.204L-319.84 234.84Z" fill="#363BBC"/>
<path d="M182.353 236.581C178.29 228.273 172.601 208 182.353 193.371C194.544 175.085 196.034 167.5 194.002 147.724C192.377 131.903 201.813 118.827 206.735 114.267" stroke="#363BBC" stroke-width="5.68903" stroke-linecap="round"/>
<path d="M202.992 120.469C202.985 120.47 202.979 120.476 202.979 120.483C202.979 120.491 202.972 120.497 202.964 120.497C199.979 120.505 197.56 122.928 197.56 125.916C197.56 128.903 199.979 131.326 202.964 131.334C202.972 131.334 202.979 131.34 202.979 131.348C202.979 131.355 202.985 131.362 202.992 131.362C209.09 131.591 214.834 133.205 219.918 135.898C221.532 136.754 223.308 137.294 225.134 137.294H227.36L227.36 137.293L227.361 137.293C233.657 137.22 238.738 132.094 238.738 125.78C238.738 119.467 233.657 114.34 227.361 114.267L227.36 114.267L227.36 114.267H225.63C223.76 114.267 221.946 114.832 220.304 115.725C215.126 118.544 209.245 120.235 202.992 120.469Z" fill="#363BBC"/>
<path d="M199.983 115.75C199.99 115.754 199.992 115.763 199.989 115.769C199.985 115.776 199.988 115.785 199.994 115.788C202.623 117.205 203.611 120.482 202.2 123.116C200.79 125.75 197.514 126.744 194.879 125.341C194.872 125.337 194.863 125.34 194.86 125.347C194.856 125.353 194.848 125.356 194.841 125.353C189.357 122.675 183.532 121.387 177.779 121.361C175.952 121.353 174.132 120.991 172.521 120.129L170.559 119.078L170.559 119.078L170.559 119.077C165.043 116.04 162.984 109.122 165.964 103.557C168.945 97.9911 175.844 95.8707 181.429 98.7789L181.43 98.7788L181.43 98.7786L182.955 99.5953C184.603 100.478 185.936 101.833 186.962 103.396C190.196 108.325 194.582 112.592 199.983 115.75Z" fill="#363BBC"/>
<path d="M173.773 193.963C173.78 193.961 173.788 193.965 173.791 193.972C173.793 193.98 173.801 193.983 173.809 193.981C176.634 193.015 179.71 194.517 180.684 197.341C181.658 200.165 180.162 203.244 177.342 204.225C177.334 204.228 177.33 204.236 177.333 204.243C177.335 204.25 177.332 204.258 177.325 204.261C171.634 206.465 166.731 209.864 162.803 214.068C161.556 215.403 160.054 216.492 158.327 217.088L156.223 217.813L156.222 217.813L156.222 217.813C150.246 219.797 143.771 216.607 141.712 210.639C139.654 204.67 142.786 198.167 148.714 196.046L148.715 196.045L148.715 196.045L150.35 195.481C152.117 194.871 154.017 194.814 155.861 195.123C161.675 196.099 167.785 195.78 173.773 193.963Z" fill="#363BBC"/>
<path d="M178.644 207.134C178.639 207.128 178.638 207.12 178.643 207.114C178.649 207.108 178.648 207.099 178.642 207.094C176.411 205.11 176.205 201.693 178.184 199.456C180.164 197.218 183.58 197.005 185.822 198.978C185.828 198.983 185.837 198.982 185.842 198.977C185.847 198.971 185.855 198.97 185.861 198.975C190.58 202.844 195.952 205.441 201.544 206.792C203.32 207.22 205.008 207.992 206.376 209.203L208.043 210.677L208.043 210.678L208.043 210.678C212.711 214.905 213.12 222.111 208.937 226.84C204.754 231.569 197.551 232.042 192.787 227.925L192.787 227.925L192.786 227.925L191.49 226.778C190.09 225.54 189.105 223.914 188.468 222.157C186.456 216.615 183.172 211.452 178.644 207.134Z" fill="#363BBC"/>
<path d="M204.091 108.487C204.088 108.494 204.091 108.502 204.098 108.505C204.105 108.508 204.108 108.517 204.105 108.524C202.882 111.248 204.093 114.449 206.816 115.68C209.538 116.911 212.742 115.706 213.979 112.988C213.982 112.981 213.99 112.978 213.998 112.981C214.004 112.984 214.013 112.982 214.016 112.975C216.737 107.512 220.574 102.944 225.123 99.4214C226.567 98.3031 227.791 96.9075 228.543 95.2431L229.46 93.2152L229.46 93.2147L229.46 93.2142C231.988 87.4472 229.41 80.7049 223.657 78.1038C217.905 75.5027 211.14 78.0208 208.479 83.7278L208.479 83.7279L208.478 83.7281L207.766 85.3045C206.995 87.0077 206.763 88.8941 206.901 90.7583C207.335 96.6378 206.453 102.693 204.091 108.487Z" fill="#363BBC"/>
<path d="M201.46 144.956C201.453 144.952 201.445 144.954 201.441 144.96C201.436 144.966 201.427 144.968 201.421 144.963C198.986 143.234 195.611 143.801 193.874 146.232C192.138 148.664 192.698 152.041 195.124 153.782C195.13 153.786 195.132 153.795 195.127 153.802C195.123 153.808 195.124 153.816 195.13 153.821C199.96 157.551 203.696 162.202 206.268 167.348C207.085 168.982 208.216 170.454 209.703 171.515L211.514 172.809L211.515 172.808L211.515 172.808C216.682 176.408 223.796 175.189 227.465 170.051C231.134 164.913 229.977 157.787 224.895 154.07L224.895 154.069L224.895 154.068L223.487 153.063C221.966 151.977 220.161 151.382 218.305 151.156C212.453 150.44 206.685 148.399 201.46 144.956Z" fill="#363BBC"/>
<path d="M196.046 177.632C196.038 177.629 196.028 177.633 196.025 177.641C196.022 177.649 196.012 177.652 196.004 177.649C192.894 176.305 189.281 177.731 187.928 180.84C186.576 183.948 187.995 187.564 191.098 188.924C191.106 188.927 191.11 188.937 191.106 188.945C191.103 188.953 191.106 188.962 191.114 188.966C197.356 191.964 202.601 196.244 206.671 201.348C207.963 202.969 209.566 204.335 211.467 205.162L213.783 206.169L213.783 206.169L213.784 206.169C220.368 208.944 227.976 205.91 230.834 199.341C233.692 192.772 230.726 185.138 224.208 182.211L224.208 182.211L224.208 182.21L222.408 181.427C220.463 180.581 218.319 180.347 216.206 180.534C209.542 181.122 202.658 180.219 196.046 177.632Z" fill="#363BBC"/>
<path d="M188.6 173.664C188.608 173.663 188.614 173.656 188.613 173.648C188.613 173.64 188.619 173.632 188.627 173.632C191.833 173.39 194.24 170.599 194.006 167.391C193.772 164.183 190.986 161.771 187.78 161.996C187.771 161.997 187.764 161.99 187.763 161.982C187.763 161.974 187.756 161.968 187.747 161.968C181.182 162.2 174.888 160.916 169.218 158.421C167.418 157.629 165.469 157.188 163.508 157.331L161.118 157.505L161.118 157.506L161.117 157.506C154.363 158.077 149.307 163.979 149.801 170.758C150.295 177.538 156.153 182.645 162.919 182.23L162.919 182.231L162.92 182.231L164.778 182.096C166.785 181.949 168.689 181.2 170.382 180.113C175.722 176.681 181.904 174.405 188.6 173.664Z" fill="#363BBC"/>
<path d="M190.886 134.39C190.894 134.39 190.9 134.397 190.9 134.404C190.9 134.412 190.907 134.418 190.914 134.418C193.9 134.367 196.365 136.743 196.423 139.73C196.481 142.717 194.11 145.186 191.125 145.252C191.118 145.252 191.111 145.259 191.111 145.266C191.112 145.274 191.106 145.28 191.098 145.281C185.006 145.628 179.294 147.354 174.264 150.146C172.667 151.033 170.902 151.607 169.076 151.643L166.851 151.686L166.85 151.686L166.85 151.685C160.553 151.735 155.373 146.708 155.25 140.396C155.127 134.084 160.108 128.859 166.401 128.664L166.402 128.664L166.402 128.663L168.132 128.63C170.001 128.593 171.826 129.123 173.485 129.984C178.717 132.701 184.63 134.278 190.886 134.39Z" fill="#363BBC"/>
<path d="M62.2893 230.313C65.2518 225.311 69.832 212.892 64.4533 203.236C57.7299 191.167 57.1761 186.339 59.4397 174.048C61.2506 164.216 55.9921 155.549 53.1365 152.445" stroke="#363BBC" stroke-width="3.57633" stroke-linecap="round"/>
<path d="M55.1653 156.519C55.17 156.52 55.1735 156.524 55.1731 156.529C55.1727 156.533 55.1764 156.538 55.1813 156.538C57.0519 156.692 58.4459 158.332 58.2963 160.204C58.1466 162.076 56.51 163.473 54.6386 163.329C54.6337 163.328 54.6294 163.332 54.629 163.337C54.6286 163.341 54.6245 163.345 54.6198 163.345C50.787 163.183 47.107 163.906 43.7864 165.34C42.7321 165.795 41.5923 166.044 40.4477 165.953L39.053 165.842L39.0528 165.841L39.0526 165.841C35.1108 165.48 32.1833 162.013 32.4995 158.057C32.8157 154.101 36.2567 151.143 40.2057 151.412L40.206 151.412L40.2063 151.412L41.2903 151.499C42.4617 151.592 43.5705 152.037 44.5546 152.679C47.6584 154.705 51.2586 156.059 55.1653 156.519Z" fill="#363BBC"/>
<path d="M57.2896 153.712C57.2853 153.714 57.2834 153.72 57.2853 153.724C57.2872 153.728 57.2851 153.734 57.2807 153.736C55.5626 154.491 54.7794 156.496 55.5313 158.217C56.2833 159.938 58.286 160.725 60.008 159.978C60.0124 159.976 60.0177 159.978 60.0197 159.982C60.0216 159.987 60.0266 159.989 60.031 159.987C63.6014 158.584 67.3163 158.068 70.9228 158.34C72.0679 158.427 73.2267 158.291 74.279 157.831L75.561 157.271L75.5612 157.271L75.5613 157.271C79.1699 155.644 80.8069 151.412 79.2179 147.775C77.6289 144.138 73.4114 142.464 69.7662 144.007L69.7658 144.006L69.7655 144.006L68.7689 144.442C67.6921 144.912 66.789 145.695 66.0681 146.623C63.7945 149.549 60.8326 152.003 57.2896 153.712Z" fill="#363BBC"/>
<path d="M69.794 204.036C69.7895 204.035 69.7845 204.037 69.7826 204.041C69.7806 204.045 69.7754 204.047 69.7709 204.046C68.0489 203.299 66.0462 204.086 65.2943 205.807C64.5425 207.528 65.3258 209.532 67.0439 210.288C67.0484 210.29 67.0504 210.295 67.0485 210.3C67.0466 210.304 67.0485 210.309 67.0528 210.311C70.5081 211.978 73.4107 214.353 75.6614 217.184C76.376 218.083 77.263 218.841 78.3153 219.3L79.5973 219.861L79.5977 219.86L79.598 219.86C83.2433 221.403 87.4607 219.728 89.0496 216.091C90.6384 212.454 89.0012 208.222 85.3925 206.596L85.3924 206.596L85.3923 206.595L84.3957 206.16C83.3189 205.69 82.1312 205.559 80.9605 205.66C77.2682 205.98 73.4551 205.475 69.794 204.036Z" fill="#363BBC"/>
<path d="M66.0804 212.046C66.0841 212.043 66.0848 212.038 66.0819 212.034C66.079 212.03 66.0798 212.024 66.0837 212.022C67.5813 210.89 67.8814 208.759 66.7531 207.258C65.6247 205.756 63.4945 205.452 61.9911 206.576C61.9872 206.579 61.9816 206.578 61.9787 206.574C61.9758 206.57 61.9704 206.57 61.9665 206.572C58.8156 208.76 55.3196 210.119 51.7475 210.685C50.6133 210.865 49.517 211.264 48.599 211.954L47.4806 212.794L47.4805 212.795L47.4805 212.795C44.3439 215.21 43.7265 219.705 46.1109 222.878C48.4953 226.051 52.9852 226.708 56.1767 224.366L56.1771 224.366L56.1774 224.366L57.0468 223.713C57.9862 223.007 58.6846 222.038 59.1722 220.968C60.7101 217.596 63.0266 214.526 66.0804 212.046Z" fill="#363BBC"/>
<path d="M55.0776 148.955C55.079 148.959 55.0766 148.964 55.0722 148.966C55.0676 148.968 55.0652 148.973 55.0668 148.977C55.6969 150.745 54.7775 152.691 53.0099 153.326C51.2424 153.961 49.2951 153.045 48.6559 151.28C48.6543 151.276 48.6492 151.273 48.6446 151.275C48.6401 151.277 48.6351 151.274 48.6334 151.27C47.202 147.711 45.0263 144.656 42.3522 142.221C41.5031 141.448 40.8062 140.512 40.418 139.431L39.945 138.114L39.9451 138.114L39.9453 138.114C38.6501 134.373 40.6031 130.278 44.3382 128.936C48.0733 127.594 52.1863 129.511 53.5675 133.22L53.5678 133.22L53.5681 133.22L53.9358 134.244C54.3331 135.35 54.3844 136.543 54.2047 137.705C53.638 141.367 53.8873 145.206 55.0776 148.955Z" fill="#363BBC"/>
<path d="M54.8982 171.941C54.9023 171.938 54.9076 171.94 54.91 171.944C54.9126 171.948 54.918 171.949 54.9222 171.947C56.5343 170.985 58.6214 171.509 59.5875 173.12C60.5537 174.731 60.0336 176.819 58.4265 177.788C58.4223 177.791 58.4209 177.796 58.4234 177.801C58.4259 177.805 58.4247 177.81 58.4207 177.813C55.2073 179.908 52.6329 182.635 50.7635 185.732C50.1699 186.715 49.3873 187.58 48.4026 188.171L47.2028 188.89L47.2025 188.89L47.2022 188.89C43.7845 190.887 39.3873 189.767 37.3457 186.363C35.304 182.96 36.3855 178.553 39.7561 176.478L39.7562 176.477L39.7563 176.477L40.6889 175.918C41.6965 175.313 42.8576 175.031 44.0316 174.982C47.7346 174.826 51.4514 173.836 54.8982 171.941Z" fill="#363BBC"/>
<path d="M56.6584 192.687C56.6636 192.686 56.6691 192.689 56.6708 192.694C56.6726 192.699 56.6784 192.702 56.6836 192.7C58.6999 192.014 60.8924 193.088 61.5843 195.104C62.2762 197.12 61.2059 199.314 59.1932 200.011C59.1879 200.013 59.1851 200.018 59.1869 200.024C59.1886 200.029 59.186 200.034 59.181 200.036C55.1197 201.603 51.6184 204.022 48.8124 207.017C47.9215 207.968 46.8485 208.743 45.6161 209.166L44.1146 209.682L44.1142 209.681L44.1138 209.681C39.8491 211.09 35.2335 208.808 33.7714 204.549C32.3093 200.289 34.5504 195.654 38.7814 194.147L38.7816 194.146L38.7817 194.146L39.9489 193.745C41.2101 193.312 42.5653 193.273 43.8799 193.496C48.0263 194.198 52.3853 193.977 56.6584 192.687Z" fill="#363BBC"/>
<path d="M61.5214 190.574C61.5164 190.573 61.513 190.568 61.5138 190.563C61.5146 190.558 61.511 190.553 61.5058 190.552C59.5092 190.24 58.1407 188.371 58.4478 186.372C58.755 184.373 60.6216 183.001 62.6198 183.303C62.625 183.304 62.6299 183.3 62.6307 183.295C62.6315 183.29 62.6361 183.287 62.6412 183.287C66.744 183.761 70.7522 183.272 74.4299 181.993C75.5975 181.586 76.8409 181.408 78.0629 181.595L79.5516 181.824L79.5519 181.825L79.5521 181.825C83.7564 182.521 86.6286 186.473 85.9796 190.696C85.3305 194.919 81.4042 197.826 77.185 197.228L77.1847 197.228L77.1844 197.228L76.0271 197.05C74.7766 196.858 73.6208 196.293 72.6144 195.527C69.4401 193.109 65.6803 191.373 61.5214 190.574Z" fill="#363BBC"/>
<path d="M62.058 165.849C62.0533 165.848 62.0491 165.852 62.0487 165.857C62.0482 165.861 62.0438 165.865 62.0389 165.865C60.1707 165.683 58.5071 167.048 58.3211 168.917C58.1351 170.786 59.4968 172.452 61.3641 172.643C61.369 172.644 61.3726 172.648 61.3721 172.653C61.3716 172.658 61.375 172.662 61.3797 172.662C65.1801 173.185 68.6725 174.553 71.6849 176.554C72.6413 177.19 73.7185 177.638 74.8612 177.752L76.2533 177.89L76.2536 177.89L76.2539 177.89C80.1969 178.237 83.6949 175.346 84.088 171.397C84.4812 167.448 81.6217 163.924 77.6877 163.487L77.6875 163.486L77.6873 163.486L76.6051 163.378C75.4358 163.262 74.2654 163.502 73.1827 163.959C69.768 165.4 65.9842 166.091 62.058 165.849Z" fill="#363BBC"/>
<path d="M126.37 169.506C126.374 169.51 126.374 169.516 126.37 169.52C126.366 169.523 126.366 169.53 126.37 169.534C127.848 171.019 127.846 173.421 126.364 174.904C124.881 176.387 122.479 176.389 120.994 174.912C120.99 174.908 120.983 174.908 120.98 174.912C120.976 174.915 120.97 174.915 120.966 174.912C117.826 172 114.174 169.951 110.315 168.765C109.089 168.389 107.94 167.776 107.034 166.869L105.929 165.765L105.929 165.765L105.929 165.764C102.84 162.604 102.862 157.539 105.995 154.405C109.127 151.272 114.193 151.249 117.354 154.337L117.354 154.337L117.355 154.337L118.213 155.195C119.141 156.123 119.761 157.304 120.132 158.562C121.304 162.53 123.383 166.287 126.37 169.506Z" fill="#363BBC"/>
<path d="M127.924 178.946C127.919 178.947 127.914 178.944 127.912 178.939C127.91 178.934 127.905 178.931 127.9 178.933C125.907 179.581 123.764 178.494 123.111 176.502C122.457 174.51 123.54 172.365 125.529 171.707C125.535 171.706 125.537 171.7 125.536 171.695C125.534 171.69 125.537 171.684 125.542 171.682C129.558 170.196 133.035 167.863 135.836 164.955C136.725 164.032 137.791 163.283 139.009 162.884L140.493 162.397L140.494 162.397L140.494 162.397C144.708 161.069 149.218 163.376 150.599 167.586C151.98 171.796 149.713 176.326 145.53 177.751L145.53 177.752L145.53 177.752L144.376 178.13C143.13 178.539 141.796 178.559 140.506 178.323C136.436 177.576 132.145 177.734 127.924 178.946Z" fill="#363BBC"/>
<path d="M126.292 166.675C126.292 166.68 126.296 166.684 126.301 166.685C126.306 166.686 126.31 166.69 126.31 166.696C126.102 168.781 127.621 170.642 129.707 170.855C131.793 171.068 133.657 169.553 133.875 167.469C133.876 167.463 133.88 167.459 133.886 167.46C133.891 167.46 133.896 167.456 133.897 167.451C134.491 163.21 136.027 159.315 138.271 155.958C138.983 154.892 139.486 153.691 139.617 152.416L139.775 150.862L139.775 150.862L139.775 150.861C140.173 146.46 136.956 142.547 132.549 142.097C128.141 141.647 124.199 144.829 123.7 149.219L123.699 149.22L123.699 149.22L123.576 150.428C123.442 151.733 123.708 153.04 124.214 154.25C125.813 158.066 126.574 162.292 126.292 166.675Z" fill="#363BBC"/>
<path d="M118.441 213.949C118.447 213.948 118.451 213.943 118.451 213.938C118.45 213.932 118.455 213.927 118.461 213.926C120.71 213.756 122.399 211.798 122.235 209.547C122.071 207.295 120.116 205.602 117.866 205.76C117.86 205.761 117.855 205.756 117.854 205.751C117.854 205.745 117.849 205.741 117.843 205.741C113.235 205.903 108.819 205.002 104.84 203.252C103.577 202.696 102.209 202.386 100.832 202.487L99.1552 202.609L99.155 202.609L99.1547 202.609C94.4142 203.01 90.8665 207.152 91.2132 211.91C91.5598 216.667 95.6705 220.251 100.419 219.96L100.419 219.961L100.42 219.961L101.723 219.866C103.132 219.763 104.468 219.238 105.656 218.474C109.404 216.066 113.742 214.469 118.441 213.949Z" fill="#363BBC"/>
<path d="M114.63 195.339C114.635 195.341 114.642 195.339 114.644 195.334C114.647 195.329 114.653 195.326 114.658 195.329C116.689 196.313 119.133 195.468 120.123 193.439C121.112 191.41 120.272 188.964 118.247 187.97C118.242 187.968 118.24 187.961 118.242 187.956C118.245 187.951 118.243 187.945 118.238 187.942C114.172 185.767 110.806 182.769 108.246 179.256C107.433 178.14 106.406 177.185 105.166 176.58L103.654 175.843L103.654 175.843L103.654 175.844C99.3538 173.808 94.2051 175.606 92.1141 179.894C90.0232 184.181 91.7761 189.345 96.0277 191.48L96.0278 191.48L96.028 191.481L97.2028 192.054C98.4722 192.673 99.8918 192.89 101.303 192.827C105.753 192.628 110.306 193.427 114.63 195.339Z" fill="#363BBC"/>
<path d="M124.635 196.807C124.63 196.808 124.624 196.804 124.623 196.798C124.622 196.793 124.616 196.789 124.611 196.79C122.396 197.221 120.25 195.778 119.813 193.564C119.376 191.349 120.814 189.2 123.026 188.757C123.032 188.756 123.036 188.751 123.035 188.745C123.034 188.739 123.037 188.734 123.043 188.732C127.53 187.671 131.552 185.635 134.926 182.895C135.998 182.025 137.235 181.365 138.589 181.098L140.239 180.773L140.239 180.773L140.239 180.773C144.917 179.907 149.433 182.964 150.356 187.644C151.279 192.324 148.262 196.867 143.606 197.842L143.605 197.842L143.605 197.842L142.323 198.095C140.937 198.368 139.509 198.215 138.162 197.792C133.911 196.46 129.305 196.066 124.635 196.807Z" fill="#363BBC"/>
<path d="M126.887 214.026C126.881 214.026 126.877 214.022 126.877 214.016C126.877 214.01 126.872 214.005 126.866 214.005C124.61 214.012 122.773 212.192 122.76 209.935C122.748 207.677 124.564 205.837 126.82 205.818C126.826 205.818 126.831 205.813 126.831 205.807C126.831 205.802 126.835 205.797 126.841 205.797C131.447 205.598 135.78 204.354 139.61 202.297C140.826 201.644 142.165 201.229 143.545 201.221L145.226 201.212L145.227 201.212L145.227 201.212C149.984 201.241 153.845 205.092 153.872 209.862C153.899 214.632 150.081 218.527 145.325 218.609L145.324 218.609L145.324 218.609L144.017 218.617C142.605 218.625 141.231 218.205 139.987 217.537C136.063 215.43 131.613 214.177 126.887 214.026Z" fill="#363BBC"/>
<path d="M130.7 233.294C129.75 217.609 116.82 207.006 119.768 190.517C122.335 176.163 129.528 168.907 130.7 165.612" stroke="#363BBC" stroke-width="5.51341" stroke-linecap="round"/>
<path fill-rule="evenodd" clip-rule="evenodd" d="M-761.766 436.401C-797.4 421.204 -822.378 385.851 -822.378 344.664C-822.378 289.61 -777.748 244.979 -722.693 244.979C-691.954 244.979 -664.465 258.892 -646.179 280.763H-438.245C-407.818 280.763 -381.491 298.318 -368.84 323.851H-286.336C-263.499 306.8 -221.519 295.37 -173.51 295.37C-141.784 295.37 -112.691 300.361 -90.0149 308.668C-74.3707 305.747 -57.1786 304.133 -39.1352 304.133C-0.263275 304.133 34.6568 311.626 58.6627 323.53C76.9875 320.541 98.034 318.739 123.351 318.739C155.578 318.739 180.329 320.731 200.73 323.851H287.67V346.854C314.46 354.686 345.56 361.096 399.037 361.096C439.397 361.096 463.235 345.002 491.393 325.991C532.018 298.562 581.636 265.063 702.839 265.063V462.242H-761.766V436.401Z" fill="#4B51DC"/>
<path d="M28.5813 418.469C34.7625 409.083 42.1799 379.871 22.4001 338.113C-2.32479 285.916 1.10922 290.037 14.8452 242.648C28.5813 195.258 -2.32511 211.742 10.0375 171.22" stroke="#5D5AF4" stroke-width="9.49383" stroke-linecap="round"/>
<path d="M21.0269 333.992C18.5086 318.654 17.8676 284.268 35.4497 269.433C38.231 267.086 40.7373 264.97 43.0049 263.023M67.7297 226.164C62.9306 244.161 58.6553 249.582 43.0049 263.023M43.0049 263.023C40.7155 253.255 37.5105 230.01 43.0049 215.175C48.4993 200.341 48.4993 190.222 47.8125 187.017M35.4497 362.151C49.6437 358.03 77.4823 343.882 75.2845 320.256C72.5373 290.724 75.2845 277.904 88.3338 263.023C98.7731 251.118 97.2622 228.454 95.2018 218.609M79.4053 309.267C85.8155 298.278 100.834 275.614 109.625 272.867C118.416 270.12 118.782 252.492 117.866 244.021M28.582 349.102C36.5947 341.776 51.6586 321.355 47.8125 298.278C43.9664 275.202 55.8252 269.433 62.2353 269.433M13.4724 208.307C2.0257 209.91 -21.4171 210.505 -23.6149 200.066M5.91758 278.361C5.68864 267.601 1.10997 243.334 -15.3733 232.346M28.582 411.601C30.8714 396.949 23.6371 366.547 -23.6149 362.151C-34.5208 361.136 -42.3827 357.929 -47.9486 353.223M-84.0533 226.164C-73.0645 230.514 -51.2243 243.975 -51.7737 263.023C-52.3337 282.436 -72.5271 332.44 -47.9486 353.223M-47.9486 353.223C-47.621 336.51 -44.6308 300.614 -35.2904 290.724C-25.95 280.834 -26.8199 262.794 -28.4224 255.01M5.91758 314.762C-3.23973 311.099 -22.928 305.971 -28.4224 314.762M28.582 362.151C16.6775 352.307 -11.3897 333.305 -28.4224 336.053" stroke="#5D5AF4" stroke-width="9.49383" stroke-linecap="round"/>
<path d="M301.545 293.545C301.545 207.434 371.352 137.627 457.463 137.627H655.007V449.463H301.545V293.545Z" fill="#5D5AF4"/>
<path d="M64.9354 429.38C64.9354 343.269 134.742 273.462 220.853 273.462H262.48C348.591 273.462 418.398 343.269 418.398 429.38V449.463H64.9354V429.38Z" fill="#5D5AF4"/>
<path d="M-337.46 439.238C-337.46 400.518 -306.071 369.13 -267.351 369.13H172.286V464.068H-337.46V439.238Z" fill="#5D5AF4"/>
<path d="M-65.0588 362.558C-65.0588 323.838 -33.6703 292.45 5.04944 292.45H138.694C175.8 292.45 205.881 322.53 205.881 359.637V410.027H-65.0588V362.558Z" fill="#5D5AF4"/>
<rect opacity="0.5" x="450.531" y="151.502" width="246.84" height="35.7845" rx="17.8922" fill="#A596FF"/>
<rect opacity="0.5" x="-32.9268" y="305.595" width="96.399" height="35.7845" rx="17.8922" fill="#A596FF"/>
<ellipse opacity="0.5" cx="295.188" cy="446.209" rx="143.868" ry="74.4902" fill="#363BBC"/>
<ellipse opacity="0.5" cx="347.771" cy="290.291" rx="43.8177" ry="21.5437" fill="#363BBC"/>
<ellipse opacity="0.5" cx="501.131" cy="212.879" rx="62.0751" ry="26.6558" fill="#363BBC"/>
<path d="M266.705 373.541V441.661H309.468V485.284" stroke="#DA81E6" stroke-width="11.9975" stroke-linecap="round" stroke-linejoin="round"/>
<path d="M309.898 441.661H331.817L331.602 356.779" stroke="#DA81E6" stroke-width="11.9975" stroke-linecap="round" stroke-linejoin="round"/>
<path d="M286.474 440.801V395.889M286.474 395.889H312.691V345.605M286.474 395.889V335.935" stroke="#DA81E6" stroke-width="11.9975" stroke-linecap="round" stroke-linejoin="round"/>
<path d="M420.796 395.268V463.388H378.033V507.011" stroke="#DA81E6" stroke-width="11.9975" stroke-linecap="round" stroke-linejoin="round"/>
<path d="M377.604 463.388H355.685V339.555" stroke="#DA81E6" stroke-width="11.9975" stroke-linecap="round" stroke-linejoin="round"/>
<path d="M401.027 462.528V424.397M401.027 424.397H374.81V389.219M401.027 424.397V357.662" stroke="#DA81E6" stroke-width="11.9975" stroke-linecap="round" stroke-linejoin="round"/>
<path d="M406.404 406.667C401.131 395.869 435.388 389.612 453.176 387.833C481.113 387.833 502.145 413.887 453.176 418.596C404.207 423.304 412.996 420.165 406.404 406.667Z" fill="#5D5AF4"/>
<path d="M492.1 464.112C515.956 475.412 518.468 472.901 540.127 457.206C560.217 462.73 582.19 459.508 590.666 457.206C593.281 443.812 599.643 411.062 604.163 387.205C609.814 357.384 647.323 352.387 655.958 294.603C664.119 239.984 601.338 277.966 593.177 250.657C585.015 223.347 559.275 227.428 550.8 239.67C542.324 251.912 523.49 266.352 510.62 269.805C497.75 273.258 480.799 268.549 451.606 258.19C422.413 247.832 418.332 259.76 409.857 277.025C401.382 294.289 426.808 290.836 440.306 302.137C453.804 313.437 439.364 318.46 426.808 337.922C414.252 357.384 438.422 377.788 449.409 402.586C458.198 422.425 457.256 447.265 455.687 457.206C459.872 455.741 473.014 455.071 492.1 464.112Z" fill="#A596FF"/>
<path d="M434.968 454.693C429.946 442.137 432.143 441.823 410.798 422.989C423.668 426.128 420.215 422.989 443.13 417.653C466.045 412.316 466.673 422.989 479.229 426.128C489.274 428.639 490.739 453.124 490.215 465.052C473.641 459.025 449.826 467.563 439.991 472.586C439.991 470.807 438.986 464.738 434.968 454.693Z" fill="#A596FF"/>
<path opacity="0.5" d="M497.319 268.174C497.36 267.896 497.399 267.705 497.435 267.607C497.394 267.801 497.355 267.99 497.319 268.174C497.219 268.849 497.108 270.037 496.99 271.662C497.146 271.674 497.295 271.682 497.435 271.688C502.685 271.898 497.327 277.39 496.959 272.088C496.126 283.956 494.98 316.802 495.238 344.2C493.983 346.606 502.521 346.774 475.148 353.303C440.933 361.464 417.39 362.406 425.552 347.025C433.713 331.644 452.861 316.262 442.816 308.415C432.771 300.567 396.045 290.208 408.287 277.652C420.529 265.096 421.157 246.262 439.049 254.109C456.588 261.802 488.302 271.002 496.941 271.659C496.926 270.772 497.034 269.629 497.319 268.174Z" fill="#5D5AF4"/>
<path opacity="0.5" fill-rule="evenodd" clip-rule="evenodd" d="M540.729 457.372C543.062 449.328 544.349 441.751 544.84 438.688L593.181 365.549L592.239 333.842C591.211 333.474 581.268 334.596 569.071 335.972C554.908 337.57 537.705 339.511 527.889 339.861V339.816C533.257 336.117 510.271 338.74 522.295 339.816C523.653 339.937 525.564 339.944 527.889 339.861V465.839C530.946 463.872 534.414 461.356 538.632 458.296C539.121 457.942 539.621 457.579 540.13 457.21C540.33 457.265 540.529 457.319 540.729 457.372Z" fill="#5D5AF4"/>
<path d="M490.844 462.228C491.786 452.288 488.647 429.833 468.557 419.537C443.445 406.667 413.31 432.407 405.776 414.829C400.288 402.023 417.077 395.367 442.817 388.461" stroke="#FB95FD" stroke-width="12.5562" stroke-linecap="round"/>
<path d="M541.548 456.577C545.734 442.243 557.683 410.182 571.997 396.622C589.889 379.671 609.351 342.944 587.692 332.585C566.033 322.227 552.535 346.397 530.248 339.491C507.961 332.585 496.66 345.142 468.095 357.384C439.53 369.626 414.103 356.128 432.624 332.585C451.144 309.043 448.633 302.765 418.498 295.859C388.363 288.953 421.323 236.845 458.05 256.307C494.777 275.769 510.158 268.864 523.342 262.585C536.526 256.307 542.176 229.312 571.997 229.312C601.818 229.312 591.145 257.249 606.526 262.585C621.908 267.922 643.567 258.191 649.845 273.572C656.123 288.953 647.648 327.563 606.526 300.568C565.405 273.572 558.813 306.846 534.956 309.985" stroke="#FB95FD" stroke-width="12.5562" stroke-linecap="round"/>
<rect x="49.0804" y="345.428" width="95.6687" height="75.9507" rx="32.8633" fill="#9A37BA"/>
<rect x="220.7" y="262.905" width="67.1872" height="30.6724" rx="15.3362" fill="#D64CA4"/>
<rect x="195.87" y="277.511" width="54.7722" height="35.7845" rx="17.8922" fill="#CA39AD"/>
<path fill-rule="evenodd" clip-rule="evenodd" d="M356.934 126.747H304.254V284.789H304.3C304.565 293.704 316.237 300.88 330.598 300.88C344.959 300.88 356.632 293.704 356.897 284.789H356.934V126.747Z" fill="#F290FC"/>
<path opacity="0.5" fill-rule="evenodd" clip-rule="evenodd" d="M356.936 141.893C344.457 142.825 334.622 153.245 334.622 165.962V300.69C347.081 299.498 356.659 292.855 356.898 284.789H356.936V141.893Z" fill="#C373D1"/>
<path d="M327.38 57.3638H374.493V120.323C374.493 146.343 353.4 167.436 327.38 167.436V57.3638Z" fill="#F290FC"/>
<path d="M334.231 183.333H387.34V212.029C387.34 226.695 375.451 238.584 360.785 238.584H334.231V183.333Z" fill="#F290FC"/>
<path d="M261.849 105.333H308.962V195.275H303.394C280.45 195.275 261.849 176.675 261.849 153.73V105.333Z" fill="#F290FC"/>
<path d="M198.462 193.991H234.439V248.384H230.584C212.844 248.384 198.462 234.003 198.462 216.262V193.991Z" fill="#F290FC"/>
<path d="M319.671 212.407L319.671 248.384L226.731 248.384L226.731 212.407L319.671 212.407Z" fill="#F290FC"/>
<path d="M234.439 193.776C234.439 200.518 226.385 205.983 216.451 205.983C206.516 205.983 198.462 200.518 198.462 193.776C198.462 187.035 206.516 181.57 216.451 181.57C226.385 181.57 234.439 187.035 234.439 193.776Z" fill="#200F8F"/>
<path fill-rule="evenodd" clip-rule="evenodd" d="M225.348 196.774C227.37 195.402 227.631 194.219 227.631 193.776C227.631 193.334 227.37 192.151 225.348 190.778C223.362 189.431 220.237 188.378 216.451 188.378C212.664 188.378 209.539 189.431 207.553 190.778C205.531 192.151 205.27 193.334 205.27 193.776C205.27 194.219 205.531 195.402 207.553 196.774C209.539 198.122 212.664 199.175 216.451 199.175C220.237 199.175 223.362 198.122 225.348 196.774ZM216.451 205.983C226.385 205.983 234.439 200.518 234.439 193.776C234.439 187.035 226.385 181.57 216.451 181.57C206.516 181.57 198.462 187.035 198.462 193.776C198.462 200.518 206.516 205.983 216.451 205.983Z" fill="#E86E95"/>
<path d="M266.538 126.971C266.538 124.578 268.477 122.639 270.87 122.639C273.263 122.639 275.202 124.578 275.202 126.971V157.297C275.202 159.689 273.263 161.629 270.87 161.629C268.477 161.629 266.538 159.689 266.538 157.297V126.971Z" fill="#F5AEFE"/>
<path d="M335.237 200.619C335.237 198.227 337.177 196.287 339.569 196.287C341.962 196.287 343.902 198.227 343.902 200.619V217.948C343.902 220.341 341.962 222.281 339.569 222.281C337.177 222.281 335.237 220.341 335.237 217.948V200.619Z" fill="#F5AEFE"/>
<path opacity="0.5" fill-rule="evenodd" clip-rule="evenodd" d="M374.229 234.935V183.333H387.342V212.029C387.342 221.79 382.075 230.321 374.229 234.935Z" fill="#C373D1"/>
<path opacity="0.5" fill-rule="evenodd" clip-rule="evenodd" d="M308.627 142.455V126.971H327.193C327.193 135.522 320.261 142.455 311.709 142.455H308.627Z" fill="#C373D1"/>
<path opacity="0.5" d="M299.964 107.167C299.964 104.774 301.904 102.834 304.296 102.834C306.689 102.834 308.629 104.774 308.629 107.167V170.913C308.629 173.306 306.689 175.245 304.296 175.245C301.904 175.245 299.964 173.306 299.964 170.913V107.167Z" fill="#C373D1"/>
<path d="M330.904 84.886C330.904 82.4933 332.843 80.5537 335.236 80.5537C337.629 80.5537 339.568 82.4933 339.568 84.886V111.498C339.568 113.891 337.629 115.831 335.236 115.831C332.843 115.831 330.904 113.891 330.904 111.498V84.886Z" fill="#F5AEFE"/>
<path d="M201.557 213.616C201.557 211.223 203.496 209.284 205.889 209.284C208.282 209.284 210.221 211.223 210.221 213.616V219.805C210.221 222.198 208.282 224.137 205.889 224.137C203.496 224.137 201.557 222.198 201.557 219.805V213.616Z" fill="#F5AEFE"/>
<path d="M292.535 216.71C294.928 216.71 296.867 218.65 296.867 221.043C296.867 223.435 294.928 225.375 292.535 225.375L247.356 225.375C244.963 225.375 243.024 223.435 243.024 221.043C243.024 218.65 244.963 216.71 247.356 216.71L292.535 216.71Z" fill="#F5AEFE"/>
<path d="M309.243 216.711C309.243 214.318 311.183 212.378 313.576 212.378C315.968 212.378 317.908 214.318 317.908 216.711V282.932C317.908 285.325 315.968 287.265 313.576 287.265C311.183 287.265 309.243 285.325 309.243 282.932V216.711Z" fill="#F5AEFE"/>
<path d="M281.394 171.222C281.394 173.443 279.593 175.244 277.372 175.244C275.15 175.244 273.349 173.443 273.349 171.222C273.349 169 275.15 167.199 277.372 167.199C279.593 167.199 281.394 169 281.394 171.222Z" fill="#F5AEFE"/>
<path d="M387.34 183.119C387.34 189.861 375.451 195.326 360.785 195.326C346.12 195.326 334.231 189.861 334.231 183.119C334.231 176.378 346.12 170.913 360.785 170.913C375.451 170.913 387.34 176.378 387.34 183.119Z" fill="#200F8F"/>
<path fill-rule="evenodd" clip-rule="evenodd" d="M380.36 183.119C380.022 182.681 379.109 181.772 376.719 180.673C372.992 178.96 367.366 177.72 360.785 177.72C354.205 177.72 348.578 178.96 344.852 180.673C342.461 181.772 341.549 182.681 341.211 183.119C341.549 183.557 342.461 184.466 344.852 185.565C348.578 187.278 354.205 188.518 360.785 188.518C367.366 188.518 372.992 187.278 376.719 185.565C379.109 184.466 380.022 183.557 380.36 183.119ZM360.785 195.326C375.451 195.326 387.34 189.861 387.34 183.119C387.34 176.378 375.451 170.913 360.785 170.913C346.12 170.913 334.231 176.378 334.231 183.119C334.231 189.861 346.12 195.326 360.785 195.326Z" fill="#E86E95"/>
<path opacity="0.5" fill-rule="evenodd" clip-rule="evenodd" d="M362.467 151.762V57.3638H374.49V120.323C374.49 132.404 369.943 143.423 362.467 151.762Z" fill="#C373D1"/>
<path d="M374.493 57.4833C374.493 64.2248 363.946 69.6898 350.936 69.6898C337.927 69.6898 327.38 64.2248 327.38 57.4833C327.38 50.7419 337.927 45.2769 350.936 45.2769C363.946 45.2769 374.493 50.7419 374.493 57.4833Z" fill="#200F8F"/>
<path fill-rule="evenodd" clip-rule="evenodd" d="M367.647 57.4833C367.508 57.1741 366.912 56.1668 364.461 54.8966C361.35 53.2845 356.579 52.0847 350.936 52.0847C345.294 52.0847 340.523 53.2845 337.412 54.8966C334.961 56.1668 334.365 57.1741 334.226 57.4833C334.365 57.7926 334.961 58.7999 337.412 60.0701C340.523 61.6822 345.294 62.8819 350.936 62.8819C356.579 62.8819 361.35 61.6822 364.461 60.0701C366.912 58.7999 367.508 57.7926 367.647 57.4833ZM350.936 69.6898C363.946 69.6898 374.493 64.2248 374.493 57.4833C374.493 50.7419 363.946 45.2769 350.936 45.2769C337.927 45.2769 327.38 50.7419 327.38 57.4833C327.38 64.2248 337.927 69.6898 350.936 69.6898Z" fill="#E86E95"/>
<path d="M308.962 105.119C308.962 111.861 298.416 117.326 285.406 117.326C272.396 117.326 261.849 111.861 261.849 105.119C261.849 98.3776 272.396 92.9126 285.406 92.9126C298.416 92.9126 308.962 98.3776 308.962 105.119Z" fill="#200F8F"/>
<path fill-rule="evenodd" clip-rule="evenodd" d="M302.117 105.119C301.977 104.81 301.382 103.803 298.931 102.532C295.819 100.92 291.049 99.7204 285.406 99.7204C279.763 99.7204 274.992 100.92 271.881 102.532C269.43 103.803 268.834 104.81 268.695 105.119C268.834 105.428 269.43 106.436 271.881 107.706C274.992 109.318 279.763 110.518 285.406 110.518C291.049 110.518 295.819 109.318 298.931 107.706C301.382 106.436 301.977 105.428 302.117 105.119ZM285.406 117.326C298.416 117.326 308.962 111.861 308.962 105.119C308.962 98.3776 298.416 92.9126 285.406 92.9126C272.396 92.9126 261.849 98.3776 261.849 105.119C261.849 111.861 272.396 117.326 285.406 117.326Z" fill="#E86E95"/>
<path d="M92.3101 188.284L112.717 181.885L179.35 394.367L158.943 400.767L92.3101 188.284Z" fill="#7E7BFB"/>
<path d="M112.651 181.672C114.307 186.953 111.081 192.667 105.446 194.434C99.8106 196.201 93.8998 193.353 92.2438 188.072C90.5878 182.791 93.8137 177.078 99.4489 175.311C105.084 173.543 110.995 176.392 112.651 181.672Z" fill="#7E7BFB"/>
<path d="M179.286 394.154C180.942 399.435 177.716 405.149 172.081 406.916C166.445 408.683 160.535 405.835 158.879 400.554C157.223 395.273 160.449 389.56 166.084 387.792C171.719 386.025 177.63 388.874 179.286 394.154Z" fill="#7E7BFB"/>
<path d="M121.61 168.234L147.848 161.013L203.569 363.494L177.331 370.714L121.61 168.234Z" fill="#7E7BFB"/>
<path d="M147.795 160.811C149.179 165.843 144.429 171.539 137.183 173.533C129.938 175.527 122.941 173.064 121.557 168.032C120.172 162.999 124.923 157.304 132.168 155.31C139.414 153.316 146.41 155.779 147.795 160.811Z" fill="#7E7BFB"/>
<path d="M203.512 363.291C204.897 368.323 200.146 374.019 192.901 376.013C185.655 378.007 178.659 375.544 177.274 370.512C175.89 365.479 180.641 359.784 187.886 357.79C195.131 355.796 202.128 358.259 203.512 363.291Z" fill="#7E7BFB"/>
<path d="M95.9661 226.096L122.458 213.627L205.588 390.241L179.096 402.71L95.9661 226.096Z" fill="#8D84F3"/>
<path d="M122.373 213.45C124.439 217.84 120.184 224.189 112.868 227.633C105.552 231.076 97.9471 230.309 95.8811 225.92C93.8151 221.53 98.0707 215.181 105.386 211.737C112.702 208.294 120.307 209.061 122.373 213.45Z" fill="#D64CA4"/>
<path fill-rule="evenodd" clip-rule="evenodd" d="M117.482 218.445C118.744 216.562 118.506 215.571 118.39 215.325C118.274 215.079 117.662 214.264 115.407 214.037C113.253 213.819 110.321 214.28 107.261 215.72C104.201 217.161 101.978 219.126 100.772 220.925C99.5102 222.808 99.7482 223.799 99.864 224.045C99.9798 224.291 100.592 225.106 102.848 225.334C105.002 225.551 107.933 225.09 110.993 223.65C114.053 222.209 116.277 220.244 117.482 218.445ZM112.868 227.633C120.184 224.189 124.439 217.84 122.373 213.45C120.307 209.061 112.702 208.294 105.386 211.737C98.0707 215.181 93.8151 221.53 95.8811 225.92C97.9471 230.309 105.552 231.076 112.868 227.633Z" fill="#E7D6FF"/>
<path d="M205.503 390.065C207.569 394.454 203.313 400.804 195.998 404.247C188.682 407.69 181.077 406.923 179.011 402.534C176.945 398.145 181.2 391.795 188.516 388.352C195.832 384.908 203.437 385.675 205.503 390.065Z" fill="#8D84F3"/>
<path d="M236.022 170.703L254.247 175.586L198.371 384.12L180.146 379.237L236.022 170.703Z" fill="#8D84F3"/>
<path d="M254.069 175.957C253.285 178.883 248.57 180.162 243.537 178.813C238.504 177.465 235.06 173.999 235.844 171.074C236.628 168.148 241.343 166.869 246.376 168.218C251.409 169.566 254.853 173.031 254.069 175.957Z" fill="#D64CA4"/>
<path fill-rule="evenodd" clip-rule="evenodd" d="M250.034 174.4C250.036 174.401 250.025 174.414 249.996 174.436C250.018 174.41 250.033 174.399 250.034 174.4ZM249.38 174.701C249.349 174.668 249.317 174.634 249.282 174.599C248.529 173.842 247.138 172.979 245.237 172.47C243.336 171.96 241.7 172.012 240.669 172.291C240.621 172.304 240.576 172.317 240.533 172.33C240.564 172.363 240.596 172.396 240.631 172.431C241.384 173.189 242.775 174.052 244.676 174.561C246.578 175.07 248.213 175.019 249.244 174.739C249.292 174.726 249.337 174.713 249.38 174.701ZM240.117 171.743C240.119 171.743 240.126 171.76 240.132 171.793C240.118 171.759 240.114 171.743 240.117 171.743ZM239.879 172.63C239.877 172.629 239.888 172.616 239.917 172.595C239.895 172.621 239.881 172.631 239.879 172.63ZM249.781 175.238C249.796 175.271 249.799 175.288 249.797 175.288C249.795 175.288 249.787 175.271 249.781 175.238ZM243.537 178.813C248.57 180.162 253.285 178.883 254.069 175.957C254.853 173.031 251.409 169.566 246.376 168.218C241.343 166.869 236.628 168.148 235.844 171.074C235.06 173.999 238.504 177.465 243.537 178.813Z" fill="#E7D6FF"/>
<path d="M198.428 383.911C197.039 389.094 191.834 392.202 186.801 390.853C181.768 389.505 178.814 384.21 180.203 379.028C181.592 373.845 186.797 370.737 191.83 372.085C196.863 373.434 199.817 378.728 198.428 383.911Z" fill="#8D84F3"/>
<path d="M236.022 170.703L254.247 175.586L198.371 384.12L180.146 379.237L236.022 170.703Z" fill="#8D84F3"/>
<path d="M254.069 175.957C253.285 178.883 248.57 180.162 243.537 178.813C238.504 177.465 235.06 173.999 235.844 171.074C236.628 168.148 241.343 166.869 246.376 168.218C251.409 169.566 254.853 173.031 254.069 175.957Z" fill="#D64CA4"/>
<path fill-rule="evenodd" clip-rule="evenodd" d="M250.034 174.4C250.036 174.401 250.025 174.414 249.996 174.436C250.018 174.41 250.033 174.399 250.034 174.4ZM249.38 174.701C249.349 174.668 249.317 174.634 249.282 174.599C248.529 173.842 247.138 172.979 245.237 172.47C243.336 171.96 241.7 172.012 240.669 172.291C240.621 172.304 240.576 172.317 240.533 172.33C240.564 172.363 240.596 172.396 240.631 172.431C241.384 173.189 242.775 174.052 244.676 174.561C246.578 175.07 248.213 175.019 249.244 174.739C249.292 174.726 249.337 174.713 249.38 174.701ZM240.117 171.743C240.119 171.743 240.126 171.76 240.132 171.793C240.118 171.759 240.114 171.743 240.117 171.743ZM239.879 172.63C239.877 172.629 239.888 172.616 239.917 172.595C239.895 172.621 239.881 172.631 239.879 172.63ZM249.781 175.238C249.796 175.271 249.799 175.288 249.797 175.288C249.795 175.288 249.787 175.271 249.781 175.238ZM243.537 178.813C248.57 180.162 253.285 178.883 254.069 175.957C254.853 173.031 251.409 169.566 246.376 168.218C241.343 166.869 236.628 168.148 235.844 171.074C235.06 173.999 238.504 177.465 243.537 178.813Z" fill="#E7D6FF"/>
<path d="M198.428 383.911C197.039 389.094 191.834 392.202 186.801 390.853C181.768 389.505 178.814 384.21 180.203 379.028C181.592 373.845 186.797 370.737 191.83 372.085C196.863 373.434 199.817 378.728 198.428 383.911Z" fill="#8D84F3"/>
<path d="M182.63 153.656H208.065V398.216H182.63V153.656Z" fill="#8D84F3"/>
<path d="M208.065 153.411C208.065 159.489 202.371 164.417 195.348 164.417C188.324 164.417 182.63 159.489 182.63 153.411C182.63 147.333 188.324 142.406 195.348 142.406C202.371 142.406 208.065 147.333 208.065 153.411Z" fill="#D64CA4"/>
<path fill-rule="evenodd" clip-rule="evenodd" d="M195.348 160.015C200.559 160.015 203.663 156.482 203.663 153.411C203.663 150.341 200.559 146.808 195.348 146.808C190.136 146.808 187.033 150.341 187.033 153.411C187.033 156.482 190.136 160.015 195.348 160.015ZM195.348 164.417C202.371 164.417 208.065 159.489 208.065 153.411C208.065 147.333 202.371 142.406 195.348 142.406C188.324 142.406 182.63 147.333 182.63 153.411C182.63 159.489 188.324 164.417 195.348 164.417Z" fill="#E7D6FF"/>
<path d="M208.065 397.971C208.065 404.049 202.371 408.976 195.347 408.976C188.324 408.976 182.63 404.049 182.63 397.971C182.63 391.893 188.324 386.966 195.347 386.966C202.371 386.966 208.065 391.893 208.065 397.971Z" fill="#8D84F3"/>
<path d="M284.706 224.057L304.215 235.32L212.532 394.12L193.023 382.857L284.706 224.057Z" fill="#A0A4FA"/>
<path d="M304.304 235.162C302.025 239.108 295.811 239.786 290.424 236.676C285.037 233.566 282.517 227.845 284.796 223.898C287.074 219.952 293.288 219.274 298.675 222.384C304.062 225.494 306.582 231.215 304.304 235.162Z" fill="#D64CA4"/>
<path fill-rule="evenodd" clip-rule="evenodd" d="M298.052 234.189C299.543 234.026 300.223 233.426 300.491 232.96C300.76 232.495 300.94 231.607 300.336 230.234C299.732 228.864 298.443 227.333 296.474 226.196C294.505 225.059 292.535 224.709 291.047 224.871C289.556 225.034 288.877 225.634 288.608 226.099C288.339 226.565 288.159 227.453 288.764 228.826C289.367 230.196 290.656 231.727 292.625 232.864C294.594 234 296.564 234.351 298.052 234.189ZM290.424 236.676C295.811 239.786 302.025 239.108 304.304 235.162C306.582 231.215 304.062 225.494 298.675 222.384C293.288 219.274 287.074 219.952 284.796 223.898C282.517 227.845 285.037 233.566 290.424 236.676Z" fill="#C2B2FC"/>
<path d="M212.621 393.961C210.343 397.908 204.129 398.586 198.742 395.476C193.355 392.366 190.835 386.645 193.113 382.698C195.392 378.752 201.606 378.074 206.993 381.184C212.38 384.294 214.9 390.015 212.621 393.961Z" fill="#A0A4FA"/>
<path opacity="0.2" fill-rule="evenodd" clip-rule="evenodd" d="M190.028 165.045C191.642 165.045 192.95 166.353 192.95 167.967V375.371C192.95 376.984 191.642 378.292 190.028 378.292C188.415 378.292 187.107 376.984 187.107 375.371V167.967C187.107 166.353 188.415 165.045 190.028 165.045Z" fill="#E7D6FF"/>
<path opacity="0.2" fill-rule="evenodd" clip-rule="evenodd" d="M104.831 231.036C106.298 230.366 108.031 231.012 108.702 232.48L166.395 358.821C167.065 360.289 166.419 362.022 164.951 362.692C163.484 363.362 161.751 362.715 161.08 361.248L103.387 234.907C102.717 233.439 103.363 231.706 104.831 231.036Z" fill="#E7D6FF"/>
<path opacity="0.2" fill-rule="evenodd" clip-rule="evenodd" d="M239.334 179.021C240.892 179.441 241.815 181.044 241.395 182.602L216.218 276.08C215.799 277.637 214.196 278.56 212.638 278.141C211.08 277.721 210.158 276.118 210.577 274.56L235.754 181.082C236.173 179.525 237.776 178.602 239.334 179.021Z" fill="#E7D6FF"/>
<path opacity="0.4" fill-rule="evenodd" clip-rule="evenodd" d="M287.163 234.817C288.559 235.626 289.035 237.413 288.226 238.809L205.703 381.217C204.894 382.613 203.107 383.089 201.711 382.28C200.315 381.471 199.839 379.684 200.648 378.288L283.171 235.88C283.98 234.484 285.767 234.008 287.163 234.817Z" fill="#E7D6FF"/>
<path d="M285.462 307.298L303.965 329.991L211.091 405.716L192.588 383.023L285.462 307.298Z" fill="#A0A4FA"/>
<path d="M304.056 329.916C301.748 331.798 295.735 328.244 290.626 321.977C285.516 315.711 283.246 309.105 285.554 307.223C287.862 305.341 293.875 308.895 298.984 315.162C304.094 321.428 306.365 328.034 304.056 329.916Z" fill="#D64CA4"/>
<path fill-rule="evenodd" clip-rule="evenodd" d="M299.773 324.663C298.961 322.737 297.547 320.366 295.573 317.944C293.598 315.522 291.559 313.66 289.837 312.476C290.649 314.402 292.063 316.773 294.037 319.195C296.012 321.617 298.051 323.479 299.773 324.663ZM289.057 309.524C289.057 309.524 289.057 309.525 289.057 309.526C289.057 309.525 289.057 309.524 289.057 309.524ZM287.102 311.118C287.102 311.118 287.103 311.118 287.104 311.118C287.103 311.118 287.102 311.118 287.102 311.118ZM290.626 321.977C295.735 328.244 301.748 331.798 304.056 329.916C306.365 328.034 304.094 321.428 298.984 315.162C293.875 308.895 287.862 305.341 285.554 307.223C283.246 309.105 285.516 315.711 290.626 321.977Z" fill="#C2B2FC"/>
<path d="M211.184 405.641C208.876 407.523 202.863 403.969 197.753 397.702C192.644 391.436 190.373 384.83 192.681 382.948C194.989 381.066 201.002 384.621 206.112 390.887C211.221 397.153 213.492 403.759 211.184 405.641Z" fill="#A0A4FA"/>
<path d="M154.502 241.152L171.034 238.738L194.248 397.698L177.716 400.113L154.502 241.152Z" fill="#A0A4FA"/>
<path d="M171.011 238.579C171.588 242.53 168.355 246.273 163.79 246.94C159.225 247.606 155.056 244.944 154.479 240.994C153.902 237.043 157.135 233.3 161.701 232.633C166.266 231.966 170.434 234.629 171.011 238.579Z" fill="#D64CA4"/>
<path fill-rule="evenodd" clip-rule="evenodd" d="M163.154 242.584C165.926 242.179 166.798 240.19 166.655 239.215C166.513 238.24 165.109 236.584 162.337 236.989C159.565 237.394 158.693 239.382 158.835 240.357C158.978 241.332 160.382 242.989 163.154 242.584ZM163.79 246.94C168.355 246.273 171.588 242.53 171.011 238.579C170.434 234.629 166.266 231.966 161.701 232.633C157.135 233.3 153.902 237.043 154.479 240.994C155.056 244.944 159.225 247.606 163.79 246.94Z" fill="#E7D6FF"/>
<path d="M194.228 397.54C194.805 401.49 191.572 405.233 187.007 405.9C182.442 406.567 178.273 403.905 177.696 399.954C177.119 396.003 180.352 392.26 184.917 391.594C189.483 390.927 193.651 393.589 194.228 397.54Z" fill="#A0A4FA"/>
<path d="M107.87 297.224L130.591 289.254L168.029 395.987L145.307 403.957L107.87 297.224Z" fill="#A0A4FA"/>
<path d="M130.553 289.147C131.483 291.8 127.151 295.734 120.877 297.935C114.602 300.136 108.762 299.77 107.831 297.117C106.901 294.464 111.233 290.53 117.507 288.329C123.782 286.128 129.622 286.495 130.553 289.147Z" fill="#D64CA4"/>
<path fill-rule="evenodd" clip-rule="evenodd" d="M124.363 291.319C122.862 291.412 120.993 291.771 118.964 292.483C116.936 293.195 115.252 294.082 114.021 294.946C115.522 294.852 117.391 294.493 119.42 293.781C121.448 293.07 123.132 292.183 124.363 291.319ZM120.877 297.935C127.151 295.734 131.483 291.8 130.553 289.147C129.622 286.495 123.782 286.128 117.507 288.329C111.233 290.53 106.901 294.464 107.831 297.117C108.762 299.77 114.602 300.136 120.877 297.935Z" fill="#E7D6FF"/>
<path d="M167.99 395.881C168.92 398.534 164.588 402.468 158.314 404.669C152.039 406.87 146.198 406.503 145.268 403.851C144.338 401.198 148.67 397.264 154.944 395.063C161.219 392.862 167.059 393.229 167.99 395.881Z" fill="#A0A4FA"/>
<path d="M155.955 338.048L179.973 336.343L184.879 405.448L160.861 407.153L155.955 338.048Z" fill="#A0A4FA"/>
<path d="M179.713 336.652C179.964 340.2 174.792 343.458 168.159 343.929C161.527 344.4 155.946 341.905 155.694 338.358C155.442 334.81 160.615 331.552 167.247 331.081C173.88 330.61 179.461 333.105 179.713 336.652Z" fill="#D64CA4"/>
<path fill-rule="evenodd" clip-rule="evenodd" d="M175.346 336.664C175.347 336.664 175.345 336.672 175.338 336.687C175.342 336.671 175.346 336.664 175.346 336.664ZM175.121 336.978C174.928 336.824 174.605 336.615 174.076 336.379C172.604 335.72 170.298 335.278 167.559 335.472C164.82 335.667 162.6 336.431 161.235 337.29C160.745 337.599 160.455 337.851 160.286 338.032C160.479 338.186 160.802 338.395 161.33 338.631C162.803 339.29 165.108 339.732 167.848 339.538C170.587 339.343 172.807 338.579 174.172 337.72C174.661 337.411 174.952 337.159 175.121 336.978ZM160.018 337.752C160.019 337.752 160.023 337.759 160.03 337.774C160.021 337.76 160.017 337.752 160.018 337.752ZM160.06 338.346C160.06 338.346 160.062 338.338 160.069 338.323C160.065 338.339 160.061 338.346 160.06 338.346ZM175.377 337.236C175.386 337.25 175.389 337.258 175.389 337.258C175.388 337.258 175.383 337.251 175.377 337.236ZM168.159 343.929C174.792 343.458 179.964 340.2 179.713 336.652C179.461 333.105 173.88 330.61 167.247 331.081C160.615 331.552 155.442 334.81 155.694 338.358C155.946 341.905 161.527 344.4 168.159 343.929Z" fill="#E7D6FF"/>
<path d="M184.871 405.379C184.993 407.096 179.715 408.87 173.083 409.341C166.451 409.812 160.975 408.801 160.853 407.084C160.731 405.366 166.009 403.592 172.641 403.122C179.274 402.651 184.749 403.661 184.871 405.379Z" fill="#A0A4FA"/>
<rect opacity="0.5" x="-39.2877" y="420.648" width="47.4692" height="9.49384" rx="4.74692" fill="#CA39AD"/>
<rect x="184.914" y="421.379" width="76.681" height="33.5936" rx="16.7968" fill="#CF42A9"/>
<rect x="174.688" y="385.595" width="71.569" height="46.0086" rx="23.0043" fill="#CA39AD"/>
<rect x="-48.7815" y="416.998" width="75.2204" height="35.7845" rx="17.8922" fill="#9A37BA"/>
<rect x="63.6842" y="400.201" width="139.486" height="63.5357" rx="31.7679" fill="#D64CA4"/>
<rect x="113.345" y="406.042" width="35.0542" height="13.1453" rx="6.57266" fill="#E2609D"/>
<rect x="92.8953" y="433.063" width="97.8596" height="13.1453" rx="6.57266" fill="#CA39AD"/>
<path fill-rule="evenodd" clip-rule="evenodd" d="M-11.6752 332.563C-16.5315 334.809 -18.6475 340.567 -16.4013 345.423C-16.2165 345.822 -16.013 346.259 -15.7929 346.731C-12.0932 354.67 -3.70367 372.67 -0.818143 393.294C0.549462 403.068 1.09045 414.494 0.689401 425.171C0.28207 436.015 -1.071 445.314 -3.09273 451.185C-4.83503 456.244 -2.1463 461.757 2.91272 463.5C7.97173 465.242 13.4853 462.553 15.2276 457.494C18.1637 448.969 19.6179 437.457 20.0521 425.898C20.4925 414.172 19.9092 401.601 18.3713 390.609C15.0676 366.997 5.56633 346.667 1.82405 338.66C1.5869 338.153 1.37287 337.695 1.18501 337.289C-1.06117 332.433 -6.81889 330.317 -11.6752 332.563Z" fill="#A596FF"/>
<path fill-rule="evenodd" clip-rule="evenodd" d="M-28.3984 372.668C-33.015 375.373 -34.5647 381.309 -31.8598 385.925C-18.8885 408.064 -11.8811 430.008 -8.96724 455.84C-8.36747 461.156 -3.57106 464.98 1.74585 464.381C7.06276 463.781 10.8868 458.984 10.287 453.668C7.08908 425.319 -0.716483 400.75 -15.1417 376.13C-17.8466 371.513 -23.7819 369.964 -28.3984 372.668Z" fill="#A596FF"/>
<path fill-rule="evenodd" clip-rule="evenodd" d="M34.4896 337.121C29.2428 338.17 25.8402 343.274 26.8895 348.521C35.4635 391.391 27.4212 432.041 22.5748 446.344C20.8577 451.412 23.5738 456.912 28.6414 458.629C33.709 460.346 39.2091 457.63 40.9262 452.562C46.6466 435.681 55.2533 391.539 45.8896 344.721C44.8403 339.474 39.7363 336.071 34.4896 337.121Z" fill="#A596FF"/>
<path fill-rule="evenodd" clip-rule="evenodd" d="M73.3814 357.289C68.1711 356.072 62.9605 359.309 61.7431 364.519C58.5218 378.307 51.0539 410.683 47.0115 429.651C45.1616 438.331 42.8576 443.814 41.0185 447.02C39.7231 449.278 38.8637 450.074 38.7601 450.195C34.3773 452.542 32.443 457.893 34.438 462.548C36.5457 467.466 42.2412 469.744 47.1592 467.636C51.4308 465.806 55.0386 461.519 57.8254 456.662C60.8766 451.343 63.7915 443.875 65.9622 433.69C69.9609 414.927 77.3895 382.717 80.6113 368.928C81.8287 363.717 78.5917 358.507 73.3814 357.289Z" fill="#A596FF"/>
<path fill-rule="evenodd" clip-rule="evenodd" d="M32.9281 358.663C29.3299 360.145 27.614 364.263 29.0956 367.861C42.2391 399.781 43.9487 422.721 42.6533 437.684C42.0042 445.183 40.59 450.802 39.3781 454.679C38.8429 456.391 38.3489 457.762 37.9284 458.929C37.8664 459.1 37.8061 459.268 37.7475 459.431C37.5378 460.015 37.2917 460.708 37.1097 461.329C37.0172 461.645 36.8968 462.09 36.8088 462.592C36.7377 462.997 36.5863 463.967 36.7541 465.141C37.3044 468.994 40.8734 471.67 44.7257 471.12C47.946 470.66 50.3449 468.09 50.7237 465.009C50.7852 464.827 50.8764 464.566 51.0112 464.191C51.0633 464.046 51.1193 463.89 51.1789 463.725C51.5999 462.558 52.1965 460.904 52.8282 458.884C54.2861 454.219 55.9405 447.589 56.6927 438.899C58.2001 421.486 56.0438 396.296 42.1261 362.495C40.6445 358.897 36.5264 357.181 32.9281 358.663ZM75.2097 379.071C71.3532 378.552 67.8059 381.257 67.2868 385.114C66.0275 394.468 68.0662 408.961 70.7005 422.343C73.4032 436.073 76.995 449.851 79.491 458.39C80.5828 462.125 84.4958 464.268 88.2308 463.176C91.9659 462.084 94.1087 458.171 93.0169 454.436C90.6162 446.223 87.1334 432.862 84.527 419.621C81.8521 406.033 80.3471 393.722 81.2527 386.994C81.7718 383.137 79.0663 379.59 75.2097 379.071Z" fill="#EDD4FE"/>
<path fill-rule="evenodd" clip-rule="evenodd" d="M74.8666 386.101C72.0845 385.757 69.7277 388.623 69.6026 392.503C69.2992 401.913 71.6731 416.312 74.401 429.574C77.1999 443.181 80.6355 456.795 82.9573 465.22C83.9728 468.906 86.8982 470.871 89.4914 469.61C92.0846 468.349 93.3635 464.34 92.348 460.654C90.1149 452.551 86.7835 439.349 84.0844 426.227C81.3143 412.76 79.4594 400.518 79.6776 393.75C79.8027 389.87 77.6488 386.446 74.8666 386.101Z" fill="#FB95FD"/>
<path fill-rule="evenodd" clip-rule="evenodd" d="M74.6903 401.77C72.5083 401.572 71.5224 406.143 71.9312 409.361C72.639 414.932 74.6003 426.012 77.071 436.302C79.6058 446.858 82.6383 457.405 84.6678 463.927C85.5555 466.779 87.891 468.24 89.8843 467.188C91.8776 466.137 92.7739 462.972 91.8862 460.119C89.9343 453.847 86.9937 443.619 84.5492 433.439C82.0404 422.99 79.5219 413.731 79.519 408.438C79.0591 403.38 76.8723 401.968 74.6903 401.77Z" fill="#DC87FB"/>
<path fill-rule="evenodd" clip-rule="evenodd" d="M37.2936 369.577C34.5686 370.843 33.2692 374.361 34.3913 377.434C44.3448 404.699 45.6395 424.294 44.6585 437.075C44.1669 443.481 43.0959 448.281 42.1782 451.592C41.7729 453.055 41.3987 454.226 41.0803 455.222C41.0334 455.369 40.9877 455.512 40.9433 455.651C40.7845 456.15 40.5982 456.742 40.4603 457.273C40.3903 457.542 40.299 457.923 40.2324 458.351C40.1786 458.697 40.0639 459.525 40.191 460.529C40.6078 463.819 43.3106 466.106 46.2279 465.636C48.6667 465.243 50.4834 463.048 50.7702 460.416C50.8168 460.26 50.8859 460.038 50.9879 459.717C51.0274 459.593 51.0698 459.46 51.1149 459.319C51.4337 458.322 51.8856 456.91 52.3639 455.184C53.4681 451.2 54.7209 445.536 55.2906 438.114C56.4321 423.239 54.7992 401.722 44.2592 372.851C43.1372 369.778 40.0186 368.312 37.2936 369.577Z" fill="#FB95FD"/>
<path fill-rule="evenodd" clip-rule="evenodd" d="M42.8964 384.202C40.9646 385.235 39.9443 388.274 40.6175 390.991C46.5891 415.088 46.8199 432.248 45.7052 443.392C45.1466 448.977 44.2409 453.143 43.4922 456.013C43.1615 457.28 42.8623 458.293 42.6077 459.155C42.5702 459.282 42.5337 459.406 42.4982 459.527C42.3711 459.959 42.2218 460.47 42.1082 460.931C42.0505 461.165 41.9743 461.495 41.9136 461.867C41.8645 462.168 41.7569 462.889 41.8108 463.769C41.9877 466.656 43.7834 468.728 45.8215 468.395C47.5252 468.118 48.8591 466.248 49.1475 463.956C49.185 463.821 49.2404 463.629 49.3221 463.351C49.3537 463.244 49.3876 463.129 49.4237 463.007C49.6786 462.144 50.0398 460.922 50.4301 459.426C51.3309 455.974 52.3919 451.058 53.0393 444.586C54.3365 431.618 53.9366 412.768 47.6132 387.251C46.94 384.535 44.8283 383.17 42.8964 384.202Z" fill="#DC87FB"/>
<path fill-rule="evenodd" clip-rule="evenodd" d="M19.7206 381.721C15.8335 381.54 12.535 384.543 12.3531 388.43C11.2821 411.326 11.3771 427.978 11.9475 439.546C12.5019 450.788 13.5278 457.887 14.6594 461.166C15.9292 464.844 19.9404 466.797 23.6188 465.527C27.2972 464.257 29.2498 460.246 27.9801 456.568C27.583 455.417 26.5815 450.191 26.0223 438.851C25.4791 427.837 25.3743 411.65 26.4296 389.089C26.6115 385.202 23.6077 381.903 19.7206 381.721Z" fill="#EDD4FE"/>
<path fill-rule="evenodd" clip-rule="evenodd" d="M19.3722 394.033C16.2583 393.981 13.6443 396.588 13.5338 399.855C12.8828 419.097 13.1091 433.069 13.6702 442.763C14.2155 452.183 15.101 458.115 16.0367 460.837C17.0865 463.891 20.3158 465.425 23.2496 464.264C26.1833 463.103 27.7105 459.686 26.6607 456.632C26.3324 455.677 25.4834 451.317 24.9333 441.815C24.399 432.586 24.169 419.004 24.8105 400.042C24.921 396.775 22.4862 394.085 19.3722 394.033Z" fill="#FB95FD"/>
<path fill-rule="evenodd" clip-rule="evenodd" d="M19.1046 402.127C16.6298 402.201 14.5751 404.577 14.5154 407.434C14.1637 424.257 14.4636 436.446 14.9929 444.887C15.5072 453.09 16.2618 458.234 17.0287 460.575C17.8892 463.201 20.4684 464.416 22.7896 463.29C25.1107 462.163 26.2949 459.121 25.4344 456.495C25.1653 455.674 24.4532 451.901 23.9344 443.626C23.4305 435.59 23.1309 423.741 23.4775 407.163C23.5372 404.307 21.5794 402.052 19.1046 402.127Z" fill="#DC87FB"/>
<path fill-rule="evenodd" clip-rule="evenodd" d="M-20.5637 348.422C-24.2381 349.703 -26.1781 353.721 -24.8968 357.395C-16.9514 380.18 -18.3178 404.378 -21.9168 423.485C-23.7056 432.981 -26.0191 441.079 -27.9059 446.922C-28.8482 449.84 -29.6835 452.194 -30.2978 453.891C-30.4266 454.247 -30.5546 454.598 -30.6731 454.923C-30.8228 455.334 -30.9573 455.703 -31.0592 455.988C-31.1545 456.253 -31.2533 456.534 -31.3361 456.786C-31.3371 456.789 -31.3388 456.794 -31.3411 456.8C-31.38 456.916 -31.5902 457.542 -31.6971 458.227C-32.2973 462.072 -29.6671 465.675 -25.8223 466.275C-22.2126 466.839 -18.8157 464.555 -17.917 461.092C-17.8905 461.015 -17.8508 460.902 -17.7935 460.742C-17.6966 460.471 -17.5874 460.172 -17.4552 459.809C-17.3392 459.491 -17.2056 459.125 -17.0473 458.687C-16.4011 456.902 -15.5064 454.382 -14.4959 451.252C-12.4771 445.001 -9.99366 436.314 -8.06845 426.093C-4.23935 405.765 -2.50894 378.799 -11.5907 352.755C-12.872 349.081 -16.8894 347.141 -20.5637 348.422ZM-17.9485 461.185C-17.9853 461.297 -17.9752 461.278 -17.9443 461.172C-17.9458 461.177 -17.9472 461.181 -17.9485 461.185Z" fill="#EDD4FE"/>
<path fill-rule="evenodd" clip-rule="evenodd" d="M-16.3546 359.477C-19.327 360.648 -20.9162 362.725 -19.9375 367.502C-15.567 388.834 -18.4158 410.251 -21.5407 427.099C-23.0939 435.473 -25.0525 442.622 -26.6409 447.784C-27.4341 450.361 -28.1345 452.442 -28.6492 453.942C-28.7571 454.256 -28.8643 454.567 -28.9636 454.854C-29.0889 455.217 -29.2016 455.543 -29.2871 455.795C-29.3669 456.03 -29.4498 456.277 -29.5194 456.5C-29.5203 456.503 -29.5217 456.507 -29.5236 456.513C-29.5563 456.615 -29.7329 457.168 -29.8272 457.772C-30.3562 461.16 -28.2825 464.298 -25.1955 464.78C-22.2972 465.233 -19.5361 463.183 -18.7714 460.127C-18.7491 460.059 -18.7158 459.959 -18.6678 459.817C-18.5866 459.579 -18.4951 459.314 -18.3844 458.993C-18.2873 458.712 -18.1754 458.388 -18.0427 458.002C-17.5014 456.424 -16.7512 454.196 -15.9005 451.432C-14.2011 445.91 -12.0986 438.24 -10.427 429.228C-7.10232 411.303 -6.14006 393.09 -10.173 366.01C-10.8655 361.36 -13.3822 358.306 -16.3546 359.477ZM-18.7979 460.209C-18.8288 460.308 -18.8204 460.291 -18.7943 460.198C-18.7956 460.202 -18.7968 460.205 -18.7979 460.209Z" fill="#FB95FD"/>
<rect x="471.19" y="112.464" width="34.3239" height="109.544" rx="11.6847" fill="#9A37BA"/>
<rect x="450.744" y="92.0156" width="34.3239" height="129.262" rx="11.6847" fill="#CA39AD"/>
<rect x="489.45" y="138.024" width="34.3239" height="66.4569" rx="11.6847" fill="#CA39AD"/>
<rect x="433.945" y="154.091" width="34.3239" height="66.4569" rx="11.6847" fill="#D64CA4"/>
<rect x="474.842" y="184.763" width="34.3239" height="40.8966" rx="11.6847" fill="#D64CA4"/>
<path d="M440.517 206.672V170.887" stroke="#E2609D" stroke-width="5.84236" stroke-linecap="round"/>
<path d="M457.315 144.597V108.812" stroke="#E2609D" stroke-width="5.84236" stroke-linecap="round"/>
<path d="M480.683 209.593L480.683 196.448" stroke="#E2609D" stroke-width="5.84236" stroke-linecap="round"/>
<g clip-path="url(#clip2_65_78225)">
</g>
<path d="M225.353 79.0571C231.828 71.3201 242.449 68.4566 251.936 71.8902L258.475 74.2567L280.813 71.8565L265.279 78.8044L280.813 84.6996L258.475 81.4573L251.127 84.74C242.221 88.719 231.76 86.4126 225.353 79.0571Z" fill="#E2609D"/>
<path opacity="0.5" d="M229.775 79.1792C231.65 80.4518 236.325 83.0774 240.023 83.3989C243.72 83.7204 251.878 80.7197 255.495 79.1792" stroke="#CA39AD" stroke-width="3.61685" stroke-linecap="round"/>
<path d="M141.363 32.038C147.838 24.3011 158.46 21.4376 167.947 24.8711L174.485 27.2377L196.823 24.8375L181.289 31.7854L196.823 37.6806L174.485 34.4382L167.137 37.721C158.231 41.7 147.77 39.3935 141.363 32.038Z" fill="#E2609D"/>
<path opacity="0.5" d="M145.785 32.1606C147.661 33.4332 152.336 36.0588 156.033 36.3803C159.73 36.7018 167.888 33.7012 171.505 32.1606" stroke="#CA39AD" stroke-width="3.61685" stroke-linecap="round"/>
<path d="M80.9702 151.925C70.9883 157.858 65.9773 153.016 64.977 147.745C63.9766 142.474 65.4793 133.938 69.0252 131.83C72.5711 129.722 80.3443 132.033 84.9404 135.878C89.5366 139.723 90.9522 145.991 80.9702 151.925Z" fill="#D64CA4"/>
<path fill-rule="evenodd" clip-rule="evenodd" d="M65.4359 149.421C68.0751 151.083 72.1286 151.171 77.7695 147.818C84.8048 143.636 86.1784 139.287 84.7671 135.738C84.8235 135.784 84.8794 135.83 84.9348 135.877C89.531 139.721 90.9466 145.99 80.9646 151.923C72.0587 157.217 67.1099 153.934 65.4359 149.421Z" fill="#28259F"/>
<path d="M110.826 130.234C108.432 125.63 112.01 121.346 118.771 117.831C125.532 114.315 132.953 115.197 135.347 119.801C137.74 124.404 139.939 129.025 126.829 133.329C119.056 135.881 113.219 134.837 110.826 130.234Z" fill="#D64CA4"/>
<path fill-rule="evenodd" clip-rule="evenodd" d="M113.06 132.884C116.065 135.128 120.881 135.281 126.83 133.328C139.94 129.024 137.741 124.403 135.348 119.8C134.348 117.877 132.472 116.604 130.133 116.029C130.964 116.645 131.64 117.415 132.117 118.332C134.51 122.935 136.709 127.556 123.599 131.86C119.462 133.218 115.873 133.558 113.06 132.884Z" fill="#28259F"/>
<path d="M134.861 100.312C131.598 104.903 125.688 103.567 118.945 98.7728C112.202 93.9791 109.382 86.3714 112.646 81.7806C115.909 77.1898 119.287 72.7788 129.933 83.3169C136.245 89.5648 138.125 95.7214 134.861 100.312Z" fill="#D64CA4"/>
<path fill-rule="evenodd" clip-rule="evenodd" d="M136.321 96.8372C137 92.8239 134.765 88.0966 129.935 83.3158C119.288 72.7777 115.911 77.1886 112.647 81.7795C111.284 83.6975 110.982 86.1422 111.585 88.6882C111.769 87.5786 112.178 86.5428 112.829 85.627C116.093 81.0361 119.47 76.6252 130.116 87.1633C133.475 90.4878 135.579 93.7865 136.321 96.8372Z" fill="#28259F"/>
<path d="M97.7966 82.7698C96.4124 90.0493 88.6128 91.6931 77.921 89.6601C67.2292 87.6271 59.6839 80.0779 61.0681 72.7983C62.4522 65.5188 64.0708 58.3921 82.5811 65.1522C93.5557 69.1602 99.1807 75.4903 97.7966 82.7698Z" fill="#D64CA4"/>
<path fill-rule="evenodd" clip-rule="evenodd" d="M97.6331 77.8207C96.2452 72.6479 90.9792 68.22 82.5794 65.1523C64.0691 58.3922 62.4506 65.5189 61.0664 72.7984C60.4884 75.838 61.4673 78.9246 63.582 81.637C63.1944 80.2106 63.1156 78.7492 63.3914 77.2985C64.7756 70.019 66.3941 62.8923 84.9044 69.6524C90.7469 71.7861 95.0733 74.5779 97.6331 77.8207Z" fill="#28259F"/>
<path d="M182.688 108.947C182.688 129.754 170.642 133.038 161.608 129.753C152.574 126.468 140.802 116.338 140.802 108.947C140.802 101.555 151.479 91.6993 161.608 88.1401C171.738 84.5809 182.688 88.1396 182.688 108.947Z" fill="#CA39AD"/>
<path fill-rule="evenodd" clip-rule="evenodd" d="M161.613 129.865C170.647 133.15 182.693 129.866 182.693 109.059C182.693 88.2519 171.742 84.6932 161.613 88.2524C157.457 89.7124 153.21 92.232 149.646 95.2063C151.879 94.0417 154.23 93.07 156.551 92.388C166.218 89.5482 176.11 89.7798 171.199 108.989C174.998 127.033 165.173 128.211 156.551 125.59C154.335 124.916 151.946 123.881 149.62 122.615C153.358 125.787 157.737 128.456 161.613 129.865Z" fill="#28259F"/>
<path d="M142.655 108.871C142.655 120.242 103.744 139.637 70.6292 139.637C37.5145 139.637 25.5204 121.429 25.5204 108.871C25.5204 96.3122 48.1318 78.1045 70.6292 78.1045C103.744 78.1045 142.655 97.5001 142.655 108.871Z" fill="#CA39AD"/>
<path opacity="0.5" fill-rule="evenodd" clip-rule="evenodd" d="M60.2505 128.145C93.3652 128.145 132.276 108.75 132.276 97.3791C132.276 97.0595 132.245 96.7335 132.185 96.4019C138.677 100.781 142.654 105.236 142.654 108.871C142.654 120.242 103.743 139.638 70.6282 139.638C46.45 139.638 33.5311 129.931 28.3193 119.804C35.4809 124.715 45.8758 128.145 60.2505 128.145Z" fill="#9A37BA"/>
<path d="M119.672 97.5646C99.4695 88.8537 83.4085 85.5176 73.3367 85.5176C53.4023 85.5176 39.9757 94.4137 33.1181 107.388" stroke="#D64CA4" stroke-width="8.89628" stroke-linecap="round"/>
<mask id="mask0_65_78225" style="mask-type:alpha" maskUnits="userSpaceOnUse" x="25" y="78" width="118" height="62">
<path d="M142.655 108.871C142.655 120.242 103.744 139.637 70.6292 139.637C37.5145 139.637 25.5204 121.429 25.5204 108.871C25.5204 96.3122 48.1318 78.1045 70.6292 78.1045C103.744 78.1045 142.655 97.5001 142.655 108.871Z" fill="#E2609D"/>
</mask>
<g mask="url(#mask0_65_78225)">
<mask id="path-209-inside-1_65_78225" fill="white">
<path fill-rule="evenodd" clip-rule="evenodd" d="M25.5426 128.066C41.7364 127.643 54.7337 114.382 54.7337 98.0865C54.7337 85.8848 47.4471 75.3851 36.9879 70.7014C37.2535 70.6944 37.52 70.6909 37.7872 70.6909C54.3505 70.6909 67.7777 84.1181 67.7777 100.681C67.7777 117.245 54.3505 130.672 37.7872 130.672C33.4256 130.672 29.2814 129.741 25.5426 128.066Z"/>
</mask>
<path fill-rule="evenodd" clip-rule="evenodd" d="M25.5426 128.066C41.7364 127.643 54.7337 114.382 54.7337 98.0865C54.7337 85.8848 47.4471 75.3851 36.9879 70.7014C37.2535 70.6944 37.52 70.6909 37.7872 70.6909C54.3505 70.6909 67.7777 84.1181 67.7777 100.681C67.7777 117.245 54.3505 130.672 37.7872 130.672C33.4256 130.672 29.2814 129.741 25.5426 128.066Z" fill="#E7D6FF"/>
<path d="M25.5426 128.066L25.5135 126.955L25.0881 129.081L25.5426 128.066ZM36.9879 70.7014L36.9588 69.5897L36.5334 71.7163L36.9879 70.7014ZM53.6217 98.0865C53.6217 113.778 41.1063 126.547 25.5135 126.955L25.5717 129.178C42.3665 128.739 55.8458 114.987 55.8458 98.0865H53.6217ZM36.5334 71.7163C46.6072 76.2274 53.6217 86.339 53.6217 98.0865H55.8458C55.8458 85.4307 48.287 74.5428 37.4424 69.6864L36.5334 71.7163ZM37.017 71.813C37.2729 71.8063 37.5297 71.803 37.7872 71.803V69.5789C37.5103 69.5789 37.2341 69.5825 36.9588 69.5897L37.017 71.813ZM37.7872 71.803C53.7364 71.803 66.6657 84.7323 66.6657 100.681H68.8898C68.8898 83.504 54.9647 69.5789 37.7872 69.5789V71.803ZM66.6657 100.681C66.6657 116.631 53.7364 129.56 37.7872 129.56V131.784C54.9647 131.784 68.8898 117.859 68.8898 100.681H66.6657ZM37.7872 129.56C33.5853 129.56 29.5957 128.663 25.9971 127.052L25.0881 129.081C28.9671 130.818 33.2659 131.784 37.7872 131.784V129.56Z" fill="#363BBC" mask="url(#path-209-inside-1_65_78225)"/>
<mask id="path-211-inside-2_65_78225" fill="white">
<path fill-rule="evenodd" clip-rule="evenodd" d="M159.335 169.554C128.595 166.365 104.625 140.38 104.625 108.796C104.625 77.2122 128.595 51.2266 159.335 48.0383C157.24 47.8209 155.112 47.7095 152.959 47.7095C119.222 47.7095 91.8724 75.0589 91.8724 108.796C91.8724 142.533 119.222 169.883 152.959 169.883C155.112 169.883 157.24 169.771 159.335 169.554Z"/>
</mask>
<path fill-rule="evenodd" clip-rule="evenodd" d="M159.335 169.554C128.595 166.365 104.625 140.38 104.625 108.796C104.625 77.2122 128.595 51.2266 159.335 48.0383C157.24 47.8209 155.112 47.7095 152.959 47.7095C119.222 47.7095 91.8724 75.0589 91.8724 108.796C91.8724 142.533 119.222 169.883 152.959 169.883C155.112 169.883 157.24 169.771 159.335 169.554Z" fill="#E7D6FF"/>
<path d="M159.335 169.554L159.45 168.448L159.45 170.66L159.335 169.554ZM159.335 48.0383L159.45 46.9322V49.1444L159.335 48.0383ZM105.737 108.796C105.737 139.804 129.27 165.318 159.45 168.448L159.221 170.66C127.919 167.413 103.513 140.956 103.513 108.796H105.737ZM159.45 49.1444C129.27 52.2746 105.737 77.7878 105.737 108.796H103.513C103.513 76.6365 127.919 50.1787 159.221 46.9322L159.45 49.1444ZM159.221 49.1444C157.163 48.9309 155.074 48.8215 152.959 48.8215V46.5974C155.151 46.5974 157.316 46.7108 159.45 46.9322L159.221 49.1444ZM152.959 48.8215C119.836 48.8215 92.9845 75.673 92.9845 108.796H90.7604C90.7604 74.4447 118.608 46.5974 152.959 46.5974V48.8215ZM92.9845 108.796C92.9845 141.919 119.836 168.771 152.959 168.771V170.995C118.608 170.995 90.7604 143.147 90.7604 108.796H92.9845ZM152.959 168.771C155.074 168.771 157.163 168.661 159.221 168.448L159.45 170.66C157.316 170.881 155.151 170.995 152.959 170.995V168.771Z" fill="#363BBC" mask="url(#path-211-inside-2_65_78225)"/>
</g>
<path opacity="0.5" d="M100.782 114.53C97.6367 129.66 87.7469 130.095 81.1987 126.242C74.6505 122.388 67.0022 113.114 68.1196 107.739C69.237 102.364 79.0528 96.9284 87.4897 95.9825C95.9266 95.0366 103.928 99.3997 100.782 114.53Z" fill="#9A37BA"/>
<path d="M96.1345 109.688C96.1345 123.774 87.9796 125.998 81.8634 123.774C75.7472 121.55 67.7776 114.692 67.7776 109.688C67.7776 104.684 75.0058 98.012 81.8634 95.6025C88.7209 93.1929 96.1345 95.6021 96.1345 109.688Z" fill="#D64CA4"/>
<path fill-rule="evenodd" clip-rule="evenodd" d="M81.8605 123.85C87.9767 126.074 96.1316 123.85 96.1316 109.764C96.1316 95.6778 88.7181 93.2686 81.8605 95.6782C79.0445 96.6676 76.166 98.3759 73.7511 100.392C75.2665 99.6012 76.8625 98.9412 78.438 98.4783C84.9818 96.5558 92.0562 98.478 92.0562 109.717C92.0562 120.956 84.2744 122.73 78.438 120.956C76.9347 120.498 75.3139 119.796 73.7361 118.937C76.2677 121.086 79.2349 122.895 81.8605 123.85Z" fill="#28259F"/>
<path d="M73.7069 108.674C75.375 107.192 78.3404 104.052 83.3445 104.052" stroke="#E2609D" stroke-width="6.30153" stroke-linecap="round"/>
<path d="M152.108 103.125C153.776 101.642 158.484 98.8993 163.97 99.789" stroke="#D64CA4" stroke-width="6.30153" stroke-linecap="round"/>
<mask id="path-218-inside-3_65_78225" fill="white">
<path d="M135.983 100.716C135.983 99.8972 136.647 99.2334 137.466 99.2334H145.621C146.44 99.2334 147.103 99.8972 147.103 100.716V117.026C147.103 117.845 146.44 118.509 145.621 118.509H137.466C136.647 118.509 135.983 117.845 135.983 117.026V100.716Z"/>
</mask>
<path d="M135.983 100.716C135.983 99.8972 136.647 99.2334 137.466 99.2334H145.621C146.44 99.2334 147.103 99.8972 147.103 100.716V117.026C147.103 117.845 146.44 118.509 145.621 118.509H137.466C136.647 118.509 135.983 117.845 135.983 117.026V100.716Z" fill="#E7D6FF"/>
<path d="M135.983 99.2334H147.103H135.983ZM147.103 118.509H135.983H147.103ZM137.466 118.509C135.419 118.509 133.759 116.849 133.759 114.802V102.94C133.759 100.893 135.419 99.2334 137.466 99.2334H138.207C138.207 99.2334 138.207 99.8972 138.207 100.716V117.026C138.207 117.845 138.207 118.509 138.207 118.509H137.466ZM145.621 99.2334C147.668 99.2334 149.327 100.893 149.327 102.94V114.802C149.327 116.849 147.668 118.509 145.621 118.509H144.879C144.879 118.509 144.879 117.845 144.879 117.026V100.716C144.879 99.8972 144.879 99.2334 144.879 99.2334H145.621Z" fill="#28259F" mask="url(#path-218-inside-3_65_78225)"/>
<circle cx="43.8687" cy="97.1949" r="4.2628" fill="#28259F"/>
</g>
<defs>
<linearGradient id="paint0_linear_65_78225" x1="-174.287" y1="-573.554" x2="130.934" y2="313.13" gradientUnits="userSpaceOnUse">
<stop stop-color="#975AF4"/>
<stop offset="1" stop-color="#975AF4" stop-opacity="0"/>
</linearGradient>
<linearGradient id="paint1_linear_65_78225" x1="291.078" y1="-573.554" x2="596.299" y2="313.13" gradientUnits="userSpaceOnUse">
<stop stop-color="#975AF4"/>
<stop offset="1" stop-color="#975AF4" stop-opacity="0"/>
</linearGradient>
<linearGradient id="paint2_linear_65_78225" x1="510.576" y1="-581.9" x2="815.797" y2="304.784" gradientUnits="userSpaceOnUse">
<stop stop-color="#975AF4"/>
<stop offset="1" stop-color="#975AF4" stop-opacity="0"/>
</linearGradient>
<linearGradient id="paint3_linear_65_78225" x1="39.0426" y1="-596.375" x2="344.264" y2="290.308" gradientUnits="userSpaceOnUse">
<stop stop-color="#975AF4"/>
<stop offset="1" stop-color="#975AF4" stop-opacity="0"/>
</linearGradient>
<clipPath id="clip0_65_78225">
<rect width="550.44" height="440" fill="white" transform="translate(0 0.0556641)"/>
</clipPath>
<clipPath id="clip1_65_78225">
<rect width="1335.58" height="704.656" fill="white" transform="translate(-719.19 -461.797)"/>
</clipPath>
<clipPath id="clip2_65_78225">
<rect width="1142.65" height="471.94" fill="white" transform="matrix(-1 0 0 1 487.041 -447.312)"/>
</clipPath>
</defs>
</svg>
