<svg width="381" height="356" viewBox="0 0 381 356" fill="none" xmlns="http://www.w3.org/2000/svg">
<g clip-path="url(#clip0_65_77105)">
<rect width="381" height="356" fill="#4B51DC"/>
<g clip-path="url(#clip1_65_77105)">
<rect width="1267.2" height="712.8" transform="translate(-15.4 -246)" fill="white"/>
<rect x="-15.4" y="-246" width="1267.2" height="712.8" fill="#8078FA"/>
<path fill-rule="evenodd" clip-rule="evenodd" d="M562.76 250.65C562.76 211.101 594.821 179.04 634.37 179.04H809.93C849.479 179.04 881.54 211.101 881.54 250.65C881.54 290.199 849.479 322.26 809.93 322.26H634.37C594.821 322.26 562.76 290.199 562.76 250.65ZM-46.75 213.36C-86.2991 213.36 -118.36 245.421 -118.36 284.97C-118.36 324.519 -86.2991 356.58 -46.75 356.58H12.65C52.1991 356.58 84.26 324.519 84.26 284.97C84.26 245.421 52.1992 213.36 12.65 213.36H-46.75ZM203.06 227.22C178.273 227.22 158.18 247.313 158.18 272.1V325.56C158.18 350.347 178.273 370.44 203.06 370.44H432.08C456.867 370.44 476.96 350.347 476.96 325.56V272.1C476.96 247.314 456.867 227.22 432.08 227.22H203.06ZM1060.07 208.74C1020.52 208.74 988.46 240.801 988.46 280.35C988.46 319.899 1020.52 351.96 1060.07 351.96H1235.63C1275.18 351.96 1307.24 319.899 1307.24 280.35C1307.24 240.801 1275.18 208.74 1235.63 208.74H1060.07Z" fill="#5D5AF4"/>
<rect opacity="0.3" width="108.647" height="719.538" transform="matrix(0.945548 -0.325484 0.182353 0.983233 273.679 -399.571)" fill="url(#paint0_linear_65_77105)"/>
<rect opacity="0.3" width="167.155" height="948.942" transform="matrix(0.945548 -0.325484 0.182353 0.983233 92.4395 -399.572)" fill="url(#paint1_linear_65_77105)"/>
<path fill-rule="evenodd" clip-rule="evenodd" d="M638.99 480.66C677.417 480.66 711.474 461.947 732.545 433.137C742.858 436.146 753.765 437.76 765.05 437.76H914.21C978.181 437.76 1030.04 385.901 1030.04 321.93C1030.04 257.958 978.181 206.1 914.21 206.1H765.05C726.622 206.1 692.566 224.812 671.495 253.623C661.182 250.613 650.274 249 638.99 249H404.03C365.604 249 331.548 267.711 310.477 296.52H182.6V321.551C162.083 289.06 125.857 267.48 84.5899 267.48H54.89C-9.08118 267.48 -60.9401 319.338 -60.9401 383.31C-60.9401 447.281 -9.08115 499.14 54.89 499.14H84.5899C133.531 499.14 175.382 468.787 192.347 425.88H305.576C326.011 458.765 362.464 480.66 404.03 480.66H638.99Z" fill="#4B51DC"/>
<path d="M32.7799 197.748V241.202H60.0584V269.028" stroke="#4B51DC" stroke-width="7.12804" stroke-linecap="round" stroke-linejoin="round"/>
<path d="M60.3323 241.202H74.3142L74.1771 187.057" stroke="#4B51DC" stroke-width="7.12804" stroke-linecap="round" stroke-linejoin="round"/>
<path d="M45.3921 240.654V212.004M45.3921 212.004H62.1156V179.928M45.3921 212.004V173.76" stroke="#4B51DC" stroke-width="7.12804" stroke-linecap="round" stroke-linejoin="round"/>
<path d="M131.073 211.608V255.062H103.795V282.889" stroke="#4B51DC" stroke-width="7.12804" stroke-linecap="round" stroke-linejoin="round"/>
<path d="M103.521 255.062H89.5392V176.069" stroke="#4B51DC" stroke-width="7.12804" stroke-linecap="round" stroke-linejoin="round"/>
<path d="M118.461 254.513V230.189M118.461 230.189H101.738V207.749M118.461 230.189V187.619" stroke="#4B51DC" stroke-width="7.12804" stroke-linecap="round" stroke-linejoin="round"/>
<path fill-rule="evenodd" clip-rule="evenodd" d="M251.56 257.058C254.961 262.949 252.868 270.41 247.074 273.727L250.671 272.403C257.24 269.986 264.491 273.582 266.541 280.275C268.632 287.102 264.435 294.256 257.456 295.763L210.723 305.852C209.468 306.538 208.03 306.854 206.589 306.744L191.056 310.097C187.285 310.911 183.518 308.702 182.388 305.013C182.259 304.592 182.17 304.169 182.117 303.746C180.044 303.907 177.979 303.188 176.454 301.755L145.49 300.574C138.355 300.302 132.98 293.985 133.854 286.899C134.47 281.896 138.022 278.007 142.534 276.684C136.188 273.562 133.815 265.696 137.403 259.578C140.226 254.764 145.812 252.629 150.916 253.924L146.69 248.101C142.496 242.323 144.143 234.193 150.255 230.502C154.097 228.182 158.683 228.237 162.344 230.206C163.131 225.696 166.438 221.787 171.206 220.509C174.885 219.523 178.605 220.33 181.462 222.374C183.613 218.952 187.423 216.66 191.792 216.66C198.517 216.66 203.887 222.078 203.984 228.653C206.685 224.073 212.208 221.617 217.644 223.073C222.899 224.481 226.379 229.084 226.666 234.167L226.92 233.688C230.201 227.505 238.002 225.346 243.993 228.965C250.106 232.655 251.752 240.785 247.558 246.563L244.079 251.357C247.118 252.149 249.857 254.108 251.56 257.058Z" fill="#4B51DC"/>
<path d="M180.994 309.753C180.481 299.666 185.069 282.192 190.739 269.49C197.151 255.128 207.152 244.101 210.486 240.254" stroke="#363BBC" stroke-width="16.9261" stroke-linecap="round"/>
<path d="M201.32 310.191C203.347 292.22 208.261 276.793 217.348 261.283" stroke="#363BBC" stroke-width="16.9261" stroke-linecap="round"/>
<path d="M180.699 306.675C177.194 296.332 171.671 268.207 177.621 238.458" stroke="#363BBC" stroke-width="16.9261" stroke-linecap="round"/>
<path d="M154.539 251.795C156.676 260.942 161.617 282.364 164.285 294.879C166.952 307.395 171.209 312.062 173.004 312.831" stroke="#363BBC" stroke-width="16.9261" stroke-linecap="round"/>
<path d="M236.526 261.284C236.24 262.635 234.71 269.633 230.877 286.813C227.045 303.993 222.193 312.883 220.246 315.18" stroke="#363BBC" stroke-width="16.9261" stroke-linecap="round"/>
<path d="M144.539 311.292C147.787 300.179 153.925 275.286 152.489 264.617M172.749 316.421C173.005 314.626 160.182 294.366 178.134 250.769" stroke="#26249E" stroke-width="12.3099" stroke-linecap="round"/>
<path d="M187.618 312.921C188.632 309.983 190.308 296.568 188.897 266.413" stroke="#26249E" stroke-width="12.3099" stroke-linecap="round"/>
<path d="M208.138 315.653C208.138 314.37 198.393 276.928 214.55 246.666" stroke="#26249E" stroke-width="12.3099" stroke-linecap="round"/>
<path d="M237.118 306.419C236.862 304.111 233.938 296.161 224.296 282.825" stroke="#26249E" stroke-width="12.3099" stroke-linecap="round"/>
<path fill-rule="evenodd" clip-rule="evenodd" d="M222.247 333.453C221.76 333.433 221.275 333.366 220.8 333.251L220.759 333.255C218.87 333.442 217.066 332.902 215.636 331.854C214.553 331.713 213.485 331.33 212.515 330.691C209.981 329.022 208.784 326.045 209.285 323.201L207.015 322.246C203.484 320.759 201.667 316.835 202.807 313.187C200.237 310.399 200.178 306.108 202.694 303.249C204.872 300.774 208.351 300.082 211.244 301.349L222.503 250.143C224.036 243.169 231.207 239 238.026 241.117C244.71 243.192 248.279 250.457 245.836 257.016L245.645 257.529C249.635 254.365 255.39 253.907 259.935 256.901C264.634 259.996 266.467 265.755 264.839 270.816C269.818 266.523 277.434 266.937 281.901 271.964C284.804 275.23 285.621 279.6 284.492 283.481C287.918 284.259 290.992 286.503 292.699 289.909C294.912 294.322 294.187 299.39 291.337 302.974C295.24 304.403 298.327 307.795 299.145 312.207C300.446 319.228 295.463 325.859 288.358 326.562L281.201 327.271C285.559 330.227 287.673 335.82 285.95 341.128C283.761 347.873 276.305 351.325 269.756 348.656C271.765 352.907 271.217 358.146 267.887 361.93C263.171 367.291 254.878 367.469 249.935 362.317L222.247 333.453Z" fill="#4B51DC"/>
<path d="M219.487 341.875C227.368 335.558 237.382 320.521 243.11 307.844C249.586 293.512 251.185 278.71 251.846 273.663" stroke="#363BBC" stroke-width="16.9261" stroke-linecap="round"/>
<path d="M205.657 326.973C217.743 313.52 226.011 299.599 231.568 282.504" stroke="#363BBC" stroke-width="16.9261" stroke-linecap="round"/>
<path d="M221.984 340.052C232.044 335.801 256.735 321.246 275.019 297.037" stroke="#363BBC" stroke-width="16.9261" stroke-linecap="round"/>
<path d="M280.383 323.148C272.126 327.627 252.831 338.164 241.705 344.484C230.578 350.804 224.261 350.722 222.494 349.891" stroke="#363BBC" stroke-width="16.9261" stroke-linecap="round"/>
<path d="M242.552 370.147C248.701 360.336 263.232 339.212 272.16 333.199M219.979 352.467C221.151 351.083 244.813 347.21 265.476 304.83" stroke="#26249E" stroke-width="12.3099" stroke-linecap="round"/>
<path d="M212.721 339.028C214.244 336.318 223.158 326.155 246.635 307.178" stroke="#26249E" stroke-width="12.3099" stroke-linecap="round"/>
<path d="M197.045 325.503C198.003 324.651 232.465 307.063 244.352 274.884" stroke="#26249E" stroke-width="12.3099" stroke-linecap="round"/>
<path fill-rule="evenodd" clip-rule="evenodd" d="M160.82 88.6197C160.82 83.1521 156.388 78.7197 150.92 78.7197H-26.29C-34.856 78.7197 -41.8 85.6638 -41.8 94.2297V96.5397C-41.8 103.83 -35.8902 109.74 -28.6 109.74C-21.3099 109.74 -15.4 115.65 -15.4 122.94V151.32V156.6V198.18V204.78V252.3V256.26V355.26C-15.4 367.289 -5.64882 377.04 6.37995 377.04H14.96C26.9887 377.04 36.74 367.288 36.74 355.26V278.04C36.74 266.011 46.4912 256.26 58.52 256.26H81.62C93.6487 256.26 103.4 246.508 103.4 234.48V217.98C103.4 207.045 94.5352 198.18 83.5999 198.18C72.6647 198.18 63.7999 189.315 63.7999 178.38V177.39C63.7999 165.908 73.1079 156.6 84.5899 156.6H195.8C207.829 156.6 217.58 146.849 217.58 134.82V120.3C217.58 108.271 207.829 98.5197 195.8 98.5197H170.72C165.252 98.5197 160.82 94.0874 160.82 88.6197Z" fill="#363BBC"/>
<rect opacity="0.5" x="-30.5801" y="111.06" width="166.98" height="14.52" rx="7.26" fill="#4B51DC"/>
<rect opacity="0.2" x="-18.7001" y="93.2393" width="166.98" height="14.52" rx="7.26" fill="#281280"/>
<rect opacity="0.5" x="-30.5801" y="233.819" width="54.78" height="14.52" rx="7.26" fill="#4B51DC"/>
<rect opacity="0.5" x="18.9199" y="217.319" width="23.76" height="14.52" rx="7.26" fill="#4B51DC"/>
<rect opacity="0.5" x="26.1799" y="198.84" width="20.46" height="14.52" rx="7.26" fill="#4B51DC"/>
<rect x="-30.5801" y="190.92" width="49.5" height="35.64" rx="17.82" fill="#8078FA"/>
<path d="M336.862 227.652C336.859 227.656 336.859 227.661 336.862 227.664C336.866 227.668 336.865 227.674 336.862 227.677C335.526 229.019 335.528 231.19 336.868 232.531C338.207 233.871 340.378 233.873 341.721 232.537C341.725 232.534 341.73 232.534 341.734 232.537C341.737 232.541 341.743 232.541 341.746 232.538C344.584 229.906 347.884 228.054 351.372 226.983C352.479 226.643 353.518 226.088 354.337 225.269L355.336 224.271L355.336 224.271L355.336 224.271C358.127 221.415 358.107 216.837 355.276 214.005C352.445 211.173 347.867 211.153 345.011 213.943L345.01 213.943L345.01 213.943L344.234 214.719C343.396 215.557 342.835 216.624 342.499 217.761C341.44 221.348 339.561 224.743 336.862 227.652Z" fill="#4B51DC"/>
<path d="M335.457 236.183C335.462 236.185 335.466 236.182 335.468 236.178C335.469 236.173 335.474 236.17 335.479 236.172C337.28 236.758 339.216 235.775 339.807 233.975C340.397 232.175 339.419 230.236 337.621 229.642C337.617 229.64 337.614 229.635 337.616 229.63C337.617 229.626 337.615 229.621 337.61 229.619C333.98 228.276 330.838 226.168 328.307 223.539C327.503 222.705 326.54 222.029 325.439 221.667L324.098 221.227L324.097 221.228L324.097 221.228C320.288 220.027 316.213 222.112 314.965 225.917C313.717 229.721 315.766 233.815 319.546 235.104L319.546 235.104L319.546 235.105L320.588 235.446C321.715 235.816 322.92 235.834 324.086 235.62C327.764 234.945 331.642 235.089 335.457 236.183Z" fill="#4B51DC"/>
<path d="M336.932 225.094C336.933 225.098 336.929 225.103 336.924 225.103C336.92 225.104 336.916 225.108 336.916 225.113C337.104 226.997 335.731 228.679 333.846 228.872C331.961 229.064 330.277 227.695 330.079 225.811C330.079 225.806 330.074 225.803 330.07 225.803C330.065 225.804 330.06 225.8 330.06 225.796C329.522 221.963 328.134 218.443 326.107 215.409C325.463 214.445 325.008 213.36 324.89 212.207L324.747 210.803L324.747 210.803L324.747 210.803C324.387 206.825 327.295 203.289 331.278 202.882C335.262 202.475 338.824 205.351 339.275 209.319L339.275 209.319L339.276 209.319L339.387 210.411C339.508 211.59 339.268 212.772 338.81 213.865C337.366 217.314 336.677 221.133 336.932 225.094Z" fill="#4B51DC"/>
<path d="M344.025 267.818C344.02 267.817 344.016 267.813 344.016 267.808C344.017 267.802 344.013 267.798 344.007 267.797C341.974 267.644 340.448 265.874 340.596 263.839C340.744 261.805 342.511 260.275 344.545 260.418C344.55 260.418 344.555 260.414 344.555 260.409C344.556 260.404 344.56 260.4 344.565 260.4C348.73 260.547 352.721 259.733 356.317 258.15C357.459 257.648 358.695 257.368 359.939 257.459L361.454 257.569L361.455 257.57L361.455 257.57C365.739 257.932 368.945 261.675 368.632 265.975C368.319 270.274 364.604 273.514 360.312 273.251L360.312 273.251L360.312 273.251L359.134 273.165C357.861 273.073 356.653 272.598 355.579 271.908C352.192 269.731 348.272 268.288 344.025 267.818Z" fill="#4B51DC"/>
<path d="M347.471 250.999C347.466 251.001 347.461 250.999 347.458 250.995C347.456 250.99 347.45 250.988 347.445 250.99C345.611 251.879 343.401 251.116 342.507 249.282C341.613 247.449 342.372 245.238 344.202 244.34C344.207 244.337 344.209 244.332 344.207 244.327C344.204 244.322 344.206 244.316 344.211 244.314C347.885 242.348 350.927 239.639 353.24 236.464C353.975 235.456 354.903 234.593 356.024 234.046L357.39 233.38L357.391 233.38L357.391 233.38C361.277 231.54 365.93 233.166 367.82 237.04C369.709 240.915 368.125 245.582 364.283 247.512L364.283 247.512L364.283 247.512L363.221 248.03C362.074 248.59 360.791 248.786 359.516 248.729C355.494 248.549 351.379 249.271 347.471 250.999Z" fill="#4B51DC"/>
<path d="M338.428 252.325C338.433 252.326 338.438 252.323 338.439 252.318C338.44 252.312 338.445 252.309 338.451 252.31C340.452 252.699 342.392 251.396 342.787 249.394C343.181 247.393 341.882 245.45 339.882 245.051C339.877 245.05 339.874 245.045 339.875 245.039C339.876 245.034 339.873 245.029 339.868 245.028C335.813 244.069 332.178 242.229 329.128 239.753C328.16 238.967 327.042 238.37 325.818 238.129L324.327 237.835L324.327 237.835L324.326 237.835C320.099 237.052 316.017 239.815 315.183 244.045C314.349 248.274 317.076 252.38 321.284 253.26L321.284 253.261L321.285 253.261L322.443 253.49C323.696 253.737 324.986 253.598 326.204 253.216C330.046 252.012 334.208 251.656 338.428 252.325Z" fill="#4B51DC"/>
<path d="M336.392 267.887C336.397 267.887 336.401 267.883 336.401 267.878C336.401 267.873 336.406 267.868 336.411 267.868C338.45 267.875 340.11 266.229 340.122 264.189C340.133 262.149 338.491 260.486 336.453 260.469C336.447 260.469 336.443 260.465 336.443 260.46C336.443 260.454 336.439 260.45 336.434 260.45C332.271 260.27 328.355 259.146 324.894 257.287C323.795 256.697 322.585 256.322 321.338 256.315L319.818 256.306L319.818 256.306L319.817 256.307C315.518 256.332 312.029 259.813 312.005 264.124C311.98 268.435 315.43 271.955 319.729 272.029L319.73 272.029L319.73 272.029L320.911 272.036C322.187 272.043 323.429 271.664 324.553 271.06C328.1 269.156 332.122 268.024 336.392 267.887Z" fill="#4B51DC"/>
<path d="M332.949 285.3C333.808 271.125 345.493 261.542 342.828 246.641C340.509 233.669 334.008 227.111 332.949 224.133" stroke="#4B51DC" stroke-width="4.98271" stroke-linecap="round"/>
<path d="M392.654 243.002C392.657 243.002 392.66 242.999 392.66 242.996C392.659 242.993 392.662 242.99 392.665 242.99C393.909 242.896 394.844 241.812 394.753 240.567C394.662 239.322 393.581 238.385 392.336 238.473C392.333 238.473 392.33 238.47 392.33 238.467C392.329 238.464 392.327 238.462 392.323 238.462C389.774 238.552 387.331 238.053 385.13 237.085C384.431 236.777 383.675 236.606 382.913 236.662L381.986 236.729L381.985 236.729L381.985 236.729C379.363 236.951 377.4 239.242 377.592 241.874C377.784 244.506 380.058 246.489 382.685 246.328L382.685 246.328L382.685 246.328L383.406 246.275C384.185 246.219 384.925 245.928 385.582 245.506C387.655 244.173 390.055 243.29 392.654 243.002Z" fill="#4B51DC"/>
<path d="M390.544 232.706C390.547 232.707 390.551 232.706 390.552 232.703C390.553 232.7 390.557 232.699 390.56 232.7C391.683 233.245 393.035 232.778 393.583 231.655C394.13 230.533 393.666 229.18 392.545 228.63C392.542 228.628 392.541 228.625 392.543 228.622C392.544 228.619 392.543 228.616 392.54 228.614C390.291 227.411 388.429 225.752 387.013 223.809C386.563 223.192 385.995 222.664 385.309 222.329L384.473 221.921L384.473 221.921L384.472 221.921C382.094 220.795 379.246 221.79 378.089 224.162C376.932 226.534 377.902 229.39 380.254 230.571L380.254 230.572L380.254 230.572L380.904 230.889C381.606 231.231 382.391 231.351 383.172 231.316C385.634 231.206 388.152 231.648 390.544 232.706Z" fill="#4B51DC"/>
<path d="M292.877 295.2C294.188 290.04 295.737 278.352 291.447 272.88C286.859 267.028 291.822 263.943 289.546 255.96M283.403 235.26C282.807 236.82 282.831 242.244 287.693 251.46C288.571 253.124 289.162 254.612 289.546 255.96M289.546 255.96C291.908 255.18 296.416 252.216 295.558 246.6C294.7 240.984 293.413 232.98 292.877 229.68M295.558 295.2C298.835 290.64 304.71 278.748 301.993 267.66C298.597 253.8 301.457 255.42 304.853 248.4C308.25 241.38 304.853 234.72 301.993 229.68C299.705 225.648 302.947 221.52 304.853 219.96M291.447 295.2C287.691 294.709 281.363 291.813 280.839 284.22M279.292 246.6C278.755 248.22 278.005 252.648 279.292 257.4C280.901 263.34 285.191 263.52 281.437 278.46C280.892 280.627 280.723 282.539 280.839 284.22M280.839 284.22C274.961 283.56 263.776 279.612 266.064 269.1C268.924 255.96 274.287 255.6 270.175 243.54C266.064 231.48 274.287 229.5 270.175 221.22" stroke="#4B51DC" stroke-width="4.42588" stroke-linecap="round"/>
<rect width="23.6294" height="14.9653" rx="7.48266" transform="matrix(-1 0 0 1 67.7805 58.9199)" fill="#181688"/>
<rect width="34.394" height="27.3051" rx="11.8147" transform="matrix(-1 0 0 1 34.1747 67.8467)" fill="#181688"/>
<rect width="34.32" height="15.84" rx="7.92" transform="matrix(-1 0 0 1 211.64 95.2197)" fill="#181688"/>
<rect width="72.4636" height="19.9538" rx="9.97688" transform="matrix(-1 0 0 1 116.615 70.4717)" fill="#363BBC"/>
<rect width="25.7298" height="16.5406" rx="8.27031" transform="matrix(-1 0 0 1 86.4204 65.7461)" fill="#26249E"/>
<rect x="168.08" y="90.5996" width="25.7298" height="16.5406" rx="8.27031" fill="#26249E"/>
<rect width="19.6912" height="8.66413" rx="4.33207" transform="matrix(-1 0 0 1 51.5022 72.0469)" fill="#181688"/>
<rect width="42.2705" height="12.8649" rx="6.43246" transform="matrix(-1 0 0 1 50.453 77.5615)" fill="#26249E"/>
<rect width="8.66413" height="4.72589" rx="2.36295" transform="matrix(-1 0 0 1 75.765 68.1094)" fill="#5D5AF4"/>
<rect x="172.806" y="92.9629" width="8.66413" height="4.72589" rx="2.36295" fill="#5D5AF4"/>
<rect width="8.66413" height="2.1004" rx="1.0502" transform="matrix(-1 0 0 1 62.2659 61.0205)" fill="#363BBC"/>
<rect opacity="0.5" width="26.78" height="3.41314" rx="1.70657" transform="matrix(-1 0 0 1 39.7589 78.874)" fill="#4B51DC"/>
<rect width="23.6294" height="14.9653" rx="7.48266" transform="matrix(-1 0 0 1 119.24 61.0205)" fill="#181688"/>
<rect opacity="0.5" width="12.0773" height="5.51354" rx="2.75677" transform="matrix(-1 0 0 1 116.352 63.3838)" fill="#26249E"/>
<rect width="28.8804" height="5.51354" rx="2.75677" transform="matrix(-1 0 0 1 110.5 82.6797)" fill="#181688"/>
<rect width="6.37532" height="66.3808" transform="matrix(-0.876671 -0.481091 -0.481091 0.876671 169.952 28.5537)" fill="#363BBC"/>
<ellipse cx="3.18766" cy="2.98714" rx="3.18766" ry="2.98714" transform="matrix(-0.876671 -0.481091 -0.481091 0.876671 171.421 25.877)" fill="#363BBC"/>
<ellipse cx="3.18766" cy="2.98714" rx="3.18766" ry="2.98714" transform="matrix(-0.876671 -0.481091 -0.481091 0.876671 139.486 84.0713)" fill="#363BBC"/>
<rect width="8.11212" height="62.6016" transform="matrix(-0.89312 -0.449819 -0.449819 0.89312 162.565 20.9756)" fill="#363BBC"/>
<ellipse cx="4.05606" cy="2.81707" rx="4.05606" ry="2.81707" transform="matrix(-0.89312 -0.449819 -0.449819 0.89312 163.86 18.4033)" fill="#363BBC"/>
<ellipse cx="4.05606" cy="2.81707" rx="4.05606" ry="2.81707" transform="matrix(-0.89312 -0.449819 -0.449819 0.89312 135.701 74.3145)" fill="#363BBC"/>
<rect width="8.72816" height="58.1877" transform="matrix(-0.803324 -0.595543 -0.595543 0.803324 166.668 39.3906)" fill="#363BBC"/>
<path d="M160.217 34.5374C159.978 34.8604 159.915 35.4067 160.22 36.1444C160.52 36.868 161.138 37.663 162.027 38.3221C162.916 38.9811 163.857 39.3416 164.636 39.4178C165.431 39.4956 165.935 39.2769 166.175 38.9539C166.414 38.6309 166.477 38.0847 166.171 37.347C165.872 36.6234 165.253 35.8283 164.364 35.1693C163.475 34.5102 162.535 34.1498 161.756 34.0735C160.961 33.9958 160.457 34.2144 160.217 34.5374Z" fill="#363BBC" stroke="#B23EA8" stroke-width="1.31223"/>
<ellipse cx="4.36408" cy="2.61845" rx="4.36408" ry="2.61845" transform="matrix(-0.803324 -0.595543 -0.595543 0.803324 133.608 83.9844)" fill="#363BBC"/>
<rect width="5.62445" height="64.3553" transform="matrix(-0.997967 0.0637368 0.0637368 0.997967 128.983 14.9863)" fill="#363BBC"/>
<path d="M124.054 15.4219C124.061 15.5418 124.165 15.7668 124.588 15.9778C124.993 16.1803 125.588 16.3047 126.268 16.2613C126.948 16.2179 127.522 16.0189 127.898 15.7664C128.291 15.5033 128.365 15.2669 128.357 15.1471C128.35 15.0272 128.246 14.8021 127.823 14.5911C127.418 14.3886 126.823 14.2642 126.143 14.3077C125.463 14.3511 124.889 14.5501 124.513 14.8026C124.12 15.0657 124.046 15.302 124.054 15.4219Z" fill="#363BBC" stroke="#B23EA8" stroke-width="1.31223"/>
<ellipse cx="2.81222" cy="2.89599" rx="2.81222" ry="2.89599" transform="matrix(-0.997967 0.0637368 0.0637368 0.997967 132.896 76.2559)" fill="#363BBC"/>
<rect width="5.62445" height="64.3553" transform="matrix(-0.997967 0.0637368 0.0637368 0.997967 128.983 14.9863)" fill="#363BBC"/>
<path d="M124.054 15.4219C124.061 15.5418 124.165 15.7668 124.588 15.9778C124.993 16.1803 125.588 16.3047 126.268 16.2613C126.948 16.2179 127.522 16.0189 127.898 15.7664C128.291 15.5033 128.365 15.2669 128.357 15.1471C128.35 15.0272 128.246 14.8021 127.823 14.5911C127.418 14.3886 126.823 14.2642 126.143 14.3077C125.463 14.3511 124.889 14.5501 124.513 14.8026C124.12 15.0657 124.046 15.302 124.054 15.4219Z" fill="#363BBC" stroke="#B23EA8" stroke-width="1.31223"/>
<ellipse cx="2.81222" cy="2.89599" rx="2.81222" ry="2.89599" transform="matrix(-0.997967 0.0637368 0.0637368 0.997967 132.896 76.2559)" fill="#363BBC"/>
<path fill-rule="evenodd" clip-rule="evenodd" d="M131.34 51.9029L130.107 32.5967L125.832 53.9032L127.065 73.2094L131.34 51.9029Z" fill="#363BBC"/>
<rect width="7.58175" height="72.9014" transform="matrix(-0.980458 -0.196728 -0.196728 0.980458 145.585 13.1357)" fill="#363BBC"/>
<path d="M138.809 11.7016C138.541 13.0386 139.578 14.5328 141.366 14.8915C143.154 15.2502 144.688 14.272 144.956 12.935C145.224 11.5981 144.187 10.1039 142.399 9.74518C140.611 9.38644 139.077 10.3647 138.809 11.7016Z" fill="#363BBC" stroke="#B23EA8" stroke-width="1.31223"/>
<ellipse cx="3.79087" cy="3.28056" rx="3.79087" ry="3.28056" transform="matrix(-0.980458 -0.196728 -0.196728 0.980458 131.903 81.3252)" fill="#363BBC"/>
<rect width="6.7149" height="54.66" transform="matrix(-0.947465 0.319858 0.319858 0.947465 111.624 27.7256)" fill="#363BBC"/>
<path d="M105.866 29.6122C106 30.0098 106.358 30.3487 106.93 30.5299C107.502 30.711 108.242 30.7136 109.002 30.457C109.763 30.2003 110.349 29.7497 110.694 29.2592C111.04 28.7683 111.119 28.2818 110.985 27.8841C110.851 27.4864 110.493 27.1476 109.92 26.9664C109.349 26.7853 108.609 26.7826 107.848 27.0393C107.088 27.296 106.501 27.7465 106.156 28.237C105.811 28.728 105.732 29.2145 105.866 29.6122Z" fill="#363BBC" stroke="#B23EA8" stroke-width="1.31223"/>
<ellipse cx="3.35745" cy="2.4597" rx="3.35745" ry="2.4597" transform="matrix(-0.947465 0.319858 0.319858 0.947465 128.302 77.1328)" fill="#363BBC"/>
<path opacity="0.2" d="M142.585 16.8848L130.422 77.5022" stroke="#363BBC" stroke-width="1.74157" stroke-linecap="round"/>
<path opacity="0.2" d="M163.274 41.0195L139.003 74.5616" stroke="#363BBC" stroke-width="1.74157" stroke-linecap="round"/>
<path opacity="0.2" d="M127.583 18.0938L129.459 46.8907" stroke="#363BBC" stroke-width="1.74157" stroke-linecap="round"/>
<path opacity="0.4" d="M110.554 31.5508L126.322 78.0113" stroke="#363BBC" stroke-width="1.74157" stroke-linecap="round"/>
<rect width="8.72816" height="35.7213" transform="matrix(-0.772045 0.635568 0.635568 0.772045 106.522 52.0107)" fill="#363BBC"/>
<path d="M100.258 57.1045C100.258 57.1046 100.259 57.1053 100.261 57.1064C100.259 57.105 100.258 57.1044 100.258 57.1045ZM100.275 56.9377C100.258 57.0377 100.265 57.0896 100.27 57.1114C100.29 57.1208 100.34 57.137 100.442 57.1398C100.626 57.1449 100.899 57.1001 101.254 56.9762C101.958 56.7304 102.848 56.2212 103.735 55.4914C104.621 54.7615 105.292 53.9859 105.669 53.3419C105.858 53.0176 105.955 52.7581 105.985 52.5761C106.002 52.4761 105.996 52.4242 105.99 52.4024C105.97 52.3929 105.92 52.3768 105.819 52.374C105.634 52.3689 105.361 52.4137 105.006 52.5375C104.302 52.7834 103.412 53.2925 102.526 54.0224C101.639 54.7523 100.968 55.5279 100.592 56.1718C100.402 56.4962 100.306 56.7556 100.275 56.9377ZM105.986 52.3894C105.986 52.3895 105.986 52.3905 105.987 52.3923C105.986 52.3903 105.986 52.3894 105.986 52.3894ZM106.002 52.4093C106.002 52.4092 106.001 52.4085 106 52.4073C106.001 52.4087 106.002 52.4093 106.002 52.4093ZM100.273 57.1214C100.274 57.1235 100.274 57.1244 100.275 57.1243C100.275 57.1243 100.274 57.1233 100.273 57.1214Z" fill="#363BBC" stroke="#B23EA8" stroke-width="1.31223"/>
<ellipse cx="4.36408" cy="1.60746" rx="4.36408" ry="1.60746" transform="matrix(-0.772045 0.635568 0.635568 0.772045 128.181 78.3203)" fill="#363BBC"/>
<rect width="4.9803" height="47.8875" transform="matrix(-0.941738 -0.336346 -0.336346 0.941738 148.673 40.3574)" fill="#363BBC"/>
<path d="M144.616 38.8572C144.367 39.5559 144.799 40.5138 145.839 40.8856C146.88 41.2573 147.821 40.7896 148.071 40.0909C148.32 39.3922 147.888 38.4343 146.848 38.0626C145.807 37.6908 144.866 38.1585 144.616 38.8572Z" fill="#363BBC" stroke="#B23EA8" stroke-width="1.31223"/>
<ellipse cx="2.49015" cy="2.15494" rx="2.49015" ry="2.15494" transform="matrix(-0.941738 -0.336346 -0.336346 0.941738 133.308 83.3799)" fill="#363BBC"/>
<rect width="7.1777" height="33.7169" transform="matrix(-0.860082 -0.510155 -0.510155 0.860082 159.016 59.4805)" fill="#363BBC"/>
<path d="M153.426 56.1216C153.426 56.1215 153.425 56.1223 153.425 56.1238L153.426 56.1216ZM153.566 56.0614C153.466 56.0869 153.432 56.1159 153.424 56.1245C153.421 56.1355 153.411 56.179 153.437 56.279C153.473 56.4196 153.567 56.6175 153.745 56.8593C154.1 57.3405 154.712 57.8893 155.507 58.3612C156.303 58.8331 157.078 59.1071 157.671 59.1878C157.968 59.2284 158.187 59.2156 158.327 59.1798C158.427 59.1543 158.461 59.1253 158.469 59.1167C158.473 59.1057 158.482 59.0621 158.457 58.9621C158.421 58.8216 158.327 58.6236 158.149 58.3819C157.794 57.9007 157.182 57.3518 156.386 56.8799C155.59 56.408 154.815 56.134 154.223 56.0533C153.925 56.0128 153.707 56.0255 153.566 56.0614ZM158.471 59.1142C158.471 59.1141 158.47 59.1147 158.47 59.1161L158.471 59.1142ZM158.468 59.1196C158.468 59.1196 158.468 59.1189 158.469 59.1173L158.468 59.1196ZM153.424 56.125C153.423 56.1263 153.422 56.127 153.423 56.127L153.424 56.125Z" fill="#363BBC" stroke="#B23EA8" stroke-width="1.31223"/>
<ellipse cx="3.58885" cy="1.51726" rx="3.58885" ry="1.51726" transform="matrix(-0.860082 -0.510155 -0.510155 0.860082 142.606 87.1455)" fill="#363BBC"/>
<rect width="7.1777" height="20.6514" transform="matrix(-0.964066 -0.265664 -0.265664 0.964066 142.57 68.5928)" fill="#363BBC"/>
<path d="M136.34 66.9659C136.295 67.1306 136.348 67.4629 136.812 67.904C137.254 68.3234 137.959 68.7229 138.832 68.9632C139.704 69.2036 140.515 69.2221 141.109 69.0879C141.733 68.9468 141.949 68.6888 141.995 68.5241C142.04 68.3594 141.986 68.0271 141.523 67.586C141.081 67.1666 140.375 66.7671 139.503 66.5268C138.631 66.2864 137.82 66.2679 137.226 66.4021C136.602 66.5432 136.385 66.8012 136.34 66.9659Z" fill="#363BBC" stroke="#B23EA8" stroke-width="1.31223"/>
<ellipse cx="3.58885" cy="0.929311" rx="3.58885" ry="0.929311" transform="matrix(-0.964066 -0.265664 -0.265664 0.964066 137.337 87.5859)" fill="#363BBC"/>
<path d="M-12.1387 23.791H0.148021V40.2105C0.148021 46.9963 -5.35292 52.4972 -12.1387 52.4972V23.791Z" fill="#363BBC"/>
<path d="M-10.3521 56.6445H3.4984V64.1282C3.4984 67.9529 0.397874 71.0535 -3.42682 71.0535H-10.3521V56.6445Z" fill="#363BBC"/>
<path opacity="0.5" fill-rule="evenodd" clip-rule="evenodd" d="M0.0791016 70.1008V56.6436H3.49841V64.1273C3.49841 66.6727 2.12515 68.8973 0.0791016 70.1008Z" fill="#363BBC"/>
<path d="M2.61068 56.5877C2.61068 56.9099 2.28847 57.4854 1.09928 58.0321C-0.0132551 58.5435 -1.6126 58.8833 -3.42682 58.8833C-5.24105 58.8833 -6.84039 58.5435 -7.95293 58.0321C-9.14211 57.4854 -9.46433 56.9099 -9.46433 56.5877C-9.46433 56.2655 -9.14211 55.6899 -7.95293 55.1433C-6.84039 54.6319 -5.24105 54.292 -3.42682 54.292C-1.6126 54.292 -0.0132551 54.6319 1.09928 55.1433C2.28847 55.6899 2.61068 56.2655 2.61068 56.5877Z" fill="#363BBC" stroke="#A0A4FA" stroke-width="1.77544"/>
<path opacity="0.5" fill-rule="evenodd" clip-rule="evenodd" d="M-2.98889 48.4081V23.791H0.145457V40.2105C0.145457 43.3605 -1.0399 46.2336 -2.98889 48.4081Z" fill="#363BBC"/>
<path d="M-0.7397 23.823C-0.7397 24.2013 -1.05372 24.7645 -2.05975 25.2858C-3.02129 25.7841 -4.41132 26.1187 -5.99533 26.1187C-7.57933 26.1187 -8.96936 25.7841 -9.9309 25.2858C-10.9369 24.7645 -11.251 24.2013 -11.251 23.823C-11.251 23.4447 -10.9369 22.8815 -9.9309 22.3602C-8.96936 21.862 -7.57933 21.5274 -5.99533 21.5274C-4.41132 21.5274 -3.02129 21.862 -2.05975 22.3602C-1.05372 22.8815 -0.7397 23.4447 -0.7397 23.823Z" fill="#363BBC" stroke="#A0A4FA" stroke-width="1.77544"/>
<path fill-rule="evenodd" clip-rule="evenodd" d="M-4.83106 293.22C-4.48149 280.403 6.01838 270.12 18.92 270.12H239.36C289.115 270.12 331.395 302.13 346.727 346.68H474.771C494.924 322.102 525.526 306.42 559.79 306.42H655.49C677.635 306.42 698.251 312.971 715.504 324.24H1021.46V503.1H765.38V526.2H449.9V525.54H352.88H299.42H-4.84005V472.08H-41.8V293.22H-4.83106Z" fill="#363BBC"/>
<rect opacity="0.5" x="78.3199" y="279.36" width="178.86" height="14.52" rx="7.26" fill="#4B51DC"/>
<path d="M-15.9235 247.704C-17.2556 243.604 -0.38993 247.638 8.20944 250.167C21.4152 254.966 28.5562 266.285 4.90287 259.266C-18.7504 252.247 -14.2584 252.828 -15.9235 247.704Z" fill="#2F259F"/>
<path d="M18.4045 279.414C28.4667 286.854 29.9237 286.543 41.8489 285.621C50.7513 290.706 61.4843 293.528 65.738 294.303C68.4141 290.791 74.9415 282.196 79.6424 275.916C85.5186 268.067 103.786 273.032 114.078 257.424C123.807 242.67 90.0487 243.121 89.1263 233.641C88.2038 224.161 75.5981 220.947 70.276 223.112C64.9538 225.277 54.499 226.313 48.0443 225.123C41.5896 223.934 34.0832 219.629 21.3973 211.551C8.71149 203.472 5.50044 206.299 -0.361535 209.95C-6.22351 213.601 6.16635 216.947 11.332 222.608C16.4977 228.269 9.13237 227.274 1.10528 230.874C-6.92181 234.474 2.31029 244.661 4.83807 253.883C6.8603 261.26 3.74515 268.446 1.93479 271.116C4.07064 271.402 10.3548 273.462 18.4045 279.414Z" fill="#3B38BE"/>
<path d="M-7.58173 266.816C-8.60618 262.239 -7.53378 262.524 -15.5992 253.287C-9.853 256.426 -11.1478 254.904 0.257514 257.262C11.6628 259.62 10.8124 262.885 16.4102 265.97C20.8884 268.438 18.9491 275.932 17.4196 279.37C10.233 274.74 -1.94179 273.175 -7.13086 272.971C-6.93966 272.445 -6.76216 270.477 -7.58173 266.816Z" fill="#3B38BE"/>
<path opacity="0.5" d="M41.9352 222.357C41.9846 222.281 42.0236 222.232 42.0514 222.209C42.0108 222.259 41.9721 222.309 41.9352 222.357C41.8157 222.539 41.6353 222.872 41.4048 223.332C41.4775 223.362 41.5469 223.39 41.6128 223.416C44.0715 224.38 40.9486 225.084 41.3447 223.453C39.675 226.82 35.6027 236.338 32.7801 244.486C31.9279 244.982 35.9458 246.499 22.3053 243.728C5.25467 240.264 -5.97501 236.499 -0.463862 233.351C5.04729 230.204 15.7517 228.944 11.8471 224.897C7.94248 220.85 -8.30449 211.478 -1.16807 209.867C5.96835 208.256 8.28952 202.793 15.9036 208.187C23.3672 213.475 37.3694 221.645 41.3822 223.323C41.4703 223.058 41.6441 222.738 41.9352 222.357Z" fill="#2F259F"/>
<path opacity="0.5" fill-rule="evenodd" clip-rule="evenodd" d="M42.1143 285.772C44.0797 283.795 45.5007 281.777 46.0615 280.956L76.7735 267.627L79.7365 258.086C79.29 257.801 74.4697 256.425 68.5562 254.737C61.6896 252.777 53.3491 250.396 48.6716 248.813L48.6765 248.8C51.6113 248.628 40.4645 245.455 46.0324 247.839C46.6611 248.108 47.5636 248.438 48.6716 248.813L35.132 286.071C36.7893 286.015 38.7001 285.866 41.0242 285.686C41.2936 285.665 41.5685 285.643 41.8492 285.622C41.9374 285.672 42.0257 285.722 42.1143 285.772Z" fill="#2F259F"/>
<path d="M18.0137 278.642C19.5272 275.863 20.457 268.682 12.0674 262.186C1.58042 254.066 -15.4307 256.503 -17.1024 250.009C-18.3202 245.279 -9.6688 246.194 3.2406 248.573" stroke="#5D5AF4" stroke-width="3.76756" stroke-linecap="round"/>
<path d="M42.5924 285.679C46.1116 282.158 55.2059 274.728 63.4296 273.176C73.7092 271.236 86.8564 263.716 77.7316 256.931C68.6069 250.147 59.6286 254.977 49.8359 249.106C40.0433 243.235 33.352 245.008 18.5336 243.722C3.71515 242.436 -6.85271 234.076 4.43219 230.294C15.7171 226.512 15.2048 224.224 1.7027 217.005C-11.7994 209.786 9.38132 200.035 24.6498 212.1C39.9183 224.166 47.9312 224.765 54.8379 225.173C61.7447 225.581 67.3172 218.566 81.4132 223.689C95.5093 228.811 87.4615 235.241 94.1585 239.462C100.856 243.683 112.14 244.525 113.454 250.153C114.768 255.781 106.612 265.745 90.0759 250.696C73.5399 235.648 66.8474 244.357 55.2332 241.188" stroke="#5D5AF4" stroke-width="3.76756" stroke-linecap="round"/>
<path d="M237.591 372.909C233.042 370.326 223.917 362.675 223.804 352.732C223.662 340.303 221.938 336.285 214.679 327.698C208.872 320.829 209.106 311.712 209.949 308.012" stroke="#5D5AF4" stroke-width="3.21756" stroke-linecap="round"/>
<path d="M210.179 312.104C210.175 312.106 210.174 312.111 210.177 312.115C210.179 312.118 210.178 312.123 210.175 312.126C208.783 313.082 208.427 314.985 209.38 316.38C210.333 317.775 212.235 318.135 213.632 317.186C213.636 317.184 213.641 317.185 213.643 317.188C213.646 317.192 213.65 317.193 213.654 317.19C216.575 315.351 219.772 314.273 223.005 313.908C224.032 313.793 225.033 313.478 225.886 312.896L226.926 312.185L226.926 312.185L226.926 312.185C229.843 310.142 230.58 306.127 228.566 303.178C226.551 300.23 222.543 299.458 219.579 301.432L219.579 301.432L219.579 301.432L218.771 301.984C217.898 302.581 217.231 303.424 216.749 304.365C215.23 307.333 213.024 309.999 210.179 312.104Z" fill="#5D5AF4"/>
<path d="M207.268 310.859C207.273 310.859 207.276 310.862 207.277 310.866C207.277 310.871 207.281 310.874 207.286 310.873C208.965 310.696 210.472 311.911 210.654 313.591C210.836 315.271 209.623 316.78 207.945 316.966C207.94 316.967 207.937 316.971 207.938 316.975C207.938 316.979 207.935 316.983 207.931 316.984C204.516 317.483 201.384 318.74 198.69 320.564C197.834 321.143 196.868 321.555 195.841 321.666L194.59 321.801L194.59 321.801L194.589 321.801C191.045 322.143 187.876 319.569 187.492 316.019C187.108 312.469 189.653 309.278 193.189 308.854L193.189 308.854L193.189 308.853L194.162 308.748C195.213 308.635 196.268 308.842 197.246 309.245C200.329 310.514 203.738 311.108 207.268 310.859Z" fill="#5D5AF4"/>
<path d="M219.985 355.746C219.987 355.743 219.992 355.742 219.996 355.744C219.999 355.747 220.004 355.746 220.007 355.743C221.018 354.39 222.933 354.11 224.29 355.118C225.646 356.126 225.929 358.041 224.925 359.399C224.923 359.403 224.923 359.408 224.927 359.41C224.93 359.413 224.931 359.418 224.929 359.421C222.975 362.266 221.769 365.418 221.277 368.634C221.12 369.656 220.766 370.644 220.15 371.473L219.399 372.483L219.399 372.483L219.398 372.483C217.241 375.316 213.199 375.893 210.334 373.763C207.468 371.632 206.856 367.596 208.947 364.714L208.947 364.713L208.947 364.713L209.531 363.928C210.162 363.079 211.031 362.447 211.99 362.003C215.017 360.603 217.768 358.505 219.985 355.746Z" fill="#5D5AF4"/>
<path d="M226.463 360.34C226.458 360.339 226.455 360.336 226.456 360.331C226.456 360.327 226.453 360.323 226.449 360.322C224.774 360.108 223.588 358.578 223.798 356.901C224.008 355.225 225.536 354.035 227.212 354.241C227.216 354.242 227.22 354.239 227.221 354.235C227.221 354.23 227.225 354.227 227.23 354.228C230.668 354.529 234.005 354.027 237.047 352.874C238.013 352.507 239.048 352.329 240.073 352.458L241.322 352.615L241.322 352.615L241.322 352.615C244.85 353.099 247.341 356.334 246.896 359.877C246.452 363.42 243.239 365.939 239.701 365.536L239.7 365.537L239.7 365.537L238.729 365.415C237.68 365.283 236.702 364.838 235.843 364.221C233.136 362.275 229.955 360.912 226.463 360.34Z" fill="#5D5AF4"/>
<path d="M206.869 306.156C206.87 306.16 206.874 306.163 206.878 306.162C206.882 306.161 206.887 306.164 206.887 306.168C207.185 307.831 208.772 308.939 210.436 308.645C212.1 308.352 213.212 306.767 212.923 305.103C212.922 305.099 212.925 305.094 212.929 305.094C212.933 305.093 212.936 305.089 212.936 305.085C212.463 301.666 212.797 298.308 213.798 295.212C214.115 294.229 214.242 293.186 214.062 292.169L213.843 290.93L213.843 290.929L213.843 290.929C213.183 287.43 209.828 285.104 206.312 285.725C202.795 286.345 200.44 289.68 201.018 293.194L201.018 293.194L201.018 293.194L201.188 294.158C201.372 295.199 201.865 296.154 202.524 296.98C204.603 299.587 206.123 302.696 206.869 306.156Z" fill="#5D5AF4"/>
<path d="M217.278 324.026C217.274 324.026 217.27 324.029 217.27 324.034C217.27 324.038 217.266 324.042 217.262 324.042C215.573 324.011 214.178 325.353 214.143 327.042C214.108 328.731 215.447 330.13 217.135 330.169C217.14 330.169 217.143 330.173 217.143 330.177C217.143 330.181 217.146 330.185 217.151 330.185C220.596 330.386 223.825 331.366 226.668 332.948C227.571 333.451 228.569 333.777 229.601 333.798L230.86 333.824L230.86 333.824L230.86 333.824C234.421 333.856 237.355 331.017 237.428 327.447C237.502 323.877 234.689 320.919 231.13 320.804L231.129 320.804L231.129 320.803L230.151 320.783C229.094 320.761 228.061 321.06 227.122 321.546C224.161 323.079 220.816 323.966 217.278 324.026Z" fill="#5D5AF4"/>
<path d="M225.174 341.013C225.17 341.014 225.167 341.018 225.168 341.023C225.169 341.028 225.165 341.033 225.16 341.034C223.279 341.399 222.047 343.217 222.407 345.1C222.768 346.984 224.584 348.219 226.467 347.864C226.472 347.863 226.477 347.866 226.478 347.871C226.478 347.876 226.483 347.879 226.488 347.879C230.359 347.287 234.174 347.612 237.703 348.697C238.824 349.042 240.008 349.168 241.16 348.948L242.563 348.679L242.563 348.679L242.563 348.679C246.523 347.874 249.108 344.03 248.347 340.05C247.585 336.071 243.764 333.452 239.787 334.165L239.786 334.165L239.786 334.165L238.696 334.373C237.517 334.599 236.442 335.174 235.515 335.935C232.59 338.336 229.088 340.111 225.174 341.013Z" fill="#5D5AF4"/>
<path d="M220.431 341.537C220.434 341.534 220.435 341.528 220.432 341.525C220.429 341.521 220.429 341.516 220.433 341.513C221.853 340.377 222.086 338.306 220.954 336.882C219.821 335.459 217.75 335.221 216.325 336.35C216.321 336.353 216.315 336.352 216.312 336.348C216.31 336.345 216.304 336.344 216.301 336.347C213.308 338.55 209.96 339.959 206.516 340.603C205.423 340.807 204.372 341.223 203.502 341.916L202.442 342.759L202.441 342.76L202.441 342.76C199.469 345.182 198.992 349.551 201.385 352.559C203.779 355.567 208.144 356.083 211.171 353.731L211.172 353.731L211.172 353.731L211.996 353.075C212.887 352.366 213.537 351.409 213.981 350.361C215.38 347.055 217.54 344.019 220.431 341.537Z" fill="#5D5AF4"/>
<path d="M208.968 322.466C208.971 322.463 208.976 322.464 208.979 322.468C208.981 322.471 208.986 322.472 208.99 322.47C210.368 321.493 212.277 321.816 213.257 323.193C214.237 324.569 213.918 326.478 212.545 327.462C212.542 327.464 212.541 327.469 212.543 327.473C212.546 327.476 212.545 327.481 212.542 327.484C209.807 329.59 207.691 332.218 206.233 335.127C205.77 336.05 205.129 336.882 204.288 337.481L203.262 338.211L203.262 338.211L203.262 338.211C200.337 340.244 196.314 339.549 194.243 336.641C192.171 333.732 192.83 329.703 195.707 327.604L195.707 327.604L195.707 327.603L196.504 327.036C197.365 326.422 198.387 326.087 199.436 325.96C202.746 325.56 206.01 324.409 208.968 322.466Z" fill="#5D5AF4"/>
<path d="M172.785 378.251C174.741 374.612 177.625 365.661 173.522 358.965C168.392 350.596 167.857 347.185 169.101 338.393C170.096 331.359 166.107 325.362 163.988 323.243" stroke="#5D5AF4" stroke-width="2.54104" stroke-linecap="round"/>
<path d="M165.555 326.075C165.559 326.076 165.561 326.078 165.561 326.082C165.561 326.085 165.564 326.088 165.567 326.088C166.9 326.143 167.938 327.265 167.887 328.599C167.836 329.932 166.715 330.972 165.382 330.925C165.379 330.925 165.376 330.927 165.376 330.931C165.376 330.934 165.373 330.937 165.369 330.937C162.644 330.935 160.053 331.558 157.738 332.673C157.003 333.027 156.201 333.238 155.386 333.207L154.392 333.169L154.392 333.169L154.392 333.169C151.583 333.029 149.402 330.654 149.51 327.836C149.618 325.019 151.973 322.817 154.785 322.892L154.785 322.892L154.785 322.892L155.557 322.921C156.391 322.953 157.192 323.236 157.909 323.663C160.172 325.009 162.768 325.864 165.555 326.075Z" fill="#5D5AF4"/>
<path d="M166.976 324.019C166.973 324.021 166.972 324.025 166.973 324.028C166.975 324.031 166.973 324.035 166.97 324.036C165.773 324.623 165.276 326.069 165.861 327.269C166.445 328.469 167.89 328.968 169.091 328.387C169.094 328.385 169.098 328.387 169.099 328.39C169.101 328.393 169.104 328.394 169.107 328.393C171.601 327.291 174.222 326.815 176.791 326.902C177.606 326.93 178.425 326.799 179.158 326.442L180.052 326.006L180.052 326.006L180.052 326.006C182.566 324.744 183.603 321.692 182.367 319.157C181.132 316.622 178.088 315.558 175.546 316.761L175.546 316.761L175.546 316.761L174.851 317.099C174.101 317.465 173.483 318.047 172.998 318.727C171.471 320.872 169.441 322.702 166.976 324.019Z" fill="#5D5AF4"/>
<path d="M177.342 359.376C177.338 359.375 177.335 359.376 177.334 359.379C177.332 359.383 177.329 359.384 177.326 359.383C176.081 358.904 174.683 359.521 174.2 360.765C173.717 362.009 174.332 363.409 175.574 363.895C175.577 363.896 175.579 363.9 175.578 363.903C175.576 363.906 175.578 363.91 175.581 363.911C178.083 364.992 180.214 366.593 181.895 368.536C182.429 369.153 183.081 369.665 183.842 369.96L184.768 370.32L184.769 370.32L184.769 370.32C187.402 371.307 190.347 369.994 191.367 367.365C192.388 364.736 191.1 361.78 188.491 360.732L188.491 360.732L188.49 360.732L187.77 360.452C186.992 360.15 186.145 360.092 185.317 360.199C182.705 360.535 179.983 360.289 177.342 359.376Z" fill="#5D5AF4"/>
<path d="M165.267 320.707C165.268 320.71 165.267 320.714 165.264 320.715C165.26 320.717 165.259 320.72 165.26 320.723C165.76 321.96 165.164 323.368 163.928 323.871C162.692 324.374 161.283 323.782 160.777 322.548C160.776 322.545 160.772 322.543 160.769 322.544C160.766 322.546 160.762 322.544 160.761 322.541C159.639 320.057 158.005 317.952 156.034 316.303C155.409 315.779 154.886 315.135 154.579 314.379L154.204 313.459L154.204 313.458L154.204 313.458C153.175 310.841 154.44 307.876 157.052 306.813C159.664 305.75 162.64 306.989 163.73 309.582L163.731 309.582L163.731 309.582L164.022 310.298C164.337 311.071 164.408 311.917 164.315 312.747C164.021 315.363 164.311 318.081 165.267 320.707Z" fill="#5D5AF4"/>
<path d="M165.82 337.03C165.823 337.028 165.827 337.029 165.829 337.032C165.831 337.035 165.835 337.035 165.838 337.033C166.954 336.303 168.451 336.614 169.184 337.729C169.918 338.843 169.61 340.341 168.498 341.077C168.495 341.079 168.494 341.083 168.496 341.086C168.498 341.088 168.497 341.092 168.494 341.094C166.275 342.677 164.528 344.689 163.292 346.942C162.9 347.657 162.37 348.295 161.688 348.743L160.858 349.29L160.858 349.29L160.858 349.29C158.49 350.808 155.336 350.143 153.786 347.787C152.236 345.431 152.873 342.271 155.205 340.698L155.205 340.698L155.205 340.697L155.851 340.273C156.548 339.814 157.364 339.579 158.196 339.51C160.82 339.29 163.429 338.477 165.82 337.03Z" fill="#5D5AF4"/>
<path d="M167.68 351.706C167.684 351.705 167.688 351.707 167.689 351.71C167.69 351.714 167.695 351.716 167.698 351.714C169.109 351.167 170.698 351.865 171.248 353.276C171.799 354.686 171.104 356.276 169.696 356.83C169.692 356.831 169.69 356.836 169.692 356.839C169.693 356.843 169.691 356.847 169.688 356.848C166.851 358.081 164.437 359.901 162.533 362.11C161.929 362.811 161.19 363.394 160.328 363.73L159.277 364.141L159.277 364.141L159.276 364.14C156.291 365.267 152.947 363.783 151.783 360.802C150.619 357.822 152.073 354.465 155.032 353.27L155.032 353.27L155.032 353.269L155.849 352.95C156.732 352.606 157.693 352.538 158.632 352.657C161.597 353.033 164.685 352.748 167.68 351.706Z" fill="#5D5AF4"/>
<path d="M171.07 350.062C171.067 350.061 171.064 350.058 171.065 350.055C171.065 350.051 171.062 350.047 171.059 350.047C169.632 349.884 168.605 348.598 168.764 347.17C168.923 345.742 170.208 344.713 171.635 344.868C171.639 344.869 171.643 344.866 171.643 344.862C171.643 344.859 171.647 344.856 171.65 344.856C174.577 345.071 177.408 344.606 179.981 343.589C180.798 343.266 181.675 343.103 182.548 343.2L183.612 343.318L183.612 343.318L183.612 343.319C186.617 343.689 188.773 346.409 188.437 349.426C188.101 352.444 185.399 354.623 182.387 354.323L182.386 354.323L182.386 354.323L181.559 354.231C180.666 354.132 179.829 353.765 179.092 353.251C176.767 351.628 174.046 350.507 171.07 350.062Z" fill="#5D5AF4"/>
<path d="M170.719 332.494C170.716 332.493 170.713 332.496 170.712 332.499C170.712 332.503 170.709 332.506 170.706 332.505C169.374 332.432 168.234 333.45 168.157 334.782C168.08 336.115 169.096 337.257 170.427 337.337C170.43 337.338 170.433 337.341 170.433 337.344C170.433 337.347 170.435 337.35 170.439 337.351C173.152 337.61 175.672 338.477 177.869 339.809C178.567 340.232 179.345 340.518 180.159 340.565L181.152 340.623L181.152 340.623L181.152 340.622C183.962 340.752 186.359 338.597 186.522 335.781C186.684 332.966 184.55 330.549 181.745 330.355L181.744 330.355L181.744 330.355L180.973 330.31C180.139 330.262 179.316 330.467 178.561 330.824C176.179 331.947 173.513 332.55 170.719 332.494Z" fill="#5D5AF4"/>
<rect width="6.37532" height="66.3808" transform="matrix(-0.954183 -0.299224 -0.299224 0.954183 379.025 287.755)" fill="#363BBC"/>
<ellipse cx="3.18766" cy="2.98714" rx="3.18766" ry="2.98714" transform="matrix(-0.954183 -0.299224 -0.299224 0.954183 379.937 284.842)" fill="#363BBC"/>
<ellipse cx="3.18766" cy="2.98714" rx="3.18766" ry="2.98714" transform="matrix(-0.954183 -0.299224 -0.299224 0.954183 360.075 348.182)" fill="#363BBC"/>
<rect width="8.11212" height="62.6016" transform="matrix(-0.964158 -0.265327 -0.265327 0.964158 370.292 281.779)" fill="#363BBC"/>
<ellipse cx="4.05606" cy="2.81707" rx="4.05606" ry="2.81707" transform="matrix(-0.964158 -0.265327 -0.265327 0.964158 371.055 279.003)" fill="#363BBC"/>
<ellipse cx="4.05606" cy="2.81707" rx="4.05606" ry="2.81707" transform="matrix(-0.964158 -0.265327 -0.265327 0.964158 354.444 339.36)" fill="#363BBC"/>
<rect width="8.72816" height="58.1877" transform="matrix(-0.904785 -0.425869 -0.425869 0.904785 377.935 299.028)" fill="#363BBC"/>
<path d="M370.656 295.538C370.484 295.902 370.531 296.45 370.975 297.113C371.411 297.763 372.174 298.421 373.175 298.893C374.176 299.364 375.169 299.532 375.948 299.454C376.743 299.374 377.194 299.06 377.365 298.696C377.537 298.332 377.491 297.785 377.046 297.121C376.61 296.471 375.848 295.813 374.846 295.342C373.845 294.87 372.852 294.702 372.073 294.78C371.278 294.861 370.827 295.174 370.656 295.538Z" fill="#363BBC" stroke="#363BBC" stroke-width="1.31223"/>
<ellipse cx="4.36408" cy="2.61845" rx="4.36408" ry="2.61845" transform="matrix(-0.904785 -0.425869 -0.425869 0.904785 354.293 349.254)" fill="#363BBC"/>
<rect width="5.62445" height="64.3553" transform="matrix(-0.965926 0.258819 0.258819 0.965926 336.186 282.514)" fill="#363BBC"/>
<path d="M331.439 283.911C331.47 284.027 331.615 284.227 332.071 284.351C332.509 284.47 333.116 284.475 333.775 284.298C334.433 284.122 334.956 283.814 335.276 283.492C335.609 283.157 335.635 282.911 335.604 282.795C335.573 282.679 335.427 282.479 334.971 282.355C334.533 282.236 333.926 282.231 333.268 282.408C332.609 282.584 332.086 282.892 331.767 283.214C331.433 283.549 331.407 283.795 331.439 283.911Z" fill="#363BBC" stroke="#363BBC" stroke-width="1.31223"/>
<ellipse cx="2.81222" cy="2.89599" rx="2.81222" ry="2.89599" transform="matrix(-0.965926 0.258819 0.258819 0.965926 352.075 341.817)" fill="#363BBC"/>
<rect width="5.62445" height="64.3553" transform="matrix(-0.965926 0.258819 0.258819 0.965926 336.186 282.514)" fill="#363BBC"/>
<path d="M331.439 283.911C331.47 284.027 331.615 284.227 332.071 284.351C332.509 284.47 333.116 284.475 333.775 284.298C334.433 284.122 334.956 283.814 335.276 283.492C335.609 283.157 335.635 282.911 335.604 282.795C335.573 282.679 335.427 282.479 334.971 282.355C334.533 282.236 333.926 282.231 333.268 282.408C332.609 282.584 332.086 282.892 331.767 283.214C331.433 283.549 331.407 283.795 331.439 283.911Z" fill="#363BBC" stroke="#363BBC" stroke-width="1.31223"/>
<ellipse cx="2.81222" cy="2.89599" rx="2.81222" ry="2.89599" transform="matrix(-0.965926 0.258819 0.258819 0.965926 352.075 341.817)" fill="#363BBC"/>
<path fill-rule="evenodd" clip-rule="evenodd" d="M345.758 318.241L340.751 299.555L340.751 321.286L345.758 339.972L345.758 318.241Z" fill="#363BBC"/>
<rect width="7.58175" height="72.9014" transform="matrix(-1 0 0 1 352.101 277.433)" fill="#363BBC"/>
<path d="M345.176 277.361C345.176 278.724 346.487 279.985 348.31 279.985C350.134 279.985 351.445 278.724 351.445 277.361C351.445 275.997 350.134 274.736 348.31 274.736C346.487 274.736 345.176 275.997 345.176 277.361Z" fill="#363BBC" stroke="#363BBC" stroke-width="1.31223"/>
<ellipse cx="3.79087" cy="3.28056" rx="3.79087" ry="3.28056" transform="matrix(-1 0 0 1 352.101 346.981)" fill="#363BBC"/>
<rect width="6.7149" height="54.66" transform="matrix(-0.866025 0.5 0.5 0.866025 321.675 298.419)" fill="#363BBC"/>
<path d="M316.4 301.402C316.61 301.765 317.027 302.027 317.624 302.092C318.22 302.157 318.946 302.014 319.641 301.613C320.336 301.212 320.823 300.655 321.065 300.106C321.306 299.557 321.289 299.064 321.079 298.7C320.869 298.337 320.451 298.075 319.855 298.01C319.258 297.945 318.532 298.088 317.838 298.489C317.143 298.89 316.656 299.448 316.414 299.996C316.172 300.546 316.19 301.038 316.4 301.402Z" fill="#363BBC" stroke="#363BBC" stroke-width="1.31223"/>
<ellipse cx="3.35745" cy="2.4597" rx="3.35745" ry="2.4597" transform="matrix(-0.866025 0.5 0.5 0.866025 347.748 343.579)" fill="#363BBC"/>
<path opacity="0.2" d="M349.895 281.699V343.525" stroke="#363BBC" stroke-width="1.74157" stroke-linecap="round"/>
<path opacity="0.2" d="M374.931 301.292L357.733 338.953" stroke="#363BBC" stroke-width="1.74157" stroke-linecap="round"/>
<path opacity="0.2" d="M335.423 285.835L342.928 313.7" stroke="#363BBC" stroke-width="1.74157" stroke-linecap="round"/>
<path opacity="0.4" d="M321.378 302.38L345.978 344.831" stroke="#363BBC" stroke-width="1.74157" stroke-linecap="round"/>
<rect width="8.72816" height="35.7213" transform="matrix(-0.631924 0.775031 0.775031 0.631924 321.448 323.231)" fill="#363BBC"/>
<path d="M316.308 329.458C316.308 329.458 316.309 329.459 316.311 329.46C316.309 329.458 316.308 329.458 316.308 329.458ZM316.292 329.291C316.295 329.393 316.312 329.442 316.321 329.463C316.343 329.468 316.395 329.474 316.495 329.457C316.677 329.425 316.936 329.328 317.259 329.137C317.901 328.757 318.674 328.083 319.4 327.193C320.125 326.303 320.63 325.41 320.873 324.705C320.995 324.349 321.038 324.076 321.032 323.892C321.029 323.79 321.013 323.741 321.003 323.72C320.981 323.715 320.93 323.709 320.83 323.726C320.648 323.757 320.389 323.855 320.065 324.046C319.423 324.426 318.651 325.1 317.925 325.99C317.199 326.88 316.694 327.773 316.452 328.478C316.33 328.833 316.286 329.107 316.292 329.291ZM320.996 323.708C320.996 323.709 320.997 323.709 320.998 323.711C320.997 323.709 320.996 323.708 320.996 323.708ZM321.016 323.725C321.016 323.725 321.015 323.724 321.013 323.723C321.015 323.724 321.016 323.725 321.016 323.725ZM316.326 329.472C316.327 329.474 316.328 329.474 316.328 329.474C316.328 329.474 316.328 329.473 316.326 329.472Z" fill="#363BBC" stroke="#363BBC" stroke-width="1.31223"/>
<ellipse cx="4.36408" cy="1.60746" rx="4.36408" ry="1.60746" transform="matrix(-0.631924 0.775031 0.775031 0.631924 347.858 344.767)" fill="#363BBC"/>
<rect width="4.9803" height="47.8875" transform="matrix(-0.989504 -0.144507 -0.144507 0.989504 360.486 303.516)" fill="#363BBC"/>
<path d="M356.213 302.843C356.106 303.578 356.717 304.432 357.811 304.592C358.905 304.751 359.735 304.108 359.842 303.373C359.95 302.639 359.338 301.785 358.244 301.625C357.151 301.466 356.32 302.109 356.213 302.843Z" fill="#363BBC" stroke="#363BBC" stroke-width="1.31223"/>
<ellipse cx="2.49015" cy="2.15494" rx="2.49015" ry="2.15494" transform="matrix(-0.989504 -0.144507 -0.144507 0.989504 353.883 348.721)" fill="#363BBC"/>
<rect width="7.1777" height="33.7169" transform="matrix(-0.943636 -0.330984 -0.330984 0.943636 374.386 320.229)" fill="#363BBC"/>
<path d="M368.244 318.037C368.243 318.037 368.243 318.037 368.243 318.039L368.244 318.037ZM368.369 317.95C368.276 317.995 368.249 318.03 368.243 318.04C368.241 318.051 368.241 318.096 368.286 318.189C368.348 318.32 368.479 318.495 368.702 318.697C369.144 319.099 369.852 319.517 370.725 319.823C371.598 320.129 372.412 320.245 373.009 320.208C373.308 320.189 373.52 320.134 373.651 320.071C373.744 320.026 373.771 319.991 373.777 319.981C373.779 319.97 373.78 319.925 373.735 319.832C373.672 319.701 373.541 319.526 373.319 319.324C372.876 318.922 372.168 318.504 371.295 318.198C370.422 317.892 369.608 317.776 369.012 317.813C368.712 317.832 368.5 317.887 368.369 317.95ZM373.779 319.978C373.779 319.978 373.778 319.979 373.778 319.981L373.779 319.978ZM373.777 319.984C373.777 319.984 373.777 319.983 373.777 319.982L373.777 319.984ZM368.242 318.04C368.242 318.042 368.241 318.043 368.241 318.043L368.242 318.04Z" fill="#363BBC" stroke="#363BBC" stroke-width="1.31223"/>
<ellipse cx="3.58885" cy="1.51726" rx="3.58885" ry="1.51726" transform="matrix(-0.943636 -0.330984 -0.330984 0.943636 363.738 350.583)" fill="#363BBC"/>
<rect width="7.1777" height="20.6514" transform="matrix(-0.99749 -0.0708138 -0.0708138 0.99749 360.052 332.399)" fill="#363BBC"/>
<path d="M353.624 332.03C353.612 332.201 353.73 332.516 354.272 332.857C354.787 333.182 355.558 333.434 356.46 333.498C357.363 333.562 358.162 333.421 358.717 333.173C359.302 332.911 359.463 332.616 359.475 332.446C359.487 332.275 359.369 331.96 358.828 331.619C358.313 331.294 357.542 331.042 356.639 330.977C355.737 330.913 354.938 331.055 354.382 331.303C353.798 331.564 353.637 331.86 353.624 332.03Z" fill="#363BBC" stroke="#363BBC" stroke-width="1.31223"/>
<ellipse cx="3.58885" cy="0.929311" rx="3.58885" ry="0.929311" transform="matrix(-0.99749 -0.0708138 -0.0708138 0.99749 358.657 352.052)" fill="#363BBC"/>
<rect x="381.5" y="305.624" width="6.37532" height="66.3808" transform="rotate(22.4345 381.5 305.624)" fill="#363BBC"/>
<ellipse cx="384.471" cy="306.78" rx="3.18766" ry="2.98714" transform="rotate(22.4345 384.471 306.78)" fill="#363BBC"/>
<rect x="392.035" y="306.633" width="8.11212" height="62.6016" transform="rotate(24.4591 392.035 306.633)" fill="#363BBC"/>
<rect x="375.116" y="314.978" width="8.72815" height="58.1877" transform="rotate(14.6399 375.116 314.978)" fill="#363BBC"/>
<path d="M382.94 316.961C382.838 317.35 382.452 317.741 381.686 317.966C380.934 318.186 379.927 318.202 378.856 317.923C377.786 317.643 376.915 317.136 376.368 316.577C375.809 316.006 375.663 315.476 375.765 315.087C375.866 314.698 376.253 314.307 377.019 314.082C377.771 313.862 378.778 313.846 379.848 314.125C380.919 314.405 381.789 314.912 382.337 315.472C382.896 316.042 383.042 316.572 382.94 316.961Z" fill="#363BBC" stroke="#363BBC" stroke-width="1.31223"/>
<rect x="417.751" y="329.049" width="5.62445" height="64.3553" transform="rotate(54.8455 417.751 329.049)" fill="#363BBC"/>
<rect x="417.751" y="329.049" width="5.62445" height="64.3553" transform="rotate(54.8455 417.751 329.049)" fill="#363BBC"/>
<path fill-rule="evenodd" clip-rule="evenodd" d="M387.51 350.344L403.327 339.205L389.403 355.89L373.586 367.029L387.51 350.344Z" fill="#363BBC"/>
<rect x="408.785" y="314.949" width="7.58175" height="72.9014" transform="rotate(39.8455 408.785 314.949)" fill="#363BBC"/>
<rect x="418.699" y="350.558" width="6.7149" height="54.66" transform="rotate(69.8455 418.699 350.558)" fill="#363BBC"/>
<path opacity="0.2" d="M407.744 319.638L368.131 367.106" stroke="#363BBC" stroke-width="1.74157" stroke-linecap="round"/>
<path opacity="0.2" d="M375.969 318.64L365.043 358.574" stroke="#363BBC" stroke-width="1.74157" stroke-linecap="round"/>
<path opacity="0.4" d="M416.389 353.789L370.303 370.62" stroke="#363BBC" stroke-width="1.74157" stroke-linecap="round"/>
<rect x="385.637" y="329.602" width="4.9803" height="47.8875" transform="rotate(31.5368 385.637 329.602)" fill="#363BBC"/>
<rect x="364.254" y="333.529" width="7.1777" height="33.7169" transform="rotate(20.517 364.254 333.529)" fill="#363BBC"/>
<path d="M370.376 335.78C370.376 335.78 370.375 335.781 370.374 335.782L370.376 335.78ZM370.335 335.633C370.377 335.727 370.376 335.771 370.374 335.783C370.368 335.793 370.34 335.827 370.246 335.87C370.114 335.93 369.901 335.981 369.601 335.994C369.003 336.019 368.192 335.886 367.326 335.562C366.459 335.237 365.76 334.805 365.326 334.394C365.108 334.187 364.981 334.009 364.921 333.877C364.878 333.783 364.879 333.739 364.881 333.727C364.887 333.717 364.915 333.683 365.009 333.64C365.141 333.58 365.354 333.529 365.654 333.516C366.252 333.491 367.063 333.624 367.929 333.949C368.796 334.273 369.495 334.705 369.929 335.116C370.147 335.323 370.274 335.501 370.335 335.633ZM364.882 333.724C364.882 333.724 364.882 333.725 364.881 333.727L364.882 333.724ZM364.879 333.73C364.879 333.73 364.88 333.729 364.881 333.728L364.879 333.73ZM370.374 335.784C370.374 335.785 370.373 335.786 370.373 335.786L370.374 335.784Z" fill="#363BBC" stroke="#363BBC" stroke-width="1.31223"/>
<rect x="367.461" y="352.058" width="7.1777" height="20.6514" transform="rotate(35.7848 367.461 352.058)" fill="#363BBC"/>
<path d="M372.634 355.892C372.535 356.031 372.242 356.197 371.607 356.112C371.004 356.031 370.25 355.732 369.516 355.202C368.782 354.673 368.26 354.053 367.992 353.506C367.711 352.931 367.776 352.601 367.876 352.462C367.976 352.324 368.269 352.157 368.903 352.243C369.507 352.323 370.26 352.623 370.994 353.152C371.728 353.681 372.251 354.302 372.518 354.848C372.8 355.423 372.734 355.754 372.634 355.892Z" fill="#363BBC" stroke="#363BBC" stroke-width="1.31223"/>
<path fill-rule="evenodd" clip-rule="evenodd" d="M-28.6 493.277C-60.8053 479.544 -83.38 447.593 -83.38 410.37C-83.38 360.615 -43.0453 320.28 6.70999 320.28C34.4897 320.28 59.3328 332.854 75.8586 352.62H263.78C291.278 352.62 315.07 368.485 326.504 391.56H401.064C421.702 376.15 459.642 365.82 503.03 365.82C531.702 365.82 557.996 370.331 578.489 377.839C592.627 375.199 608.164 373.74 624.47 373.74C659.6 373.74 691.159 380.513 712.855 391.27C729.416 388.568 748.438 386.94 771.32 386.94C800.447 386.94 822.815 388.741 841.254 391.56H919.82V412.347C944.032 419.427 972.139 425.22 1020.47 425.22C1056.95 425.22 1078.49 410.675 1103.94 393.494C1140.65 368.706 1185.49 338.43 1295.03 338.43V516.63H-28.6V493.277Z" fill="#26249E"/>
<path d="M433.559 433.628C446.38 436.565 447.653 435.652 458.753 429.75C469.467 430.906 480.993 429.111 485.416 428.069C486.517 423.56 489.192 412.537 491.08 404.511C493.44 394.478 513.125 391.581 516.478 372.218C519.646 353.915 487.315 368.543 482.441 359.799C477.567 351.055 464.072 353.258 459.855 357.581C455.639 361.905 446.003 367.298 439.285 368.866C432.567 370.435 423.526 369.444 407.909 366.996C392.291 364.547 390.387 368.621 386.275 374.602C382.163 380.584 395.505 378.598 402.862 381.879C410.218 385.161 402.705 387.299 396.485 394.142C390.266 400.985 403.443 406.916 409.755 414.737C414.805 420.994 414.826 429.226 414.205 432.559C416.382 431.937 423.302 431.278 433.559 433.628Z" fill="#3B38BE"/>
<path d="M459.491 429.496C461.401 424.625 467.038 413.643 474.307 408.69C483.394 402.499 492.897 389.727 481.254 387.028C469.612 384.329 462.994 392.757 451.092 391.219C439.19 389.681 433.489 394.202 418.674 399.194C403.858 404.186 390.163 400.575 399.444 392.187C408.725 383.799 407.269 381.81 391.227 380.533C375.185 379.256 391.489 360.957 411.27 366.16C431.052 371.363 439.023 368.572 445.847 366.06C452.672 363.549 455.091 354.449 470.824 353.457C486.557 352.465 481.508 362.043 489.734 363.293C497.96 364.543 509.184 360.61 512.816 365.479C516.449 370.348 512.781 383.376 490.524 375.832C468.268 368.288 465.483 379.492 452.962 381.322" stroke="#605BF4" stroke-width="6.63749" stroke-linecap="round"/>
<rect width="32.6006" height="46.86" rx="10.56" transform="matrix(-0.99983 0.0184351 0.0184351 0.99983 232.958 332.136)" fill="#26249E"/>
<rect width="32.6006" height="54.12" rx="10.56" transform="matrix(-0.99983 0.0184351 0.0184351 0.99983 251.993 324.3)" fill="#26249E"/>
<rect width="32.0138" height="42.6656" rx="10.56" transform="matrix(-0.99983 0.0184351 0.0184351 0.99983 205.011 324.729)" fill="#26249E"/>
<rect width="32.0138" height="42.6656" rx="10.56" transform="matrix(-0.99983 0.0184351 0.0184351 0.99983 267.531 334.827)" fill="#26249E"/>
<rect width="32.0138" height="26.2557" rx="10.56" transform="matrix(-0.99983 0.0184351 0.0184351 0.99983 229.756 355.22)" fill="#26249E"/>
<path d="M262.025 368.693L261.601 345.723" stroke="#26249E" stroke-width="5.28" stroke-linecap="round"/>
<rect width="32.6006" height="46.86" rx="10.56" transform="matrix(-0.99983 0.0184351 0.0184351 0.99983 105.277 342.695)" fill="#26249E"/>
<rect width="32.6006" height="54.12" rx="10.56" transform="matrix(-0.99983 0.0184351 0.0184351 0.99983 124.312 334.859)" fill="#26249E"/>
<rect width="32.0138" height="42.6656" rx="10.56" transform="matrix(-0.99983 0.0184351 0.0184351 0.99983 77.3306 335.288)" fill="#26249E"/>
<rect width="32.0138" height="42.6656" rx="10.56" transform="matrix(-0.99983 0.0184351 0.0184351 0.99983 139.85 345.387)" fill="#26249E"/>
<path d="M134.344 379.252L133.92 356.282" stroke="#26249E" stroke-width="5.28" stroke-linecap="round"/>
<path d="M50.6 280.909V324.363H77.8784V352.19" stroke="#26249E" stroke-width="7.12804" stroke-linecap="round" stroke-linejoin="round"/>
<path d="M78.1523 324.363H92.1343L91.9972 270.218" stroke="#26249E" stroke-width="7.12804" stroke-linecap="round" stroke-linejoin="round"/>
<path d="M63.2122 323.815V295.166M63.2122 295.166H79.9356V263.089M63.2122 295.166V256.921" stroke="#26249E" stroke-width="7.12804" stroke-linecap="round" stroke-linejoin="round"/>
<path d="M38.0135 261.439V304.893H10.7351V332.72" stroke="#26249E" stroke-width="7.12804" stroke-linecap="round" stroke-linejoin="round"/>
<path d="M10.4612 304.893H-3.52074V225.9" stroke="#26249E" stroke-width="7.12804" stroke-linecap="round" stroke-linejoin="round"/>
<path d="M25.4014 304.344V280.02M25.4014 280.02H8.67789V257.58M25.4014 280.02V237.45" stroke="#26249E" stroke-width="7.12804" stroke-linecap="round" stroke-linejoin="round"/>
<path d="M44.2109 493.2C47.603 479.847 51.6118 449.602 40.5104 435.442C28.6383 420.299 41.4814 412.316 35.5919 391.658M19.6951 338.092C18.1533 342.129 18.2149 356.165 30.7966 380.013C33.0686 384.32 34.5973 388.17 35.5919 391.658M35.5919 391.658C41.7028 389.639 53.3695 381.969 51.1492 367.437C48.9289 352.904 45.5985 332.192 44.2109 323.653M51.1492 493.2C59.6295 481.4 74.8323 450.627 67.8014 421.934C59.0128 386.068 66.4137 390.261 75.2024 372.095C83.991 353.929 75.2024 336.695 67.8014 323.653C61.8806 313.219 70.2684 302.537 75.2024 298.5M40.5104 493.2C30.7904 491.929 14.415 484.434 13.061 464.787M9.05636 367.437C7.66868 371.629 5.72592 383.087 9.05636 395.384C13.2194 410.755 24.3207 411.221 14.6069 449.882C13.198 455.489 12.7612 460.436 13.061 464.787M13.061 464.787C-2.15065 463.079 -31.0939 452.863 -25.1731 425.661C-17.7721 391.658 -3.89526 390.726 -14.5342 359.518C-25.1731 328.311 -3.89526 323.187 -14.5342 301.761" stroke="#12137E" stroke-width="11.4529" stroke-linecap="round"/>
<path d="M117.615 292.885C122.492 287.058 130.491 284.901 137.636 287.487L142.561 289.27L159.384 287.462L147.685 292.695L159.384 297.135L142.561 294.693L137.027 297.165C130.319 300.162 122.441 298.425 117.615 292.885Z" fill="#0D0E6D"/>
<path opacity="0.5" d="M120.945 292.978C122.357 293.936 125.878 295.913 128.663 296.156C131.447 296.398 137.591 294.138 140.315 292.978" stroke="#12137E" stroke-width="5.94" stroke-linecap="round"/>
<path d="M38.0135 177.182C42.8903 171.355 50.8896 169.198 58.0345 171.784L62.959 173.567L79.7827 171.759L68.0835 176.992L79.7827 181.432L62.959 178.99L57.425 181.462C50.7173 184.459 42.8391 182.722 38.0135 177.182Z" fill="#0D0E6D"/>
<path opacity="0.5" d="M41.3429 177.274C42.7553 178.233 46.2763 180.21 49.0609 180.452C51.8454 180.695 57.9895 178.435 60.7135 177.274" stroke="#12137E" stroke-width="5.94" stroke-linecap="round"/>
<path d="M320.401 172.121C325.277 166.294 333.277 164.138 340.422 166.724L345.346 168.506L362.17 166.698L350.471 171.931L362.17 176.371L345.346 173.929L339.812 176.401C333.104 179.398 325.226 177.661 320.401 172.121Z" fill="#0D0E6D"/>
<path opacity="0.5" d="M323.73 172.214C325.142 173.172 328.663 175.15 331.448 175.392C334.232 175.634 340.377 173.374 343.101 172.214" stroke="#12137E" stroke-width="5.94" stroke-linecap="round"/>
<rect x="172.7" y="351.96" width="31.02" height="74.58" rx="10.56" fill="#0D0E6D"/>
<rect x="132.44" y="339.42" width="31.02" height="89.1" rx="10.56" fill="#0D0E6D"/>
<path d="M138.38 363.84L138.38 351.3" stroke="#12137E" stroke-width="5.28" stroke-linecap="round"/>
<path d="M268.964 95.0779C271.64 91.8805 276.03 90.6971 279.95 92.1161L282.652 93.0941L291.884 92.1022L285.464 94.9735L291.884 97.4098L282.652 96.0698L279.616 97.4265C275.935 99.0708 271.612 98.1177 268.964 95.0779Z" fill="#6361F4"/>
<path d="M293.668 108.575C296.344 105.378 300.733 104.194 304.654 105.613L307.356 106.591L316.588 105.599L310.168 108.471L316.588 110.907L307.356 109.567L304.319 110.924C300.639 112.568 296.316 111.615 293.668 108.575Z" fill="#6361F4"/>
<path d="M252.921 111.886C255.597 108.688 259.986 107.505 263.907 108.924L266.609 109.902L275.84 108.91L269.421 111.781L275.84 114.217L266.609 112.877L263.572 114.234C259.891 115.878 255.569 114.925 252.921 111.886Z" fill="#6361F4"/>
<path d="M344.854 252.46C347.53 249.262 351.919 248.079 355.84 249.498L358.542 250.476L367.774 249.484L361.354 252.355L367.774 254.792L358.542 253.452L355.505 254.808C351.825 256.453 347.502 255.5 344.854 252.46Z" fill="#6361F4"/>
<path d="M232.293 87.9471C234.969 84.7497 239.358 83.5663 243.279 84.9852L245.981 85.9632L255.213 84.9713L248.793 87.8426L255.213 90.2789L245.981 88.939L242.945 90.2956C239.264 91.94 234.941 90.9868 232.293 87.9471Z" fill="#6361F4"/>
<path d="M209.374 187.265C212.05 184.068 216.439 182.885 220.359 184.304L223.062 185.282L232.293 184.29L225.874 187.161L232.293 189.597L223.062 188.257L220.025 189.614C216.344 191.258 212.021 190.305 209.374 187.265Z" fill="#6361F4"/>
<path d="M309.964 80.0525C312.64 76.8551 317.03 75.6717 320.95 77.0907L323.652 78.0687L332.884 77.0768L326.464 79.9481L332.884 82.3844L323.652 81.0444L320.616 82.4011C316.935 84.0454 312.612 83.0923 309.964 80.0525Z" fill="#6361F4"/>
<path opacity="0.1" fill-rule="evenodd" clip-rule="evenodd" d="M404.015 167.657L353.839 -102.886L371.937 -101.49L383.534 -132.135H507.068L524.109 -129.177L550.837 15.4715V154.056L511.323 167.657H404.015Z" fill="url(#paint2_linear_65_77105)"/>
</g>
</g>
<defs>
<linearGradient id="paint0_linear_65_77105" x1="54.3237" y1="0" x2="54.3237" y2="719.538" gradientUnits="userSpaceOnUse">
<stop stop-color="#A0A4FA"/>
<stop offset="1" stop-color="#A0A4FA" stop-opacity="0"/>
</linearGradient>
<linearGradient id="paint1_linear_65_77105" x1="83.5774" y1="0" x2="83.5774" y2="948.942" gradientUnits="userSpaceOnUse">
<stop stop-color="#A0A4FA"/>
<stop offset="1" stop-color="#A0A4FA" stop-opacity="0"/>
</linearGradient>
<linearGradient id="paint2_linear_65_77105" x1="452.026" y1="-132.135" x2="491.649" y2="13.0991" gradientUnits="userSpaceOnUse">
<stop stop-color="#363BBC"/>
<stop offset="1" stop-color="#363BBC" stop-opacity="0"/>
</linearGradient>
<clipPath id="clip0_65_77105">
<rect width="381" height="356" fill="white"/>
</clipPath>
<clipPath id="clip1_65_77105">
<rect width="1267.2" height="712.8" fill="white" transform="translate(-15.4 -246)"/>
</clipPath>
</defs>
</svg>
