<svg width="1616" height="898" viewBox="0 0 1616 898" fill="none" xmlns="http://www.w3.org/2000/svg">
<path d="M468.939 0.439941V330.578" stroke="#F0F0F0" stroke-width="4.46133" stroke-dasharray="8.92 31.23"/>
<path d="M1182.75 0.439941V330.578" stroke="#F0F0F0" stroke-width="4.46133" stroke-dasharray="8.92 31.23"/>
<path d="M468.939 642.87V897.166" stroke="#F0F0F0" stroke-width="4.46133" stroke-dasharray="8.92 31.23"/>
<path d="M1182.75 642.87V897.166" stroke="#F0F0F0" stroke-width="4.46133" stroke-dasharray="8.92 31.23"/>
<path d="M830.307 0.439941L834.768 897.167" stroke="#F0F0F0" stroke-width="4.46133" stroke-dasharray="8.92 31.23"/>
<rect x="470.531" y="116.537" width="508.841" height="508.841" rx="20.076" transform="rotate(45 470.531 116.537)" stroke="#F0F0F0" stroke-width="4.46133"/>
<rect x="1183.47" y="116.537" width="508.841" height="508.841" rx="20.076" transform="rotate(45 1183.47 116.537)" stroke="#F0F0F0" stroke-width="4.46133"/>
<rect x="689.774" y="430.958" width="276.602" height="93.6879" rx="20.076" fill="#1C1C1C" stroke="#F0F0F0" stroke-width="4.46133"/>
<rect x="2.73066" y="430.958" width="276.602" height="93.6879" rx="20.076" fill="#1C1C1C" stroke="#F0F0F0" stroke-width="4.46133"/>
<rect x="1372.36" y="430.958" width="240.912" height="93.6879" rx="20.076" fill="#1C1C1C" stroke="#F0F0F0" stroke-width="4.46133"/>
<path d="M728.839 490.495L732.337 465.619H739.475C743.139 465.619 745.959 466.523 747.934 468.331C749.933 470.116 750.932 472.65 750.932 475.933C750.932 478.027 750.634 479.966 750.04 481.751C749.445 483.511 748.541 485.058 747.327 486.39C746.114 487.699 744.579 488.71 742.723 489.424C740.891 490.138 738.714 490.495 736.192 490.495H728.839ZM734.086 486.248H736.085C738.25 486.248 739.999 485.938 741.331 485.32C742.687 484.677 743.722 483.845 744.436 482.821C745.174 481.798 745.673 480.68 745.935 479.466C746.221 478.229 746.363 477.028 746.363 475.862C746.363 474.363 746.066 473.173 745.471 472.293C744.9 471.412 744.067 470.794 742.973 470.437C741.902 470.056 740.593 469.866 739.047 469.866H736.37L734.086 486.248ZM754.316 490.495L757.814 465.619H774.374L773.839 469.759H761.883L761.026 475.683H772.162L771.591 479.788H760.455L759.527 486.355H771.484L770.877 490.495H754.316ZM776.378 490.495L779.875 465.619H796.507L795.936 469.759H783.944L783.087 475.683H793.545L792.938 479.788H782.516L780.982 490.495H776.378ZM797.707 490.495L801.205 465.619H805.809L802.311 490.495H797.707ZM808.51 490.495L812.008 465.619H816.719L825.677 484.463H824.571L827.212 465.619H831.816L828.319 490.495H823.572L814.685 471.615H815.791L813.114 490.495H808.51ZM834.545 490.495L838.043 465.619H842.647L839.149 490.495H834.545ZM851.059 490.495L853.95 469.759H846.241L846.847 465.619H866.905L866.299 469.759H858.625L855.734 490.495H851.059ZM867.619 490.495L871.116 465.619H875.72L872.223 490.495H867.619ZM889.486 491.066C887.345 491.066 885.489 490.626 883.918 489.745C882.348 488.841 881.135 487.58 880.278 485.962C879.445 484.32 879.029 482.381 879.029 480.145C879.029 478.194 879.338 476.326 879.957 474.541C880.599 472.733 881.503 471.115 882.669 469.687C883.859 468.26 885.298 467.129 886.988 466.297C888.677 465.464 890.581 465.047 892.698 465.047C894.84 465.047 896.696 465.5 898.266 466.404C899.836 467.284 901.05 468.545 901.906 470.187C902.763 471.805 903.191 473.744 903.191 476.004C903.191 477.956 902.87 479.835 902.228 481.644C901.585 483.428 900.669 485.034 899.48 486.462C898.29 487.866 896.85 488.984 895.161 489.817C893.472 490.65 891.58 491.066 889.486 491.066ZM889.807 486.64C891.187 486.64 892.413 486.367 893.483 485.819C894.578 485.248 895.494 484.475 896.232 483.5C896.993 482.524 897.564 481.429 897.945 480.216C898.349 478.979 898.552 477.682 898.552 476.326C898.552 474.232 898.016 472.566 896.945 471.329C895.875 470.092 894.352 469.473 892.377 469.473C890.973 469.473 889.724 469.771 888.63 470.365C887.535 470.936 886.619 471.722 885.881 472.721C885.144 473.696 884.585 474.803 884.204 476.04C883.823 477.254 883.633 478.515 883.633 479.823C883.633 481.227 883.871 482.441 884.347 483.464C884.823 484.487 885.513 485.272 886.417 485.819C887.345 486.367 888.475 486.64 889.807 486.64ZM906.548 490.495L910.046 465.619H914.757L923.715 484.463H922.609L925.25 465.619H929.854L926.356 490.495H921.609L912.722 471.615H913.829L911.152 490.495H906.548Z" fill="#F0F0F0"/>
<path d="M43.9367 491.066C42.2235 491.066 40.7126 490.792 39.4039 490.245C38.0953 489.674 37.0008 488.889 36.1204 487.889C35.24 486.89 34.5738 485.724 34.1217 484.392C33.6935 483.059 33.4793 481.632 33.4793 480.109C33.4793 478.253 33.7767 476.445 34.3716 474.684C34.9902 472.899 35.8825 471.281 37.0484 469.83C38.2381 468.379 39.6657 467.225 41.3312 466.368C43.0206 465.488 44.9479 465.047 47.1131 465.047C49.8256 465.047 52.0503 465.737 53.7873 467.118C55.548 468.474 56.6901 470.306 57.2136 472.614L52.7879 473.934C52.4548 472.507 51.7529 471.412 50.6822 470.651C49.6115 469.866 48.3028 469.473 46.7562 469.473C45.3286 469.473 44.0675 469.771 42.973 470.365C41.9023 470.96 40.9981 471.757 40.2605 472.757C39.5229 473.732 38.9638 474.839 38.5831 476.076C38.2024 477.289 38.012 478.539 38.012 479.823C38.012 481.917 38.5474 483.583 39.6181 484.82C40.7126 486.034 42.2711 486.64 44.2936 486.64C45.9591 486.64 47.3986 486.224 48.6121 485.391C49.8494 484.535 50.8368 483.381 51.5744 481.929L55.7146 483.749C54.5963 486.034 53.0021 487.83 50.932 489.139C48.862 490.423 46.5302 491.066 43.9367 491.066ZM59.6391 490.495L63.1368 465.619H67.7409L66.349 475.576H77.0918L78.4838 465.619H83.0879L79.5902 490.495H74.9861L76.4851 479.823H65.7779L64.2432 490.495H59.6391ZM83.6717 490.495L97.1628 465.619H100.66L107.12 490.495H102.195L98.0907 472.435L88.8112 490.495H83.6717ZM90.9169 485.641L92.9513 481.501H100.411L101.374 485.641H90.9169ZM111.29 490.495L114.788 465.619H119.392L116.501 486.355H127.065L126.494 490.495H111.29ZM130.702 490.495L134.2 465.619H138.804L135.913 486.355H146.478L145.907 490.495H130.702ZM150.115 490.495L153.613 465.619H170.173L169.638 469.759H157.681L156.825 475.683H167.96L167.389 479.788H156.254L155.326 486.355H167.282L166.675 490.495H150.115ZM172.176 490.495L175.674 465.619H180.385L189.343 484.463H188.237L190.878 465.619H195.482L191.984 490.495H187.238L178.351 471.615H179.457L176.78 490.495H172.176ZM208.954 491.066C206.931 491.066 205.147 490.626 203.6 489.745C202.077 488.841 200.899 487.58 200.067 485.962C199.234 484.344 198.817 482.441 198.817 480.252C198.817 478.253 199.127 476.349 199.745 474.541C200.388 472.733 201.304 471.115 202.494 469.687C203.683 468.26 205.111 467.129 206.776 466.297C208.466 465.464 210.346 465.047 212.416 465.047C215.128 465.047 217.365 465.737 219.125 467.118C220.886 468.474 222.028 470.306 222.552 472.614L218.09 473.934C217.757 472.507 217.091 471.412 216.092 470.651C215.116 469.866 213.855 469.473 212.308 469.473C210.881 469.473 209.608 469.771 208.49 470.365C207.395 470.96 206.467 471.757 205.706 472.757C204.944 473.756 204.361 474.898 203.957 476.183C203.576 477.444 203.386 478.765 203.386 480.145C203.386 482.167 203.909 483.761 204.956 484.927C206.027 486.069 207.514 486.64 209.418 486.64C210.25 486.64 211.095 486.521 211.952 486.283C212.832 486.045 213.653 485.653 214.414 485.106C215.199 484.535 215.866 483.773 216.413 482.821C216.96 481.846 217.329 480.644 217.519 479.217L217.733 477.896L218.269 481.108H211.202L211.773 476.968H221.945L220.089 490.495H216.056L215.913 486.462L216.663 487.211C216.092 488.068 215.402 488.794 214.593 489.388C213.808 489.96 212.939 490.376 211.987 490.638C211.036 490.923 210.024 491.066 208.954 491.066ZM225.883 490.495L229.381 465.619H245.942L245.406 469.759H233.45L232.593 475.683H243.729L243.158 479.788H232.022L231.094 486.355H243.051L242.444 490.495H225.883Z" fill="#F0F0F0"/>
<path d="M1411.28 490.959C1409.49 490.959 1407.91 490.638 1406.53 489.995C1405.18 489.353 1404.11 488.461 1403.32 487.318C1402.56 486.153 1402.17 484.808 1402.14 483.285L1406.71 482.393C1406.76 483.916 1407.23 485.046 1408.14 485.784C1409.07 486.498 1410.18 486.854 1411.49 486.854C1412.37 486.854 1413.14 486.712 1413.78 486.426C1414.42 486.141 1414.91 485.736 1415.24 485.213C1415.6 484.689 1415.78 484.094 1415.78 483.428C1415.78 482.809 1415.62 482.286 1415.31 481.858C1415.03 481.406 1414.57 481.001 1413.96 480.644C1413.36 480.287 1412.6 479.919 1411.67 479.538C1410.22 478.943 1409.02 478.301 1408.07 477.611C1407.14 476.921 1406.45 476.147 1406 475.291C1405.57 474.434 1405.35 473.47 1405.35 472.4C1405.35 471.02 1405.69 469.782 1406.35 468.688C1407.04 467.57 1408 466.689 1409.21 466.047C1410.42 465.381 1411.84 465.047 1413.46 465.047C1415.24 465.047 1416.82 465.476 1418.2 466.332C1419.58 467.165 1420.54 468.319 1421.06 469.794L1417.2 471.793C1416.82 470.889 1416.31 470.223 1415.67 469.794C1415.03 469.366 1414.28 469.152 1413.42 469.152C1412.68 469.152 1412.05 469.295 1411.53 469.58C1411.03 469.842 1410.64 470.199 1410.35 470.651C1410.09 471.103 1409.96 471.615 1409.96 472.186C1409.96 472.709 1410.09 473.173 1410.35 473.578C1410.64 473.982 1411.09 474.351 1411.71 474.684C1412.33 475.017 1413.14 475.386 1414.13 475.79C1415.51 476.338 1416.67 476.956 1417.6 477.646C1418.52 478.312 1419.23 479.086 1419.7 479.966C1420.18 480.847 1420.42 481.882 1420.42 483.071C1420.42 484.618 1420.02 485.998 1419.24 487.211C1418.48 488.401 1417.41 489.329 1416.03 489.995C1414.65 490.638 1413.06 490.959 1411.28 490.959ZM1435.52 491.066C1433.38 491.066 1431.52 490.626 1429.95 489.745C1428.38 488.841 1427.17 487.58 1426.31 485.962C1425.48 484.32 1425.06 482.381 1425.06 480.145C1425.06 478.194 1425.37 476.326 1425.99 474.541C1426.63 472.733 1427.54 471.115 1428.7 469.687C1429.89 468.26 1431.33 467.129 1433.02 466.297C1434.71 465.464 1436.61 465.047 1438.73 465.047C1440.87 465.047 1442.73 465.5 1444.3 466.404C1445.87 467.284 1447.08 468.545 1447.94 470.187C1448.8 471.805 1449.23 473.744 1449.23 476.004C1449.23 477.956 1448.9 479.835 1448.26 481.644C1447.62 483.428 1446.7 485.034 1445.51 486.462C1444.32 487.866 1442.88 488.984 1441.2 489.817C1439.51 490.65 1437.61 491.066 1435.52 491.066ZM1435.84 486.64C1437.22 486.64 1438.45 486.367 1439.52 485.819C1440.61 485.248 1441.53 484.475 1442.27 483.5C1443.03 482.524 1443.6 481.429 1443.98 480.216C1444.38 478.979 1444.59 477.682 1444.59 476.326C1444.59 474.232 1444.05 472.566 1442.98 471.329C1441.91 470.092 1440.39 469.473 1438.41 469.473C1437.01 469.473 1435.76 469.771 1434.66 470.365C1433.57 470.936 1432.65 471.722 1431.92 472.721C1431.18 473.696 1430.62 474.803 1430.24 476.04C1429.86 477.254 1429.67 478.515 1429.67 479.823C1429.67 481.227 1429.9 482.441 1430.38 483.464C1430.86 484.487 1431.55 485.272 1432.45 485.819C1433.38 486.367 1434.51 486.64 1435.84 486.64ZM1452.58 490.495L1456.08 465.619H1460.68L1457.79 486.355H1468.36L1467.79 490.495H1452.58ZM1481.04 491.066C1478.2 491.066 1476.06 490.423 1474.61 489.139C1473.18 487.854 1472.47 485.962 1472.47 483.464C1472.47 483.178 1472.48 482.857 1472.5 482.5C1472.53 482.119 1472.56 481.751 1472.61 481.394L1474.82 465.619H1479.43L1477.29 481.108C1477.24 481.489 1477.19 481.858 1477.14 482.215C1477.12 482.548 1477.11 482.869 1477.11 483.178C1477.11 484.392 1477.41 485.308 1478 485.926C1478.62 486.521 1479.67 486.819 1481.14 486.819C1482.47 486.819 1483.55 486.593 1484.35 486.141C1485.19 485.665 1485.82 484.987 1486.25 484.106C1486.7 483.226 1487.01 482.155 1487.17 480.894L1489.32 465.619H1493.92L1491.71 481.429C1491.25 484.689 1490.14 487.116 1488.35 488.71C1486.57 490.281 1484.13 491.066 1481.04 491.066ZM1502.14 490.495L1505.03 469.759H1497.32L1497.92 465.619H1517.98L1517.38 469.759H1509.7L1506.81 490.495H1502.14ZM1518.7 490.495L1522.19 465.619H1526.8L1523.3 490.495H1518.7ZM1540.56 491.066C1538.42 491.066 1536.57 490.626 1535 489.745C1533.43 488.841 1532.21 487.58 1531.36 485.962C1530.52 484.32 1530.11 482.381 1530.11 480.145C1530.11 478.194 1530.42 476.326 1531.03 474.541C1531.68 472.733 1532.58 471.115 1533.75 469.687C1534.94 468.26 1536.38 467.129 1538.07 466.297C1539.75 465.464 1541.66 465.047 1543.78 465.047C1545.92 465.047 1547.77 465.5 1549.34 466.404C1550.91 467.284 1552.13 468.545 1552.98 470.187C1553.84 471.805 1554.27 473.744 1554.27 476.004C1554.27 477.956 1553.95 479.835 1553.31 481.644C1552.66 483.428 1551.75 485.034 1550.56 486.462C1549.37 487.866 1547.93 488.984 1546.24 489.817C1544.55 490.65 1542.66 491.066 1540.56 491.066ZM1540.88 486.64C1542.26 486.64 1543.49 486.367 1544.56 485.819C1545.66 485.248 1546.57 484.475 1547.31 483.5C1548.07 482.524 1548.64 481.429 1549.02 480.216C1549.43 478.979 1549.63 477.682 1549.63 476.326C1549.63 474.232 1549.09 472.566 1548.02 471.329C1546.95 470.092 1545.43 469.473 1543.45 469.473C1542.05 469.473 1540.8 469.771 1539.71 470.365C1538.61 470.936 1537.7 471.722 1536.96 472.721C1536.22 473.696 1535.66 474.803 1535.28 476.04C1534.9 477.254 1534.71 478.515 1534.71 479.823C1534.71 481.227 1534.95 482.441 1535.42 483.464C1535.9 484.487 1536.59 485.272 1537.49 485.819C1538.42 486.367 1539.55 486.64 1540.88 486.64ZM1557.63 490.495L1561.12 465.619H1565.83L1574.79 484.463H1573.69L1576.33 465.619H1580.93L1577.43 490.495H1572.69L1563.8 471.615H1564.91L1562.23 490.495H1557.63Z" fill="#F0F0F0"/>
<path d="M157.79 88.9761L161.287 64.0997H168.425C172.09 64.0997 174.909 65.0039 176.884 66.8122C178.883 68.5967 179.882 71.1308 179.882 74.4143C179.882 76.5082 179.585 78.4473 178.99 80.2319C178.395 81.9926 177.491 83.5392 176.277 84.8717C175.064 86.1803 173.529 87.1915 171.673 87.9054C169.841 88.6192 167.664 88.9761 165.142 88.9761H157.79ZM163.036 84.7289H165.035C167.2 84.7289 168.949 84.4196 170.281 83.8009C171.638 83.1585 172.673 82.3257 173.386 81.3026C174.124 80.2795 174.624 79.1612 174.885 77.9477C175.171 76.7104 175.314 75.5088 175.314 74.3429C175.314 72.8439 175.016 71.6542 174.421 70.7739C173.85 69.8935 173.018 69.2749 171.923 68.918C170.852 68.5373 169.544 68.3469 167.997 68.3469H165.32L163.036 84.7289ZM183.267 88.9761L186.764 64.0997H191.368L187.871 88.9761H183.267ZM202.85 89.4401C201.065 89.4401 199.483 89.1188 198.103 88.4764C196.747 87.834 195.676 86.9417 194.891 85.7996C194.129 84.6337 193.737 83.2894 193.713 81.7666L198.281 80.8743C198.329 82.3971 198.805 83.5273 199.709 84.2649C200.637 84.9787 201.755 85.3356 203.064 85.3356C203.944 85.3356 204.706 85.1929 205.348 84.9073C205.991 84.6218 206.478 84.2173 206.811 83.6939C207.168 83.1704 207.347 82.5756 207.347 81.9093C207.347 81.2907 207.192 80.7672 206.883 80.3389C206.597 79.8869 206.145 79.4824 205.527 79.1255C204.932 78.7686 204.17 78.3998 203.242 78.0191C201.791 77.4242 200.589 76.7818 199.638 76.0918C198.71 75.4017 198.02 74.6284 197.568 73.7719C197.139 72.9153 196.925 71.9517 196.925 70.8809C196.925 69.5009 197.258 68.2636 197.924 67.1691C198.615 66.0508 199.566 65.1704 200.78 64.528C201.993 63.8618 203.409 63.5287 205.027 63.5287C206.811 63.5287 208.394 63.957 209.774 64.8135C211.154 65.6463 212.106 66.8003 212.629 68.2755L208.774 70.2742C208.394 69.37 207.882 68.7038 207.24 68.2755C206.597 67.8472 205.848 67.6331 204.991 67.6331C204.254 67.6331 203.623 67.7759 203.1 68.0614C202.6 68.3231 202.207 68.68 201.922 69.1321C201.66 69.5842 201.529 70.0957 201.529 70.6668C201.529 71.1903 201.66 71.6542 201.922 72.0587C202.207 72.4632 202.659 72.832 203.278 73.1651C203.897 73.4982 204.706 73.867 205.705 74.2715C207.085 74.8188 208.239 75.4374 209.167 76.1275C210.095 76.7937 210.797 77.567 211.273 78.4473C211.749 79.3277 211.987 80.3627 211.987 81.5524C211.987 83.099 211.594 84.4791 210.809 85.6925C210.047 86.8822 208.977 87.8102 207.597 88.4764C206.217 89.1188 204.634 89.4401 202.85 89.4401ZM227.091 89.5471C225.378 89.5471 223.867 89.2735 222.558 88.7262C221.249 88.1552 220.155 87.37 219.274 86.3707C218.394 85.3713 217.728 84.2054 217.276 82.873C216.847 81.5405 216.633 80.1129 216.633 78.5901C216.633 76.7342 216.931 74.9259 217.526 73.1651C218.144 71.3806 219.037 69.7626 220.202 68.3112C221.392 66.8598 222.82 65.7058 224.485 64.8492C226.175 63.9689 228.102 63.5287 230.267 63.5287C232.98 63.5287 235.204 64.2187 236.941 65.5987C238.702 66.955 239.844 68.7871 240.368 71.0951L235.942 72.4156C235.609 70.988 234.907 69.8935 233.836 69.1321C232.765 68.3469 231.457 67.9543 229.91 67.9543C228.483 67.9543 227.222 68.2517 226.127 68.8466C225.056 69.4414 224.152 70.2385 223.415 71.2378C222.677 72.2134 222.118 73.3198 221.737 74.5571C221.356 75.7705 221.166 77.0197 221.166 78.3046C221.166 80.3984 221.701 82.064 222.772 83.3013C223.867 84.5147 225.425 85.1215 227.448 85.1215C229.113 85.1215 230.553 84.7051 231.766 83.8723C233.003 83.0157 233.991 81.8617 234.728 80.4103L238.869 82.2305C237.75 84.5147 236.156 86.3112 234.086 87.6198C232.016 88.9047 229.684 89.5471 227.091 89.5471ZM253.857 89.5471C251.716 89.5471 249.86 89.1069 248.29 88.2266C246.719 87.3224 245.506 86.0613 244.649 84.4434C243.816 82.8016 243.4 80.8624 243.4 78.6258C243.4 76.6747 243.709 74.8069 244.328 73.0224C244.97 71.214 245.874 69.5961 247.04 68.1684C248.23 66.7408 249.67 65.6106 251.359 64.7778C253.048 63.9451 254.952 63.5287 257.069 63.5287C259.211 63.5287 261.067 63.9807 262.637 64.8849C264.208 65.7653 265.421 67.0263 266.278 68.6681C267.134 70.2861 267.562 72.2253 267.562 74.4857C267.562 76.4368 267.241 78.3165 266.599 80.1248C265.956 81.9093 265.04 83.5154 263.851 84.943C262.661 86.3469 261.221 87.4652 259.532 88.298C257.843 89.1307 255.951 89.5471 253.857 89.5471ZM254.178 85.1215C255.559 85.1215 256.784 84.8479 257.855 84.3006C258.949 83.7296 259.865 82.9563 260.603 81.9807C261.364 81.0052 261.935 79.9107 262.316 78.6972C262.72 77.4599 262.923 76.1631 262.923 74.8069C262.923 72.7131 262.387 71.0475 261.317 69.8102C260.246 68.5729 258.723 67.9543 256.748 67.9543C255.344 67.9543 254.095 68.2517 253.001 68.8466C251.906 69.4176 250.99 70.2028 250.252 71.2022C249.515 72.1777 248.956 73.2841 248.575 74.5214C248.194 75.7349 248.004 76.9959 248.004 78.3046C248.004 79.7084 248.242 80.9219 248.718 81.945C249.194 82.9682 249.884 83.7533 250.788 84.3006C251.716 84.8479 252.846 85.1215 254.178 85.1215ZM277.693 88.9761L271.197 64.0997H276.194L280.869 83.3013H279.406L289.364 64.0997H294.575L281.119 88.9761H277.693ZM295.141 88.9761L298.639 64.0997H315.199L314.664 68.2398H302.708L301.851 74.1645H312.987L312.416 78.2689H301.28L300.352 84.836H312.308L311.702 88.9761H295.141ZM317.202 88.9761L320.7 64.0997H328.588C331.158 64.0997 333.109 64.6113 334.441 65.6344C335.797 66.6575 336.475 68.1447 336.475 70.0957C336.475 71.5947 336.202 72.951 335.655 74.1645C335.107 75.378 334.251 76.3773 333.085 77.1625C331.943 77.9477 330.468 78.4473 328.659 78.6615C328.302 78.6615 327.922 78.6615 327.517 78.6615C327.136 78.6615 326.756 78.6615 326.375 78.6615H323.27L321.807 88.9761H317.202ZM330.908 88.9761L326.018 78.1975L330.729 77.6265L336.011 88.9761H330.908ZM323.841 74.5928H326.839C328.457 74.5928 329.694 74.2834 330.551 73.6648C331.431 73.0224 331.871 72.0587 331.871 70.7739C331.871 69.8221 331.514 69.1678 330.801 68.8109C330.111 68.4302 329.171 68.2398 327.981 68.2398H324.733L323.841 74.5928Z" fill="#F0F0F0"/>
<path d="M399.016 475.885C396.518 475.885 394.602 475.188 393.27 473.793C391.937 472.398 391.271 470.368 391.271 467.703V453.806H393.301V467.485C393.301 468.9 393.499 470.097 393.894 471.076C394.29 472.034 394.904 472.762 395.737 473.262C396.591 473.741 397.684 473.98 399.016 473.98C400.328 473.98 401.41 473.73 402.264 473.231C403.117 472.71 403.752 471.971 404.169 471.014C404.585 470.035 404.793 468.838 404.793 467.422V453.806H406.792V467.547C406.792 470.254 406.126 472.325 404.793 473.762C403.461 475.177 401.535 475.885 399.016 475.885ZM411.307 475.573V460.177H413.306V463.768L412.837 463.924C413.108 463.071 413.493 462.353 413.993 461.77C414.493 461.187 415.086 460.739 415.773 460.427C416.481 460.115 417.262 459.958 418.115 459.958C419.781 459.958 421.082 460.458 422.019 461.457C422.956 462.436 423.424 463.935 423.424 465.954V475.573H421.457V466.673C421.457 464.965 421.134 463.706 420.489 462.894C419.864 462.082 418.917 461.676 417.647 461.676C416.772 461.676 416.002 461.895 415.336 462.332C414.69 462.748 414.191 463.425 413.837 464.362C413.483 465.278 413.306 466.475 413.306 467.953V475.573H411.307ZM434.237 475.792C432.862 475.792 431.644 475.448 430.583 474.761C429.542 474.053 428.719 473.106 428.116 471.919C427.533 470.712 427.241 469.358 427.241 467.859C427.241 466.277 427.553 464.893 428.178 463.706C428.803 462.519 429.646 461.603 430.708 460.958C431.769 460.291 432.946 459.958 434.237 459.958C435.257 459.958 436.173 460.167 436.985 460.583C437.797 460.979 438.484 461.53 439.046 462.238C439.608 462.946 439.993 463.748 440.201 464.643L439.67 464.986V453.806H441.638V475.573H439.67V470.732L440.295 470.951C440.024 471.909 439.608 472.752 439.046 473.481C438.484 474.209 437.797 474.782 436.985 475.198C436.173 475.594 435.257 475.792 434.237 475.792ZM434.549 473.98C435.59 473.98 436.506 473.72 437.297 473.2C438.088 472.658 438.702 471.93 439.14 471.014C439.598 470.097 439.827 469.046 439.827 467.859C439.827 466.673 439.598 465.621 439.14 464.705C438.702 463.789 438.088 463.071 437.297 462.55C436.506 462.03 435.59 461.77 434.549 461.77C433.529 461.77 432.613 462.03 431.801 462.55C430.989 463.071 430.354 463.789 429.896 464.705C429.438 465.621 429.209 466.673 429.209 467.859C429.209 469.046 429.438 470.097 429.896 471.014C430.354 471.93 430.989 472.658 431.801 473.2C432.613 473.72 433.529 473.98 434.549 473.98ZM452.81 475.792C451.665 475.792 450.645 475.594 449.75 475.198C448.875 474.803 448.147 474.251 447.564 473.543C446.981 472.835 446.533 472.002 446.221 471.045C445.929 470.087 445.784 469.067 445.784 467.984C445.784 466.881 445.929 465.85 446.221 464.893C446.512 463.914 446.939 463.06 447.501 462.332C448.084 461.582 448.792 460.999 449.625 460.583C450.478 460.167 451.457 459.958 452.56 459.958C453.726 459.958 454.726 460.167 455.558 460.583C456.412 460.979 457.099 461.53 457.619 462.238C458.161 462.925 458.556 463.685 458.806 464.518C459.077 465.351 459.212 466.194 459.212 467.047C459.212 467.214 459.202 467.433 459.181 467.703C459.181 467.974 459.16 468.203 459.118 468.39H447.72C447.761 470.16 448.23 471.534 449.125 472.513C450.041 473.491 451.27 473.98 452.81 473.98C453.789 473.98 454.621 473.835 455.308 473.543C456.016 473.231 456.693 472.721 457.338 472.013L458.744 473.262C458.161 473.866 457.567 474.355 456.964 474.73C456.36 475.084 455.714 475.354 455.027 475.542C454.361 475.708 453.622 475.792 452.81 475.792ZM457.245 467.391C457.286 467.224 457.307 467.058 457.307 466.891C457.307 466.704 457.307 466.527 457.307 466.36C457.307 465.819 457.213 465.267 457.026 464.705C456.86 464.143 456.589 463.633 456.214 463.175C455.839 462.717 455.35 462.342 454.746 462.051C454.143 461.759 453.424 461.614 452.592 461.614C451.634 461.614 450.791 461.853 450.062 462.332C449.354 462.811 448.802 463.446 448.407 464.237C448.011 465.028 447.782 465.923 447.72 466.922H457.901L457.245 467.391ZM463.305 475.573V460.177H465.304V464.268L464.804 464.362C464.971 463.404 465.335 462.602 465.897 461.957C466.459 461.312 467.115 460.822 467.865 460.489C468.614 460.135 469.332 459.958 470.019 459.958C470.436 459.958 470.852 460.01 471.269 460.115C471.706 460.198 472.122 460.344 472.518 460.552L471.55 462.332C471.279 462.207 470.977 462.103 470.644 462.019C470.311 461.936 469.988 461.895 469.676 461.895C469.135 461.895 468.593 461.999 468.052 462.207C467.511 462.415 467.011 462.748 466.553 463.206C466.116 463.643 465.793 464.237 465.585 464.986C465.502 465.299 465.429 465.684 465.366 466.142C465.325 466.6 465.304 467.235 465.304 468.047V475.573H463.305ZM480.103 475.792C479.083 475.792 478.156 475.635 477.323 475.323C476.511 475.011 475.804 474.594 475.2 474.074C474.617 473.533 474.159 472.939 473.826 472.294L475.231 471.17C475.627 472.044 476.241 472.762 477.074 473.324C477.927 473.866 478.937 474.136 480.103 474.136C481.206 474.136 482.091 473.897 482.757 473.418C483.424 472.919 483.757 472.242 483.757 471.388C483.757 470.68 483.548 470.139 483.132 469.764C482.736 469.369 482.216 469.056 481.571 468.827C480.946 468.598 480.259 468.401 479.509 468.234C478.927 468.088 478.344 467.922 477.761 467.734C477.178 467.526 476.647 467.276 476.168 466.985C475.71 466.673 475.346 466.277 475.075 465.798C474.804 465.319 474.669 464.726 474.669 464.018C474.669 462.811 475.137 461.832 476.074 461.083C477.032 460.333 478.271 459.958 479.791 459.958C480.936 459.958 481.977 460.208 482.913 460.708C483.871 461.187 484.61 461.926 485.131 462.925L483.85 463.862C483.413 463.05 482.83 462.467 482.102 462.113C481.394 461.738 480.602 461.551 479.728 461.551C478.791 461.551 478.01 461.759 477.386 462.176C476.782 462.592 476.48 463.154 476.48 463.862C476.48 464.383 476.626 464.809 476.917 465.142C477.209 465.455 477.625 465.715 478.167 465.923C478.708 466.131 479.343 466.319 480.072 466.485C480.738 466.631 481.394 466.808 482.039 467.016C482.705 467.224 483.309 467.495 483.85 467.828C484.412 468.14 484.85 468.567 485.162 469.109C485.495 469.65 485.662 470.337 485.662 471.17C485.662 472.107 485.433 472.929 484.975 473.637C484.517 474.324 483.871 474.855 483.038 475.229C482.206 475.604 481.227 475.792 480.103 475.792ZM494.28 475.792C493.593 475.792 492.989 475.656 492.468 475.386C491.948 475.115 491.542 474.699 491.25 474.136C490.98 473.554 490.844 472.825 490.844 471.95V455.774L492.843 454.618V471.482C492.843 472.315 492.978 472.971 493.249 473.449C493.541 473.907 494.04 474.136 494.748 474.136C494.998 474.136 495.269 474.116 495.56 474.074C495.852 474.012 496.164 473.939 496.497 473.855V475.417C496.122 475.542 495.747 475.635 495.373 475.698C494.998 475.76 494.634 475.792 494.28 475.792ZM487.44 461.738V460.177H496.497V461.738H487.44ZM510.208 475.573L510.083 472.075V465.986C510.083 464.57 509.718 463.498 508.99 462.769C508.261 462.04 507.189 461.676 505.773 461.676C504.857 461.676 504.014 461.863 503.243 462.238C502.473 462.592 501.744 463.206 501.057 464.081L499.621 462.863C500.454 461.863 501.38 461.135 502.4 460.677C503.441 460.198 504.607 459.958 505.898 459.958C507.855 459.958 509.364 460.479 510.426 461.52C511.488 462.54 512.019 464.029 512.019 465.986V475.573H510.208ZM504.774 475.792C503.629 475.792 502.629 475.594 501.776 475.198C500.943 474.803 500.298 474.261 499.839 473.574C499.402 472.866 499.184 472.044 499.184 471.107C499.184 470.274 499.34 469.577 499.652 469.015C499.985 468.432 500.412 467.974 500.933 467.641C501.495 467.266 502.13 467.006 502.838 466.86C503.566 466.714 504.347 466.641 505.18 466.641H510.27V468.14H505.43C504.826 468.14 504.232 468.192 503.649 468.297C503.087 468.401 502.608 468.609 502.213 468.921C501.88 469.15 501.62 469.452 501.432 469.827C501.266 470.181 501.182 470.608 501.182 471.107C501.182 472.044 501.515 472.794 502.182 473.356C502.869 473.897 503.795 474.168 504.961 474.168C505.898 474.168 506.752 473.949 507.522 473.512C508.292 473.054 508.906 472.429 509.364 471.638C509.843 470.847 510.083 469.962 510.083 468.984L510.926 469.92C510.822 471.086 510.489 472.117 509.927 473.012C509.364 473.907 508.636 474.594 507.741 475.073C506.845 475.552 505.856 475.792 504.774 475.792ZM516.675 475.573V460.177H518.674V463.768L518.206 463.924C518.476 463.071 518.862 462.353 519.361 461.77C519.861 461.187 520.454 460.739 521.141 460.427C521.849 460.115 522.63 459.958 523.483 459.958C525.149 459.958 526.45 460.458 527.387 461.457C528.324 462.436 528.792 463.935 528.792 465.954V475.573H526.825V466.673C526.825 464.965 526.502 463.706 525.857 462.894C525.232 462.082 524.285 461.676 523.015 461.676C522.141 461.676 521.37 461.895 520.704 462.332C520.059 462.748 519.559 463.425 519.205 464.362C518.851 465.278 518.674 466.475 518.674 467.953V475.573H516.675ZM539.605 475.792C538.231 475.792 537.013 475.448 535.951 474.761C534.91 474.053 534.088 473.106 533.484 471.919C532.901 470.712 532.61 469.358 532.61 467.859C532.61 466.277 532.922 464.893 533.546 463.706C534.171 462.519 535.014 461.603 536.076 460.958C537.138 460.291 538.314 459.958 539.605 459.958C540.625 459.958 541.541 460.167 542.353 460.583C543.165 460.979 543.852 461.53 544.414 462.238C544.976 462.946 545.361 463.748 545.57 464.643L545.039 464.986V453.806H547.006V475.573H545.039V470.732L545.663 470.951C545.393 471.909 544.976 472.752 544.414 473.481C543.852 474.209 543.165 474.782 542.353 475.198C541.541 475.594 540.625 475.792 539.605 475.792ZM539.917 473.98C540.958 473.98 541.874 473.72 542.665 473.2C543.456 472.658 544.071 471.93 544.508 471.014C544.966 470.097 545.195 469.046 545.195 467.859C545.195 466.673 544.966 465.621 544.508 464.705C544.071 463.789 543.456 463.071 542.665 462.55C541.874 462.03 540.958 461.77 539.917 461.77C538.897 461.77 537.981 462.03 537.169 462.55C536.357 463.071 535.722 463.789 535.264 464.705C534.806 465.621 534.577 466.673 534.577 467.859C534.577 469.046 534.806 470.097 535.264 471.014C535.722 471.93 536.357 472.658 537.169 473.2C537.981 473.72 538.897 473.98 539.917 473.98ZM428.666 512.573V490.806H434.537C438.056 490.806 440.783 491.774 442.719 493.711C444.676 495.626 445.655 498.343 445.655 501.861C445.655 505.317 444.687 507.972 442.75 509.825C440.835 511.657 438.087 512.573 434.506 512.573H428.666ZM430.696 510.699H434.319C436.296 510.699 437.972 510.387 439.346 509.762C440.721 509.138 441.761 508.17 442.469 506.858C443.198 505.546 443.562 503.86 443.562 501.799C443.562 499.738 443.198 498.031 442.469 496.677C441.761 495.324 440.731 494.325 439.378 493.679C438.024 493.013 436.4 492.68 434.506 492.68H430.696V510.699ZM456.043 512.792C454.898 512.792 453.878 512.594 452.982 512.198C452.108 511.803 451.379 511.251 450.796 510.543C450.213 509.835 449.766 509.002 449.453 508.045C449.162 507.087 449.016 506.067 449.016 504.984C449.016 503.881 449.162 502.85 449.453 501.893C449.745 500.914 450.172 500.06 450.734 499.332C451.317 498.582 452.025 497.999 452.857 497.583C453.711 497.167 454.69 496.958 455.793 496.958C456.959 496.958 457.958 497.167 458.791 497.583C459.645 497.979 460.332 498.53 460.852 499.238C461.393 499.925 461.789 500.685 462.039 501.518C462.31 502.351 462.445 503.194 462.445 504.047C462.445 504.214 462.434 504.433 462.414 504.703C462.414 504.974 462.393 505.203 462.351 505.39H450.952C450.994 507.16 451.463 508.534 452.358 509.513C453.274 510.491 454.502 510.98 456.043 510.98C457.021 510.98 457.854 510.835 458.541 510.543C459.249 510.231 459.926 509.721 460.571 509.013L461.976 510.262C461.393 510.866 460.8 511.355 460.196 511.73C459.593 512.084 458.947 512.354 458.26 512.542C457.594 512.708 456.855 512.792 456.043 512.792ZM460.477 504.391C460.519 504.224 460.54 504.058 460.54 503.891C460.54 503.704 460.54 503.527 460.54 503.36C460.54 502.819 460.446 502.267 460.259 501.705C460.092 501.143 459.822 500.633 459.447 500.175C459.072 499.717 458.583 499.342 457.979 499.051C457.375 498.759 456.657 498.614 455.824 498.614C454.867 498.614 454.023 498.853 453.295 499.332C452.587 499.811 452.035 500.446 451.64 501.237C451.244 502.028 451.015 502.923 450.952 503.922H461.133L460.477 504.391ZM466.552 512.573V498.738H463.836V497.177H466.552V495.897C466.552 494.668 466.792 493.669 467.271 492.899C467.77 492.107 468.426 491.524 469.238 491.15C470.05 490.775 470.956 490.588 471.955 490.588C472.913 490.588 473.756 490.712 474.485 490.962C475.234 491.191 475.932 491.535 476.577 491.993L475.609 493.398C475.109 493.003 474.558 492.711 473.954 492.524C473.371 492.316 472.725 492.212 472.018 492.212C470.914 492.212 470.05 492.503 469.426 493.086C468.822 493.669 468.52 494.658 468.52 496.053V497.177H475.297V498.738H468.52V512.573H466.552ZM474.61 512.573V497.177H476.577V512.573H474.61ZM481.207 512.573V497.177H483.206V500.768L482.737 500.924C483.008 500.071 483.393 499.353 483.893 498.77C484.392 498.187 484.986 497.739 485.673 497.427C486.381 497.115 487.161 496.958 488.015 496.958C489.681 496.958 490.982 497.458 491.919 498.457C492.856 499.436 493.324 500.935 493.324 502.954V512.573H491.357V503.673C491.357 501.965 491.034 500.706 490.388 499.894C489.764 499.082 488.817 498.676 487.547 498.676C486.672 498.676 485.902 498.895 485.236 499.332C484.59 499.748 484.091 500.425 483.737 501.362C483.383 502.278 483.206 503.475 483.206 504.953V512.573H481.207ZM504.168 512.792C503.023 512.792 502.002 512.594 501.107 512.198C500.233 511.803 499.504 511.251 498.921 510.543C498.338 509.835 497.891 509.002 497.578 508.045C497.287 507.087 497.141 506.067 497.141 504.984C497.141 503.881 497.287 502.85 497.578 501.893C497.87 500.914 498.297 500.06 498.859 499.332C499.442 498.582 500.15 497.999 500.982 497.583C501.836 497.167 502.814 496.958 503.918 496.958C505.084 496.958 506.083 497.167 506.916 497.583C507.769 497.979 508.456 498.53 508.977 499.238C509.518 499.925 509.914 500.685 510.164 501.518C510.434 502.351 510.57 503.194 510.57 504.047C510.57 504.214 510.559 504.433 510.538 504.703C510.538 504.974 510.518 505.203 510.476 505.39H499.077C499.119 507.16 499.587 508.534 500.483 509.513C501.399 510.491 502.627 510.98 504.168 510.98C505.146 510.98 505.979 510.835 506.666 510.543C507.374 510.231 508.051 509.721 508.696 509.013L510.101 510.262C509.518 510.866 508.925 511.355 508.321 511.73C507.717 512.084 507.072 512.354 506.385 512.542C505.719 512.708 504.98 512.792 504.168 512.792ZM508.602 504.391C508.644 504.224 508.665 504.058 508.665 503.891C508.665 503.704 508.665 503.527 508.665 503.36C508.665 502.819 508.571 502.267 508.384 501.705C508.217 501.143 507.946 500.633 507.572 500.175C507.197 499.717 506.708 499.342 506.104 499.051C505.5 498.759 504.782 498.614 503.949 498.614C502.991 498.614 502.148 498.853 501.419 499.332C500.712 499.811 500.16 500.446 499.764 501.237C499.369 502.028 499.14 502.923 499.077 503.922H509.258L508.602 504.391Z" fill="#F0F0F0"/>
<path d="M1139.13 453.266V431.499H1141.16V453.266H1139.13ZM1152.54 453.484C1151.16 453.484 1149.95 453.141 1148.88 452.454C1147.84 451.746 1147.02 450.799 1146.42 449.612C1145.83 448.405 1145.54 447.051 1145.54 445.552C1145.54 443.97 1145.85 442.585 1146.48 441.399C1147.1 440.212 1147.95 439.296 1149.01 438.651C1150.07 437.984 1151.25 437.651 1152.54 437.651C1153.56 437.651 1154.47 437.859 1155.29 438.276C1156.1 438.671 1156.78 439.223 1157.35 439.931C1157.91 440.639 1158.29 441.44 1158.5 442.336L1157.97 442.679V431.499H1159.94V453.266H1157.97V448.425L1158.6 448.644C1158.33 449.602 1157.91 450.445 1157.35 451.174C1156.78 451.902 1156.1 452.475 1155.29 452.891C1154.47 453.287 1153.56 453.484 1152.54 453.484ZM1152.85 451.673C1153.89 451.673 1154.81 451.413 1155.6 450.892C1156.39 450.351 1157 449.622 1157.44 448.706C1157.9 447.79 1158.13 446.739 1158.13 445.552C1158.13 444.366 1157.9 443.314 1157.44 442.398C1157 441.482 1156.39 440.764 1155.6 440.243C1154.81 439.723 1153.89 439.463 1152.85 439.463C1151.83 439.463 1150.91 439.723 1150.1 440.243C1149.29 440.764 1148.65 441.482 1148.2 442.398C1147.74 443.314 1147.51 444.366 1147.51 445.552C1147.51 446.739 1147.74 447.79 1148.2 448.706C1148.65 449.622 1149.29 450.351 1150.1 450.892C1150.91 451.413 1151.83 451.673 1152.85 451.673ZM1171.11 453.484C1169.97 453.484 1168.95 453.287 1168.05 452.891C1167.18 452.496 1166.45 451.944 1165.86 451.236C1165.28 450.528 1164.83 449.695 1164.52 448.738C1164.23 447.78 1164.08 446.76 1164.08 445.677C1164.08 444.574 1164.23 443.543 1164.52 442.585C1164.81 441.607 1165.24 440.753 1165.8 440.025C1166.39 439.275 1167.09 438.692 1167.93 438.276C1168.78 437.859 1169.76 437.651 1170.86 437.651C1172.03 437.651 1173.03 437.859 1173.86 438.276C1174.71 438.671 1175.4 439.223 1175.92 439.931C1176.46 440.618 1176.86 441.378 1177.11 442.211C1177.38 443.043 1177.51 443.887 1177.51 444.74C1177.51 444.907 1177.5 445.125 1177.48 445.396C1177.48 445.667 1177.46 445.896 1177.42 446.083H1166.02C1166.06 447.853 1166.53 449.227 1167.43 450.205C1168.34 451.184 1169.57 451.673 1171.11 451.673C1172.09 451.673 1172.92 451.527 1173.61 451.236C1174.32 450.924 1174.99 450.414 1175.64 449.706L1177.04 450.955C1176.46 451.559 1175.87 452.048 1175.26 452.423C1174.66 452.777 1174.02 453.047 1173.33 453.235C1172.66 453.401 1171.92 453.484 1171.11 453.484ZM1175.55 445.084C1175.59 444.917 1175.61 444.751 1175.61 444.584C1175.61 444.397 1175.61 444.22 1175.61 444.053C1175.61 443.512 1175.51 442.96 1175.33 442.398C1175.16 441.836 1174.89 441.326 1174.52 440.868C1174.14 440.41 1173.65 440.035 1173.05 439.744C1172.44 439.452 1171.73 439.306 1170.89 439.306C1169.93 439.306 1169.09 439.546 1168.36 440.025C1167.66 440.504 1167.1 441.138 1166.71 441.93C1166.31 442.721 1166.08 443.616 1166.02 444.615H1176.2L1175.55 445.084ZM1191.64 453.266L1191.51 449.768V443.678C1191.51 442.263 1191.15 441.191 1190.42 440.462C1189.69 439.733 1188.62 439.369 1187.2 439.369C1186.29 439.369 1185.44 439.556 1184.67 439.931C1183.9 440.285 1183.17 440.899 1182.49 441.773L1181.05 440.556C1181.88 439.556 1182.81 438.828 1183.83 438.369C1184.87 437.891 1186.04 437.651 1187.33 437.651C1189.28 437.651 1190.79 438.172 1191.86 439.213C1192.92 440.233 1193.45 441.721 1193.45 443.678V453.266H1191.64ZM1186.2 453.484C1185.06 453.484 1184.06 453.287 1183.21 452.891C1182.37 452.496 1181.73 451.954 1181.27 451.267C1180.83 450.559 1180.61 449.737 1180.61 448.8C1180.61 447.967 1180.77 447.27 1181.08 446.708C1181.41 446.125 1181.84 445.667 1182.36 445.334C1182.92 444.959 1183.56 444.699 1184.27 444.553C1185 444.407 1185.78 444.334 1186.61 444.334H1191.7V445.833H1186.86C1186.26 445.833 1185.66 445.885 1185.08 445.989C1184.52 446.094 1184.04 446.302 1183.64 446.614C1183.31 446.843 1183.05 447.145 1182.86 447.52C1182.7 447.874 1182.61 448.3 1182.61 448.8C1182.61 449.737 1182.95 450.486 1183.61 451.049C1184.3 451.59 1185.22 451.861 1186.39 451.861C1187.33 451.861 1188.18 451.642 1188.95 451.205C1189.72 450.747 1190.34 450.122 1190.79 449.331C1191.27 448.54 1191.51 447.655 1191.51 446.676L1192.36 447.613C1192.25 448.779 1191.92 449.81 1191.36 450.705C1190.79 451.6 1190.07 452.287 1189.17 452.766C1188.27 453.245 1187.29 453.484 1186.2 453.484ZM1202.55 453.484C1201.86 453.484 1201.26 453.349 1200.74 453.078C1200.22 452.808 1199.81 452.391 1199.52 451.829C1199.25 451.246 1199.11 450.518 1199.11 449.643V433.467L1201.11 432.311V449.175C1201.11 450.008 1201.25 450.663 1201.52 451.142C1201.81 451.6 1202.31 451.829 1203.02 451.829C1203.27 451.829 1203.54 451.809 1203.83 451.767C1204.12 451.704 1204.43 451.632 1204.76 451.548V453.11C1204.39 453.235 1204.01 453.328 1203.64 453.391C1203.27 453.453 1202.9 453.484 1202.55 453.484ZM1195.71 439.431V437.87H1204.76V439.431H1195.71ZM1214.17 453.484C1213.03 453.484 1212.01 453.287 1211.11 452.891C1210.24 452.496 1209.51 451.944 1208.93 451.236C1208.34 450.528 1207.9 449.695 1207.58 448.738C1207.29 447.78 1207.15 446.76 1207.15 445.677C1207.15 444.574 1207.29 443.543 1207.58 442.585C1207.88 441.607 1208.3 440.753 1208.86 440.025C1209.45 439.275 1210.16 438.692 1210.99 438.276C1211.84 437.859 1212.82 437.651 1213.92 437.651C1215.09 437.651 1216.09 437.859 1216.92 438.276C1217.78 438.671 1218.46 439.223 1218.98 439.931C1219.52 440.618 1219.92 441.378 1220.17 442.211C1220.44 443.043 1220.58 443.887 1220.58 444.74C1220.58 444.907 1220.56 445.125 1220.54 445.396C1220.54 445.667 1220.52 445.896 1220.48 446.083H1209.08C1209.12 447.853 1209.59 449.227 1210.49 450.205C1211.4 451.184 1212.63 451.673 1214.17 451.673C1215.15 451.673 1215.98 451.527 1216.67 451.236C1217.38 450.924 1218.06 450.414 1218.7 449.706L1220.11 450.955C1219.52 451.559 1218.93 452.048 1218.33 452.423C1217.72 452.777 1217.08 453.047 1216.39 453.235C1215.72 453.401 1214.99 453.484 1214.17 453.484ZM1218.61 445.084C1218.65 444.917 1218.67 444.751 1218.67 444.584C1218.67 444.397 1218.67 444.22 1218.67 444.053C1218.67 443.512 1218.58 442.96 1218.39 442.398C1218.22 441.836 1217.95 441.326 1217.58 440.868C1217.2 440.41 1216.71 440.035 1216.11 439.744C1215.51 439.452 1214.79 439.306 1213.95 439.306C1213 439.306 1212.15 439.546 1211.43 440.025C1210.72 440.504 1210.17 441.138 1209.77 441.93C1209.37 442.721 1209.15 443.616 1209.08 444.615H1219.26L1218.61 445.084ZM1114.41 490.266V468.499H1120.53C1122.82 468.499 1124.58 469.02 1125.81 470.061C1127.06 471.101 1127.68 472.611 1127.68 474.589C1127.68 476.546 1127.06 478.055 1125.81 479.117C1124.58 480.179 1122.82 480.71 1120.53 480.71H1116.44V490.266H1114.41ZM1116.44 478.898H1120.31C1121.98 478.898 1123.28 478.544 1124.22 477.837C1125.15 477.108 1125.62 476.025 1125.62 474.589C1125.62 473.194 1125.16 472.142 1124.25 471.435C1123.33 470.706 1122.02 470.342 1120.31 470.342H1116.44V478.898ZM1131.24 490.266V474.87H1133.24V478.961L1132.74 479.055C1132.91 478.097 1133.27 477.295 1133.83 476.65C1134.39 476.004 1135.05 475.515 1135.8 475.182C1136.55 474.828 1137.27 474.651 1137.95 474.651C1138.37 474.651 1138.79 474.703 1139.2 474.807C1139.64 474.891 1140.06 475.036 1140.45 475.245L1139.48 477.025C1139.21 476.9 1138.91 476.796 1138.58 476.712C1138.25 476.629 1137.92 476.587 1137.61 476.587C1137.07 476.587 1136.53 476.692 1135.99 476.9C1135.45 477.108 1134.95 477.441 1134.49 477.899C1134.05 478.336 1133.73 478.93 1133.52 479.679C1133.44 479.991 1133.36 480.377 1133.3 480.835C1133.26 481.293 1133.24 481.928 1133.24 482.74V490.266H1131.24ZM1149.18 490.484C1147.76 490.484 1146.49 490.151 1145.37 489.485C1144.26 488.798 1143.4 487.861 1142.77 486.675C1142.15 485.467 1141.84 484.093 1141.84 482.552C1141.84 481.012 1142.14 479.648 1142.74 478.461C1143.37 477.274 1144.23 476.348 1145.33 475.682C1146.46 474.995 1147.74 474.651 1149.18 474.651C1150.61 474.651 1151.87 474.995 1152.95 475.682C1154.06 476.348 1154.92 477.274 1155.55 478.461C1156.19 479.648 1156.51 481.012 1156.51 482.552C1156.51 484.093 1156.19 485.467 1155.55 486.675C1154.92 487.861 1154.06 488.798 1152.95 489.485C1151.85 490.151 1150.59 490.484 1149.18 490.484ZM1149.18 488.736C1150.26 488.736 1151.2 488.475 1151.99 487.955C1152.8 487.434 1153.42 486.716 1153.86 485.8C1154.3 484.863 1154.52 483.781 1154.52 482.552C1154.52 481.303 1154.3 480.22 1153.86 479.304C1153.42 478.368 1152.8 477.649 1151.99 477.15C1151.2 476.629 1150.26 476.369 1149.18 476.369C1148.09 476.369 1147.15 476.629 1146.33 477.15C1145.52 477.67 1144.89 478.388 1144.43 479.304C1143.99 480.22 1143.77 481.303 1143.77 482.552C1143.77 483.781 1143.99 484.863 1144.43 485.8C1144.89 486.716 1145.52 487.434 1146.33 487.955C1147.15 488.475 1148.09 488.736 1149.18 488.736ZM1164.75 490.484C1164.06 490.484 1163.45 490.349 1162.93 490.078C1162.41 489.808 1162.01 489.391 1161.72 488.829C1161.45 488.246 1161.31 487.518 1161.31 486.643V470.467L1163.31 469.311V486.175C1163.31 487.008 1163.44 487.663 1163.71 488.142C1164.01 488.6 1164.51 488.829 1165.21 488.829C1165.46 488.829 1165.73 488.809 1166.03 488.767C1166.32 488.704 1166.63 488.632 1166.96 488.548V490.11C1166.59 490.235 1166.21 490.328 1165.84 490.391C1165.46 490.453 1165.1 490.484 1164.75 490.484ZM1157.91 476.431V474.87H1166.96V476.431H1157.91ZM1176.68 490.484C1175.27 490.484 1174 490.151 1172.87 489.485C1171.77 488.798 1170.91 487.861 1170.28 486.675C1169.66 485.467 1169.35 484.093 1169.35 482.552C1169.35 481.012 1169.65 479.648 1170.25 478.461C1170.88 477.274 1171.74 476.348 1172.84 475.682C1173.97 474.995 1175.25 474.651 1176.68 474.651C1178.12 474.651 1179.38 474.995 1180.46 475.682C1181.57 476.348 1182.43 477.274 1183.05 478.461C1183.7 479.648 1184.02 481.012 1184.02 482.552C1184.02 484.093 1183.7 485.467 1183.05 486.675C1182.43 487.861 1181.57 488.798 1180.46 489.485C1179.36 490.151 1178.1 490.484 1176.68 490.484ZM1176.68 488.736C1177.77 488.736 1178.7 488.475 1179.49 487.955C1180.31 487.434 1180.93 486.716 1181.37 485.8C1181.81 484.863 1182.02 483.781 1182.02 482.552C1182.02 481.303 1181.81 480.22 1181.37 479.304C1180.93 478.368 1180.31 477.649 1179.49 477.15C1178.7 476.629 1177.77 476.369 1176.68 476.369C1175.6 476.369 1174.65 476.629 1173.84 477.15C1173.03 477.67 1172.4 478.388 1171.94 479.304C1171.5 480.22 1171.28 481.303 1171.28 482.552C1171.28 483.781 1171.5 484.863 1171.94 485.8C1172.4 486.716 1173.03 487.434 1173.84 487.955C1174.65 488.475 1175.6 488.736 1176.68 488.736ZM1192.25 490.484C1191.57 490.484 1190.96 490.349 1190.44 490.078C1189.92 489.808 1189.52 489.391 1189.22 488.829C1188.95 488.246 1188.82 487.518 1188.82 486.643V470.467L1190.82 469.311V486.175C1190.82 487.008 1190.95 487.663 1191.22 488.142C1191.52 488.6 1192.01 488.829 1192.72 488.829C1192.97 488.829 1193.24 488.809 1193.53 488.767C1193.83 488.704 1194.14 488.632 1194.47 488.548V490.11C1194.1 490.235 1193.72 490.328 1193.35 490.391C1192.97 490.453 1192.61 490.484 1192.25 490.484ZM1185.41 476.431V474.87H1194.47V476.431H1185.41ZM1199.69 496.605L1202.53 489.766L1196.44 474.87H1198.59L1203.56 487.768L1208.56 474.87H1210.71L1201.84 496.605H1199.69ZM1214.04 496.637V474.87H1216.01V479.71L1215.38 479.273C1215.67 478.295 1216.1 477.462 1216.66 476.775C1217.23 476.088 1217.91 475.567 1218.72 475.213C1219.54 474.839 1220.44 474.651 1221.44 474.651C1222.82 474.651 1224.02 475.005 1225.06 475.713C1226.13 476.4 1226.95 477.337 1227.53 478.524C1228.13 479.71 1228.44 481.064 1228.44 482.583C1228.44 484.145 1228.12 485.529 1227.5 486.737C1226.88 487.924 1226.03 488.85 1224.97 489.516C1223.93 490.162 1222.75 490.484 1221.44 490.484C1220.44 490.484 1219.53 490.297 1218.69 489.922C1217.88 489.527 1217.19 488.985 1216.63 488.298C1216.09 487.611 1215.71 486.831 1215.48 485.956L1216.01 485.457V496.637H1214.04ZM1221.13 488.673C1222.17 488.673 1223.09 488.413 1223.88 487.892C1224.69 487.372 1225.32 486.654 1225.78 485.738C1226.24 484.822 1226.47 483.77 1226.47 482.583C1226.47 481.397 1226.24 480.345 1225.78 479.429C1225.32 478.513 1224.69 477.795 1223.88 477.274C1223.09 476.733 1222.17 476.463 1221.13 476.463C1220.09 476.463 1219.17 476.733 1218.38 477.274C1217.59 477.795 1216.97 478.513 1216.51 479.429C1216.07 480.345 1215.85 481.397 1215.85 482.583C1215.85 483.77 1216.07 484.822 1216.51 485.738C1216.97 486.654 1217.59 487.372 1218.38 487.892C1219.17 488.413 1220.09 488.673 1221.13 488.673ZM1238.89 490.484C1237.75 490.484 1236.73 490.287 1235.83 489.891C1234.96 489.496 1234.23 488.944 1233.64 488.236C1233.06 487.528 1232.61 486.695 1232.3 485.738C1232.01 484.78 1231.86 483.76 1231.86 482.677C1231.86 481.574 1232.01 480.543 1232.3 479.585C1232.59 478.607 1233.02 477.753 1233.58 477.025C1234.17 476.275 1234.87 475.692 1235.71 475.276C1236.56 474.859 1237.54 474.651 1238.64 474.651C1239.81 474.651 1240.81 474.859 1241.64 475.276C1242.49 475.671 1243.18 476.223 1243.7 476.931C1244.24 477.618 1244.64 478.378 1244.89 479.211C1245.16 480.043 1245.29 480.887 1245.29 481.74C1245.29 481.907 1245.28 482.125 1245.26 482.396C1245.26 482.667 1245.24 482.896 1245.2 483.083H1233.8C1233.84 484.853 1234.31 486.227 1235.21 487.205C1236.12 488.184 1237.35 488.673 1238.89 488.673C1239.87 488.673 1240.7 488.527 1241.39 488.236C1242.1 487.924 1242.77 487.414 1243.42 486.706L1244.82 487.955C1244.24 488.559 1243.65 489.048 1243.04 489.423C1242.44 489.777 1241.8 490.047 1241.11 490.235C1240.44 490.401 1239.7 490.484 1238.89 490.484ZM1243.33 482.084C1243.37 481.917 1243.39 481.751 1243.39 481.584C1243.39 481.397 1243.39 481.22 1243.39 481.053C1243.39 480.512 1243.29 479.96 1243.11 479.398C1242.94 478.836 1242.67 478.326 1242.3 477.868C1241.92 477.41 1241.43 477.035 1240.83 476.744C1240.22 476.452 1239.51 476.306 1238.67 476.306C1237.72 476.306 1236.87 476.546 1236.14 477.025C1235.44 477.504 1234.88 478.138 1234.49 478.93C1234.09 479.721 1233.86 480.616 1233.8 481.615H1243.98L1243.33 482.084ZM1159.13 527.266V507.342H1151.51V505.499H1168.78V507.342H1161.19V527.266H1159.13ZM1175.09 527.484C1173.95 527.484 1172.93 527.287 1172.03 526.891C1171.16 526.496 1170.43 525.944 1169.84 525.236C1169.26 524.528 1168.81 523.695 1168.5 522.738C1168.21 521.78 1168.06 520.76 1168.06 519.677C1168.06 518.574 1168.21 517.543 1168.5 516.585C1168.79 515.607 1169.22 514.753 1169.78 514.025C1170.36 513.275 1171.07 512.692 1171.91 512.276C1172.76 511.859 1173.74 511.651 1174.84 511.651C1176.01 511.651 1177.01 511.859 1177.84 512.276C1178.69 512.671 1179.38 513.223 1179.9 513.931C1180.44 514.618 1180.84 515.378 1181.09 516.211C1181.36 517.043 1181.49 517.887 1181.49 518.74C1181.49 518.907 1181.48 519.125 1181.46 519.396C1181.46 519.667 1181.44 519.896 1181.4 520.083H1170C1170.04 521.853 1170.51 523.227 1171.41 524.205C1172.32 525.184 1173.55 525.673 1175.09 525.673C1176.07 525.673 1176.9 525.527 1177.59 525.236C1178.3 524.924 1178.97 524.414 1179.62 523.706L1181.02 524.955C1180.44 525.559 1179.85 526.048 1179.24 526.423C1178.64 526.777 1178 527.047 1177.31 527.235C1176.64 527.401 1175.9 527.484 1175.09 527.484ZM1179.53 519.084C1179.57 518.917 1179.59 518.751 1179.59 518.584C1179.59 518.397 1179.59 518.22 1179.59 518.053C1179.59 517.512 1179.49 516.96 1179.31 516.398C1179.14 515.836 1178.87 515.326 1178.49 514.868C1178.12 514.41 1177.63 514.035 1177.03 513.744C1176.42 513.452 1175.71 513.306 1174.87 513.306C1173.91 513.306 1173.07 513.546 1172.34 514.025C1171.63 514.504 1171.08 515.138 1170.69 515.93C1170.29 516.721 1170.06 517.616 1170 518.615H1180.18L1179.53 519.084ZM1190.34 527.484C1189.32 527.484 1188.39 527.328 1187.56 527.016C1186.75 526.704 1186.04 526.287 1185.43 525.767C1184.85 525.226 1184.39 524.632 1184.06 523.987L1185.47 522.863C1185.86 523.737 1186.48 524.455 1187.31 525.017C1188.16 525.559 1189.17 525.829 1190.34 525.829C1191.44 525.829 1192.33 525.59 1192.99 525.111C1193.66 524.611 1193.99 523.935 1193.99 523.081C1193.99 522.373 1193.78 521.832 1193.37 521.457C1192.97 521.062 1192.45 520.749 1191.8 520.52C1191.18 520.291 1190.49 520.094 1189.74 519.927C1189.16 519.781 1188.58 519.615 1188 519.427C1187.41 519.219 1186.88 518.969 1186.4 518.678C1185.94 518.366 1185.58 517.97 1185.31 517.491C1185.04 517.012 1184.9 516.419 1184.9 515.711C1184.9 514.504 1185.37 513.525 1186.31 512.775C1187.27 512.026 1188.51 511.651 1190.02 511.651C1191.17 511.651 1192.21 511.901 1193.15 512.401C1194.11 512.88 1194.84 513.619 1195.37 514.618L1194.08 515.555C1193.65 514.743 1193.06 514.16 1192.34 513.806C1191.63 513.431 1190.84 513.244 1189.96 513.244C1189.03 513.244 1188.24 513.452 1187.62 513.869C1187.02 514.285 1186.71 514.847 1186.71 515.555C1186.71 516.075 1186.86 516.502 1187.15 516.835C1187.44 517.148 1187.86 517.408 1188.4 517.616C1188.94 517.824 1189.58 518.012 1190.31 518.178C1190.97 518.324 1191.63 518.501 1192.27 518.709C1192.94 518.917 1193.54 519.188 1194.08 519.521C1194.65 519.833 1195.08 520.26 1195.4 520.801C1195.73 521.343 1195.9 522.03 1195.9 522.863C1195.9 523.799 1195.67 524.622 1195.21 525.33C1194.75 526.017 1194.11 526.548 1193.27 526.922C1192.44 527.297 1191.46 527.484 1190.34 527.484ZM1204.51 527.484C1203.83 527.484 1203.22 527.349 1202.7 527.078C1202.18 526.808 1201.78 526.391 1201.48 525.829C1201.21 525.246 1201.08 524.518 1201.08 523.643V507.467L1203.08 506.311V523.175C1203.08 524.008 1203.21 524.663 1203.48 525.142C1203.77 525.6 1204.27 525.829 1204.98 525.829C1205.23 525.829 1205.5 525.809 1205.79 525.767C1206.09 525.704 1206.4 525.632 1206.73 525.548V527.11C1206.36 527.235 1205.98 527.328 1205.61 527.391C1205.23 527.453 1204.87 527.484 1204.51 527.484ZM1197.67 513.431V511.87H1206.73V513.431H1197.67Z" fill="#F0F0F0"/>
<path d="M595 88.9761L598.497 64.0997H605.635C609.3 64.0997 612.119 65.0039 614.094 66.8122C616.093 68.5967 617.092 71.1308 617.092 74.4143C617.092 76.5082 616.795 78.4473 616.2 80.2319C615.605 81.9926 614.701 83.5392 613.487 84.8717C612.274 86.1803 610.739 87.1915 608.883 87.9054C607.051 88.6192 604.874 88.9761 602.352 88.9761H595ZM600.246 84.7289H602.245C604.41 84.7289 606.159 84.4196 607.491 83.8009C608.847 83.1585 609.883 82.3257 610.596 81.3026C611.334 80.2795 611.834 79.1612 612.095 77.9477C612.381 76.7104 612.524 75.5088 612.524 74.3429C612.524 72.8439 612.226 71.6542 611.631 70.7739C611.06 69.8935 610.228 69.2749 609.133 68.918C608.062 68.5373 606.754 68.3469 605.207 68.3469H602.53L600.246 84.7289ZM620.476 88.9761L623.974 64.0997H640.535L639.999 68.2398H628.043L627.186 74.1645H638.322L637.751 78.2689H626.615L625.687 84.836H637.644L637.037 88.9761H620.476ZM642.538 88.9761L646.035 64.0997H662.667L662.096 68.2398H650.104L649.248 74.1645H659.705L659.098 78.2689H648.677L647.142 88.9761H642.538ZM663.867 88.9761L667.365 64.0997H671.969L668.471 88.9761H663.867ZM674.67 88.9761L678.168 64.0997H682.879L691.838 82.9444H690.731L693.372 64.0997H697.976L694.479 88.9761H689.732L680.845 70.0957H681.951L679.275 88.9761H674.67ZM700.705 88.9761L704.203 64.0997H720.763L720.228 68.2398H708.271L707.415 74.1645H718.55L717.979 78.2689H706.844L705.916 84.836H717.872L717.266 88.9761H700.705Z" fill="#F0F0F0"/>
<path d="M956.367 88.9761L959.864 64.0997H967.003C970.667 64.0997 973.486 65.0039 975.461 66.8122C977.46 68.5967 978.459 71.1308 978.459 74.4143C978.459 76.5082 978.162 78.4473 977.567 80.2319C976.972 81.9926 976.068 83.5392 974.854 84.8717C973.641 86.1803 972.106 87.1915 970.25 87.9054C968.418 88.6192 966.241 88.9761 963.719 88.9761H956.367ZM961.613 84.7289H963.612C965.777 84.7289 967.526 84.4196 968.858 83.8009C970.215 83.1585 971.25 82.3257 971.964 81.3026C972.701 80.2795 973.201 79.1612 973.463 77.9477C973.748 76.7104 973.891 75.5088 973.891 74.3429C973.891 72.8439 973.593 71.6542 972.999 70.7739C972.427 69.8935 971.595 69.2749 970.5 68.918C969.429 68.5373 968.121 68.3469 966.574 68.3469H963.897L961.613 84.7289ZM981.844 88.9761L985.341 64.0997H1001.9L1001.37 68.2398H989.41L988.554 74.1645H999.689L999.118 78.2689H987.982L987.054 84.836H999.011L998.404 88.9761H981.844ZM1011.86 88.9761L1005.37 64.0997H1010.36L1015.04 83.3013H1013.58L1023.53 64.0997H1028.75L1015.29 88.9761H1011.86ZM1029.31 88.9761L1032.81 64.0997H1049.37L1048.83 68.2398H1036.88L1036.02 74.1645H1047.16L1046.59 78.2689H1035.45L1034.52 84.836H1046.48L1045.87 88.9761H1029.31ZM1051.37 88.9761L1054.87 64.0997H1059.48L1056.58 84.836H1067.15L1066.58 88.9761H1051.37ZM1081.01 89.5471C1078.87 89.5471 1077.02 89.1069 1075.45 88.2266C1073.88 87.3224 1072.66 86.0613 1071.81 84.4434C1070.97 82.8016 1070.56 80.8624 1070.56 78.6258C1070.56 76.6747 1070.87 74.8069 1071.48 73.0224C1072.13 71.214 1073.03 69.5961 1074.2 68.1684C1075.39 66.7408 1076.83 65.6106 1078.52 64.7778C1080.2 63.9451 1082.11 63.5287 1084.23 63.5287C1086.37 63.5287 1088.22 63.9807 1089.79 64.8849C1091.36 65.7653 1092.58 67.0263 1093.43 68.6681C1094.29 70.2861 1094.72 72.2253 1094.72 74.4857C1094.72 76.4368 1094.4 78.3165 1093.75 80.1248C1093.11 81.9093 1092.2 83.5154 1091.01 84.943C1089.82 86.3469 1088.38 87.4652 1086.69 88.298C1085 89.1307 1083.11 89.5471 1081.01 89.5471ZM1081.33 85.1215C1082.71 85.1215 1083.94 84.8479 1085.01 84.3006C1086.11 83.7296 1087.02 82.9563 1087.76 81.9807C1088.52 81.0052 1089.09 79.9107 1089.47 78.6972C1089.88 77.4599 1090.08 76.1631 1090.08 74.8069C1090.08 72.7131 1089.54 71.0475 1088.47 69.8102C1087.4 68.5729 1085.88 67.9543 1083.9 67.9543C1082.5 67.9543 1081.25 68.2517 1080.16 68.8466C1079.06 69.4176 1078.15 70.2028 1077.41 71.2022C1076.67 72.1777 1076.11 73.2841 1075.73 74.5214C1075.35 75.7349 1075.16 76.9959 1075.16 78.3046C1075.16 79.7084 1075.4 80.9219 1075.87 81.945C1076.35 82.9682 1077.04 83.7533 1077.94 84.3006C1078.87 84.8479 1080 85.1215 1081.33 85.1215ZM1098.08 88.9761L1101.57 64.0997H1109.46C1111.96 64.0997 1113.9 64.6113 1115.28 65.6344C1116.66 66.6338 1117.35 68.1328 1117.35 70.1314C1117.35 71.9398 1116.97 73.4863 1116.21 74.7712C1115.47 76.0561 1114.39 77.0316 1112.96 77.6978C1111.55 78.3641 1109.85 78.6972 1107.85 78.6972H1104.11L1102.64 88.9761H1098.08ZM1104.68 74.5928H1107.71C1109.33 74.5928 1110.57 74.2834 1111.42 73.6648C1112.3 73.0224 1112.74 72.0468 1112.74 70.7382C1112.74 69.8102 1112.4 69.1678 1111.71 68.8109C1111.02 68.4302 1110.07 68.2398 1108.85 68.2398H1105.61L1104.68 74.5928Z" fill="#F0F0F0"/>
<path d="M1326.66 88.9761L1330.15 64.0997H1337.29C1340.96 64.0997 1343.78 65.0039 1345.75 66.8122C1347.75 68.5967 1348.75 71.1308 1348.75 74.4143C1348.75 76.5082 1348.45 78.4473 1347.86 80.2319C1347.26 81.9926 1346.36 83.5392 1345.14 84.8717C1343.93 86.1803 1342.4 87.1915 1340.54 87.9054C1338.71 88.6192 1336.53 88.9761 1334.01 88.9761H1326.66ZM1331.9 84.7289H1333.9C1336.07 84.7289 1337.82 84.4196 1339.15 83.8009C1340.5 83.1585 1341.54 82.3257 1342.25 81.3026C1342.99 80.2795 1343.49 79.1612 1343.75 77.9477C1344.04 76.7104 1344.18 75.5088 1344.18 74.3429C1344.18 72.8439 1343.88 71.6542 1343.29 70.7739C1342.72 69.8935 1341.88 69.2749 1340.79 68.918C1339.72 68.5373 1338.41 68.3469 1336.86 68.3469H1334.19L1331.9 84.7289ZM1352.13 88.9761L1355.63 64.0997H1372.19L1371.66 68.2398H1359.7L1358.84 74.1645H1369.98L1369.41 78.2689H1358.27L1357.34 84.836H1369.3L1368.69 88.9761H1352.13ZM1374.19 88.9761L1377.69 64.0997H1382.3L1379.41 84.836H1389.97L1389.4 88.9761H1374.19ZM1393.61 88.9761L1397.1 64.0997H1401.71L1398.21 88.9761H1393.61ZM1412.37 88.9761L1405.87 64.0997H1410.87L1415.55 83.3013H1414.08L1424.04 64.0997H1429.25L1415.8 88.9761H1412.37ZM1429.82 88.9761L1433.32 64.0997H1449.88L1449.34 68.2398H1437.38L1436.53 74.1645H1447.66L1447.09 78.2689H1435.96L1435.03 84.836H1446.99L1446.38 88.9761H1429.82ZM1451.88 88.9761L1455.38 64.0997H1463.26C1465.83 64.0997 1467.79 64.6113 1469.12 65.6344C1470.47 66.6575 1471.15 68.1447 1471.15 70.0957C1471.15 71.5947 1470.88 72.951 1470.33 74.1645C1469.78 75.378 1468.93 76.3773 1467.76 77.1625C1466.62 77.9477 1465.14 78.4473 1463.34 78.6615C1462.98 78.6615 1462.6 78.6615 1462.19 78.6615C1461.81 78.6615 1461.43 78.6615 1461.05 78.6615H1457.95L1456.48 88.9761H1451.88ZM1465.58 88.9761L1460.69 78.1975L1465.41 77.6265L1470.69 88.9761H1465.58ZM1458.52 74.5928H1461.52C1463.13 74.5928 1464.37 74.2834 1465.23 73.6648C1466.11 73.0224 1466.55 72.0587 1466.55 70.7739C1466.55 69.8221 1466.19 69.1678 1465.48 68.8109C1464.79 68.4302 1463.85 68.2398 1462.66 68.2398H1459.41L1458.52 74.5928Z" fill="#F0F0F0"/>
<path d="M182.096 637.198L202.159 622.081L207.207 627.128C209.798 629.719 211.152 632.352 211.27 635.027C211.421 637.702 210.336 640.201 208.014 642.523C206.534 644.003 204.952 645.164 203.27 646.005C201.604 646.83 199.871 647.284 198.071 647.368C196.288 647.436 194.487 647.065 192.67 646.258C190.87 645.467 189.078 644.18 187.295 642.397L182.096 637.198ZM188.809 637.904L190.222 639.318C191.753 640.849 193.209 641.867 194.588 642.371C196.002 642.876 197.322 643.019 198.551 642.8C199.796 642.598 200.94 642.161 201.983 641.488C203.06 640.815 204.01 640.066 204.835 639.242C205.895 638.182 206.525 637.13 206.727 636.087C206.946 635.061 206.795 634.035 206.273 633.008C205.785 631.982 204.994 630.922 203.901 629.828L202.008 627.936L188.809 637.904ZM200.111 655.213L220.174 640.096L223.43 643.351L203.366 658.468L200.111 655.213ZM213.378 668.48L226.375 646.296L229.908 649.829L219.637 666.713L218.602 665.678L239.221 659.142L242.905 662.827L215.801 670.902L213.378 668.48ZM225.716 680.817L245.779 665.7L257.489 677.41L254.183 679.959L245.729 671.505L240.934 675.089L248.808 682.963L245.502 685.461L237.628 677.587L232.328 681.575L240.782 690.029L237.426 692.527L225.716 680.817ZM241.315 696.417L261.379 681.3L266.956 686.877C268.773 688.695 269.791 690.436 270.01 692.102C270.245 693.784 269.673 695.315 268.294 696.695C267.234 697.755 266.081 698.52 264.836 698.991C263.591 699.462 262.279 699.563 260.899 699.294C259.537 699.042 258.14 698.352 256.71 697.225C256.458 696.972 256.188 696.703 255.902 696.417C255.633 696.148 255.364 695.879 255.095 695.609L252.899 693.414L244.571 699.673L241.315 696.417ZM251.006 706.108L255.17 695.029L258.906 697.957L254.615 709.717L251.006 706.108ZM256.18 690.941L258.3 693.061C259.444 694.205 260.538 694.861 261.581 695.029C262.657 695.197 263.65 694.827 264.559 693.919C265.232 693.246 265.442 692.531 265.19 691.773C264.971 691.016 264.441 690.217 263.6 689.376L261.303 687.079L256.18 690.941ZM264.527 720.436C263.096 719.006 262.146 717.433 261.675 715.717C261.237 714 261.296 712.276 261.851 710.543C262.407 708.81 263.458 707.17 265.006 705.622C266.419 704.208 267.984 703.081 269.7 702.24C271.433 701.416 273.225 700.919 275.076 700.751C276.926 700.583 278.735 700.793 280.502 701.382C282.285 701.988 283.909 703.022 285.372 704.486C287.29 706.404 288.384 708.473 288.653 710.694C288.939 712.898 288.451 715.001 287.189 717.004L283.101 714.783C283.875 713.538 284.178 712.293 284.01 711.048C283.875 709.803 283.261 708.633 282.167 707.54C281.158 706.53 280.047 705.84 278.836 705.47C277.641 705.117 276.422 705.024 275.177 705.193C273.932 705.361 272.712 705.756 271.517 706.379C270.356 707.001 269.288 707.8 268.312 708.776C266.882 710.206 266.125 711.704 266.041 713.269C265.99 714.833 266.638 716.289 267.984 717.635C268.573 718.223 269.254 718.737 270.028 719.174C270.819 719.628 271.677 719.931 272.602 720.083C273.561 720.234 274.571 720.167 275.631 719.881C276.708 719.578 277.818 718.989 278.962 718.114L280.047 717.332L278.155 719.982L273.158 714.985L276.489 712.461L283.681 719.654L272.804 727.906L269.953 725.054L272.703 722.101L272.703 723.161C271.694 723.363 270.693 723.389 269.7 723.237C268.741 723.086 267.833 722.766 266.975 722.278C266.1 721.807 265.284 721.193 264.527 720.436ZM276.902 732.003L296.965 716.886L308.675 728.596L305.369 731.145L296.915 722.691L292.12 726.274L299.993 734.148L296.687 736.647L288.813 728.773L283.514 732.76L291.968 741.215L288.612 743.713L276.902 732.003Z" fill="#F0F0F0"/>
<path d="M904.832 637.198L924.896 622.081L929.943 627.128C932.534 629.719 933.889 632.352 934.006 635.027C934.158 637.702 933.073 640.201 930.751 642.523C929.27 644.003 927.689 645.164 926.006 646.005C924.341 646.83 922.608 647.284 920.807 647.368C919.024 647.436 917.224 647.065 915.407 646.258C913.606 645.467 911.815 644.18 910.031 642.397L904.832 637.198ZM911.545 637.904L912.959 639.318C914.49 640.849 915.945 641.867 917.325 642.371C918.738 642.876 920.059 643.019 921.287 642.8C922.532 642.598 923.676 642.161 924.719 641.488C925.796 640.815 926.746 640.066 927.571 639.242C928.631 638.182 929.262 637.13 929.464 636.087C929.682 635.061 929.531 634.035 929.009 633.008C928.521 631.982 927.731 630.922 926.637 629.828L924.744 627.936L911.545 637.904ZM922.847 655.213L942.911 640.096L946.166 643.351L926.103 658.468L922.847 655.213ZM936.114 668.48L949.111 646.296L952.645 649.829L942.373 666.713L941.338 665.678L961.957 659.142L965.642 662.827L938.537 670.902L936.114 668.48ZM948.452 680.817L968.515 665.7L980.225 677.41L976.919 679.959L968.465 671.505L963.67 675.089L971.544 682.963L968.238 685.461L960.364 677.587L955.064 681.575L963.519 690.029L960.162 692.527L948.452 680.817ZM964.052 696.417L984.115 681.3L989.693 686.877C991.51 688.695 992.527 690.436 992.746 692.102C992.982 693.784 992.41 695.315 991.03 696.695C989.97 697.755 988.818 698.52 987.573 698.991C986.328 699.462 985.015 699.563 983.636 699.294C982.273 699.042 980.876 698.352 979.446 697.225C979.194 696.972 978.925 696.703 978.639 696.417C978.369 696.148 978.1 695.879 977.831 695.609L975.635 693.414L967.307 699.673L964.052 696.417ZM973.743 706.108L977.907 695.029L981.642 697.957L977.352 709.717L973.743 706.108ZM978.916 690.941L981.036 693.061C982.18 694.205 983.274 694.861 984.317 695.029C985.394 695.197 986.386 694.827 987.295 693.919C987.968 693.246 988.178 692.531 987.926 691.773C987.707 691.016 987.177 690.217 986.336 689.376L984.039 687.079L978.916 690.941ZM987.263 720.436C985.833 719.006 984.882 717.433 984.411 715.717C983.974 714 984.033 712.276 984.588 710.543C985.143 708.81 986.195 707.17 987.742 705.622C989.156 704.208 990.72 703.081 992.436 702.24C994.169 701.416 995.961 700.919 997.812 700.751C999.663 700.583 1001.47 700.793 1003.24 701.382C1005.02 701.988 1006.64 703.022 1008.11 704.486C1010.03 706.404 1011.12 708.473 1011.39 710.694C1011.68 712.898 1011.19 715.001 1009.93 717.004L1005.84 714.783C1006.61 713.538 1006.91 712.293 1006.75 711.048C1006.61 709.803 1006 708.633 1004.9 707.54C1003.89 706.53 1002.78 705.84 1001.57 705.47C1000.38 705.117 999.158 705.024 997.913 705.193C996.668 705.361 995.448 705.756 994.254 706.379C993.093 707.001 992.024 707.8 991.048 708.776C989.618 710.206 988.861 711.704 988.777 713.269C988.727 714.833 989.374 716.289 990.72 717.635C991.309 718.223 991.991 718.737 992.765 719.174C993.555 719.628 994.413 719.931 995.339 720.083C996.298 720.234 997.307 720.167 998.367 719.881C999.444 719.578 1000.55 718.989 1001.7 718.114L1002.78 717.332L1000.89 719.982L995.894 714.985L999.225 712.461L1006.42 719.654L995.541 727.906L992.689 725.054L995.44 722.101L995.44 723.161C994.43 723.363 993.429 723.389 992.436 723.237C991.477 723.086 990.569 722.766 989.711 722.278C988.836 721.807 988.02 721.193 987.263 720.436ZM999.638 732.003L1019.7 716.886L1031.41 728.596L1028.11 731.145L1019.65 722.691L1014.86 726.274L1022.73 734.148L1019.42 736.647L1011.55 728.773L1006.25 732.76L1014.7 741.215L1011.35 743.713L999.638 732.003Z" fill="#F0F0F0"/>
<path d="M636.561 756.738C635.35 757.949 634.088 758.824 632.775 759.363C631.446 759.884 630.117 760.103 628.788 760.019C627.459 759.935 626.163 759.581 624.901 758.959C623.656 758.32 622.495 757.461 621.419 756.385C620.106 755.072 619.038 753.583 618.214 751.918C617.389 750.218 616.876 748.443 616.674 746.593C616.489 744.725 616.683 742.9 617.255 741.116C617.827 739.299 618.878 737.625 620.409 736.094C622.327 734.176 624.388 733.091 626.592 732.838C628.796 732.552 630.899 733.04 632.902 734.302L630.706 738.365C629.461 737.591 628.191 737.314 626.895 737.533C625.583 737.734 624.38 738.382 623.286 739.476C622.277 740.485 621.595 741.587 621.242 742.782C620.906 743.96 620.83 745.163 621.015 746.391C621.183 747.602 621.57 748.78 622.176 749.924C622.765 751.051 623.513 752.069 624.422 752.978C625.902 754.458 627.459 755.257 629.091 755.375C630.723 755.459 632.254 754.786 633.684 753.356C634.862 752.179 635.585 750.866 635.854 749.419C636.124 747.939 636.006 746.424 635.501 744.877L639.716 743.236C640.54 745.642 640.683 748.04 640.145 750.429C639.589 752.801 638.395 754.904 636.561 756.738ZM655.488 737.811C653.974 739.325 652.35 740.326 650.617 740.814C648.867 741.285 647.117 741.252 645.368 740.713C643.618 740.141 641.952 739.065 640.371 737.483C638.991 736.103 637.889 734.564 637.065 732.865C636.24 731.132 635.736 729.348 635.55 727.514C635.382 725.664 635.601 723.847 636.207 722.063C636.812 720.28 637.864 718.639 639.361 717.142C640.876 715.628 642.508 714.635 644.257 714.164C645.99 713.676 647.74 713.71 649.507 714.265C651.256 714.803 652.93 715.872 654.529 717.47C655.908 718.85 657.01 720.406 657.835 722.139C658.642 723.855 659.13 725.639 659.299 727.489C659.45 729.323 659.223 731.132 658.617 732.915C658.011 734.699 656.968 736.331 655.488 737.811ZM652.586 734.455C653.561 733.479 654.234 732.419 654.604 731.275C654.975 730.097 655.076 728.903 654.907 727.691C654.756 726.463 654.386 725.285 653.797 724.158C653.208 722.997 652.434 721.937 651.475 720.978C649.994 719.497 648.438 718.698 646.806 718.581C645.174 718.463 643.66 719.102 642.264 720.499C641.271 721.491 640.598 722.585 640.245 723.779C639.874 724.957 639.782 726.16 639.967 727.388C640.135 728.6 640.522 729.777 641.128 730.921C641.717 732.049 642.474 733.075 643.399 734C644.392 734.993 645.418 735.683 646.478 736.07C647.538 736.457 648.581 736.524 649.608 736.272C650.651 736.003 651.643 735.397 652.586 734.455ZM667.148 725.343L652.031 705.279L655.363 701.948L675.022 708.939L674.24 709.721L662.782 694.528L666.038 691.273L681.155 711.336L677.799 714.693L658.164 707.626L658.946 706.844L670.404 722.087L667.148 725.343ZM691.186 701.306L669.002 688.309L672.535 684.775L689.419 695.047L688.384 696.082L681.848 675.463L685.533 671.778L693.608 698.883L691.186 701.306ZM703.523 688.968L688.406 668.905L700.116 657.195L702.665 660.501L694.211 668.955L697.795 673.75L705.669 665.876L708.167 669.182L700.293 677.056L704.28 682.356L712.735 673.901L715.233 677.258L703.523 688.968ZM719.123 673.368L704.006 653.305L709.583 647.727C711.4 645.91 713.142 644.892 714.808 644.674C716.49 644.438 718.021 645.01 719.401 646.39C720.461 647.45 721.226 648.602 721.697 649.847C722.168 651.092 722.269 652.405 722 653.784C721.748 655.147 721.058 656.544 719.931 657.974C719.678 658.226 719.409 658.495 719.123 658.781C718.854 659.05 718.585 659.32 718.315 659.589L716.12 661.785L722.379 670.113L719.123 673.368ZM728.814 663.677L717.735 659.513L720.663 655.778L732.423 660.068L728.814 663.677ZM713.647 658.504L715.767 656.384C716.911 655.24 717.567 654.146 717.735 653.103C717.903 652.026 717.533 651.034 716.625 650.125C715.952 649.452 715.237 649.242 714.479 649.494C713.722 649.713 712.923 650.243 712.082 651.084L709.785 653.381L713.647 658.504ZM743.142 650.157C741.712 651.587 740.139 652.538 738.423 653.009C736.706 653.446 734.982 653.387 733.249 652.832C731.516 652.277 729.876 651.225 728.328 649.678C726.914 648.264 725.787 646.7 724.946 644.984C724.121 643.251 723.625 641.459 723.457 639.608C723.289 637.757 723.499 635.949 724.088 634.182C724.694 632.399 725.728 630.775 727.192 629.311C729.11 627.393 731.179 626.3 733.4 626.03C735.604 625.744 737.707 626.232 739.71 627.494L737.489 631.583C736.244 630.809 734.999 630.506 733.754 630.674C732.509 630.809 731.339 631.423 730.246 632.516C729.236 633.526 728.546 634.636 728.176 635.848C727.823 637.042 727.73 638.262 727.899 639.507C728.067 640.752 728.462 641.972 729.085 643.166C729.707 644.327 730.506 645.396 731.482 646.372C732.912 647.802 734.41 648.559 735.975 648.643C737.539 648.693 738.995 648.046 740.341 646.7C740.929 646.111 741.443 645.429 741.88 644.655C742.334 643.865 742.637 643.007 742.789 642.081C742.94 641.122 742.873 640.113 742.587 639.053C742.284 637.976 741.695 636.866 740.82 635.722L740.038 634.636L742.688 636.529L737.691 641.526L735.167 638.195L742.359 631.002L750.612 641.879L747.76 644.731L744.807 641.98L745.867 641.98C746.069 642.99 746.095 643.991 745.943 644.984C745.792 645.943 745.472 646.851 744.984 647.709C744.513 648.584 743.899 649.4 743.142 650.157ZM754.709 637.782L739.592 617.719L751.302 606.009L753.851 609.315L745.397 617.769L748.98 622.564L756.854 614.69L759.353 617.996L751.479 625.87L755.466 631.17L763.921 622.716L766.419 626.072L754.709 637.782Z" fill="#F0F0F0"/>
<path d="M1359.3 756.738C1358.09 757.949 1356.83 758.824 1355.51 759.363C1354.18 759.884 1352.85 760.103 1351.53 760.019C1350.2 759.935 1348.9 759.581 1347.64 758.959C1346.39 758.32 1345.23 757.461 1344.16 756.385C1342.84 755.072 1341.78 753.583 1340.95 751.918C1340.13 750.218 1339.61 748.443 1339.41 746.593C1339.23 744.725 1339.42 742.9 1339.99 741.116C1340.56 739.299 1341.62 737.625 1343.15 736.094C1345.06 734.176 1347.13 733.091 1349.33 732.838C1351.53 732.552 1353.64 733.04 1355.64 734.302L1353.44 738.365C1352.2 737.591 1350.93 737.314 1349.63 737.533C1348.32 737.734 1347.12 738.382 1346.02 739.476C1345.01 740.485 1344.33 741.587 1343.98 742.782C1343.64 743.96 1343.57 745.163 1343.75 746.391C1343.92 747.602 1344.31 748.78 1344.91 749.924C1345.5 751.051 1346.25 752.069 1347.16 752.978C1348.64 754.458 1350.2 755.257 1351.83 755.375C1353.46 755.459 1354.99 754.786 1356.42 753.356C1357.6 752.179 1358.32 750.866 1358.59 749.419C1358.86 747.939 1358.74 746.424 1358.24 744.877L1362.45 743.236C1363.28 745.642 1363.42 748.04 1362.88 750.429C1362.33 752.801 1361.13 754.904 1359.3 756.738ZM1378.23 737.811C1376.71 739.325 1375.09 740.326 1373.35 740.814C1371.6 741.285 1369.85 741.252 1368.11 740.713C1366.36 740.141 1364.69 739.065 1363.11 737.483C1361.73 736.103 1360.63 734.564 1359.8 732.865C1358.98 731.132 1358.47 729.348 1358.29 727.514C1358.12 725.664 1358.34 723.847 1358.94 722.063C1359.55 720.28 1360.6 718.639 1362.1 717.142C1363.61 715.628 1365.24 714.635 1366.99 714.164C1368.73 713.676 1370.48 713.71 1372.24 714.265C1373.99 714.803 1375.67 715.872 1377.27 717.47C1378.65 718.85 1379.75 720.406 1380.57 722.139C1381.38 723.855 1381.87 725.639 1382.04 727.489C1382.19 729.323 1381.96 731.132 1381.35 732.915C1380.75 734.699 1379.71 736.331 1378.23 737.811ZM1375.32 734.455C1376.3 733.479 1376.97 732.419 1377.34 731.275C1377.71 730.097 1377.81 728.903 1377.64 727.691C1377.49 726.463 1377.12 725.285 1376.53 724.158C1375.95 722.997 1375.17 721.937 1374.21 720.978C1372.73 719.497 1371.18 718.698 1369.54 718.581C1367.91 718.463 1366.4 719.102 1365 720.499C1364.01 721.491 1363.34 722.585 1362.98 723.779C1362.61 724.957 1362.52 726.16 1362.7 727.388C1362.87 728.6 1363.26 729.777 1363.87 730.921C1364.45 732.049 1365.21 733.075 1366.14 734C1367.13 734.993 1368.16 735.683 1369.22 736.07C1370.28 736.457 1371.32 736.524 1372.34 736.272C1373.39 736.003 1374.38 735.397 1375.32 734.455ZM1389.89 725.343L1374.77 705.279L1378.1 701.948L1397.76 708.939L1396.98 709.721L1385.52 694.528L1388.78 691.273L1403.89 711.336L1400.54 714.693L1380.9 707.626L1381.68 706.844L1393.14 722.087L1389.89 725.343ZM1413.92 701.306L1391.74 688.309L1395.27 684.775L1412.16 695.047L1411.12 696.082L1404.59 675.463L1408.27 671.778L1416.35 698.883L1413.92 701.306ZM1426.26 688.968L1411.14 668.905L1422.85 657.195L1425.4 660.501L1416.95 668.955L1420.53 673.75L1428.41 665.876L1430.9 669.182L1423.03 677.056L1427.02 682.356L1435.47 673.901L1437.97 677.258L1426.26 688.968ZM1441.86 673.368L1426.74 653.305L1432.32 647.727C1434.14 645.91 1435.88 644.892 1437.54 644.674C1439.23 644.438 1440.76 645.01 1442.14 646.39C1443.2 647.45 1443.96 648.602 1444.43 649.847C1444.91 651.092 1445.01 652.405 1444.74 653.784C1444.49 655.147 1443.8 656.544 1442.67 657.974C1442.42 658.226 1442.15 658.495 1441.86 658.781C1441.59 659.05 1441.32 659.32 1441.05 659.589L1438.86 661.785L1445.12 670.113L1441.86 673.368ZM1451.55 663.677L1440.47 659.513L1443.4 655.778L1455.16 660.068L1451.55 663.677ZM1436.38 658.504L1438.5 656.384C1439.65 655.24 1440.3 654.146 1440.47 653.103C1440.64 652.026 1440.27 651.034 1439.36 650.125C1438.69 649.452 1437.97 649.242 1437.22 649.494C1436.46 649.713 1435.66 650.243 1434.82 651.084L1432.52 653.381L1436.38 658.504ZM1465.88 650.157C1464.45 651.587 1462.88 652.538 1461.16 653.009C1459.44 653.446 1457.72 653.387 1455.99 652.832C1454.25 652.277 1452.61 651.225 1451.06 649.678C1449.65 648.264 1448.52 646.7 1447.68 644.984C1446.86 643.251 1446.36 641.459 1446.19 639.608C1446.03 637.757 1446.24 635.949 1446.83 634.182C1447.43 632.399 1448.47 630.775 1449.93 629.311C1451.85 627.393 1453.92 626.3 1456.14 626.03C1458.34 625.744 1460.44 626.232 1462.45 627.494L1460.23 631.583C1458.98 630.809 1457.74 630.506 1456.49 630.674C1455.25 630.809 1454.08 631.423 1452.98 632.516C1451.97 633.526 1451.28 634.636 1450.91 635.848C1450.56 637.042 1450.47 638.262 1450.64 639.507C1450.8 640.752 1451.2 641.972 1451.82 643.166C1452.44 644.327 1453.24 645.396 1454.22 646.372C1455.65 647.802 1457.15 648.559 1458.71 648.643C1460.28 648.693 1461.73 648.046 1463.08 646.7C1463.67 646.111 1464.18 645.429 1464.62 644.655C1465.07 643.865 1465.37 643.007 1465.53 642.081C1465.68 641.122 1465.61 640.113 1465.32 639.053C1465.02 637.976 1464.43 636.866 1463.56 635.722L1462.77 634.636L1465.42 636.529L1460.43 641.526L1457.9 638.195L1465.1 631.002L1473.35 641.879L1470.5 644.731L1467.54 641.98L1468.6 641.98C1468.81 642.99 1468.83 643.991 1468.68 644.984C1468.53 645.943 1468.21 646.851 1467.72 647.709C1467.25 648.584 1466.64 649.4 1465.88 650.157ZM1477.45 637.782L1462.33 617.719L1474.04 606.009L1476.59 609.315L1468.13 617.769L1471.72 622.564L1479.59 614.69L1482.09 617.996L1474.22 625.87L1478.2 631.17L1486.66 622.716L1489.16 626.072L1477.45 637.782Z" fill="#F0F0F0"/>
<path d="M467.046 582.981C466.001 584.026 466.001 585.721 467.046 586.766L484.081 603.801C485.127 604.847 486.821 604.847 487.867 603.801C488.912 602.756 488.912 601.061 487.867 600.016L472.725 584.873L487.867 569.731C488.912 568.686 488.912 566.991 487.867 565.946C486.821 564.9 485.127 564.9 484.081 565.946L467.046 582.981ZM359.19 477.802C359.19 479.28 360.389 480.478 361.867 480.478C363.346 480.478 364.544 479.28 364.544 477.802H359.19ZM576.011 477.802H573.334C573.334 535.457 526.595 582.197 468.939 582.197V584.873V587.55C529.551 587.55 578.688 538.414 578.688 477.802H576.011ZM361.867 477.802H364.544C364.544 420.146 411.283 373.407 468.939 373.407V370.73V368.053C408.327 368.053 359.19 417.189 359.19 477.802H361.867ZM468.939 370.73V373.407C526.595 373.407 573.334 420.146 573.334 477.802H576.011H578.688C578.688 417.189 529.551 368.053 468.939 368.053V370.73Z" fill="#F0F0F0"/>
<path d="M1180.86 582.981C1179.81 584.026 1179.81 585.721 1180.86 586.766L1197.89 603.801C1198.94 604.847 1200.63 604.847 1201.68 603.801C1202.73 602.756 1202.73 601.061 1201.68 600.016L1186.54 584.873L1201.68 569.731C1202.73 568.686 1202.73 566.991 1201.68 565.946C1200.63 564.9 1198.94 564.9 1197.89 565.946L1180.86 582.981ZM1073 477.802C1073 479.28 1074.2 480.478 1075.68 480.478C1077.16 480.478 1078.36 479.28 1078.36 477.802H1073ZM1289.82 477.802H1287.15C1287.15 535.457 1240.41 582.197 1182.75 582.197V584.873V587.55C1243.36 587.55 1292.5 538.414 1292.5 477.802H1289.82ZM1075.68 477.802H1078.36C1078.36 420.146 1125.1 373.407 1182.75 373.407V370.73V368.053C1122.14 368.053 1073 417.189 1073 477.802H1075.68ZM1182.75 370.73V373.407C1240.41 373.407 1287.15 420.146 1287.15 477.802H1289.82H1292.5C1292.5 417.189 1243.36 368.053 1182.75 368.053V370.73Z" fill="#F0F0F0"/>
</svg>
