<svg width="133" height="132" viewBox="0 0 133 132" fill="none" xmlns="http://www.w3.org/2000/svg">
<path d="M120.657 65.9834C120.657 36.131 96.328 11.8855 66.2608 11.8855C36.1936 11.8855 11.8647 36.131 11.8647 65.9834C11.8647 95.8358 36.1936 120.081 66.2608 120.081C96.328 120.081 120.657 95.8358 120.657 65.9834Z" stroke="#1A728B" stroke-width="10.6074"/>
<path fill-rule="evenodd" clip-rule="evenodd" d="M67.1548 17.192C93.8735 17.7515 115.221 39.4559 115.221 65.9751C115.221 92.8433 93.3078 114.769 66.0969 114.769C38.886 114.769 16.9725 92.8433 16.9725 65.9751C16.9725 57.5187 19.1432 49.5518 22.9667 42.604L7.95702 34.6657C2.88251 43.9752 0.000610352 54.6403 0.000610352 65.9751C0.000610352 102.297 29.5929 131.741 66.0969 131.741C102.601 131.741 132.193 102.297 132.193 65.9751C132.193 30.005 103.171 0.779623 67.1548 0.217285V17.192Z" fill="#2C5E4F"/>
<path d="M41.2139 64.0931C40.4218 64.0026 39.7317 63.7763 39.1433 63.4142C38.5776 63.0522 38.091 62.6222 37.6837 62.1244C37.299 61.6039 37.0048 61.0495 36.8012 60.4611C36.6201 59.8728 36.5296 59.2844 36.5296 58.696C36.5296 58.0624 36.6541 57.3949 36.903 56.6934C37.1519 55.9918 37.5592 55.3469 38.125 54.7586C38.6907 54.1702 39.4262 53.6837 40.3313 53.299C41.2365 52.9143 42.3566 52.7219 43.6918 52.7219C45.0042 52.7219 46.1131 52.9143 47.0182 53.299C47.946 53.6837 48.6928 54.1702 49.2585 54.7586C49.8243 55.3469 50.2316 55.9918 50.4805 56.6934C50.7521 57.3949 50.8878 58.0624 50.8878 58.696C50.8878 59.2844 50.786 59.8728 50.5823 60.4611C50.4013 61.0495 50.1071 61.6039 49.6998 62.1244C49.3151 62.6222 48.8286 63.0522 48.2402 63.4142C47.6745 63.7763 47.0069 64.0026 46.2375 64.0931V64.2628C47.0748 64.3081 47.8216 64.523 48.4778 64.9077C49.1567 65.2698 49.7224 65.745 50.175 66.3334C50.6502 66.8991 51.0123 67.5327 51.2612 68.2342C51.5101 68.9357 51.6346 69.6372 51.6346 70.3387C51.6346 71.176 51.4649 72.0133 51.1254 72.8506C50.8086 73.6652 50.3221 74.4007 49.6659 75.0569C49.0096 75.7132 48.1836 76.245 47.188 76.6523C46.1923 77.0596 45.0269 77.2633 43.6918 77.2633C42.3566 77.2633 41.1912 77.0596 40.1955 76.6523C39.2225 76.245 38.4078 75.7132 37.7516 75.0569C37.118 74.4007 36.6428 73.6652 36.326 72.8506C36.0092 72.0133 35.8507 71.176 35.8507 70.3387C35.8507 69.6372 35.9752 68.9357 36.2241 68.2342C36.473 67.5327 36.8238 66.8991 37.2764 66.3334C37.729 65.745 38.2834 65.2698 38.9396 64.9077C39.6185 64.523 40.3766 64.3081 41.2139 64.2628V64.0931ZM43.6918 63.6858C44.2575 63.6858 44.8006 63.5953 45.3211 63.4142C45.8642 63.2106 46.3394 62.9164 46.7467 62.5317C47.1766 62.1244 47.5161 61.6378 47.765 61.0721C48.0139 60.4837 48.1384 59.7936 48.1384 59.0015C48.1384 58.0511 47.98 57.2704 47.6632 56.6594C47.369 56.0258 46.9956 55.5393 46.543 55.1998C46.0904 54.8378 45.6039 54.5888 45.0835 54.4531C44.5856 54.2947 44.1217 54.2155 43.6918 54.2155C43.2618 54.2155 42.7979 54.2947 42.3001 54.4531C41.8022 54.5888 41.327 54.8378 40.8744 55.1998C40.4445 55.5393 40.0824 56.0258 39.7882 56.6594C39.494 57.2704 39.347 58.0511 39.347 59.0015C39.347 59.7936 39.4714 60.4837 39.7203 61.0721C39.9693 61.6378 40.2974 62.1244 40.7047 62.5317C41.112 62.9164 41.5759 63.2106 42.0964 63.4142C42.6169 63.5953 43.1487 63.6858 43.6918 63.6858ZM43.6918 64.8738C43.0129 64.8738 42.3906 65.0096 41.8248 65.2811C41.2591 65.53 40.7726 65.8921 40.3653 66.3673C39.9806 66.8199 39.6751 67.363 39.4488 67.9966C39.2451 68.6076 39.1433 69.2752 39.1433 69.9993C39.1433 71.7644 39.5506 73.1674 40.3653 74.2083C41.2025 75.2493 42.3114 75.7697 43.6918 75.7697C45.1174 75.7697 46.2489 75.2493 47.0861 74.2083C47.9234 73.1674 48.3421 71.7644 48.3421 69.9993C48.3421 69.2752 48.2289 68.6076 48.0026 67.9966C47.799 67.363 47.4935 66.8199 47.0861 66.3673C46.6788 65.8921 46.181 65.53 45.5926 65.2811C45.0269 65.0096 44.3933 64.8738 43.6918 64.8738ZM55.7065 65.0775C55.7065 64.4212 55.7518 63.6631 55.8423 62.8032C55.9554 61.9207 56.1252 61.0268 56.3515 60.1217C56.6004 59.1939 56.9172 58.2887 57.3019 57.4062C57.7092 56.5236 58.207 55.7429 58.7954 55.0641C59.3838 54.3625 60.0853 53.7968 60.8999 53.3669C61.7146 52.9369 62.665 52.7219 63.7512 52.7219C64.8374 52.7219 65.7878 52.9369 66.6025 53.3669C67.4397 53.7968 68.1526 54.3625 68.7409 55.0641C69.3519 55.7429 69.8611 56.5236 70.2684 57.4062C70.6757 58.2887 70.9925 59.1939 71.2188 60.1217C71.4677 61.0268 71.6375 61.9207 71.728 62.8032C71.8411 63.6631 71.8977 64.4212 71.8977 65.0775C71.8977 66.5031 71.7393 67.9401 71.4225 69.3883C71.1057 70.814 70.6078 72.1151 69.929 73.2919C69.2727 74.4686 68.4241 75.4303 67.3832 76.1771C66.3649 76.9012 65.1542 77.2633 63.7512 77.2633C62.3482 77.2633 61.1375 76.9012 60.1192 76.1771C59.1235 75.4303 58.2976 74.4686 57.6413 73.2919C56.9851 72.1151 56.4985 70.814 56.1817 69.3883C55.8649 67.9401 55.7065 66.5031 55.7065 65.0775ZM59.1009 65.0775C59.1009 66.2316 59.1462 67.4422 59.2367 68.7094C59.3272 69.9767 59.5309 71.1308 59.8477 72.1717C60.1871 73.2127 60.6623 74.0726 61.2733 74.7514C61.8843 75.4303 62.7103 75.7697 63.7512 75.7697C64.8148 75.7697 65.6634 75.4303 66.297 74.7514C66.9306 74.0726 67.4058 73.2127 67.7226 72.1717C68.0621 71.1308 68.277 69.9767 68.3675 68.7094C68.4581 67.4422 68.5033 66.2316 68.5033 65.0775C68.5033 63.9007 68.4581 62.6675 68.3675 61.3776C68.277 60.0877 68.0621 58.9223 67.7226 57.8814C67.4058 56.8178 66.9306 55.9466 66.297 55.2677C65.6634 54.5662 64.8148 54.2155 63.7512 54.2155C62.7103 54.2155 61.8843 54.5662 61.2733 55.2677C60.6623 55.9466 60.1871 56.8178 59.8477 57.8814C59.5309 58.9223 59.3272 60.0877 59.2367 61.3776C59.1462 62.6675 59.1009 63.9007 59.1009 65.0775ZM75.9601 58.085C75.9601 57.5193 76.0506 56.9196 76.2316 56.286C76.4127 55.6524 76.7068 55.0754 77.1142 54.5549C77.5215 54.0344 78.0306 53.6045 78.6416 53.265C79.2752 52.903 80.0333 52.7219 80.9159 52.7219C81.7984 52.7219 82.5565 52.903 83.1901 53.265C83.8237 53.6045 84.3442 54.0344 84.7515 54.5549C85.1588 55.0754 85.453 55.6524 85.634 56.286C85.8151 56.9196 85.9056 57.5193 85.9056 58.085C85.9056 58.8092 85.7811 59.5107 85.5322 60.1896C85.3059 60.8458 84.9665 61.4229 84.5139 61.9207C84.0839 62.4185 83.5635 62.8145 82.9525 63.1087C82.3415 63.4029 81.6626 63.55 80.9159 63.55C80.1691 63.55 79.4902 63.4029 78.8792 63.1087C78.2682 62.8145 77.7478 62.4185 77.3178 61.9207C76.8879 61.4229 76.5484 60.8458 76.2995 60.1896C76.0732 59.5107 75.9601 58.8092 75.9601 58.085ZM78.1664 58.085C78.1664 58.8997 78.2569 59.5899 78.438 60.1556C78.619 60.6987 78.8453 61.14 79.1168 61.4794C79.3884 61.8189 79.6826 62.0678 79.9994 62.2262C80.3388 62.362 80.6443 62.4298 80.9159 62.4298C81.21 62.4298 81.5155 62.362 81.8323 62.2262C82.1492 62.0678 82.4433 61.8189 82.7149 61.4794C82.9864 61.14 83.2127 60.6987 83.3938 60.1556C83.5748 59.5899 83.6653 58.8997 83.6653 58.085C83.6653 57.6098 83.62 57.1233 83.5295 56.6255C83.439 56.1276 83.2919 55.675 83.0883 55.2677C82.8846 54.8604 82.6017 54.5323 82.2397 54.2833C81.9002 54.0118 81.459 53.876 80.9159 53.876C80.3954 53.876 79.9541 54.0118 79.5921 54.2833C79.2526 54.5323 78.9698 54.8604 78.7435 55.2677C78.5398 55.675 78.3927 56.1276 78.3022 56.6255C78.2117 57.1233 78.1664 57.6098 78.1664 58.085ZM87.0936 71.9341C87.0936 71.3457 87.1841 70.7348 87.3652 70.1011C87.5462 69.4449 87.8404 68.8565 88.2477 68.3361C88.655 67.793 89.1755 67.3517 89.8091 67.0123C90.4427 66.6728 91.2008 66.5031 92.0834 66.5031C92.9659 66.5031 93.724 66.6728 94.3576 67.0123C94.9912 67.3517 95.5117 67.793 95.919 68.3361C96.3263 68.8565 96.6205 69.4449 96.8015 70.1011C96.9826 70.7348 97.0731 71.3457 97.0731 71.9341C97.0731 72.6356 96.9486 73.3145 96.6997 73.9707C96.4734 74.6043 96.134 75.1701 95.6814 75.6679C95.2514 76.1431 94.731 76.5278 94.12 76.822C93.509 77.1162 92.8301 77.2633 92.0834 77.2633C91.3366 77.2633 90.6577 77.1162 90.0467 76.822C89.4357 76.5278 88.904 76.1431 88.4514 75.6679C88.0214 75.1701 87.682 74.6043 87.4331 73.9707C87.2068 73.3145 87.0936 72.6356 87.0936 71.9341ZM89.3339 71.9341C89.3339 72.7488 89.4244 73.4276 89.6055 73.9707C89.7865 74.5138 90.0128 74.9551 90.2843 75.2945C90.5785 75.634 90.884 75.8716 91.2008 76.0074C91.5176 76.1431 91.8118 76.211 92.0834 76.211C92.3549 76.211 92.6491 76.1431 92.9659 76.0074C93.3053 75.8716 93.6108 75.634 93.8824 75.2945C94.1539 74.9551 94.3802 74.5138 94.5613 73.9707C94.7423 73.4276 94.8328 72.7488 94.8328 71.9341C94.8328 71.4363 94.7875 70.9271 94.697 70.4066C94.6291 69.8862 94.4821 69.4223 94.2558 69.0149C94.0521 68.6076 93.7692 68.2795 93.4072 68.0306C93.0677 67.759 92.6265 67.6232 92.0834 67.6232C91.5629 67.6232 91.1216 67.759 90.7596 68.0306C90.4201 68.2795 90.1373 68.6076 89.911 69.0149C89.7073 69.4223 89.5602 69.8862 89.4697 70.4066C89.3792 70.9271 89.3339 71.4363 89.3339 71.9341ZM94.12 52.7219L80.9837 77.2972H78.9811L92.0494 52.7219H94.12Z" fill="#2C5E4F"/>
</svg>
