<svg width="121" height="121" viewBox="0 0 121 121" fill="none" xmlns="http://www.w3.org/2000/svg">
<ellipse cx="60.3201" cy="60.4816" rx="59.8863" ry="59.8864" fill="#1A728B"/>
<path d="M44.3908 67.0559H24.1746L32.4808 57.7828C33.2133 56.9039 33.9897 55.9516 34.8101 54.9262C35.6598 53.9007 36.4362 52.8167 37.1394 51.674C37.8425 50.5313 38.4285 49.3447 38.8973 48.1142C39.3661 46.8836 39.6005 45.6238 39.6005 44.3346C39.6005 42.313 39.0584 40.7016 37.9744 39.5003C36.9196 38.2991 35.5572 37.6984 33.8872 37.6984C32.891 37.6984 32.056 37.8889 31.3821 38.2698C30.7376 38.6507 30.1955 39.1634 29.756 39.808C29.3459 40.4232 29.0382 41.1557 28.8331 42.0054C28.628 42.8257 28.4815 43.6901 28.3937 44.5983H23.9988C23.9988 43.3678 24.2479 42.2105 24.7459 41.1264C25.244 40.0424 25.9325 39.1048 26.8115 38.3137C27.7198 37.5227 28.7745 36.9074 29.9758 36.4679C31.177 35.9991 32.4808 35.7647 33.8872 35.7647C35.4693 35.7647 36.8903 35.9991 38.1502 36.4679C39.41 36.9074 40.4648 37.5227 41.3145 38.3137C42.1641 39.1048 42.8087 40.0277 43.2482 41.0825C43.717 42.1079 43.9513 43.192 43.9513 44.3346C43.9513 45.7703 43.8049 47.0008 43.5119 48.0263C43.2482 49.0518 42.8087 50.0479 42.1934 51.0148C41.6074 51.9523 40.831 52.9485 39.8642 54.0033C38.9266 55.058 37.7839 56.3179 36.4362 57.7828L30.7229 63.8916H44.3908V67.0559ZM67.5931 67.0559H63.8575V52.5969C63.8575 52.3039 63.8282 51.8351 63.7696 51.1906C63.711 50.546 63.5206 49.9014 63.1983 49.2568C62.9053 48.6123 62.4219 48.0556 61.748 47.5868C61.0741 47.0887 60.1219 46.8397 58.8914 46.8397C58.1296 46.8397 57.3825 46.9715 56.65 47.2352C55.9468 47.4989 55.3169 47.9091 54.7602 48.4658C54.2035 49.0225 53.7641 49.711 53.4418 50.5313C53.1195 51.3517 52.9583 52.3332 52.9583 53.4759V67.0559H49.2227V45.0818H52.9583V47.8945H53.1341L53.8373 47.1913C54.8628 46.1658 55.9029 45.4773 56.9576 45.1257C58.0124 44.7448 58.9646 44.569 59.8143 44.5983C61.748 44.5983 63.2422 44.9353 64.297 45.6091C65.3518 46.2537 66.1135 47.0301 66.5823 47.9384C67.0804 48.8174 67.3734 49.7256 67.4613 50.6632C67.5492 51.5715 67.5931 52.2893 67.5931 52.8167V67.0559ZM94.2721 36.2921V67.0559H90.5365V63.4961H90.3608C89.2474 66.2209 86.9621 67.5833 83.5048 67.5833C82.0399 67.5833 80.6921 67.3196 79.4616 66.7922C78.231 66.2355 77.1616 65.4591 76.2533 64.463C75.3744 63.4375 74.6859 62.2216 74.1878 60.8153C73.6897 59.3796 73.4407 57.7828 73.4407 56.0249C73.4407 54.2963 73.6897 52.7288 74.1878 51.3224C74.6859 49.9161 75.3744 48.7148 76.2533 47.7187C77.1616 46.7225 78.231 45.9607 79.4616 45.4333C80.6921 44.8767 82.0399 44.5983 83.5048 44.5983C84.208 44.5983 84.8965 44.6716 85.5704 44.8181C86.2736 44.9646 86.9328 45.199 87.5481 45.5212C88.1633 45.8435 88.7054 46.2684 89.1741 46.7957C89.6722 47.2938 90.0678 47.9237 90.3608 48.6855H90.5365V36.2921H94.2721ZM90.5365 58.2662V54.4427C90.5365 53.2415 90.3607 52.1721 90.0092 51.2345C89.6869 50.297 89.2474 49.5059 88.6907 48.8613C88.134 48.1874 87.4895 47.6894 86.757 47.3671C86.0245 47.0155 85.2481 46.8397 84.4277 46.8397C83.5195 46.8397 82.6551 47.0155 81.8348 47.3671C81.0144 47.6894 80.2819 48.2314 79.6374 48.9932C79.0221 49.7256 78.524 50.6778 78.1431 51.8498C77.7915 53.0218 77.6157 54.4427 77.6157 56.1128C77.6157 57.7535 77.7915 59.1599 78.1431 60.3318C78.524 61.5038 79.0221 62.456 79.6374 63.1885C80.2526 63.9209 80.9705 64.463 81.7908 64.8145C82.6112 65.1368 83.4902 65.298 84.4277 65.298C85.2774 65.298 86.0685 65.1222 86.8009 64.7706C87.5627 64.3897 88.2073 63.8916 88.7347 63.2764C89.2913 62.6318 89.7308 61.8847 90.0531 61.035C90.3754 60.156 90.5365 59.2331 90.5365 58.2662Z" fill="#FFECD4"/>
<path d="M29.0867 74.6725H33.3266C34.1609 74.6725 34.852 74.7907 35.3999 75.0273C35.9478 75.2515 36.3774 75.5379 36.6887 75.8865C37.0124 76.2227 37.2366 76.5901 37.3611 76.9885C37.498 77.387 37.5665 77.7543 37.5665 78.0905C37.5665 78.4641 37.5043 78.8501 37.3798 79.2486C37.2552 79.6346 37.056 79.9957 36.7821 80.3319C36.5081 80.6681 36.1532 80.9483 35.7174 81.1724C35.294 81.3965 34.7835 81.5273 34.1858 81.5646V81.6394L34.3726 81.7327C34.522 81.8075 34.6465 81.9008 34.7461 82.0129C34.8582 82.125 34.9952 82.3055 35.1571 82.5546C35.3314 82.8036 35.5618 83.1585 35.8482 83.6192C36.1345 84.0675 36.5392 84.6714 37.0622 85.431C37.2366 85.6925 37.4047 85.9291 37.5665 86.1408C37.7284 86.34 37.8965 86.5143 38.0708 86.6637C38.2452 86.8007 38.4319 86.9066 38.6312 86.9813C38.8304 87.056 39.0608 87.0933 39.3223 87.0933C39.3845 87.0933 39.4468 87.0933 39.509 87.0933C39.5713 87.0809 39.6336 87.0684 39.6958 87.056V87.7471C39.5215 87.8467 39.3472 87.9089 39.1728 87.9339C38.9985 87.9588 38.7744 87.9712 38.5004 87.9712C38.1269 87.9712 37.8031 87.9214 37.5292 87.8218C37.2677 87.7222 37.0311 87.5914 36.8194 87.4295C36.6077 87.2552 36.4085 87.0498 36.2217 86.8132C36.0474 86.5766 35.8668 86.3151 35.6801 86.0287L34.2045 83.8434C33.9804 83.4947 33.7873 83.2021 33.6255 82.9655C33.4636 82.7289 33.2893 82.5359 33.1025 82.3865C32.9157 82.2371 32.704 82.1312 32.4674 82.069C32.2433 82.0067 31.9569 81.9756 31.6082 81.9756H30.7864V87.7471H29.0867V74.6725ZM30.7864 75.4943V81.135H32.7102C33.2083 81.135 33.6441 81.0479 34.0177 80.8736C34.4037 80.6992 34.7275 80.4751 34.989 80.2011C35.2505 79.9148 35.4435 79.6035 35.568 79.2672C35.705 78.9186 35.7734 78.5762 35.7734 78.24C35.7734 77.8415 35.6987 77.4742 35.5493 77.138C35.4123 76.8017 35.2069 76.5154 34.9329 76.2788C34.659 76.0297 34.329 75.8367 33.943 75.6997C33.5694 75.5628 33.1461 75.4943 32.6729 75.4943H30.7864ZM45.1829 78.2026C46.0919 78.2026 46.7955 78.3333 47.2935 78.5948C47.7916 78.8439 48.1527 79.1739 48.3769 79.5848C48.6135 79.9957 48.7504 80.4689 48.7878 81.0043C48.8251 81.5397 48.8438 82.0876 48.8438 82.648V87.7471H47.3309V86.8318C46.9698 87.1805 46.5091 87.4607 45.9487 87.6724C45.3884 87.8716 44.8281 87.9712 44.2677 87.9712C43.7323 87.9712 43.2591 87.8778 42.8482 87.691C42.4373 87.5043 42.0948 87.2614 41.8209 86.9626C41.5469 86.6637 41.3415 86.3275 41.2045 85.954C41.0675 85.5804 40.9991 85.2006 40.9991 84.8146C40.9991 84.4162 41.0738 84.0177 41.2232 83.6192C41.3726 83.2208 41.5968 82.8659 41.8956 82.5546C42.1944 82.2308 42.5618 81.9693 42.9976 81.7701C43.4334 81.5709 43.9315 81.4713 44.4918 81.4713C45.0522 81.4713 45.5814 81.5833 46.0795 81.8075C46.59 82.0191 47.0072 82.3242 47.3309 82.7227V81.9195C47.3309 80.8985 47.1753 80.1389 46.864 79.6408C46.5651 79.1427 46.011 78.8937 45.2016 78.8937C44.853 78.8937 44.5479 78.9373 44.2864 79.0244C44.0249 79.1116 43.7883 79.2361 43.5766 79.398C43.3774 79.5474 43.1906 79.7404 43.0163 79.977C42.842 80.2011 42.6676 80.4564 42.4933 80.7428L41.522 79.7716C41.6964 79.5848 41.8769 79.398 42.0637 79.2112C42.2629 79.0244 42.4995 78.8563 42.7735 78.7069C43.0599 78.5575 43.3961 78.4392 43.7821 78.352C44.1681 78.2524 44.635 78.2026 45.1829 78.2026ZM47.3309 84.0488C47.2686 83.8994 47.1753 83.7251 47.0507 83.5258C46.9387 83.3266 46.7892 83.1336 46.6025 82.9468C46.4157 82.76 46.1915 82.6044 45.9301 82.4799C45.6686 82.3429 45.3573 82.2744 44.9962 82.2744C44.635 82.2744 44.3051 82.3491 44.0062 82.4985C43.7074 82.6355 43.4521 82.8223 43.2404 83.0589C43.0412 83.283 42.8855 83.5507 42.7735 83.862C42.6614 84.1733 42.6054 84.4971 42.6054 84.8333C42.6054 85.2318 42.6739 85.5804 42.8108 85.8793C42.9602 86.1657 43.147 86.4147 43.3712 86.6264C43.5953 86.8256 43.8443 86.975 44.1183 87.0747C44.3922 87.1743 44.6537 87.2241 44.9028 87.2241C45.1394 87.2241 45.3759 87.1805 45.6125 87.0933C45.8616 87.0062 46.0919 86.8879 46.3036 86.7385C46.5278 86.5766 46.727 86.3898 46.9013 86.1781C47.0756 85.9664 47.2188 85.7361 47.3309 85.487V84.0488ZM59.6405 87.7471H58.0528V81.602C58.0528 81.4775 58.0404 81.2782 58.0155 81.0043C57.9906 80.7304 57.9096 80.4564 57.7727 80.1825C57.6481 79.9085 57.4427 79.6719 57.1563 79.4727C56.8699 79.261 56.4652 79.1552 55.9422 79.1552C55.6185 79.1552 55.3009 79.2112 54.9896 79.3233C54.6908 79.4353 54.4231 79.6097 54.1865 79.8463C53.9499 80.0829 53.7631 80.3755 53.6261 80.7241C53.4892 81.0728 53.4207 81.4899 53.4207 81.9756V87.7471H51.833V78.4081H53.4207V79.6035H53.4954L53.7942 79.3046C54.2301 78.8688 54.6721 78.5762 55.1204 78.4267C55.5686 78.2649 55.9733 78.1901 56.3344 78.2026C57.1563 78.2026 57.7913 78.3458 58.2396 78.6322C58.6879 78.9061 59.0116 79.2361 59.2109 79.6221C59.4225 79.9957 59.5471 80.3817 59.5844 80.7802C59.6218 81.1662 59.6405 81.4713 59.6405 81.6954V87.7471ZM64.2736 74.6725V83.0402L68.8684 78.4081H70.0825L66.515 81.9942L71.2032 87.7471H69.1112L65.3569 83.1336L64.2736 84.2356V87.7471H62.686V74.6725H64.2736ZM80.9929 83.4885H73.8953C73.8953 84.2481 74.0074 84.8707 74.2315 85.3563C74.4556 85.8419 74.7358 86.2217 75.072 86.4956C75.4082 86.7696 75.7693 86.9626 76.1553 87.0747C76.5538 87.1743 76.9274 87.2241 77.276 87.2241C77.5873 87.2241 77.8675 87.193 78.1165 87.1307C78.378 87.056 78.6271 86.9564 78.8636 86.8318C79.1002 86.7073 79.3306 86.5517 79.5547 86.3649C79.7913 86.1781 80.0404 85.9727 80.3018 85.7485L80.8995 86.3462C80.4015 86.8692 79.8162 87.2739 79.1438 87.5603C78.4714 87.8342 77.7367 87.9712 76.9398 87.9712C76.118 87.9712 75.402 87.8342 74.7918 87.5603C74.1941 87.2739 73.6961 86.9003 73.2976 86.4396C72.9116 85.9664 72.619 85.4372 72.4197 84.852C72.2329 84.2543 72.1396 83.6441 72.1396 83.0215C72.1396 82.2744 72.2516 81.6082 72.4758 81.023C72.6999 80.4253 73.0112 79.921 73.4097 79.5101C73.8081 79.0867 74.2751 78.7692 74.8105 78.5575C75.3459 78.3333 75.9312 78.2213 76.5662 78.2213C77.1639 78.2213 77.7305 78.3209 78.2659 78.5201C78.8014 78.7194 79.2683 79.0182 79.6668 79.4167C80.0777 79.8151 80.4015 80.3194 80.6381 80.9296C80.8746 81.5397 80.9929 82.262 80.9929 83.0962V83.4885ZM73.8953 82.7414H79.3679C79.3679 81.5335 79.1189 80.5872 78.6208 79.9023C78.1352 79.205 77.4503 78.8563 76.5662 78.8563C76.1055 78.8563 75.7071 78.9684 75.3708 79.1925C75.0346 79.4042 74.7545 79.6906 74.5303 80.0517C74.3187 80.4128 74.1568 80.83 74.0447 81.3032C73.9451 81.7639 73.8953 82.2433 73.8953 82.7414ZM91.7182 74.6725V87.7471H90.1306V86.2342H90.0559C89.5827 87.3922 88.6114 87.9712 87.1421 87.9712C86.5195 87.9712 85.9467 87.8591 85.4237 87.635C84.9007 87.3984 84.4462 87.0684 84.0602 86.6451C83.6867 86.2092 83.394 85.6925 83.1824 85.0948C82.9707 84.4846 82.8648 83.806 82.8648 83.0589C82.8648 82.3242 82.9707 81.658 83.1824 81.0603C83.394 80.4626 83.6867 79.9521 84.0602 79.5287C84.4462 79.1054 84.9007 78.7816 85.4237 78.5575C85.9467 78.3209 86.5195 78.2026 87.1421 78.2026C87.4409 78.2026 87.7336 78.2337 88.02 78.296C88.3188 78.3582 88.599 78.4579 88.8605 78.5948C89.122 78.7318 89.3523 78.9124 89.5516 79.1365C89.7632 79.3482 89.9313 79.6159 90.0559 79.9397H90.1306V74.6725H91.7182ZM90.1306 84.0115V82.3865C90.1306 81.8759 90.0559 81.4214 89.9064 81.023C89.7695 80.6245 89.5827 80.2883 89.3461 80.0144C89.1095 79.728 88.8356 79.5163 88.5243 79.3793C88.213 79.2299 87.883 79.1552 87.5343 79.1552C87.1483 79.1552 86.781 79.2299 86.4323 79.3793C86.0837 79.5163 85.7724 79.7466 85.4984 80.0704C85.2369 80.3817 85.0252 80.7864 84.8634 81.2845C84.7139 81.7826 84.6392 82.3865 84.6392 83.0962C84.6392 83.7936 84.7139 84.3913 84.8634 84.8893C85.0252 85.3874 85.2369 85.7921 85.4984 86.1034C85.7599 86.4147 86.065 86.6451 86.4136 86.7945C86.7623 86.9315 87.1359 86.9999 87.5343 86.9999C87.8954 86.9999 88.2316 86.9252 88.5429 86.7758C88.8667 86.6139 89.1406 86.4023 89.3648 86.1408C89.6014 85.8668 89.7881 85.5493 89.9251 85.1882C90.0621 84.8146 90.1306 84.4224 90.1306 84.0115Z" fill="#FFECD4"/>
</svg>
