<svg width="121" height="121" viewBox="0 0 121 121" fill="none" xmlns="http://www.w3.org/2000/svg">
<path d="M109.735 60.3202C109.735 33.116 87.6818 11.0626 60.4776 11.0626C33.2735 11.0626 11.2201 33.116 11.2201 60.3202C11.2201 87.5244 33.2735 109.578 60.4776 109.578C87.6818 109.578 109.735 87.5244 109.735 60.3202Z" stroke="#1A728B" stroke-width="9.65835"/>
<path fill-rule="evenodd" clip-rule="evenodd" d="M61.2806 15.895C85.372 16.4084 104.744 36.0985 104.744 60.3131C104.744 84.8503 84.8525 104.742 60.3155 104.742C35.7784 104.742 15.8871 84.8503 15.8871 60.3131C15.8871 54.4769 17.0124 48.9035 19.058 43.798L4.6621 38.1674C1.93385 45.0176 0.433746 52.4902 0.433746 60.3131C0.433746 93.3849 27.2437 120.195 60.3155 120.195C93.3872 120.195 120.197 93.3849 120.197 60.3131C120.197 27.5636 93.9072 0.954502 61.2806 0.438965V15.895Z" fill="#FFECD4"/>
<path d="M49.2274 48.3008L45.055 58.5928H47.6821V59.9218H44.5296L40.4808 69.9355H37.9155L41.9643 59.9218H39.0591V58.5928H42.4897L45.9822 50.0007H34.6703V48.3008H49.2274ZM65.6466 48.3008L61.4742 58.5928H64.1012V59.9218H60.9488L56.9 69.9355H54.3347L58.3835 59.9218H55.4783V58.5928H58.9089L62.4014 50.0007H51.0895V48.3008H65.6466ZM68.4359 52.8132C68.4359 52.2981 68.5183 51.7521 68.6832 51.1752C68.848 50.5982 69.1159 50.0728 69.4867 49.5989C69.8576 49.125 70.3212 48.7335 70.8775 48.4245C71.4545 48.0948 72.1447 47.93 72.9483 47.93C73.7519 47.93 74.4421 48.0948 75.019 48.4245C75.596 48.7335 76.0699 49.125 76.4408 49.5989C76.8116 50.0728 77.0795 50.5982 77.2443 51.1752C77.4092 51.7521 77.4916 52.2981 77.4916 52.8132C77.4916 53.4726 77.3783 54.1113 77.1516 54.7294C76.9456 55.327 76.6365 55.8524 76.2244 56.3057C75.8329 56.759 75.359 57.1196 74.8027 57.3874C74.2464 57.6553 73.6282 57.7892 72.9483 57.7892C72.2683 57.7892 71.6502 57.6553 71.0939 57.3874C70.5376 57.1196 70.0637 56.759 69.6722 56.3057C69.2807 55.8524 68.9716 55.327 68.745 54.7294C68.5389 54.1113 68.4359 53.4726 68.4359 52.8132ZM70.4448 52.8132C70.4448 53.555 70.5273 54.1834 70.6921 54.6985C70.8569 55.193 71.063 55.5948 71.3102 55.9039C71.5575 56.213 71.8253 56.4396 72.1138 56.5838C72.4229 56.7075 72.701 56.7693 72.9483 56.7693C73.2162 56.7693 73.4943 56.7075 73.7828 56.5838C74.0712 56.4396 74.3391 56.213 74.5863 55.9039C74.8336 55.5948 75.0396 55.193 75.2045 54.6985C75.3693 54.1834 75.4517 53.555 75.4517 52.8132C75.4517 52.3805 75.4105 51.9375 75.3281 51.4842C75.2457 51.0309 75.1118 50.6189 74.9263 50.248C74.7409 49.8771 74.4833 49.5783 74.1537 49.3517C73.8446 49.1044 73.4428 48.9808 72.9483 48.9808C72.4744 48.9808 72.0726 49.1044 71.7429 49.3517C71.4339 49.5783 71.1763 49.8771 70.9703 50.248C70.7848 50.6189 70.6509 51.0309 70.5685 51.4842C70.4861 51.9375 70.4448 52.3805 70.4448 52.8132ZM78.5733 65.4232C78.5733 64.8875 78.6557 64.3311 78.8206 63.7542C78.9854 63.1567 79.2533 62.621 79.6241 62.1471C79.995 61.6525 80.4689 61.2508 81.0459 60.9417C81.6228 60.6326 82.313 60.4781 83.1166 60.4781C83.9202 60.4781 84.6104 60.6326 85.1874 60.9417C85.7643 61.2508 86.2382 61.6525 86.6091 62.1471C86.9799 62.621 87.2478 63.1567 87.4126 63.7542C87.5775 64.3311 87.6599 64.8875 87.6599 65.4232C87.6599 66.0619 87.5466 66.68 87.3199 67.2776C87.1139 67.8545 86.8048 68.3696 86.3927 68.8229C86.0012 69.2556 85.5273 69.6059 84.971 69.8737C84.4147 70.1416 83.7965 70.2755 83.1166 70.2755C82.4367 70.2755 81.8185 70.1416 81.2622 69.8737C80.7059 69.6059 80.2217 69.2556 79.8096 68.8229C79.4181 68.3696 79.109 67.8545 78.8824 67.2776C78.6763 66.68 78.5733 66.0619 78.5733 65.4232ZM80.6132 65.4232C80.6132 66.1649 80.6956 66.7831 80.8604 67.2776C81.0252 67.7721 81.2313 68.1739 81.4785 68.4829C81.7464 68.792 82.0246 69.0083 82.313 69.132C82.6015 69.2556 82.8693 69.3174 83.1166 69.3174C83.3639 69.3174 83.6317 69.2556 83.9202 69.132C84.2292 69.0083 84.5074 68.792 84.7547 68.4829C85.0019 68.1739 85.208 67.7721 85.3728 67.2776C85.5376 66.7831 85.62 66.1649 85.62 65.4232C85.62 64.9699 85.5788 64.5063 85.4964 64.0324C85.4346 63.5585 85.3007 63.1361 85.0946 62.7652C84.9092 62.3943 84.6516 62.0955 84.322 61.8689C84.0129 61.6216 83.6111 61.498 83.1166 61.498C82.6427 61.498 82.2409 61.6216 81.9112 61.8689C81.6022 62.0955 81.3446 62.3943 81.1386 62.7652C80.9531 63.1361 80.8192 63.5585 80.7368 64.0324C80.6544 64.5063 80.6132 64.9699 80.6132 65.4232ZM84.971 47.93L73.0101 70.3064H71.1866L83.0857 47.93H84.971Z" fill="#FFECD4"/>
</svg>
