<svg width="119" height="121" viewBox="0 0 119 121" fill="none" xmlns="http://www.w3.org/2000/svg">
<path d="M108.525 60.1652C108.525 32.9609 86.4718 10.9076 59.2676 10.9076C32.0635 10.9076 10.0101 32.9609 10.0101 60.1652C10.0101 87.3694 32.0635 109.423 59.2676 109.423C86.4718 109.423 108.525 87.3694 108.525 60.1652Z" stroke="#1A728B" stroke-width="9.65835"/>
<path fill-rule="evenodd" clip-rule="evenodd" d="M60.0774 15.7393C84.1657 16.2563 103.534 35.9449 103.534 60.1573C103.534 84.6945 83.6425 104.586 59.1054 104.586C37.6455 104.586 19.7392 89.3707 15.5855 69.1395L0.434761 72.1984C6.00804 99.4991 30.1581 120.039 59.1054 120.039C92.1772 120.039 118.987 93.2291 118.987 60.1573C118.987 27.4101 92.7009 0.802368 60.0774 0.283203V15.7393Z" fill="#FFECD4"/>
<path d="M48.0208 48.1446L43.8484 58.4365H46.4755V59.7655H43.323L39.2742 69.7793H36.709L40.7577 59.7655H37.8525V58.4365H41.2832L44.7756 49.8445H33.4638V48.1446H48.0208ZM61.6893 62.9489H64.6255V64.587H61.6893V69.7793H59.1859V64.587H49.883L60.5458 48.1446H61.6893V62.9489ZM52.2937 62.9489H59.1859V52.2861L52.2937 62.9489ZM67.7123 52.657C67.7123 52.1419 67.7947 51.5958 67.9595 51.0189C68.1244 50.442 68.3922 49.9166 68.7631 49.4427C69.134 48.9688 69.5976 48.5773 70.1539 48.2682C70.7308 47.9386 71.4211 47.7737 72.2246 47.7737C73.0282 47.7737 73.7185 47.9386 74.2954 48.2682C74.8723 48.5773 75.3462 48.9688 75.7171 49.4427C76.088 49.9166 76.3558 50.442 76.5207 51.0189C76.6855 51.5958 76.7679 52.1419 76.7679 52.657C76.7679 53.3163 76.6546 53.9551 76.428 54.5732C76.2219 55.1707 75.9128 55.6961 75.5008 56.1494C75.1093 56.6027 74.6354 56.9633 74.0791 57.2312C73.5227 57.499 72.9046 57.633 72.2246 57.633C71.5447 57.633 70.9266 57.499 70.3702 57.2312C69.8139 56.9633 69.34 56.6027 68.9485 56.1494C68.5571 55.6961 68.248 55.1707 68.0213 54.5732C67.8153 53.9551 67.7123 53.3163 67.7123 52.657ZM69.7212 52.657C69.7212 53.3987 69.8036 54.0272 69.9685 54.5423C70.1333 55.0368 70.3393 55.4386 70.5866 55.7476C70.8338 56.0567 71.1017 56.2834 71.3902 56.4276C71.6992 56.5512 71.9774 56.613 72.2246 56.613C72.4925 56.613 72.7707 56.5512 73.0591 56.4276C73.3476 56.2834 73.6154 56.0567 73.8627 55.7476C74.11 55.4386 74.316 55.0368 74.4808 54.5423C74.6457 54.0272 74.7281 53.3987 74.7281 52.657C74.7281 52.2243 74.6869 51.7813 74.6045 51.328C74.522 50.8747 74.3881 50.4626 74.2027 50.0917C74.0172 49.7208 73.7597 49.4221 73.43 49.1954C73.1209 48.9482 72.7192 48.8245 72.2246 48.8245C71.7507 48.8245 71.349 48.9482 71.0193 49.1954C70.7102 49.4221 70.4527 49.7208 70.2466 50.0917C70.0612 50.4626 69.9272 50.8747 69.8448 51.328C69.7624 51.7813 69.7212 52.2243 69.7212 52.657ZM77.8497 65.2669C77.8497 64.7312 77.9321 64.1749 78.0969 63.598C78.2618 63.0004 78.5296 62.4647 78.9005 61.9908C79.2714 61.4963 79.7453 61.0945 80.3222 60.7854C80.8991 60.4764 81.5894 60.3218 82.393 60.3218C83.1965 60.3218 83.8868 60.4764 84.4637 60.7854C85.0406 61.0945 85.5145 61.4963 85.8854 61.9908C86.2563 62.4647 86.5242 63.0004 86.689 63.598C86.8538 64.1749 86.9362 64.7312 86.9362 65.2669C86.9362 65.9057 86.8229 66.5238 86.5963 67.1213C86.3902 67.6982 86.0812 68.2134 85.6691 68.6667C85.2776 69.0993 84.8037 69.4496 84.2474 69.7175C83.691 69.9853 83.0729 70.1193 82.393 70.1193C81.713 70.1193 81.0949 69.9853 80.5386 69.7175C79.9822 69.4496 79.498 69.0993 79.0859 68.6667C78.6945 68.2134 78.3854 67.6982 78.1587 67.1213C77.9527 66.5238 77.8497 65.9057 77.8497 65.2669ZM79.8895 65.2669C79.8895 66.0087 79.9719 66.6268 80.1368 67.1213C80.3016 67.6158 80.5076 68.0176 80.7549 68.3267C81.0228 68.6357 81.3009 68.8521 81.5894 68.9757C81.8778 69.0993 82.1457 69.1612 82.393 69.1612C82.6402 69.1612 82.9081 69.0993 83.1965 68.9757C83.5056 68.8521 83.7838 68.6357 84.031 68.3267C84.2783 68.0176 84.4843 67.6158 84.6491 67.1213C84.814 66.6268 84.8964 66.0087 84.8964 65.2669C84.8964 64.8136 84.8552 64.35 84.7728 63.8761C84.711 63.4022 84.577 62.9798 84.371 62.6089C84.1855 62.2381 83.928 61.9393 83.5983 61.7126C83.2893 61.4654 82.8875 61.3418 82.393 61.3418C81.9191 61.3418 81.5173 61.4654 81.1876 61.7126C80.8785 61.9393 80.621 62.2381 80.4149 62.6089C80.2295 62.9798 80.0956 63.4022 80.0131 63.8761C79.9307 64.35 79.8895 64.8136 79.8895 65.2669ZM84.2474 47.7737L72.2865 70.1502H70.463L82.3621 47.7737H84.2474Z" fill="#FFECD4"/>
</svg>
