<svg width="131" height="132" viewBox="0 0 131 132" fill="none" xmlns="http://www.w3.org/2000/svg">
<path d="M119.329 65.8601C119.329 36.0077 95.0004 11.7622 64.9332 11.7622C34.866 11.7622 10.5371 36.0077 10.5371 65.8601C10.5371 95.7125 34.866 119.958 64.9332 119.958C95.0004 119.958 119.329 95.7125 119.329 65.8601Z" stroke="#1A728B" stroke-width="10.6074"/>
<path fill-rule="evenodd" clip-rule="evenodd" d="M65.8272 17.0685C92.5417 17.6327 113.885 39.3352 113.885 65.8514C113.885 92.7197 91.9712 114.646 64.7603 114.646C40.9756 114.646 21.2382 97.8935 16.645 75.7316L0.000610352 79.0752C6.15207 109.059 32.8085 131.617 64.7603 131.617C101.264 131.617 130.857 102.173 130.857 65.8514C130.857 29.8843 101.839 0.660801 65.8272 0.09375V17.0685Z" fill="#2C5E4F"/>
<path d="M52.4311 53.0055L47.8487 64.3088H50.7339V65.7683H47.2717L42.825 76.7661H40.0077L44.4543 65.7683H41.2636V64.3088H45.0314L48.867 54.8724H36.4436V53.0055H52.4311ZM67.4428 69.2645H70.6674V71.0636H67.4428V76.7661H64.6933V71.0636H54.4762L66.1868 53.0055H67.4428V69.2645ZM57.1239 69.2645H64.6933V57.5539L57.1239 69.2645ZM74.0576 57.9613C74.0576 57.3955 74.1481 56.7959 74.3291 56.1622C74.5101 55.5286 74.8043 54.9516 75.2116 54.4311C75.619 53.9106 76.1281 53.4807 76.7391 53.1413C77.3727 52.7792 78.1308 52.5982 79.0133 52.5982C79.8959 52.5982 80.654 52.7792 81.2876 53.1413C81.9212 53.4807 82.4417 53.9106 82.849 54.4311C83.2563 54.9516 83.5505 55.5286 83.7315 56.1622C83.9126 56.7959 84.0031 57.3955 84.0031 57.9613C84.0031 58.6854 83.8786 59.3869 83.6297 60.0658C83.4034 60.722 83.064 61.2991 82.6114 61.7969C82.1814 62.2948 81.661 62.6908 81.05 62.9849C80.439 63.2791 79.7601 63.4262 79.0133 63.4262C78.2666 63.4262 77.5877 63.2791 76.9767 62.9849C76.3657 62.6908 75.8453 62.2948 75.4153 61.7969C74.9853 61.2991 74.6459 60.722 74.397 60.0658C74.1707 59.3869 74.0576 58.6854 74.0576 57.9613ZM76.2639 57.9613C76.2639 58.7759 76.3544 59.4661 76.5354 60.0318C76.7165 60.5749 76.9428 61.0162 77.2143 61.3556C77.4859 61.6951 77.7801 61.944 78.0969 62.1024C78.4363 62.2382 78.7418 62.3061 79.0133 62.3061C79.3075 62.3061 79.613 62.2382 79.9298 62.1024C80.2466 61.944 80.5408 61.6951 80.8124 61.3556C81.0839 61.0162 81.3102 60.5749 81.4912 60.0318C81.6723 59.4661 81.7628 58.7759 81.7628 57.9613C81.7628 57.4861 81.7175 56.9995 81.627 56.5017C81.5365 56.0038 81.3894 55.5513 81.1857 55.1439C80.9821 54.7366 80.6992 54.4085 80.3371 54.1596C79.9977 53.888 79.5564 53.7522 79.0133 53.7522C78.4929 53.7522 78.0516 53.888 77.6895 54.1596C77.3501 54.4085 77.0672 54.7366 76.8409 55.1439C76.6373 55.5513 76.4902 56.0038 76.3997 56.5017C76.3092 56.9995 76.2639 57.4861 76.2639 57.9613ZM85.1911 71.8103C85.1911 71.222 85.2816 70.611 85.4627 69.9774C85.6437 69.3211 85.9379 68.7328 86.3452 68.2123C86.7525 67.6692 87.273 67.2279 87.9066 66.8885C88.5402 66.549 89.2983 66.3793 90.1808 66.3793C91.0634 66.3793 91.8215 66.549 92.4551 66.8885C93.0887 67.2279 93.6092 67.6692 94.0165 68.2123C94.4238 68.7328 94.718 69.3211 94.899 69.9774C95.0801 70.611 95.1706 71.222 95.1706 71.8103C95.1706 72.5118 95.0461 73.1907 94.7972 73.8469C94.5709 74.4806 94.2315 75.0463 93.7789 75.5441C93.3489 76.0194 92.8285 76.404 92.2175 76.6982C91.6065 76.9924 90.9276 77.1395 90.1808 77.1395C89.4341 77.1395 88.7552 76.9924 88.1442 76.6982C87.5332 76.404 87.0014 76.0194 86.5489 75.5441C86.1189 75.0463 85.7795 74.4806 85.5305 73.8469C85.3043 73.1907 85.1911 72.5118 85.1911 71.8103ZM87.4314 71.8103C87.4314 72.625 87.5219 73.3038 87.7029 73.8469C87.884 74.39 88.1103 74.8313 88.3818 75.1708C88.676 75.5102 88.9815 75.7478 89.2983 75.8836C89.6151 76.0194 89.9093 76.0872 90.1808 76.0872C90.4524 76.0872 90.7466 76.0194 91.0634 75.8836C91.4028 75.7478 91.7083 75.5102 91.9799 75.1708C92.2514 74.8313 92.4777 74.39 92.6587 73.8469C92.8398 73.3038 92.9303 72.625 92.9303 71.8103C92.9303 71.3125 92.885 70.8033 92.7945 70.2829C92.7266 69.7624 92.5795 69.2985 92.3532 68.8912C92.1496 68.4838 91.8667 68.1557 91.5046 67.9068C91.1652 67.6352 90.7239 67.4995 90.1808 67.4995C89.6604 67.4995 89.2191 67.6352 88.857 67.9068C88.5176 68.1557 88.2347 68.4838 88.0084 68.8912C87.8048 69.2985 87.6577 69.7624 87.5672 70.2829C87.4767 70.8033 87.4314 71.3125 87.4314 71.8103ZM92.2175 52.5982L79.0812 77.1734H77.0785L90.1469 52.5982H92.2175Z" fill="#2C5E4F"/>
</svg>
